<svg xmlns="http://www.w3.org/2000/svg" viewBox="0 0 180 191.42931" height="191.429" width="180"><defs><clipPath id="a"><path d="M0 425.197h425.197V0H0v425.197z"/></clipPath></defs><g clip-path="url(#a)" transform="matrix(.635 0 0 -.635 -45 230.714)"><path d="M180.904 359.494c1.086 3.359-1.024 5.838-5.115 1.576-15.997-16.667-18.663-47.539-13.948-60.978.183-.523.845-1.824.186-2.246-.678-.435-1.345.569-2.216 2.06-3.982 6.823-6.145 22.036-4.137 32.288.085.435.16.897.006 1.313-.346.938-1.578.721-2.035.084-12.677-17.704-12.004-50.321 7.133-70.027 10.022-10.319 18.374-17.884 26.803-27.528 6.011-6.878 11.778-14.159 16.02-22.286 3.254-6.233 5.461-13.008 5.773-20.068.141-3.23-.355-6.356-1.168-9.483-.163-.629-.193-1.57.426-1.906 2.462-1.338 10.46 10.126 10.674 32.402.112 11.594-3.21 23.056-7.702 33.683-4.114 9.732-9.49 18.952-15.857 27.382-20.6 27.276-26.294 48.314-14.843 83.734" fill="#00ab8e"/><path d="M278.25 298.221c5.539 1.23 11.01.935 16.352-.85 9.931-3.319 22.632-17.954 35.044-17.879 0 0 3.185.274.975-1.724s-16.12-14.463-46.004-10.908c-25.336 3.013-38.491-9.94-39.238-10.322-.9-.46-1.995.161-1.715 1.45.696 3.205 8.216 21.43-.391 45.47-11.677 32.62 13.63 46.012 14.639 45.453 1.009-.559-4.125-7.248 11.766-26.69 5.83-7.133 9.577-15.293 8.572-24" fill="#e03c31"/><path d="M293.228 254.002c.187 1.075.042 2.085-.413 2.601-.613.694-7.484.78-9.476.748-3.232-.052-5.846-.47-9.063-.8-6.358-.653-12.618-2.13-18.403-4.894-11.515-5.5-19.557-13.94-23.62-26.159-3.965-11.929-2.505-45.135-19.748-49.135-4.614-1.069-14.737 2.67-15.713 1.46-.975-1.21 6.596-8.388 8.544-12.379 1.948-3.99 2.67-13.104 4.517-13.138 1.423-.026 2.387 8.102 11.759 18.38 5.489 6.02 16.67 9.9 23.754 13.587 3.936 2.05 7.919 4.04 11.752 6.281 4.277 2.502 8.735 6.272 12.187 10.885-1.006-.783-.205-5.189 2.913-3.959 1.584.624 2.719 2.618 4.245 5.536 4.405 8.421 14.013 35.156 16.766 50.986" fill="#a05eb5"/><path d="M198.47 204.326c-2.512 6.03-6.255 11.51-10.275 16.634-5.328 6.783-11.495 12.848-17.688 18.832-6.51 6.29-13.193 12.404-19.535 18.862-9.141 9.307-12.402 15.564-16.74 26.625-1.461 3.727-4.001 6.887-7.17 9.306-1.81 1.382-3.642 2.736-5.46 4.108-1.022.771-2.11 1.475-3.027 2.355-.746.716-1.72.808-2.194-.113-3.94-7.639.379-13.99 3.644-20.719a34.475 34.475 0 0 0 1.547-3.736c3.012-8.649.736-28.776.758-33.433.073-15.28 10.809-27.283 13.446-29.895 5.313-5.263 10.743-8.395 12.129-6.997.684.691.249 2.362-1.006 4.51a83.128 83.128 0 0 1 7.18-2c7.362-1.704 14.71-3.72 21.772-6.428 8.153-3.128 14.066-7.937 20.844-13.37.869-.698 2.88-2.775 3.969-2.537 2.658.583-.158 13.113-2.193 17.995" fill="#485cc7"/><path d="M220.536 342.596c5.994 2.792 19.034-20.9 8.06-28.05-10.977-7.149-1.577-18.716 4.152-18.88 12.994-.372-4.625-13.179-.664-22.5 8.565-20.16-5.175-39.714-8.83-39.328 2.88 27.295-21.51 44.403-17.553 50.108 1.7 2.452 5.931 1.386 7.294.962a.573.573 0 0 1 .666.257c5.753 10.305-12.76 20.167-18.84 21.321-7.216 1.37-9.326 9.043-8.837 14.05.49 5.005 6.247 9.516 10.64 1.675 2.5-4.466 10.74-10.363 13.964-12.56.812-.555 1.912-.13 2.176.817 2.251 8.097-16.455 22.752-20.196 27.621-5.07 6.598-.254 16.677 11.634 12.057 10.245-3.98 7.75-28.993 12.842-28.605 6.42.49-5.023 17.09 3.492 21.055" fill="#f1be48"/><path d="M157.472 344.314c1.868-.9-1.151-1.933-1.816-2.209-.914-.38-12.477-6.146-17.62-21.609-3.38-10.159-1.815-18.06-3.273-18.093-2.057-.045-7.5 5.646-13.24 6.174-8.04.74-16.053-3.039-21.312-8.527-6.835-7.133-3.955 24.154 24.646 21.374 5.088 28.962 24.416 24.748 26.536 24.612 1.78-.115 4.318-.872 6.079-1.722" fill="#00a3e0"/><path d="M119.491 125.902l-5.85 15.12-.778 2.383-.777-2.382-5.593-15.121h12.998zm7.976-12.274c-.518-.31-1.087-.414-1.812-.414-.363 0-.88 0-1.296.104l-3.884 10.098h-14.914l-3.728-10.046a5.009 5.009 0 0 0-1.192-.156c-.57 0-1.243.104-1.813.414l12.637 32.988c.466.155.984.208 1.502.208s.983-.053 1.45-.208l13.05-32.988zM153.1 137.554v-22.631c-2.59-1.14-5.852-2.227-10.617-2.227-6.887 0-10.046 3.781-10.046 9.529v15.329c.466.104.984.154 1.45.154.518 0 .985-.05 1.45-.154v-14.139c0-4.816 1.502-8.026 7.82-8.026 2.744 0 5.024.569 7.043 1.397v20.768a6.872 6.872 0 0 0 2.9 0M159.675 115.751c.312.932.829 1.657 1.657 2.123 1.295-1.088 3.47-2.537 7.354-2.537 4.868 0 6.888 2.02 6.888 4.608 0 2.59-1.605 3.885-6.836 4.713-4.868.726-8.441 2.331-8.441 6.784 0 4.091 3.625 6.94 9.218 6.94 3.935 0 6.836-1.243 8.182-2.228-.156-.879-.57-1.605-1.243-2.226-1.812 1.088-3.987 1.865-7.198 1.865-3.988 0-6.111-1.554-6.111-4.04 0-2.537 1.813-3.573 6.11-4.298 5.647-.933 9.167-2.59 9.167-7.199 0-4.557-3.677-7.457-9.736-7.457-4.61 0-7.612 1.71-9.011 2.952M200.534 115.027c-.983-.828-3.21-2.228-6.369-2.228-4.144 0-7.665 2.176-7.665 7.82v14.605h-4.247a4.72 4.72 0 0 0-.155 1.19c0 .415.052.777.155 1.14h4.247v6.629c.415.103.932.155 1.397.155.52 0 .985-.052 1.4-.155v-6.63h9.788a4.65 4.65 0 0 0 .155-1.138 4.72 4.72 0 0 0-.155-1.191h-9.788v-13.88c0-4.763 2.433-6.006 5.075-6.006 2.175 0 3.728.983 4.868 1.76.725-.517 1.14-1.244 1.294-2.071M218.969 135.068c-1.294.362-2.693.569-4.557.569-2.59 0-4.92-.724-6.37-1.657v-20.61a6.207 6.207 0 0 0-1.45-.156c-.466 0-.984.052-1.45.156v21.906c1.969 1.605 5.437 3.106 9.529 3.106 2.123 0 3.625-.258 5.024-.776.05-.881-.208-1.865-.726-2.538M232.38 115.337c3.006 0 5.439.57 7.097 1.243v7.25c-1.865.984-4.506 1.76-7.406 1.76-4.298 0-6.836-1.76-6.836-4.816 0-3.21 2.382-5.437 7.146-5.437m9.892 13.88v-14.242c-2.538-1.4-6.63-2.228-9.943-2.228-6.836 0-10.047 3.315-10.047 7.82 0 4.972 4.247 7.613 9.788 7.613 3.107 0 5.593-.725 7.406-1.606v2.537c0 4.507-2.901 6.578-7.302 6.578-3.211 0-5.541-1.088-7.302-2.382a2.678 2.678 0 0 0-1.45 1.917c1.19 1.138 4.35 3.158 8.855 3.158 5.54 0 9.995-2.589 9.995-9.166M250.505 113.37v34.074c.466.104.933.155 1.397.155.467 0 1.037-.05 1.45-.155V113.37c-.413-.104-.983-.155-1.45-.155-.464 0-.931.051-1.397.155M262.312 113.37v24.338c.467.155.984.207 1.45.207.466 0 .984-.052 1.399-.207V113.37a6.075 6.075 0 0 0-1.398-.155c-.467 0-.984.051-1.451.155m-.881 31.59c0 1.242 1.036 2.278 2.332 2.278 1.242 0 2.227-1.036 2.227-2.279 0-1.294-.985-2.278-2.227-2.278-1.244 0-2.332.984-2.332 2.278M282.041 115.337c3.004 0 5.437.57 7.095 1.243v7.25c-1.865.984-4.505 1.76-7.406 1.76-4.298 0-6.835-1.76-6.835-4.816 0-3.21 2.382-5.437 7.146-5.437m9.892 13.88v-14.242c-2.538-1.4-6.629-2.228-9.944-2.228-6.836 0-10.047 3.315-10.047 7.82 0 4.972 4.247 7.613 9.788 7.613 3.107 0 5.593-.725 7.406-1.606v2.537c0 4.507-2.9 6.578-7.302 6.578-3.211 0-5.541-1.088-7.302-2.382-.829.414-1.295 1.138-1.45 1.917 1.19 1.138 4.35 3.158 8.855 3.158 5.541 0 9.996-2.589 9.996-9.166M320.932 128.542V113.37a6.93 6.93 0 0 0-1.45-.155c-.466 0-.984.052-1.45.155v14.345c0 5.023-2.28 7.974-7.82 7.974-3.211 0-6.008-1.19-7.457-2.122V113.37a6.94 6.94 0 0 0-1.45-.155c-.467 0-.984.052-1.45.155v21.491c2.175 1.71 6.058 3.522 10.72 3.522 7.25 0 10.357-4.403 10.357-9.84M101.68 95.631V62.487c-.467-.102-.934-.206-1.4-.206-.518 0-.93.104-1.449.206v24.237l.206 3.521-.569-1.5L87.8 65.697a6.833 6.833 0 0 0-1.347-.154c-.362 0-.776.052-1.294.154L74.076 88.796l-.569 1.346.155-3.418V62.487c-.415-.102-.933-.206-1.398-.206-.466 0-.88.104-1.398.206V95.58c.466.206 1.087.363 1.863.363.311 0 .623-.053.985-.157l12.324-25.53.623-1.502.57 1.502 11.703 25.53c.31.052.57.104 1.036.104.518 0 1.087-.104 1.71-.259M119.18 64.456c3.004 0 5.438.57 7.095 1.242v7.25c-1.864.985-4.505 1.761-7.405 1.761-4.298 0-6.836-1.76-6.836-4.816 0-3.21 2.382-5.437 7.146-5.437m9.892 13.88V64.092c-2.538-1.399-6.629-2.227-9.944-2.227-6.835 0-10.046 3.315-10.046 7.82 0 4.971 4.247 7.613 9.788 7.613 3.106 0 5.593-.725 7.405-1.606v2.537c0 4.506-2.9 6.578-7.302 6.578-3.21 0-5.54-1.088-7.3-2.382a2.682 2.682 0 0 0-1.452 1.916c1.191 1.14 4.351 3.158 8.855 3.158 5.542 0 9.996-2.588 9.996-9.165M150.82 84.187c-1.295.362-2.693.569-4.558.569-2.589 0-4.92-.724-6.369-1.657V62.488a6.254 6.254 0 0 0-1.45-.155 6.95 6.95 0 0 0-1.45.155v21.906c1.968 1.605 5.437 3.106 9.53 3.106 2.121 0 3.623-.257 5.022-.776.051-.88-.207-1.864-.726-2.537M156.827 62.488v24.34c.466.155.984.207 1.45.207.465 0 .984-.052 1.398-.207v-24.34a6.127 6.127 0 0 0-1.399-.154c-.465 0-.983.05-1.449.154m-.88 31.59c0 1.243 1.035 2.279 2.33 2.279 1.243 0 2.227-1.036 2.227-2.28 0-1.293-.984-2.277-2.228-2.277-1.242 0-2.33.984-2.33 2.278M189.4 77.661V62.487a7 7 0 0 0-1.45-.154c-.467 0-.985.052-1.45.154v14.346c0 5.022-2.28 7.974-7.82 7.974-3.212 0-6.009-1.19-7.458-2.123V62.487a7.006 7.006 0 0 0-1.45-.154c-.467 0-.984.052-1.45.154V83.98c2.175 1.71 6.058 3.521 10.72 3.521 7.25 0 10.357-4.402 10.357-9.839M215.291 76.575c0 5.126-3.055 8.337-7.56 8.337-4.816 0-8.027-3.626-8.494-8.338h16.054zm2.901-2.436h-19.058c.155-5.798 3.573-9.63 9.011-9.63 4.091 0 6.215 1.551 7.665 2.692.725-.362 1.346-1.191 1.553-1.968-1.968-1.658-4.868-3.367-9.218-3.367-6.991 0-11.962 4.66-11.962 12.74 0 7.82 5.23 12.895 11.548 12.895 5.955 0 10.565-4.143 10.617-11.34 0-.779-.052-1.14-.156-2.022M258.22 86c0 4.557-3.211 7.663-9.943 7.663-2.227 0-4.297-.207-6.162-.569V77.868c1.657-.31 3.677-.414 6.213-.362 6.993 0 9.892 3.366 9.892 8.493m3.057 0c0-6.525-4.454-11.083-12.897-11.083-2.485 0-4.505.104-6.265.363V62.487c-.466-.154-.933-.206-1.45-.206-.517 0-.932.052-1.398.206v32.678c2.433.725 5.437 1.14 9.06 1.14 8.65 0 12.898-4.09 12.95-10.306M275.412 64.456c3.004 0 5.437.57 7.095 1.242v7.25c-1.864.985-4.505 1.761-7.406 1.761-4.297 0-6.835-1.76-6.835-4.816 0-3.21 2.382-5.437 7.146-5.437m9.892 13.88V64.092c-2.538-1.399-6.629-2.227-9.944-2.227-6.836 0-10.047 3.315-10.047 7.82 0 4.971 4.247 7.613 9.788 7.613 3.107 0 5.593-.725 7.406-1.606v2.537c0 4.506-2.9 6.578-7.302 6.578-3.21 0-5.54-1.088-7.302-2.382-.829.414-1.295 1.138-1.45 1.916 1.19 1.14 4.351 3.158 8.855 3.158 5.541 0 9.996-2.588 9.996-9.165M307.053 84.187c-1.295.362-2.693.569-4.558.569-2.588 0-4.92-.724-6.37-1.657V62.488a6.254 6.254 0 0 0-1.45-.155 6.94 6.94 0 0 0-1.45.155v21.906c1.969 1.605 5.438 3.106 9.53 3.106 2.122 0 3.625-.257 5.024-.776.05-.88-.208-1.864-.726-2.537M332.79 62.591a8.306 8.306 0 0 0-2.021-.258c-.465 0-.88 0-1.398.103l-10.408 11.341c-1.036-.725-2.123-1.294-3.159-1.864v-9.426a6.19 6.19 0 0 0-1.399-.154c-.467 0-.983.052-1.45.154v34.025a6.94 6.94 0 0 0 1.45.155c.466 0 .984-.052 1.399-.155V74.916c4.816 2.538 9.735 6.94 12.325 11.808.466.103.983.155 1.502.155.466 0 1.138-.103 1.554-.258-2.383-4.506-6.06-8.338-9.944-11.29l11.549-12.74zM335.584 64.87c.312.932.829 1.656 1.657 2.123 1.295-1.088 3.47-2.537 7.354-2.537 4.868 0 6.888 2.018 6.888 4.608s-1.605 3.884-6.836 4.712c-4.868.727-8.442 2.332-8.442 6.785 0 4.091 3.626 6.94 9.219 6.94 3.935 0 6.836-1.243 8.182-2.228-.156-.88-.569-1.605-1.243-2.226-1.812 1.088-3.988 1.865-7.199 1.865-3.987 0-6.11-1.554-6.11-4.04 0-2.537 1.813-3.573 6.11-4.298 5.647-.933 9.167-2.59 9.167-7.199 0-4.558-3.677-7.457-9.736-7.457-4.609 0-7.612 1.71-9.011 2.951" fill="#001e62"/></g></svg>