<svg width="119" height="118" viewBox="0 0 119 118" xmlns="http://www.w3.org/2000/svg" xmlns:xlink="http://www.w3.org/1999/xlink"><title>stamp-world-heritage-listed</title><defs><path id="a" d="M.674 8h6.274V.924H.674V8z"/></defs><g fill="none" fill-rule="evenodd"><path d="M68.9 96.495v-.023l-.022-14.544-.123-.061 22.688-22.686-32.379-32.375-32.372 32.375 23.16 23.161-.013 14.108c-16.892-4.289-29.39-19.596-29.39-37.818 0-21.548 17.467-39.018 39.022-39.018 21.547 0 39.014 17.47 39.014 39.018 0 18.986-12.932 33.728-29.586 37.863M59.03 12.693c-25.506 0-46.187 20.68-46.187 46.186 0 23.208 17.122 42.415 39.422 45.688.461.116.888.166 1.275.162 2.277-.019 3.321-1.867 3.321-3.418V78.695l-.014-.057-19.63-19.633L59.3 36.921l22.084 22.084-19.609 19.602.095-.075V101.147c0 2.471 1.477 3.975 3.572 3.485 22.32-3.25 39.773-22.524 39.773-45.753 0-25.506-20.679-46.186-46.185-46.186M7.852 32.358c.406-.8 1.297-1.135 2.125-.708.84.43 1.088 1.345.678 2.148-.41.796-1.295 1.122-2.135.692-.827-.427-1.077-1.333-.668-2.132M1.227 46.274l.084-.35 3.901-.331a43.076 43.076 0 0 1 1.946-.12l.006-.02a34.255 34.255 0 0 1-1.65-1.037l-3.26-2.165.091-.345 7.402-.635-.26 1.017-3.366.292c-.482.047-1.078.105-1.66.1l-.005.022c.508.287.997.603 1.41.878l2.81 1.86-.22.87-3.363.292c-.47.038-1.074.075-1.657.082l-.004.02c.503.274 1.024.63 1.408.887l2.81 1.872-.239.932-6.184-4.121zM6.368 54.17c.115-1.27-.732-2.675-2.433-2.823-1.705-.153-2.796 1.078-2.908 2.351-.11 1.255.745 2.678 2.45 2.827a2.595 2.595 0 0 0 2.89-2.355m-6.245-.549c.162-1.837 1.67-3.532 3.905-3.332 2.209.193 3.412 2.125 3.249 3.962-.16 1.833-1.68 3.524-3.89 3.332-2.237-.197-3.426-2.129-3.264-3.962M.431 65.689l6.81-1.185.178 1.038-5.92 1.027.517 3-.884.155zM6.178 60.621l-.094-.96-2.091.209.095.96c.06.615.438 1.151 1.163 1.082.713-.073.987-.674.927-1.29zM.401 63.394l2.805-2.465-.098-.971-3.019.302-.102-1.039 6.875-.682.216 2.178c.099.97-.417 2.133-1.72 2.26-.917.09-1.556-.391-1.89-1.032L.52 64.612l-.12-1.218zM7.523 71.288l-.22-.87-4.98 1.273.225.873c.386 1.51 1.492 2.558 3.197 2.12 1.7-.433 2.169-1.885 1.778-3.395m-5.792 1.67L1.206 70.9l6.7-1.715.526 2.061c.477 1.865-.258 3.924-2.424 4.48-2.161.55-3.795-.9-4.277-2.769M6.11 85.13l2.75-1.248-1.472-3.244-2.752 1.244-.43-.952 6.29-2.85.433.951-2.72 1.24 1.466 3.238 2.722-1.23.433.955-6.289 2.851zM7.523 87.833l5.935-3.535 1.907 3.2-.772.461-1.37-2.298-1.795 1.071 1.149 1.925-.773.457-1.146-1.924-1.826 1.083 1.562 2.624-.77.464zM16.474 90.593l-.575-.77-1.686 1.255.577.772c.369.495.969.76 1.552.325.573-.426.502-1.084.132-1.582zm-3.521 5.352l1.132-3.556-.583-.783-2.43 1.813-.62-.834 5.537-4.124 1.305 1.752c.583.78.739 2.044-.308 2.823-.74.553-1.532.464-2.152.092l-1.15 3.799-.731-.982zM14.518 97.784l5.186-4.56.688.79-5.178 4.56zM22.604 97.565l-4.184 4.312-.76-.73 4.189-4.312-1.592-1.549.627-.647 3.941 3.826-.628.643zM25.354 102.198c.063-.242.182-.564.297-.846l-.017-.013c-.24.18-.539.36-.758.478l-1.587.895 1.543 1.234.522-1.748zm-1.292 4.488l.529-1.865-2.102-1.678-1.701.934-.803-.643 6.68-3.646.294.236-2.069 7.32-.828-.658zM28.844 109.999c-1.59-.973-2.583-3.043-1.362-5.041 1.255-2.043 3.592-2.02 5.06-1.121.816.498 1.352 1.1 1.619 1.639l-.644.675a3.638 3.638 0 0 0-1.344-1.474c-1.156-.707-2.844-.698-3.786.843-.935 1.526-.214 2.999.986 3.737.545.334 1.04.484 1.437.459l.755-1.23-1.362-.833.444-.72 2.21 1.355-1.471 2.39c-.837.11-1.664-.144-2.542-.68M32.795 112.06l2.916-6.269 3.378 1.576-.379.811-2.427-1.129-.882 1.895 2.031.95-.376.811-2.034-.945-.898 1.926 2.772 1.287-.379.817zM44.874 115.081c-.87-.229-1.39-1.023-1.152-1.926.237-.914 1.081-1.353 1.948-1.123.871.227 1.383 1.024 1.142 1.936-.236.896-1.07 1.342-1.938 1.113M55.678 111.184l-.854-.063-.155 2.097.853.06c.618.051 1.215-.233 1.268-.955.052-.714-.495-1.093-1.112-1.138m-.037 3l-1.04-.079-.227 3.026-1.037-.08.517-6.895 2.075.153c.973.072 2.027.782 1.93 2.091-.097 1.309-1.245 1.853-2.218 1.784" fill="#A22816"/><g transform="translate(57 109.413)"><mask id="b" fill="#fff"><use xlink:href="#a"/></mask><path d="M4.007 3.62c-.1-.23-.215-.55-.31-.839h-.02a7.11 7.11 0 0 1-.277.852l-.643 1.7 1.968-.04-.718-1.674zm1.877 4.272L5.102 6.12l-2.69.055-.71 1.806L.674 8 3.478.93l.376-.006L6.948 7.87l-1.064.023z" fill="#A22816" mask="url(#b)"/></g><path fill="#A22816" d="M66.459 110.894l.736 5.965-1.044.127-.732-5.964-2.203.27-.111-.892 5.446-.67.111.892zM71.281 110.009l-.935.22.482 2.044.938-.221c.6-.14 1.085-.586.918-1.295-.162-.697-.802-.891-1.403-.748zm3.512 5.36l-2.814-2.452-.948.22.691 2.956-1.01.234-1.582-6.724 2.128-.502c.953-.225 2.17.135 2.47 1.41.211.894-.182 1.59-.773 2.006l3.031 2.572-1.193.28zM77.124 114.661l-2.125-6.58 1.004-.322 2.126 6.58zM86.503 110.89l-1.542-2.725c-.233-.406-.52-.931-.746-1.386l-.021.007c.003.536-.027 1.284-.05 1.786l-.162 3.519-.354.158-2.778-2.19a48.352 48.352 0 0 1-1.35-1.12l-.02.006c.197.494.4 1.07.54 1.457l1.04 2.953-.848.383-2.308-6.54.593-.265 3.143 2.473c.477.38 1.09.875 1.517 1.259l.025-.005c-.028-.573.006-1.323.033-1.965l.193-3.987.59-.267 3.412 6.039-.907.41zM88.62 102.446c-1.064.707-1.63 2.242-.685 3.668.95 1.424 2.587 1.502 3.655.793 1.043-.695 1.62-2.246.671-3.67-.943-1.428-2.596-1.484-3.64-.79m3.47 5.216c-1.533 1.02-3.795.904-5.039-.963-1.228-1.846-.468-3.992 1.063-5.012 1.532-1.017 3.803-.888 5.033.96 1.241 1.866.475 3.997-1.057 5.015M96.571 104.196l-4.416-5.31.804-.674 4.422 5.316zM103.339 98.015l-4.796-.166a65.908 65.908 0 0 1-2.416-.14l-.006.025c.464.424.88.834 1.254 1.197l2.474 2.426-.737.754-4.933-4.84.509-.524 4.398.16c.597.024 1.532.06 2.199.126l.008-.024c-.393-.357-.82-.777-1.174-1.121l-2.335-2.292.737-.752 5.039 4.946-.221.225zM104.742 96.1l-5.463-4.22 2.276-2.944.713.551-1.636 2.113 1.652 1.276 1.367-1.772.711.549-1.365 1.773 1.675 1.293 1.863-2.411.712.548zM112.92 83.09l-2.898-1.184a33.568 33.568 0 0 1-1.443-.628l-.011.021c.332.417.773 1.02 1.064 1.431l2.05 2.867-.182.346-3.531-.004c-.515 0-1.195-.024-1.755-.044l-.011.017c.46.264.969.59 1.322.811l2.643 1.674-.427.826-5.855-3.708.297-.576h3.996c.613 0 1.4.004 1.975.052l.01-.025c-.368-.437-.81-1.04-1.185-1.563l-2.315-3.252.298-.577 6.416 2.631-.457.884zM109.358 75.152c-.4 1.213.098 2.772 1.728 3.304 1.627.535 2.966-.414 3.365-1.63.396-1.193-.112-2.776-1.738-3.31-1.627-.533-2.966.44-3.355 1.636m5.962 1.958c-.58 1.753-2.438 3.058-4.569 2.356-2.108-.695-2.833-2.85-2.258-4.599.577-1.756 2.445-3.057 4.553-2.362 2.131.705 2.85 2.856 2.274 4.605M117.897 65.93l-4.038 2.6c-.644.42-1.426.89-2.064 1.267l.01.025c.623.08 1.2.179 1.711.267l3.42.582-.178 1.038-6.813-1.162.122-.716 3.7-2.385c.51-.318 1.296-.821 1.882-1.153l-.008-.024c-.528-.064-1.118-.166-1.606-.25l-3.227-.55.176-1.036 6.968 1.189-.055.309zM112.033 61.338l-.028.897 5.133.157.034-.899c.04-1.562-.726-2.874-2.487-2.928-1.755-.05-2.606 1.211-2.652 2.773m6.026 0l-.067 2.121-6.906-.209.065-2.123c.057-1.93 1.334-3.7 3.57-3.636 2.227.071 3.4 1.918 3.338 3.847M118.032 55.81l-6.898.42-.064-1.049 6.895-.418zM113.138 50.46a9.701 9.701 0 0 1-.794.416l.004.02c.302.03.644.102.88.16l1.777.42-.3-1.948-1.567.932zm3.993-2.42l-1.655 1.009.406 2.654 1.88.47.155 1.017-7.372-1.854-.061-.375 6.484-3.968.163 1.047zM116.589 45.524l-6.688 1.77-.27-1.017 5.817-1.539-.778-2.945.87-.23zM111.245 34.537c.38.811.102 1.722-.738 2.111-.854.4-1.728.038-2.112-.778-.383-.814-.097-1.713.756-2.112.844-.389 1.716-.038 2.094.779M13.342 23.655l-.518.682 1.67 1.268.516-.683c.372-.487.457-1.141-.119-1.58-.566-.43-1.179-.175-1.549.313m2.485 1.66l-.63.825 2.408 1.826-.626.828-5.487-4.17 1.254-1.647c.59-.776 1.756-1.274 2.795-.484 1.042.793.871 2.047.286 2.822M18.253 20.462a7.117 7.117 0 0 1-.82-.355l-.014.017c.163.254.318.558.42.783l.78 1.643 1.332-1.447-1.698-.641zm4.372 1.6l-1.82-.657-1.814 1.975.807 1.756-.694.756-3.156-6.903.251-.278 7.145 2.57-.719.782zM21.248 15.192l3.996 4.474-.785.697-3.99-4.473-1.655 1.474-.598-.67 4.09-3.648.598.671zM25.438 11.848l-.782.559 1.219 1.702.783-.556c.498-.36.777-.956.356-1.545-.417-.58-1.075-.52-1.576-.16zm5.27 3.617l-3.528-1.197-.789.562 1.758 2.46-.843.604-4.01-5.606 1.776-1.271c.79-.565 2.05-.695 2.813.37.532.746.433 1.53.044 2.142l3.772 1.223-.993.713zM32.234 14.529l-3.536-5.921.902-.536 3.53 5.92zM40.384 10.39l-1.555-2.71a29.207 29.207 0 0 1-.75-1.381l-.02.007c.007.535-.02 1.282-.044 1.783l-.146 3.511-.352.164-2.78-2.173a37.017 37.017 0 0 1-1.354-1.115l-.021.012c.199.489.407 1.062.548 1.452l1.05 2.938-.843.389-2.335-6.513.586-.271 3.149 2.454c.48.373 1.102.864 1.529 1.245l.017-.005c-.028-.572.003-1.319.027-1.958l.172-3.983.587-.271 3.436 6.011-.901.414zM43.699 2.937c-1.227.347-2.241 1.62-1.783 3.267.458 1.64 1.987 2.223 3.212 1.885 1.21-.339 2.238-1.63 1.779-3.277-.456-1.64-2.002-2.207-3.208-1.875m1.674 6.022c-1.766.492-3.877-.317-4.477-2.473-.593-2.132.793-3.929 2.558-4.42 1.766-.49 3.88.328 4.474 2.464.6 2.152-.79 3.935-2.555 4.43M55.486 7.123l-3.655-3.087a73.207 73.207 0 0 1-1.808-1.594l-.02.012c.104.619.175 1.194.246 1.711l.441 3.426-1.037.132L48.77.894l.717-.095 3.348 2.834c.455.389 1.164.992 1.648 1.453l.021-.013a42.716 42.716 0 0 1-.23-1.603L53.853.233l1.038-.128.901 6.977-.307.041zM57.118 6.947L56.9.06l1.044-.034.226 6.886zM63.291.914c-1.271-.085-2.65.782-2.77 2.48-.115 1.702 1.132 2.763 2.404 2.851 1.247.088 2.65-.79 2.768-2.49.116-1.701-1.152-2.752-2.402-2.84m-.432 6.236c-1.829-.13-3.544-1.6-3.392-3.826.154-2.208 2.057-3.44 3.885-3.316 1.834.129 3.547 1.61 3.396 3.817-.153 2.23-2.054 3.448-3.889 3.325M76.152 9.627l.57-3.07c.083-.458.202-1.044.318-1.536l-.02-.006c-.336.407-.842.963-1.18 1.328L73.454 8.93l-.373-.105-.715-3.454a44.747 44.747 0 0 1-.312-1.724l-.019-.007c-.167.504-.38 1.071-.523 1.457l-1.098 2.922-.895-.248 2.431-6.477.623.176.813 3.905c.125.596.28 1.366.353 1.94l.02.002c.352-.45.854-1 1.291-1.474l2.701-2.922.625.174-1.266 6.802-.958-.269zM80.382 11.532c-1.467-.658-2.177-2.01-1.52-3.48l1.818-4.074.956.428-1.774 3.975c-.416.934-.19 1.82.91 2.307 1.09.49 1.915.074 2.335-.86l1.772-3.976.928.414-1.82 4.073c-.654 1.471-2.137 1.85-3.605 1.193M88.875 16.274l-.885-4.698a62.878 62.878 0 0 1-.392-2.378l-.025-.004a43.963 43.963 0 0 1-.891 1.484l-1.821 2.936-.889-.554 3.626-5.852.616.376.81 4.315c.108.586.275 1.504.363 2.166h.023c.255-.458.573-.966.83-1.387l1.719-2.773.888.553-3.703 5.984-.269-.168zM95.412 13.555l-.694-.568-3.25 3.958.691.57c1.203.988 2.71 1.175 3.822-.173 1.112-1.356.631-2.8-.569-3.787m-3.674 4.763l-1.639-1.35 4.38-5.327 1.638 1.346c1.484 1.22 2.108 3.314.691 5.028-1.414 1.722-3.583 1.522-5.07.303M95.345 21.495l4.84-4.907.746.736-4.84 4.907zM102.26 22.604c.11-.217.289-.511.456-.766l-.014-.017a6.131 6.131 0 0 1-.834.326l-1.724.572 1.277 1.499.84-1.614zm-2.116 4.149l.873-1.722-1.737-2.04-1.845.586-.66-.78 7.229-2.297.24.288-3.413 6.77-.687-.805zM101.17 28.136l5.697-3.874.587.867-4.955 3.373 1.708 2.509-.74.503z"/></g></svg>