<svg width="16" height="16" viewBox="0 0 16 16" xmlns="http://www.w3.org/2000/svg"><path d="M9.143 12.562a.29.29 0 0 1-.286.295H7.143a.29.29 0 0 1-.286-.295v-1.696a.29.29 0 0 1 .286-.295h1.714a.29.29 0 0 1 .286.295v1.696zm-.018-3.339c-.009.116-.143.206-.304.206H7.17c-.17 0-.304-.09-.304-.206l-.152-4.08c0-.054.027-.143.09-.188.053-.044.134-.098.214-.098h1.964c.08 0 .16.054.214.098.063.045.09.116.09.17l-.161 4.098zM9 .883a1.136 1.136 0 0 0-2 0L.143 13.456a1.143 1.143 0 0 0 1 1.688h13.714a1.143 1.143 0 0 0 1-1.688L9 .884z" fill="#8B6633" fill-rule="evenodd"/></svg>
