<svg width="13" height="13" viewBox="0 0 13 13" xmlns="http://www.w3.org/2000/svg"><title>✔︎</title><path d="M12.992 1.844c0 .609-.276 1.203-.828 1.781l-.086.086L7.25 8.797c-1.026 1.078-1.9 1.911-2.621 2.5-.721.589-1.23.883-1.527.883-.313 0-.701-.147-1.164-.441-.464-.294-.763-.598-.898-.91-.115-.26-.223-.812-.324-1.656a22.928 22.928 0 0 1-.152-2.742c0-.536.224-1.033.672-1.488.448-.456.943-.684 1.484-.684.516 0 .823.471.922 1.414l.023.242c.083.724.18 1.229.289 1.516.109.286.258.43.445.43.078 0 .224-.085.438-.254.214-.169.469-.4.766-.691l4.961-4.914c.417-.417.789-.732 1.117-.945.328-.214.607-.32.836-.32.172 0 .294.065.367.195.073.13.109.349.109.656v.258z" fill="#519E39"/></svg>