<svg width="133" height="50" viewBox="0 0 133 50" xmlns="http://www.w3.org/2000/svg"><title>logo kakadu</title><g fill="#FFF" fill-rule="evenodd"><path d="M19.737 30.429l-5.699-9.183s-.754-1.221-1.844-2.19c1.005-.885 1.76-2.022 1.844-2.15l3.646-6.36s1.425-2.443-1.048-2.443h-1.76c-.293 0-1.55-.041-2.347 1.348l-2.557 4.633c-.04.085-1.634 2.571-3.77 2.612h-1.09V2.08s0-1.897-1.844-1.897H1.886C1.634.183 0 .183 0 2.037v28.981s-.042 1.897 1.802 1.897h1.425c.335 0 1.844-.084 1.844-1.854v-9.268h1.214c1.93.042 3.563 2.064 3.73 2.317.964 1.559 4.19 8.805 6.914 8.805h1.76c2.472 0 1.048-2.486 1.048-2.486m42.903 0l-5.697-9.183s-.755-1.221-1.845-2.19c1.006-.885 1.76-2.022 1.845-2.15l3.645-6.36s1.424-2.443-1.047-2.443h-1.76c-.294 0-1.55-.041-2.347 1.348l-2.557 4.633c-.04.085-1.634 2.571-3.77 2.612h-1.09V2.08s0-1.897-1.845-1.897H44.79c-.252 0-1.885 0-1.885 1.854v28.981s-.043 1.897 1.801 1.897h1.425c.336 0 1.844-.084 1.844-1.854v-9.268h1.216c1.927.042 3.56 2.064 3.728 2.317.964 1.559 4.191 8.805 6.915 8.805h1.76c2.472 0 1.047-2.486 1.047-2.486"/><path d="M77.47 26.131c-1.508 1.56-3.184 2.444-4.484 2.444-2.765 0-5.196-1.644-5.196-7.962 0-5.35 2.22-7.624 5.196-7.624 1.425 0 2.556.59 4.485 2.402v10.74zm4.988 5.14l-.042-15.966c0-1.98-2.724-4.127-2.724-4.127-1.468-1.264-4.023-2.864-6.956-2.864-4.443 0-10.016 3.075-10.016 12.47 0 9.098 5.533 12.467 9.848 12.467 1.718 0 3.436-.674 4.903-1.6.209 1.474 1.55 1.221 1.844 1.221h1.34c1.843 0 1.803-1.6 1.803-1.6zm17.263-5.014c-1.928 1.814-3.058 2.36-4.483 2.36-2.975 0-5.196-2.36-5.196-7.666 0-6.319 2.43-7.962 5.196-7.962 1.298 0 2.974.885 4.483 2.443v10.825zM102.864.563h-1.3c-.25 0-1.843 0-1.843 1.853v7.457c-1.466-.885-3.185-1.56-4.902-1.56-4.318 0-9.849 3.37-9.849 12.47 0 9.393 5.574 12.51 10.016 12.51 2.932 0 5.49-1.558 6.956-2.821 0 0 2.723-2.19 2.723-4.17l.043-23.844s0-1.895-1.844-1.895zm24.931 9.983s0-1.896-1.843-1.896h-1.298c-.253 0-1.844.043-1.886 1.854v10.531c0 5.35-2.18 7.626-5.154 7.626-1.467 0-2.6-.548-4.485-2.404v-4.884l.042-10.827s0-1.896-1.843-1.896h-1.383c-.251 0-1.886 0-1.886 1.854v15.543c0 1.855 2.598 4.256 2.808 4.424 1.466 1.264 4.022 2.863 6.998 2.863 4.316 0 9.889-2.948 9.889-11.96l.041-10.828zM13.083 45.18l2.68-7.645 2.647 7.66-5.327-.015zm3.199-8.217c-.034-.1-.1-.168-.201-.168h-.653s-.133.016-.184.168l-4.506 12.88h.57s.133 0 .201-.169l1.373-3.922 5.711-.017 1.34 3.94c.05.152.2.167.2.167h.571l-4.422-12.879zM38.814 49.27c-1.893 0-4.004-2.424-4.004-6.262 0-3.788 2.145-5.691 4.004-5.691 1.859 0 4.003 1.903 4.003 5.691 0 3.838-2.11 6.262-4.003 6.262m0-12.592c-2.462 0-4.757 2.054-4.757 6.33 0 4.377 2.328 6.901 4.757 6.901 2.428 0 4.756-2.524 4.756-6.9 0-4.277-2.295-6.331-4.756-6.331m16.422.167c0-.067-.034-.067-.05-.067h-.638c-.033 0-.066 0-.066.067v11.6l-7.72-11.532c-.018-.018-.101-.118-.168-.118h-.603c-.017 0-.05 0-.05.068v12.896c0 .068.017.083.05.083h.636c.034 0 .051-.015.051-.067l.016-11.634 7.62 11.416a.688.688 0 0 0 .419.285h.453s.033-.015.033-.083l.017-12.914zm3.929 8.335l2.68-7.645 2.645 7.66-5.325-.015zm3.2-8.217c-.034-.1-.102-.168-.202-.168h-.654s-.134.016-.183.168l-4.506 12.88h.57s.134 0 .2-.169l1.374-3.922 5.71-.017 1.341 3.94c.05.152.2.167.2.167h.57l-4.42-12.879zm22.141 8.165H82.53c-.72 0-.97-.926-.97-.926v-6.548c0-.253.3-.337.402-.32l2.361-.017c1.893 0 3.098 1.365 3.098 3.737 0 2.678-1.29 4.074-2.915 4.074m-.083-8.366H81.93c-.052 0-1.09-.033-1.09.909v12.122s-.017.05.051.05h.62c.017 0 .05 0 .05-.067l-.017-4.648s.317.607 1.005.607h1.958c1.492 0 3.635-1.044 3.635-4.681 0-3.5-2.127-4.292-3.718-4.292M90.6 45.18l2.68-7.644 2.645 7.661-5.325-.017zm3.2-8.216c-.034-.102-.1-.17-.2-.17h-.654s-.135.018-.185.17l-4.505 12.88h.57s.133 0 .2-.17l1.375-3.922 5.709-.018 1.341 3.94c.05.152.2.17.2.17h.569l-4.42-12.88zm10.208 8.213h-3.533v-7.442c0-.32.2-.37.335-.37h3.198c1.91-.017 3.067 1.346 3.067 4.057 0 2.98-1.308 3.755-3.067 3.755m4.34 4.613l-2.681-4.294c1.507-.808 2.11-1.97 2.11-4.108 0-3.468-2.11-4.58-3.684-4.58l-3.232-.016c-.05 0-1.056-.085-1.056.993l.018 12.005s-.034.05.05.05h.57c.016 0 .049 0 .049-.067l-.017-4.042h3.719c.217 0 .434-.015.836-.067l2.445 3.856c.136.201.303.32.453.32h.436c0-.017 0-.034-.017-.05m10.143.053l-3.518-5.487c-.05-.07-.954-1.332-1.607-1.332v-.05c.653 0 1.557-1.262 1.59-1.33l2.697-4.85h-.553s-.267 0-.385.22l-2.243 4.159s-.905 1.531-2.347 1.515h-1.255v-5.843c0-.066-.016-.066-.05-.066h-.653c-.033 0-.05 0-.05.066l.017 12.931c0 .067.017.067.033.067h.653c.034 0 .05 0 .05-.067v-6.33h1.29c1.507 0 2.295 1.363 2.295 1.363l3.064 4.798c.134.236.335.236.335.236h.636zm-88.12-.087c0 .067.017.086.05.086h.636c.033 0 .05-.019.05-.069v-12.89c0-.067-.017-.086-.05-.086h-.636c-.033 0-.05.019-.05.068v12.891zm-1.602-12.96h-9.681c-.068 0-.068.016-.068.048v.642c0 .032 0 .048.068.048h4.453v12.222c0 .067.016.086.05.086h.636c.033 0 .05-.019.05-.069l.003-12.239h4.49c.063 0 .063-.016.063-.032v-.658c0-.032 0-.048-.064-.048m46.93 13.014v-.583c0-.028 0-.042-.064-.042l-6.113-.004c-.134 0-.352-.067-.352-.436l-.062-11.882c0-.068-.017-.068-.035-.068h-.652c-.033 0-.05 0-.05.068l.062 11.932c0 .723.42 1.045 1.021 1.045h6.18c.065 0 .065-.015.065-.03M9.359 36.845c0-.067-.032-.067-.05-.067h-.636c-.033 0-.067 0-.067.067v11.6L.886 36.912c-.018-.018-.1-.118-.169-.118H.116c-.018 0-.051 0-.051.068v12.896c0 .068.017.083.05.083h.638c.032 0 .049-.015.049-.067L.818 38.14 8.44 49.557a.69.69 0 0 0 .418.285h.451s.034-.015.034-.083l.016-12.914zm25.206-10.714c-1.507 1.56-3.183 2.444-4.483 2.444-2.766 0-5.196-1.644-5.196-7.962 0-5.35 2.222-7.624 5.196-7.624 1.425 0 2.556.59 4.483 2.402v10.74zm4.988 5.14l-.042-15.966c0-1.98-2.724-4.127-2.724-4.127-1.466-1.264-4.023-2.864-6.956-2.864-4.442 0-10.015 3.075-10.015 12.47 0 9.098 5.532 12.467 9.848 12.467 1.718 0 3.436-.674 4.901-1.6.21 1.474 1.552 1.221 1.845 1.221h1.34c1.845 0 1.803-1.6 1.803-1.6zm92.433-21.05a.57.57 0 0 0-.101-.356c-.068-.088-.148-.132-.24-.132h-.577c-.013 0-.02.007-.02.02v.916h.597c.228 0 .341-.149.341-.448m.315.007c0 .347-.096.582-.288.705l.235.726c.014.052.003.092-.032.118h-.224c-.044 0-.081-.028-.112-.085l-.214-.68h-.618v.66c0 .048-.03.083-.091.105h-.145c-.048 0-.078-.033-.092-.098V9.62c0-.136.075-.206.223-.211h.735a.54.54 0 0 1 .413.198c.14.154.21.36.21.62m.295.409c0-1.025-.356-1.537-1.069-1.537-.315 0-.581.121-.8.363-.263.281-.394.672-.394 1.174 0 .5.13.89.387 1.167.215.233.48.35.794.35a.938.938 0 0 0 .76-.35c.215-.264.322-.653.322-1.167m.394 0c0 .562-.125 1.022-.374 1.378-.271.378-.645.567-1.122.567-.45 0-.824-.188-1.121-.564-.298-.376-.446-.836-.446-1.381 0-.541.147-1 .443-1.375.295-.376.67-.564 1.124-.564.49 0 .868.19 1.135.567.24.347.36.805.36 1.372"/></g></svg>