<svg xmlns="http://www.w3.org/2000/svg" width="85.333" height="85.333" viewBox="0 0 80 80"><path d="M.7 40C.7 18.295 18.295.7 40 .7S79.3 18.295 79.3 40c0 21.704-17.595 39.3-39.3 39.3S.7 61.704.7 40" fill="#f2e406"/><path d="M.7 40C.7 18.295 18.295.7 40 .7S79.3 18.295 79.3 40c0 21.704-17.595 39.3-39.3 39.3S.7 61.704.7 40z" fill="none" stroke="#231f20" stroke-width="1.401"/><path d="M69.63 40c0-16.364-13.266-29.63-29.63-29.63-16.364 0-29.63 13.266-29.63 29.63h59.26" fill="#231f20"/><path d="M14.07 40h51.574c.019-1.364-.601-1.488-.973-2.356-.372-.867-2.184-3.124-2.604-3.843-.262-.449-.138-.364-.744-.495-.276-.06-.371-.124-.371-.744s.075-1.265-1.041-1.637c-1.116-.372-1.315-.719-2.183-.843-.868-.124-1.24-.248-1.86 0-.62.248-.867.124-1.487-.248-.62-.372-1.488-.743-2.48-.743-.991 0-1.735.62-2.479.371-.744-.248-.496-.371-1.116-.124-.62.248-.62-.124-1.24-.247-.62-.125-.495-.125-1.487-.125-.992 0-1.116.372-1.736-.124-.62-.495-6.942-.867-7.686-.62-.744.248-.744.496-1.116.869-.372.371-1.116-.125-1.488-.249-.371-.124-3.719-.247-4.338-.247-.62 0-1.24-.125-1.612.247-.372.372-.868.249-1.612.249-.744 0-.65-.208-1.394-.208-.744 0-1.436.133-1.457.455-.05.753.248.868-.62.744s-1.612-.248-2.232.248c-.62.496-1.115.496-1.611.496s-.992 0-1.116.62c-.124.62-.248.744-.868.992-.62.247-.744.62-.744 1.115 0 .496-.496 1.488-.868 1.86-.372.372-.867 1.86-.867 2.48 0 .62-.143 2.107-.143 2.107" fill="#f2e406"/><path d="M69.63 40c0 16.364-13.266 29.63-29.63 29.63-16.364 0-29.63-13.266-29.63-29.63h59.26" fill="#c61b34"/><path d="M10.37 40c0-16.364 13.266-29.63 29.63-29.63 16.364 0 29.63 13.266 29.63 29.63 0 16.364-13.266 29.63-29.63 29.63-16.364 0-29.63-13.266-29.63-29.63z" fill="none" stroke="#231f20" stroke-width="1.401"/><path d="M4.46 28.272l3.748.989c.477.125 1.16.433 1.362 1.45.061.375.031.79-.069 1.17-.1.38-.265.734-.456 1.003-.737.77-1.436.824-1.973.683l-3.747-.989.295-1.117 3.762.992c.347.076.903.11 1.143-.798.234-.887-.254-1.183-.597-1.273l-3.762-.992.295-1.118M5.893 24.754l4.217 1.967 1.137-2.437.873.407-1.626 3.485-5.09-2.375.489-1.047M10.754 16.661l3.168 2.233c.403.283.937.81.772 1.834-.074.372-.246.75-.473 1.072a3.174 3.174 0 0 1-.777.781c-.959.465-1.634.272-2.087-.047l-3.168-2.233.666-.944 3.18 2.24c.299.193.808.42 1.35-.35.528-.749.174-1.196-.116-1.4l-3.18-2.241.665-.945M15.061 15.546L16.2 14.45c.194-.187.346-.729-.089-1.08-.278-.289-.571-.327-.943.03l-1.127 1.085 1.02 1.06zm-2.52-.953l2.247-2.164c.422-.373 1.014-.58 1.553-.254.226.124.588.333.824.779.237.446.182.744.065 1.167.23-.04.593-.196.99.128.182.145.706.667.91.867.218.228.333.213.475.183l.145.15-.894.86a1.283 1.283 0 0 1-.474-.27c-.204-.189-.514-.51-.786-.816-.273-.261-.6-.202-.89.076l-.976.94 1.539 1.6-.833.8-3.895-4.046M21.422 7.516l2.126 3.24c.27.413.573 1.1.043 1.99-.206.32-.505.608-.833.824a3.18 3.18 0 0 1-1.01.441c-1.063.08-1.62-.347-1.924-.811l-2.126-3.24.966-.634 2.135 3.253c.207.288.598.686 1.383.17.767-.503.602-1.049.408-1.345L20.455 8.15l.967-.634M30.852 7.027l.265.765-4.12 1.427-.265-.764 4.12-1.428M34.548 2.983l1.151-.1.212 2.456 1.983-2.646 1.367-.118-2.01 2.618 2.716 2.959-1.39.12-2.014-2.278-.535.696.155 1.789-1.152.1-.483-5.596M42.876 6.296l1.433.148-.52-2.246-.913 2.098zm3.05 2.415l-1.173-.122-.268-1.159-2.069-.214-.506 1.079-1.173-.122 2.525-5.385 1.326.137 1.337 5.786M51.71 4.455l-.245.931-1.587-.418-1.185 4.501-1.118-.294 1.185-4.5-1.646-.434.245-.932 4.351 1.146M52.954 8.745l1.32.578.19-2.297-1.51 1.719zm2.17 3.229l-1.08-.473.098-1.185-1.906-.834-.81.873-1.081-.473 4.045-4.36 1.22.534-.486 5.918M64.099 11.378l-.575.773-1.317-.98-2.78 3.731-.926-.69 2.78-3.732-1.366-1.017.575-.773 3.609 2.688M67.783 14.988l-3.053 2.995a1.48 1.48 0 0 1-.979.41c-.474.023-.919-.21-1.254-.518-.346-.309-.587-.687-.666-.966-.174-.606.125-1.159.472-1.531l.457-.448.81.825-.408.399c-.148.146-.555.512-.053.959.357.308.68.175.872-.014l2.992-2.936.81.825M71.99 20.586l-3.184 2.209c-.405.28-1.083.601-1.989.095a2.888 2.888 0 0 1-.844-.812 3.176 3.176 0 0 1-.467-.998c-.107-1.06.305-1.628.761-1.944l3.185-2.21.658.95-3.197 2.218c-.282.215-.67.615-.134 1.388.522.753 1.064.574 1.355.372l3.197-2.218.659.95M74.912 26.521l-.875.4-.683-1.492-4.232 1.937-.48-1.051 4.231-1.937-.709-1.548.876-.4 1.872 4.091M72.383 30.203l.39 1.387 1.897-1.31-2.287-.077zm-1.121 3.725l-.32-1.135.98-.675-.564-2.003-1.19-.074-.318-1.135 5.936.363.362 1.283-4.886 3.376M16.358 19.646l.437-.496.499-.542.511-.53.526-.52.536-.505.55-.495.56-.48.56-.46.352.44-.552.451-.549.472-.54.485-.526.497-.516.51-.503.52-.49.533-.428.488-.427-.368M67.26 24.822l.195.354.343.653.328.662.313.67.295.674.28.682.094.241-.525.203-.092-.237-.275-.67-.29-.66-.306-.66-.323-.65-.337-.64-.19-.348.49-.274M12.88 56.224l-2.001 4.008 3.239-2.1.628.969-4.712 3.056-.62-.956 2.047-4.038-3.284 2.13-.63-.969 4.713-3.057.62.957M14.313 63.94l1.002 1.035 1.048-2.053-2.05 1.018zm.782 3.81l-.82-.847.54-1.06-1.445-1.494-1.082.5-.82-.848 5.398-2.498.927.958-2.698 5.29M22.796 66.579l-.58.769-1.31-.989-2.804 3.715-.922-.696 2.803-3.715-1.36-1.026.58-.769 3.593 2.71M21.886 72.497l-1-.58 2.813-4.861 1 .579-2.813 4.862M27.624 73.815c.47-.178.867-.674 1.1-1.237.219-.568.273-1.202.056-1.654-.173-.359-.476-.596-.82-.733-.343-.138-.726-.175-1.098-.033-.47.178-.867.674-1.1 1.236-.219.569-.273 1.202-.055 1.655.172.359.475.596.818.733.344.137.727.175 1.1.033zm.526.948c-.617.276-1.334.222-2-.044-.665-.266-1.221-.72-1.478-1.346-.283-.702-.255-1.603.06-2.39.314-.788.915-1.46 1.605-1.774.616-.276 1.333-.222 1.998.044.666.266 1.222.72 1.479 1.346.283.702.255 1.604-.06 2.391-.314.787-.915 1.46-1.604 1.773M33.298 70.885l1.556 4.2.68-3.8 1.139.204-.991 5.53-1.122-.202-1.548-4.254-.69 3.853-1.137-.203.99-5.53 1.123.202M39.911 75.113l1.441-.024-.783-2.168-.658 2.192zm3.316 2.034l-1.179.02-.403-1.12-2.08.034-.375 1.131-1.179.02 1.866-5.648 1.333-.022 2.017 5.585M45.568 71.093l.9 4.566 2.638-.52.187.945-3.773.744-1.086-5.511 1.134-.224M54.054 71.229l1.167-.56c.327-.158.373-.505.366-.698-.01-.183-.105-.54-.298-.728-.279-.277-.59-.196-.847-.073l-1.118.537.73 1.522zm-2.189-1.89l2.25-1.08c.362-.174 1.14-.547 1.88.106.425.368.717 1.1.73 1.538 0 .837-.4 1.355-1.01 1.597l-1.244.597.867 1.806-1.041.5-2.432-5.064M59.531 69.183l1.182-.825-1.86-1.36.678 2.185zm3.887-.165l-.967.674-.96-.702-1.706 1.19.321 1.147-.967.675-1.607-5.727 1.093-.763 4.793 3.506M63.753 64.365l1.098-1.136c.187-.194.32-.74-.127-1.076-.288-.279-.583-.307-.942.065l-1.087 1.124 1.058 1.023zm-2.554-.862l2.17-2.243c.407-.388.991-.616 1.542-.31.23.117.599.312.851.75.253.436.209.737.107 1.163.228-.047.585-.217.993.093.188.138.73.641.94.834.228.22.342.201.483.166l.15.145-.862.891a1.284 1.284 0 0 1-.484-.253c-.21-.182-.532-.492-.814-.787-.283-.252-.608-.18-.887.107l-.942.976 1.595 1.542-.803.83-4.039-3.904M65.311 59.012l.63-.97 2.068 1.341-.87-3.19.746-1.15.832 3.192 4.003-.325-.759 1.17-3.034.191.22.85 1.506.976-.628.97-4.714-3.055" fill="#231f20"/></svg>