<svg width="71" height="70" viewBox="0 0 71 70" xmlns="http://www.w3.org/2000/svg"><title>stamp-world-heritage-listed</title><path d="M41.466 57.243v-.014l-.013-8.628-.073-.036 13.46-13.458-19.21-19.205-19.202 19.205 13.739 13.74-.008 8.37c-10.02-2.545-17.435-11.626-17.435-22.435 0-12.783 10.362-23.147 23.149-23.147 12.782 0 23.144 10.364 23.144 23.147 0 11.263-7.672 20.008-17.551 22.46M35.61 7.53c-15.13 0-27.399 12.268-27.399 27.398 0 13.768 10.157 25.162 23.386 27.103.274.07.527.099.756.096 1.351-.01 1.97-1.107 1.97-2.027V46.683l-.008-.033L22.67 35.003l13.1-13.1 13.101 13.1L37.24 46.631l.056-.044v13.415c0 1.466.876 2.359 2.119 2.068 13.24-1.928 23.594-13.362 23.594-27.142 0-15.13-12.267-27.398-27.398-27.398M5.251 19.196c.241-.475.77-.674 1.261-.42.498.255.645.797.402 1.274-.243.472-.769.665-1.267.41-.49-.253-.639-.79-.396-1.264m-3.93 8.254l.05-.206 2.314-.197c.334-.027.692-.054 1.155-.071l.003-.012a20.321 20.321 0 0 1-.98-.616L1.93 25.064l.054-.205 4.391-.376-.154.603-1.997.173c-.286.028-.64.062-.985.06l-.002.013c.301.17.591.357.836.52l1.666 1.104-.13.517-1.994.172c-.28.023-.638.045-.983.049l-.003.012c.299.162.608.374.835.526l1.667 1.11-.141.553-3.669-2.444zm3.049 4.685a1.533 1.533 0 0 0-1.443-1.675c-1.011-.09-1.658.64-1.725 1.395a1.55 1.55 0 0 0 1.454 1.677 1.54 1.54 0 0 0 1.715-1.397m-3.706-.326c.097-1.09.992-2.095 2.317-1.976 1.31.114 2.024 1.26 1.927 2.35-.094 1.087-.996 2.09-2.307 1.977-1.327-.117-2.033-1.263-1.937-2.35m.185 7.158l4.039-.703.105.616-3.511.609.306 1.78-.524.092zm3.408-3.006l-.056-.57-1.24.124.057.57c.034.364.26.683.69.641.422-.043.585-.4.55-.765zM.831 37.607l1.664-1.463-.058-.576-1.79.18-.061-.617 4.078-.405.128 1.292c.058.576-.247 1.266-1.02 1.34-.544.054-.923-.23-1.122-.611L.902 38.329l-.07-.722zm4.225 4.683l-.13-.517-2.954.756.133.517c.229.897.885 1.518 1.896 1.258 1.01-.257 1.287-1.118 1.055-2.014m-3.436.99l-.311-1.22 3.974-1.017.312 1.222c.283 1.106-.153 2.328-1.438 2.658-1.282.326-2.251-.534-2.537-1.643m2.597 7.22l1.632-.74-.873-1.924-1.632.738-.256-.564 3.731-1.691.258.564-1.614.735.87 1.921 1.615-.73.256.567-3.73 1.692zm.839 1.605l3.52-2.097 1.132 1.898-.458.273-.812-1.363-1.066.635.682 1.142-.458.271-.68-1.14-1.084.642.927 1.556-.456.275zm5.31 1.636l-.341-.456-1 .744.342.458c.219.294.575.451.92.193.34-.253.298-.643.079-.939zm-2.089 3.175l.671-2.11-.345-.464-1.442 1.076-.367-.495 3.284-2.446.774 1.039c.346.463.439 1.213-.183 1.675-.438.328-.908.275-1.276.054L8.71 57.5l-.434-.583zm.928 1.092l3.077-2.706.408.468-3.072 2.706zm4.797-.13l-2.482 2.558-.45-.433 2.484-2.558-.944-.92.372-.383 2.338 2.27-.373.381zm1.632 2.748c.037-.144.108-.335.176-.502l-.01-.008c-.143.107-.32.213-.45.284l-.941.531.915.732.31-1.037zm-.767 2.662l.314-1.106-1.247-.995-1.009.554-.476-.382 3.962-2.163.175.14-1.228 4.343-.49-.39zm2.837 1.966c-.943-.578-1.532-1.806-.808-2.99.744-1.213 2.13-1.2 3.002-.666.484.296.802.653.96.972l-.382.4a2.158 2.158 0 0 0-.797-.874c-.686-.419-1.687-.414-2.246.5-.555.906-.127 1.78.585 2.217.323.199.617.288.852.273l.448-.73-.808-.494.264-.427 1.31.804-.872 1.418c-.497.065-.987-.086-1.508-.403m2.344 1.222l1.73-3.718 2.004.934-.225.482-1.44-.67-.523 1.124 1.205.563-.223.482-1.207-.56-.532 1.142 1.644.763-.225.484zm7.166 1.792c-.517-.135-.825-.606-.684-1.142.14-.542.642-.803 1.156-.666.517.134.82.607.677 1.148-.14.532-.635.796-1.15.66m6.41-2.311l-.507-.038-.092 1.244.506.036c.367.03.72-.138.752-.566.031-.425-.293-.65-.66-.676m-.021 1.78l-.618-.047-.134 1.795-.615-.048.307-4.09 1.23.09c.578.044 1.203.465 1.145 1.242-.057.776-.738 1.1-1.315 1.058m3.183-.684a5.969 5.969 0 0 1-.184-.497h-.011a4.218 4.218 0 0 1-.165.505l-.382 1.008 1.168-.023-.426-.993zm1.113 2.535l-.464-1.052-1.595.033-.422 1.071-.61.012 1.664-4.194.223-.004 1.835 4.12-.63.014zm2.121-3.804l.437 3.539-.62.075-.434-3.537-1.307.16-.066-.53 3.231-.397.066.53zm2.861-.524l-.555.13.286 1.212.556-.13c.356-.083.644-.348.545-.769-.096-.413-.476-.528-.832-.444zm2.083 3.18l-1.67-1.456-.562.132.41 1.753-.599.138-.938-3.988 1.262-.298c.565-.134 1.287.08 1.465.836.126.53-.108.943-.458 1.19l1.798 1.526-.708.167zm1.383-.42l-1.26-3.904.595-.191 1.26 3.903zm5.563-2.238l-.914-1.617c-.138-.24-.309-.552-.443-.822l-.012.004c.002.318-.016.762-.03 1.06l-.096 2.087-.21.094-1.648-1.298a28.683 28.683 0 0 1-.8-.665l-.012.003c.116.293.237.635.32.864l.617 1.752-.503.227-1.37-3.879.352-.157 1.865 1.467c.283.225.647.519.9.746l.014-.002c-.016-.34.004-.785.02-1.166l.114-2.365.35-.159 2.025 3.583-.539.243zm1.256-5.009a1.537 1.537 0 0 0-.406 2.176c.564.845 1.535.891 2.168.47.62-.412.96-1.332.398-2.177a1.54 1.54 0 0 0-2.16-.469m2.06 3.095c-.91.604-2.252.536-2.99-.571-.728-1.095-.277-2.368.63-2.973.91-.604 2.257-.527 2.987.568.736 1.108.281 2.372-.627 2.976m2.657-2.057l-2.62-3.15.478-.4 2.623 3.154zm4.015-3.667l-2.845-.098a38.13 38.13 0 0 1-1.433-.083l-.004.015c.275.251.523.494.744.71l1.468 1.439-.438.447-2.926-2.871.302-.31 2.609.095c.354.013.909.035 1.304.074l.005-.015c-.233-.211-.486-.46-.696-.665l-1.385-1.36.437-.445 2.99 2.934-.132.133zm.832-1.135l-3.24-2.504 1.35-1.747.423.328-.97 1.253.98.757.81-1.051.422.325-.81 1.053.994.767 1.105-1.431.422.325zm4.852-7.719l-1.72-.702a19.913 19.913 0 0 1-.856-.372l-.006.012c.197.248.458.605.631.85l1.217 1.7-.109.205-2.094-.002c-.306 0-.71-.014-1.042-.026l-.006.01c.273.157.575.35.784.481l1.568.993-.253.49-3.474-2.2.177-.341h2.37c.364 0 .83.002 1.172.03l.006-.014c-.219-.26-.48-.617-.703-.927l-1.374-1.93.177-.342 3.806 1.56-.27.525zm-2.113-4.708a1.531 1.531 0 0 0 1.025 1.96c.965.317 1.76-.246 1.996-.967a1.548 1.548 0 0 0-1.03-1.964 1.543 1.543 0 0 0-1.991.97m3.537 1.162c-.344 1.04-1.447 1.814-2.71 1.398-1.251-.412-1.681-1.691-1.34-2.728.342-1.042 1.45-1.814 2.7-1.401 1.265.418 1.69 1.694 1.35 2.731m1.528-6.632l-2.395 1.542c-.383.25-.847.529-1.225.752l.006.015c.37.048.712.106 1.016.158l2.028.345-.105.616-4.042-.69.072-.424 2.195-1.415c.302-.189.769-.487 1.116-.684l-.004-.014c-.313-.038-.663-.099-.953-.148l-1.914-.326.104-.615 4.133.705-.032.183zm-3.478-2.724l-.017.532 3.045.093.02-.533c.024-.927-.43-1.705-1.475-1.737-1.041-.03-1.546.719-1.573 1.645m3.574 0l-.04 1.258-4.096-.124.038-1.259c.034-1.146.792-2.196 2.118-2.157 1.321.042 2.017 1.138 1.98 2.282m-.016-3.279l-4.092.249-.038-.623 4.09-.247zm-2.903-3.174a5.755 5.755 0 0 1-.471.247l.002.012c.18.017.382.06.523.094l1.053.25-.177-1.156-.93.553zm2.369-1.436l-.982.599.24 1.574 1.116.28.092.602-4.373-1.1-.037-.222 3.847-2.354.097.621zm-.322-1.492l-3.967 1.05-.16-.603 3.45-.913-.461-1.747.516-.137zm-3.17-6.518c.225.481.06 1.022-.438 1.252-.506.238-1.025.023-1.253-.461-.227-.483-.057-1.016.449-1.253.5-.23 1.018-.023 1.242.462M8.508 14.032l-.307.405.99.752.307-.405c.22-.289.27-.677-.071-.937-.336-.255-.7-.104-.919.185m1.474.985l-.374.49 1.429 1.083-.371.491-3.255-2.473.744-.978c.35-.46 1.041-.756 1.658-.287.618.47.516 1.214.17 1.674m1.439-2.879a4.222 4.222 0 0 1-.487-.21l-.008.01c.096.15.188.33.249.464l.463.975.79-.858-1.007-.38zm2.593.95l-1.08-.39-1.076 1.171.479 1.042-.412.449-1.872-4.095.149-.165 4.239 1.525-.427.463zm-.817-4.076l2.37 2.654-.466.414-2.366-2.654-.982.875-.354-.398 2.426-2.164.354.398zm2.486-1.984l-.464.332.723 1.01.464-.33c.296-.214.461-.567.211-.917-.247-.343-.637-.308-.934-.095zm3.126 2.146l-2.093-.71-.468.333 1.043 1.46-.5.358-2.38-3.326 1.054-.754c.47-.335 1.217-.412 1.67.22.315.442.256.908.025 1.27l2.238.726-.59.423zm.905-.555l-2.098-3.513.535-.318L20.247 8.3zm4.835-2.455l-.923-1.608c-.139-.242-.31-.55-.445-.82l-.012.005c.005.318-.011.76-.026 1.058l-.086 2.083-.21.096L21.2 5.69a21.96 21.96 0 0 1-.803-.661l-.013.008c.118.289.242.629.325.86l.624 1.743-.501.231-1.385-3.864.347-.16L21.663 5.3c.285.222.653.513.907.74l.01-.004c-.017-.34.001-.782.016-1.162l.102-2.362.348-.161 2.038 3.566-.534.246zm1.966-4.421c-.728.205-1.33.96-1.058 1.938a1.54 1.54 0 0 0 1.906 1.118 1.543 1.543 0 0 0 1.055-1.944 1.538 1.538 0 0 0-1.903-1.112m.993 3.572c-1.047.292-2.3-.188-2.656-1.467-.351-1.265.47-2.33 1.518-2.622 1.047-.291 2.302.194 2.654 1.462.356 1.276-.468 2.334-1.516 2.627m6-1.089L31.34 2.394a42.96 42.96 0 0 1-1.073-.945l-.012.007c.062.367.104.708.146 1.015l.262 2.032-.615.078-.525-4.05.425-.057 1.987 1.681c.27.23.69.589.977.862l.013-.008c-.053-.309-.1-.66-.137-.95L32.54.138l.615-.077.535 4.14-.182.024zm.968-.106l-.13-4.084.62-.02L35.1 4.1zM38.139.542a1.533 1.533 0 0 0-1.643 1.472c-.069 1.01.671 1.638 1.426 1.691a1.542 1.542 0 0 0 1.642-1.478A1.54 1.54 0 0 0 38.139.543m-.257 3.699c-1.085-.077-2.102-.95-2.012-2.27.092-1.31 1.22-2.04 2.305-1.966 1.088.076 2.104.955 2.014 2.263-.09 1.323-1.218 2.046-2.307 1.973m7.886 1.469l.338-1.821c.05-.272.12-.62.19-.911l-.013-.004c-.2.242-.5.572-.7.788l-1.415 1.534-.221-.062-.425-2.05c-.063-.296-.13-.694-.185-1.022l-.011-.004c-.099.299-.225.635-.31.864l-.652 1.734-.53-.147L43.275.767l.37.105.481 2.316c.075.354.166.81.21 1.15l.011.002c.21-.267.507-.593.767-.874l1.602-1.734.37.104-.75 4.035-.569-.16zm2.509 1.13c-.87-.39-1.291-1.192-.9-2.064l1.077-2.417.567.254-1.052 2.358c-.247.554-.112 1.079.54 1.368.646.29 1.136.044 1.385-.51l1.051-2.358.55.245-1.08 2.416c-.387.873-1.267 1.098-2.138.708m5.039 2.813l-.525-2.787a37.3 37.3 0 0 1-.233-1.41l-.015-.003a26.08 26.08 0 0 1-.528.88l-1.08 1.742-.528-.329 2.151-3.471.366.223.48 2.56c.064.347.163.892.215 1.285h.014c.151-.272.34-.574.492-.823l1.02-1.645.527.328-2.197 3.55-.16-.1zm3.878-1.613l-.412-.337-1.929 2.348.41.338c.715.586 1.608.697 2.268-.102.66-.805.374-1.661-.337-2.247m-2.18 2.826l-.972-.801 2.598-3.16.972.798c.88.723 1.25 1.966.41 2.983-.84 1.021-2.126.903-3.008.18m2.14 1.885l2.87-2.911.443.436-2.87 2.911zm4.102.658c.065-.13.171-.304.27-.455l-.008-.01a3.637 3.637 0 0 1-.495.193l-1.023.34.758.889.498-.958zm-1.255 2.46l.517-1.021-1.03-1.21-1.095.347-.39-.462 4.287-1.363.143.17-2.025 4.018-.407-.479zm.609.82l3.379-2.297.348.514-2.94 2 1.014 1.49-.439.298z" fill="#FFF" fill-rule="evenodd"/></svg>