<svg xmlns="http://www.w3.org/2000/svg" width="129.512" height="70" viewBox="0 0 103.609 56"><defs><filter id="a" color-interpolation-filters="sRGB"><feColorMatrix values="1.38778e-16 0 0 0 1 0 1.38778e-16 0 0 1 0 0 1.38778e-16 0 1 0 0 0 1 0"/></filter></defs><g transform="matrix(.35551 0 0 .35551 8.383 4.667)" filter="url(#a)" fill="#7f1719"><path d="M107.219 114.66c0-3.96 0-4.683-.051-5.52-.055-.886-.262-1.3-1.121-1.484-.207-.054-.649-.082-1.016-.082-.289 0-.445-.047-.445-.234 0-.184.187-.23.574-.23 1.379 0 3.027.078 3.543.078 1.277 0 2.293-.079 3.176-.079 4.719 0 5.555 2.524 5.555 3.907 0 2.136-1.23 3.41-2.66 4.554 2.136.735 4.738 2.582 4.738 5.63 0 2.784-2.16 5.675-6.953 5.675-.317 0-1.067-.05-1.825-.07a29.433 29.433 0 0 0-1.953-.082c-.281 0-.86 0-1.484.023-.598 0-1.277.059-1.797.059-.34 0-.523-.082-.523-.27 0-.125.105-.203.421-.203.391 0 .7-.055.938-.11.52-.097.648-.671.754-1.429.129-1.094.129-3.152.129-5.547zm3.125.445c0 .208.078.258.183.286.235.054.63.082 1.223.082.86 0 1.434-.11 1.879-.5.676-.547 1.07-1.485 1.07-2.758 0-1.742-1.023-4.04-3.261-4.04-.364 0-.598 0-.864.052-.18.05-.23.156-.23.44zm3.441 2.083c-.55-.391-1.148-.57-2.164-.625-.465-.028-.73-.028-1.121-.028-.105 0-.156.055-.156.188v6.168c0 1.722.078 2.164.91 2.5.703.289 1.305.316 1.906.316 1.172 0 3.153-.629 3.153-3.34 0-1.61-.551-3.8-2.528-5.18M129.281 114.66c0-3.96 0-4.683-.054-5.52-.051-.886-.262-1.3-1.122-1.484-.207-.054-.648-.082-1.011-.082-.29 0-.446-.047-.446-.234 0-.184.184-.23.575-.23 1.382 0 3.02.078 3.566.078.887 0 2.867-.079 3.676-.079 1.64 0 3.383.157 4.793 1.118.73.496 1.77 1.824 1.77 3.574 0 1.926-.81 3.691-3.438 5.832 2.312 2.918 4.117 5.234 5.652 6.848 1.453 1.511 2.524 1.695 2.914 1.769.29.055.524.082.73.082.212 0 .317.078.317.203 0 .211-.187.27-.496.27h-2.477c-1.457 0-2.109-.133-2.785-.5-1.12-.598-2.113-1.825-3.57-3.828-1.04-1.43-2.242-3.204-2.578-3.598-.129-.152-.285-.18-.465-.18l-2.27-.05c-.128 0-.207.05-.207.203v.367c0 2.422 0 4.48.13 5.574.077.758.234 1.332 1.015 1.43.387.054.965.109 1.277.109.211 0 .313.078.313.203 0 .188-.188.27-.52.27-1.511 0-3.437-.082-3.832-.082-.496 0-2.133.082-3.18.082-.335 0-.515-.082-.515-.27 0-.125.105-.203.414-.203.39 0 .703-.055.934-.11.527-.097.656-.671.761-1.429.13-1.094.13-3.152.13-5.547zm3.074 2.063c0 .289.051.386.235.465.547.18 1.328.261 1.98.261 1.035 0 1.38-.105 1.848-.437.781-.582 1.535-1.778 1.535-3.91 0-3.7-2.45-4.766-3.984-4.766-.653 0-1.121.023-1.38.098-.183.054-.234.16-.234.367zm0 0M150.145 116.957c0-4.457 2.94-10.215 10.757-10.215 6.485 0 10.52 3.778 10.52 9.738 0 5.97-4.164 10.688-10.781 10.688-7.473 0-10.496-5.605-10.496-10.211m17.632.492c0-5.832-3.359-9.46-7.629-9.46-2.996 0-6.41 1.671-6.41 8.156 0 5.418 3 9.714 8 9.714 1.82 0 6.04-.882 6.04-8.41M184.29 119.246c0 3.336 0 5.129.546 5.602.441.386 1.121.57 3.152.57 1.383 0 2.399-.027 3.051-.727.309-.34.621-1.07.68-1.562.02-.234.074-.395.281-.395.184 0 .21.133.21.446 0 .289-.179 2.238-.394 2.996-.156.57-.285.703-1.636.703-1.875 0-3.235-.05-4.407-.078a64.315 64.315 0 0 0-3.175-.078c-.286 0-.86 0-1.485.023-.597 0-1.277.055-1.797.055-.34 0-.52-.078-.52-.266 0-.125.102-.203.419-.203.387 0 .695-.055.933-.11.524-.097.653-.671.754-1.429.133-1.094.133-3.148.133-5.547v-4.586c0-3.953 0-4.683-.05-5.52-.051-.886-.262-1.304-1.122-1.484-.207-.054-.523-.078-.86-.078-.284 0-.44-.05-.44-.238 0-.184.18-.23.57-.23 1.226 0 2.867.074 3.57.074.625 0 2.524-.075 3.54-.075.366 0 .546.047.546.23 0 .188-.156.24-.465.24-.285 0-.703.023-1.02.077-.699.133-.91.57-.96 1.485-.055.836-.055 1.566-.055 5.52zm0 0M216.64 125.05c0 .708-.023.763-.335.942-1.696.883-4.25 1.168-6.278 1.168-6.382 0-12.035-3.015-12.035-10.203 0-4.168 2.164-7.086 4.535-8.523 2.5-1.508 4.817-1.692 7.004-1.692 1.797 0 4.086.317 4.61.418.55.102 1.457.262 2.058.29.313.019.367.124.367.304 0 .293-.183 1.02-.183 4.277 0 .418-.078.543-.285.543-.184 0-.235-.125-.262-.332-.082-.597-.211-1.433-.887-2.164-.781-.836-2.87-2.031-5.804-2.031-1.438 0-3.34.101-5.165 1.61-1.453 1.23-2.398 3.187-2.398 6.382 0 5.606 3.57 9.797 9.066 9.797.68 0 1.59 0 2.215-.29.39-.183.496-.519.496-.964v-2.445c0-1.301 0-2.29-.027-3.07-.023-.887-.258-1.305-1.121-1.485-.207-.055-.648-.082-1.012-.082-.238 0-.394-.05-.394-.207 0-.21.18-.262.55-.262 1.356 0 2.993.078 3.774.078.809 0 2.187-.078 3.05-.078.337 0 .524.051.524.262 0 .156-.156.207-.344.207-.207 0-.39.027-.703.082-.699.125-.96.57-.984 1.484-.031.782-.031 1.817-.031 3.122zm0 0M229.117 120.004c-.129 0-.187.047-.234.207l-1.406 3.723c-.258.652-.391 1.277-.391 1.59 0 .468.234.804 1.043.804h.39c.313 0 .387.055.387.215 0 .207-.152.258-.441.258-.832 0-1.953-.078-2.754-.078-.29 0-1.723.078-3.078.078-.336 0-.496-.051-.496-.258 0-.16.101-.215.312-.215.235 0 .602-.023.809-.05 1.199-.153 1.691-1.044 2.215-2.344l6.539-16.356c.308-.758.465-1.043.726-1.043.235 0 .39.235.653.832.625 1.434 4.789 12.063 6.457 16.02.992 2.343 1.746 2.707 2.293 2.84.39.078.785.101 1.093.101.207 0 .336.028.336.215 0 .207-.23.258-1.191.258-.941 0-2.84 0-4.93-.051-.465-.027-.777-.027-.777-.207 0-.16.105-.215.363-.238.184-.055.367-.286.23-.602l-2.081-5.516c-.047-.136-.13-.183-.258-.183zm5.313-1.305c.129 0 .16-.078.129-.156l-2.34-6.434c-.028-.101-.051-.234-.133-.234-.074 0-.129.133-.156.234l-2.395 6.41c-.027.102 0 .18.102.18zm0 0M1.07 126.746a.371.371 0 0 1-.363-.367c0-.203.258-.442.52-.672 3.648-3.203 8.832-7.273 8.832-12.766 0-4.117-2.27-4.949-3.57-4.949-1.118 0-1.977.207-2.759.942-.628.593-1.097 1.82-1.097 2.5 0 .257-.074.496-.34.496-.129 0-.207-.188-.23-.496-.028-.239-.157-2.403-.157-3.157 0-.234.024-.336.313-.52 1.015-.523 2.422-.987 4.71-.987 4.587 0 6.54 2.5 6.54 5.546 0 5.055-5.598 9.457-8.957 12.137-.133.106-.082.188.05.188h1.77c.445 0 3.516-.032 4.48-.16 1.797-.208 2.657-1.094 2.97-2.32.081-.31.152-.419.312-.419.183 0 .207.238.207.496 0 .418-.496 2.84-.754 3.727-.207.703-.625.781-2.262.781zm0 0M27.09 127.191c-5.13 0-6.535-5.941-6.535-9.64 0-6.067 2.136-10.785 6.953-10.785 5.156 0 6.539 5.476 6.539 9.613 0 6.46-2.477 10.812-6.957 10.812m-.13-19.25c-1.952 0-3.358 2.684-3.358 8.618 0 4.511 1.117 9.457 3.984 9.457 2.11 0 3.414-3.567 3.414-8.621 0-4.508-1.203-9.454-4.04-9.454M40.832 126.668c1.828-.063 2.996-.117 2.996-2.313V110.91c0-.617 0-1.387-1.07-1.387-.383 0-.383 0-2.149.649v-.414l5.68-2.703.246.062v17.797c0 1.426.633 1.754 2.996 1.754v.441h-8.699zm0 0"/><path d="M149.656 83.086c.063-3.234 1.926-7.793-.578-10.676-1.488-1.703-6.281-2.937-9.226-4.324-9.426-4.45-14.954-14.242-21.637-19.617-2.738-2.2-7.324-3.64-7.504-6.926-.219-3.867 4.992-6.3 7.504-8.363 1.86-1.54 3.988-3.145 5.762-4.907 1.836-1.82 3.234-3.972 5.199-5.484 2.043-1.566 4.554-2.566 6.344-4.332 2.476-2.422 2.914-5.742 4.617-8.648 1.636-2.793 4.941-4.844 4.324-9.809-2.3 1.102-3.973 2.8-6.055 4.035-2.18 1.29-4.46 2.332-6.636 3.754-7.825 5.11-12.899 14.547-19.329 21.64-2.421 2.669-7.847 8.571-11.25 9.516-2.253.63-6.218.102-9.23 1.157-1.164.41-2.18 2.003-3.754 2.02-2.543.019-15.934-10.9-21.633-14.716-5.297-3.543-10.98-8.781-17.605-10.676-6.332-1.812-12.164-.355-18.68-2.695-2.668-.957-5.156-2.668-8.437-3.363.168 2.96-3.008 3.984-4.036 6.348-1.187 2.738-.629 6.082-2.015 9.238 2.761 11.808 19.289 22.531 23.937 25.097 4.067 2.23 7.973 3.25 13.278 4.036 7.898 1.175 15.25 1.066 21.343 1.156-1.261 2.258-3.164 4.144-6.343 6.344-2.934 2.023-9.606 3.437-7.215 7.789 4.847 1.246 10.195 1.718 15.867 1.441 1.695-1.668 3.7-3.027 4.328-5.77 1.754 4.708 3.348 9.192 2.594 15.29-.39 3.164-2.516 5.52-2.883 8.367-.668 5.27 2.855 11.328 2.883 17.308.027 5.172-1.145 8.536-2.883 13.274.54.902 2.727.16 2.598 1.73.398 3.36.183 7.32 2.308 8.946 3.492-4.457.801-10.325.285-17.309-1.234-16.934-2.195-35.516 6.348-45.008 1.652 3.7 1.387 8.824.285 13.274-.617 2.523-2.344 4.62-2.594 6.918-.203 1.824.633 3.101.868 4.906 1.18 9.039.906 19.578-3.465 25.394 2.847 1.871-.215 8.235 2.89 10.09 4.965-7.863 2.426-20.523 3.172-31.441.844-12.383 4.618-24.29 8.075-33.469 3.898-2.644 5.824-7.246 13.27-5.77 8.444 4.348 14.839 12.172 23.085 15 .66 1.649.535 1.95 1.438 5.485 1.386 1.594 3.066 2.578 4.617 4.617 1.375 1.805 1.34 1.817 2.597 4.035 1.262 3.114 2.63 6.375 4.04 8.946.449.832 1.007 2.273 2.019 2.597 1.117-5.988-2.984-11.453-2.887-16.445m-45.422-44.582c6.168-4.36 12.801-12.61 12.801-12.61C129.27 7.782 138.563 5.509 138.563 5.509c3.41-.664-4.997 3.406-7.086 5.21-2.086 1.798-11.036 12.239-12.926 16.415-1.895 4.172-10.696 10.937-10.696 10.937s2.832 3.094-.773 2.805c-3.602-.285-2.848-2.371-2.848-2.371M89.105 67.582c-.921 2.543-2.918 9.43-3.812 1.797-.902-7.637 5.164-8.531 5.164-8.531 6.512-2.473-.45 4.261-1.352 6.734m58.536 8.711c-1.141-1.992-8.703-6.129-10.407-6.41-1.714-.285-4.988-2.856-18.68-14.399-13.675-11.546-30.5-5.418-30.5-5.418-1.57-5.558-13.824-13.109-13.824-13.109s-8.382-6.45-17.296-12.305C48.539 19.141 40.922 19.996 34.793 19c-6.125-.996-10.027-3.285-11.309-4.852-1.28-1.57.57-1 .57-1 .856 1.567 9.098 3.848 11.258 4.133 4.45.59 8.27-1.14 15.68 1.856 7.41 2.992 28.793 19.383 28.793 19.383 7.656 6.066 9.133 5.734 9.133 5.734 6.984-5.414 12.785-3.113 18.809-.172 7.992 3.898 17.675 13.398 22.664 18.957 4.988 5.555 10.12 6.559 10.976 6.984.856.426 4.703 1.426 6.414 3.278 1.711 1.855.992 4.992-.14 2.992"/><path d="M68.207 106.988H56.289c-.125 1.344-.281 2.903-.562 4.617h.902c.75-2.058.937-2.34 2.996-2.34h6.742c-2.465 5.43-5.992 11.891-9.27 17.192l.22.344 2.308-.309c2.996-6.43 5.898-12.797 8.832-19.133zm0 0" stroke="#7f1719" stroke-width=".211"/></g></svg>