<svg width="247" height="52" viewBox="0 0 247 52" xmlns="http://www.w3.org/2000/svg"><g fill="none" fill-rule="evenodd"><path d="M220.888 5.65h-7.699c7.488 2.588 15.391.015 23.039.984-.18 1.738-.265 2.605 2.205 3.511-5.12-.082-12.716-1.013-17.906-.152l-.218 2.605c5.018.88 12.824-.798 17.846.152l-.373 3.476c-.094.87 2.441.906 4.974.958-2.535-.054-7.605-.13-10.137-.156l-.346 3.472c-.085.87 2.431.897 4.95.937-.184 1.737 2.127 3.514-.468 4.34l-7.504-.091c4.967.482 8.574 1.847 10.878 3.413 2.306 1.566 3.314 3.333 3.153 4.636-2.343-.924-2.65 1.683-5 .77 3.537 1.364 7.011 2.974 8.219 4.321.166.17.2.33.306.49.1.159.164.311.185.459.041.294-.085.562-.414.796-.19.238-.695.441-1.391.606-.709.164-1.649.287-2.857.37-5.262.043-36.241-3.13-104.263-.117-68.023 3.016-97.828 6.814-132.955 10.48-8.017.837-4.439-4.423-3.53-4.726 1.077-.36 2.145-.621 3.139-.99 2.472-.315-4.859-14.27 9.799-16.634 7.702-1.243-5.158-2.28-5.419-3.988-.514-3.42-1.078-6.872 8.834-10.634 1.178-.553 3.096-2.862 4.674-3.315C39.017 6.914 117.87.641 133.395.263c59.091-1.434 70.934 3.47 75.773 3.23 4.838-.24 9.332-.022 11.72 2.157z" fill="#FFF"/><path d="M36.208 30.612a31.508 31.508 0 0 1 2.594-.062c-1.812 3.327-3.207 6.432-3.115 7.749.022.31.155.83.901 1.188 1-2.91 2.25-6.028 3.564-8.91.99.05 2.149.114 3.576.23-.17 1.336-.23 2.567-.157 3.596.135 1.94.775 3.17 2.092 3.078 1.58-.11 3.058-2.019 3.837-4.647l-.256-.223c-1.076 2.505-2.051 3.704-2.889 3.763-.646.045-.934-.633-1.02-1.854-.293-4.19 1.837-13.649 2.74-14.482-.512-.445-.987-.7-1.322-.677-.311.021-.655.262-1.102.75-1.387 1.493-3.956 5.353-6.142 9.187-.63-.052-1.209-.084-1.736-.047-1.22.085-2.131.486-2.403 1.42l.838-.06zm9.885-9.69c-.828 2.272-1.782 5.827-2.256 9.036-.925-.152-2.046-.362-3.14-.526 1.949-4.13 3.975-7.496 5.396-8.51zm10.193-.448c-.047-.67-.411-1.751-.914-1.716-1.628.114-6.684 11.414-6.362 16.01.098 1.413.723 2.428 2.087 2.333 1.724-.12 3.115-1.902 4.193-4.72l-.372-.167c-.708 1.926-1.911 3.983-3.18 4.072-.694.049-1.095-.525-1.182-1.77-.05-.718.01-1.564.142-2.44 3.293-3.141 5.737-9.47 5.588-11.602zm-.898.231c.072-.005.173.06.194.372.113 1.604-2.144 7.175-4.726 10.17.994-4.713 3.886-10.496 4.532-10.542zm2.106 7.07c-1.628.115-3.104 5.15-2.977 6.97.079 1.125.74 1.969 1.984 1.882 1.868-.131 3.678-1.773 4.419-4.592l-.232-.224c-1.174 2.825-2.354 3.845-3.431 3.92-.79.056-1.193-.205-1.274-1.354-.157-2.25 2.13-5.321 2.075-6.111-.024-.336-.276-.51-.564-.49zm1.114-2.315c.766-.053 1.507-.803 1.465-1.401-.038-.55-.363-.72-.842-.687-.766.053-1.707.697-1.66 1.367.038.55.51.758 1.037.721zm11.854 5.764c-.53 1.36-1.097 1.857-1.767 1.904-1.006.07-1.197-.951-1.252-1.741-.15-2.131.657-2.645.613-3.267-.023-.335-.327-.891-.925-.85-.599.042-.991.623-.913 2.783-.85 2.297-2.41 5.437-3.583 5.52-.431.03-.58-.37-.645-1.303-.087-1.245.02-2.816-.054-3.87-.042-.598-.125-.76-.676-.722-.694.048-.7.313-.687 1.179.036 2.234.072 3.098.075 3.146.11 1.556.496 2.612 1.501 2.541 1.533-.107 3.228-2.703 4.238-5.108.325 1.541 1.12 2.256 2.174 2.182.766-.054 1.647-.524 2.23-2.177l-.329-.217zm6.564-3.852c-.082-1.173-.844-1.408-1.587-1.356-2.825.197-5.798 4.471-5.599 7.32.11 1.556 1.176 2.709 3.115 2.573 2.37-.166 4.732-2.183 5.824-5.147l-.303-.195c-1.036 2.382-3.031 4.47-5.066 4.613-1.485.103-1.964-.898-2.032-1.88a3.954 3.954 0 0 1 .035-.868c2.711-.454 5.784-2.618 5.613-5.06zm-1.607-.61c.407-.028.517.157.542.516.144 2.06-2.802 3.974-4.46 4.69.487-2.319 2.386-5.098 3.918-5.205zm24.516 2.4c-.53 1.361-1.098 1.858-1.768 1.905-1.006.07-1.197-.951-1.252-1.741-.15-2.131.657-2.645.613-3.267-.023-.335-.327-.891-.925-.85-.599.042-1.159.635-.985 3.125-.896 2.324-2.386 5.099-3.368 5.167-.383.027-.556-.394-.608-1.136-.114-1.628.043-3.852.32-5.05.017-.098.035-.196.03-.267-.025-.36-.325-.507-.732-.479-.454.032-.56.232-.806 2.222-.95 2.256-2.17 4.747-3.272 4.824-.766.054-.922-1.138-.95-1.545-.11-1.58.798-4.074 1.267-4.925-.02-.287-.751-.428-.919-.417-.718.05-1.854 3.763-1.727 5.582.092 1.317.912 2.367 1.965 2.293 1.46-.102 2.627-2.349 3.533-4.53-.044.75-.062 1.52-.017 2.167.089 1.269.45 2.302 1.455 2.232 1.46-.102 3.05-2.475 4.092-4.785.405 1.319 1.17 1.939 2.152 1.87.766-.053 1.647-.524 2.23-2.177l-.328-.217zm2.593-4.535c-1.628.114-3.104 5.149-2.977 6.968.079 1.126.74 1.97 1.984 1.883 1.868-.131 3.678-1.773 4.419-4.592l-.232-.224c-1.174 2.825-2.354 3.845-3.431 3.92-.79.056-1.193-.205-1.274-1.354-.157-2.25 2.13-5.321 2.075-6.111-.023-.336-.276-.51-.564-.49zm1.114-2.316c.766-.053 1.507-.803 1.465-1.401-.038-.55-.363-.72-.842-.687-.766.053-1.707.697-1.66 1.367.038.55.51.758 1.037.721zm4.365 2.558c1.182-3.042 2.804-5.657 2.745-6.495a.512.512 0 0 0-.54-.492c-.98.069-2.497 3.158-3.597 6.7-.456.007-.829-.159-1.07-.166l.03.43c.27.078.57.25.886.276-.662 2.235-1.182 4.774-1.084 6.186.11 1.58.908 2.319 2.297 2.221 1.94-.135 3.701-1.774 4.772-4.014-.023.362-.024.7-.004.986.09 1.27.558 2.464 1.156 2.422 1.365-.096 1.789-6.766 4.159-6.931.503-.035.931.247.99 1.085.08 1.15-.56 2.662-.49 3.667.06.862.657 1.47 1.758 1.393 1.843-.129 3.464-2.07 4.305-4.487l-.33-.266c-.813 2.15-2.39 4.017-3.468 4.092-.407.029-.737-.213-.782-.86-.082-1.172.852-2.61.748-4.094-.073-1.053-.653-2.12-1.97-2.027-2.13.149-3.53 3.182-4.426 6.54a6.76 6.76 0 0 1-.105-.81c-.09-1.293.283-4.206.783-5.66 2.706-1.898 4.797-6.399 4.642-8.625-.046-.647-.321-1.493-.896-1.453-1.389.097-3.775 5.196-5.109 9.86-1.25.352-2.2.539-3.061.6-.814.056-1.54.01-2.34-.078zm4.562 3.314c-1.045 2.6-2.61 4.297-4.263 4.412-.957.067-1.377-.433-1.474-1.822-.12-1.7.328-3.56.952-5.31.8.088 1.598.152 2.484.09.886-.062 1.838-.2 2.921-.541a23.502 23.502 0 0 0-.62 3.171zm5.963-11.749c.072-.005.1.042.11.185.084 1.221-1.547 5.064-3.626 6.99.924-3.986 3.037-7.141 3.516-7.175zm18.512 6.357c.016-.122.033-.22.025-.339-.035-.503-.435-.715-1.105-.669-2.97.208-6.114 5.12-5.928 7.777.098 1.412 1.122 1.942 1.936 1.885 1.46-.102 3.195-2.124 4.572-4.794-.21 1.121-.314 2.043-.275 2.593.058.838.508 1.77 1.705 1.685 1.628-.113 3.584-2.079 4.345-4.61l-.302-.195c-.853 2.249-2.458 3.732-3.44 3.8-.55.04-.58-.392-.644-1.301-.331-4.74 4.563-13.888 4.457-15.397-.021-.31-.254-.535-.517-.517-1.317.092-3.08 5.845-4.528 10.59-1.253 4.105-3.419 6.855-4.711 6.945-.527.037-.892-.37-.943-1.089-.129-1.843 1.833-6.48 4.419-6.66.43-.03.75.068.934.296zm7.574-1.107c-1.628.113-3.105 5.149-2.977 6.968.078 1.125.739 1.97 1.984 1.882 1.867-.13 3.677-1.772 4.418-4.591l-.232-.224c-1.174 2.824-2.354 3.845-3.431 3.92-.79.056-1.193-.205-1.274-1.354-.157-2.25 2.13-5.322 2.075-6.112-.023-.335-.276-.51-.563-.49zm1.113-2.316c.766-.053 1.507-.803 1.466-1.401-.039-.551-.363-.72-.842-.687-.766.053-1.708.696-1.661 1.367.039.55.51.758 1.037.721zm1.307 8.377c.1 1.437.962 3.085 3.212 2.928 1.365-.096 2.519-.802 2.926-2.202 1.421-.316 2.676-1.294 3.153-3.083l-.233-.225c-.808 1.861-1.74 2.648-2.827 2.917a4.51 4.51 0 0 0 .062-1.184c-.155-2.202-1.538-4.102-1.649-5.682-.038-.551.082-.896.07-1.064-.012-.167-.141-.303-.405-.284-.455.031-.902.52-.82 1.693l.02.287c-.51 1.311-1.243 2.517-2.127 3.638-.243.305-1.514.37-1.382 2.261zm4.738-.716c.033.479.009.818-.017 1.132a4.287 4.287 0 0 1-3.133-2.139c.668-.768 1.448-2.001 2.105-3.274.331 1.3.94 2.773 1.045 4.281zm-1.536 2.802c-1.245.087-2.046-1.036-2.126-2.185-.035-.503.087-.824.468-.875.56.78 1.725 1.612 3.084 1.782-.285 1.078-1.043 1.251-1.426 1.278zm10.253-9.233c-2.442.17-5.023 3.526-4.798 6.735.144 2.059 1.363 2.984 2.895 2.877 2.323-.163 4.69-2.445 5.588-5.42l-.328-.217c-.844 2.73-2.881 4.556-4.773 4.688-1.364.096-1.818-.883-1.886-1.865-.164-2.346 1.816-6.021 3.516-6.14.407-.028.542.179.569.562.05.718-.292 1.68-.754 1.953.234.248.48.327.72.31.742-.051 1.14-.897 1.074-1.83-.058-.839-.507-1.746-1.823-1.653zm13.082 3.367c-.53 1.36-1.093 1.905-1.764 1.952-.838.059-1.73-.649-1.815-1.87-.088-1.269.765-2.483.723-3.082-.02-.287-.28-.919-.88-.877-.071.005-.119.009-.165.036-.164-.277-.466-.473-1.065-.43-2.849.198-5.474 4.977-5.296 7.515.085 1.22.84 2.034 2.06 1.949 1.676-.117 3.071-1.85 3.912-4.267.556 1.067 1.482 1.58 2.368 1.518.79-.055 1.668-.574 2.25-2.226l-.328-.218zm-7.747 4.127c-.574.04-.943-.416-.995-1.158-.127-1.82 1.52-6.145 4.225-6.334-.235.425-.378 1.133-.303 2.21.039.551.117.979.24 1.355-.719 2.12-2.09 3.851-3.167 3.927zm17.495-4.76c-.53 1.36-1.097 1.857-1.768 1.904-1.005.07-1.197-.951-1.252-1.741-.15-2.131.657-2.645.614-3.267-.024-.335-.327-.891-.926-.85-.599.042-.991.623-.912 2.783-.85 2.297-2.41 5.437-3.584 5.52-.43.03-.579-.37-.644-1.303-.087-1.245.02-2.816-.054-3.87-.042-.598-.126-.76-.676-.722-.695.048-.7.313-.688 1.179.036 2.235.073 3.098.076 3.146.109 1.556.495 2.612 1.5 2.541 1.533-.107 3.228-2.703 4.239-5.108.324 1.542 1.12 2.256 2.173 2.182.766-.053 1.648-.524 2.23-2.177l-.328-.217zm6.563-3.852c-.082-1.173-.844-1.408-1.586-1.356-2.825.197-5.798 4.471-5.6 7.32.11 1.556 1.177 2.709 3.116 2.573 2.37-.166 4.731-2.183 5.823-5.147l-.302-.195c-1.037 2.382-3.032 4.47-5.067 4.613-1.484.103-1.963-.898-2.032-1.88a3.954 3.954 0 0 1 .036-.868c2.71-.454 5.783-2.618 5.612-5.06zm-1.606-.609c.407-.028.516.156.541.515.144 2.06-2.802 3.974-4.46 4.691.488-2.32 2.387-5.099 3.919-5.206zm2.928 5.064c.443-.897 1.2-2.802 1.81-4.746.628.39 1.396.697 1.468 1.726.088 1.269-1.103 3.157-1.004 4.57.065.933.779 1.509 1.856 1.433 2.035-.142 3.944-2.44 4.711-4.54l-.328-.217c-.501 1.43-2.312 3.746-3.82 3.852-.384.027-.729-.094-.769-.668-.07-1.006 1.016-2.67.914-4.13-.142-2.035-2.613-2.271-2.675-3.157-.006-.096.214-.737.202-.904-.012-.168-.04-.575-.375-.552-.264.019-.96.741-.892 1.699.017.24.126.424.28.558a34.81 34.81 0 0 1-1.622 4.684l.244.392zm15.53-4.983a2.115 2.115 0 0 0-.507-.037c-.79.055-1.072.845-1.136 1.306-.045.388-.092.753-.162 1.118-.848 1.647-2.06 3.224-2.97 3.288-.647.045-.89-.323-.93-.898-.09-1.293.759-3.95 1.253-4.803-.02-.287-.9-.49-1.092-.477-.694.049-1.866 3.595-1.742 5.367.094 1.34 1.117 1.87 2.05 1.805 1.294-.09 2.371-1.537 3.284-3.285-.309 1.778-.662 3.27-1.035 4.475-2.332 1.39-4.484 2.623-4.341 4.658.058.838.783 1.22 1.597 1.164 1.652-.116 3.084-3.03 4.115-6.182 1.714-.938 3.654-2.445 4.211-4.794l-.328-.218c-.755 2.267-2.221 3.668-3.665 4.347.922-2.976 1.454-6.044 1.398-6.834zm-5.904 12.923c-.48.033-.679-.41-.697-.673-.11-1.58 1.502-2.607 3.415-3.8-1.072 3.251-2.24 4.44-2.718 4.473z" fill="#87B5AD"/></g></svg>
