<?xml version="1.0" encoding="UTF-8"?>
<svg
    xmlns="http://www.w3.org/2000/svg"
    xmlns:xlink="http://www.w3.org/1999/xlink" width="105px" height="65px" viewBox="0 0 105 65" version="1.1">
    <g id="surface1">
        <path style="stroke:none;fill-rule:nonzero;fill:rgb(100%,100%,100%);fill-opacity:1;" d="M 52.214844 34.523438 C 47.867188 33.792969 43.480469 33.3125 39.078125 33.082031 C 35.636719 32.835938 32.179688 33.136719 28.839844 33.976562 C 28.71875 34.003906 28.484375 33.90625 28.238281 33.621094 C 27.730469 33.023438 27.589844 32.203125 27.871094 31.472656 C 29.203125 28.210938 34.847656 28.261719 39.257812 29.3125 C 43.75 30.582031 48.097656 32.328125 52.214844 34.523438 Z M 42.976562 25.527344 C 34.941406 19.5625 31.117188 20.886719 29.84375 21.746094 C 28.980469 22.636719 28.699219 23.929688 29.117188 25.089844 C 29.28125 25.601562 29.503906 25.835938 29.644531 25.835938 C 29.691406 25.828125 29.734375 25.828125 29.777344 25.835938 C 34.308594 25.886719 38.792969 26.789062 42.988281 28.488281 C 46.429688 29.96875 49.699219 31.820312 52.734375 34.003906 C 49.855469 30.785156 46.578125 27.9375 42.976562 25.527344 Z M 43.222656 19.988281 C 42.464844 19.007812 41.75 18.054688 41.109375 17.160156 C 40.46875 16.265625 39.933594 15.425781 39.472656 14.679688 C 39.011719 13.9375 38.652344 13.285156 38.328125 12.796875 C 38.003906 12.3125 37.410156 11.851562 36.945312 12.320312 C 36.117188 12.996094 35.597656 13.972656 35.496094 15.03125 C 35.398438 16.089844 35.726562 17.144531 36.410156 17.964844 C 39.230469 20.960938 42.457031 23.550781 46 25.664062 C 45.59375 24.527344 45.269531 23.367188 45.03125 22.1875 C 44.46875 21.53125 43.851562 20.816406 43.222656 19.988281 Z M 54.65625 34.523438 C 59.003906 33.792969 63.390625 33.3125 67.792969 33.082031 C 71.230469 32.835938 74.6875 33.136719 78.03125 33.976562 C 78.148438 34.003906 78.386719 33.90625 78.628906 33.621094 C 79.136719 33.023438 79.28125 32.203125 79 31.472656 C 77.664062 28.210938 72.019531 28.261719 67.613281 29.3125 C 63.117188 30.582031 58.773438 32.328125 54.65625 34.523438 Z M 54.132812 34 C 57.171875 31.816406 60.4375 29.964844 63.878906 28.484375 C 68.078125 26.785156 72.558594 25.886719 77.09375 25.832031 C 77.136719 25.828125 77.179688 25.828125 77.222656 25.832031 C 77.363281 25.832031 77.589844 25.601562 77.75 25.089844 C 78.171875 23.929688 77.894531 22.636719 77.035156 21.746094 C 75.765625 20.898438 71.9375 19.570312 63.902344 25.53125 C 60.300781 27.9375 57.019531 30.785156 54.132812 34.003906 Z M 61.835938 22.1875 C 61.597656 23.367188 61.273438 24.527344 60.867188 25.664062 C 64.410156 23.550781 67.636719 20.960938 70.457031 17.964844 C 71.140625 17.144531 71.46875 16.089844 71.371094 15.03125 C 71.269531 13.972656 70.75 12.996094 69.921875 12.320312 C 69.457031 11.851562 68.867188 12.320312 68.539062 12.796875 C 68.214844 13.277344 67.84375 13.9375 67.394531 14.679688 C 66.945312 15.425781 66.40625 16.265625 65.765625 17.160156 C 65.125 18.054688 64.410156 19.007812 63.65625 19.988281 C 63.015625 20.816406 62.402344 21.53125 61.835938 22.1875 Z M 61.835938 22.1875 "/>
        <path style="stroke:none;fill-rule:nonzero;fill:rgb(100%,100%,100%);fill-opacity:1;" d="M 48.824219 29.015625 C 46.242188 27.367188 44.917969 18.878906 44.828125 14.558594 C 44.671875 11.359375 44.917969 8.152344 45.570312 5.011719 C 46.078125 3.140625 47.390625 1.578125 49.15625 0.742188 C 52.21875 -0.00390625 55.425781 0.109375 58.425781 1.0625 C 60.101562 1.859375 61.320312 3.359375 61.753906 5.148438 C 62.140625 7.21875 62.316406 9.320312 62.273438 11.425781 C 62.296875 13.917969 62.128906 16.410156 61.777344 18.878906 C 61.4375 22.054688 60.511719 25.140625 59.042969 27.984375 C 58.578125 28.742188 57.828125 29.917969 56.375 29.382812 C 55.566406 29.078125 55.375 27.382812 55.253906 26.257812 C 55.105469 24.886719 54.574219 10.464844 54.859375 8.269531 C 55.148438 6.074219 56.277344 6.003906 56.945312 6.097656 C 57.613281 6.191406 59.035156 6.433594 59.257812 9.9375 C 59.1875 14.078125 58.804688 18.210938 58.113281 22.296875 C 57.996094 23.089844 57.996094 23.527344 58.46875 23.335938 C 59.289062 22.8125 60.355469 16.859375 60.445312 12.539062 C 60.585938 5.496094 57.984375 3.449219 55.644531 3.074219 C 51.046875 2.328125 48.910156 3.367188 48.042969 6.703125 C 46.339844 13.171875 47.429688 22.246094 48.832031 29.027344 Z M 51.496094 4.582031 C 50.148438 4.582031 49.347656 5.441406 49.023438 7.921875 C 48.78125 11.019531 48.746094 14.128906 48.917969 17.230469 C 49.125 21.929688 49.640625 26.046875 49.722656 26.835938 C 49.75 28.027344 50.140625 29.183594 50.847656 30.148438 C 51.363281 30.664062 52.070312 30.941406 52.804688 30.921875 C 53.238281 30.804688 53.707031 30.160156 53.789062 28.949219 C 53.9375 26.730469 53.953125 10.335938 53.875 8.410156 C 53.726562 4.691406 52.554688 4.582031 51.496094 4.582031 Z M 51.496094 4.582031 "/>
        <path style="stroke:none;fill-rule:nonzero;fill:rgb(100%,100%,100%);fill-opacity:1;" d="M 4.058594 45.046875 L 5.484375 48.882812 L 2.617188 48.882812 Z M 3.449219 43.644531 L 0 52.378906 L 1.335938 52.378906 L 2.246094 49.945312 L 5.867188 49.945312 L 6.777344 52.378906 L 8.195312 52.378906 L 4.746094 43.644531 Z M 8.878906 49.945312 C 8.839844 50.617188 9.042969 51.28125 9.445312 51.820312 C 9.898438 52.308594 10.550781 52.5625 11.214844 52.507812 C 11.472656 52.511719 11.726562 52.476562 11.96875 52.402344 C 12.171875 52.339844 12.367188 52.253906 12.550781 52.148438 C 12.710938 52.058594 12.859375 51.945312 12.984375 51.8125 C 13.101562 51.691406 13.203125 51.578125 13.277344 51.472656 L 13.316406 52.378906 L 14.4375 52.378906 C 14.4375 52.164062 14.425781 51.949219 14.425781 51.753906 L 14.425781 46.292969 L 13.238281 46.292969 L 13.238281 49.117188 C 13.238281 49.410156 13.207031 49.703125 13.152344 49.988281 C 13.097656 50.257812 13 50.515625 12.855469 50.746094 C 12.714844 50.96875 12.527344 51.152344 12.304688 51.289062 C 12.046875 51.441406 11.753906 51.515625 11.453125 51.503906 C 11.070312 51.53125 10.691406 51.386719 10.421875 51.117188 C 10.152344 50.757812 10.027344 50.3125 10.066406 49.867188 L 10.066406 46.292969 L 8.875 46.292969 Z M 15.53125 51.632812 C 16.230469 52.296875 17.183594 52.632812 18.148438 52.5625 C 18.476562 52.5625 18.796875 52.523438 19.113281 52.441406 C 19.40625 52.371094 19.679688 52.253906 19.933594 52.089844 C 20.160156 51.9375 20.355469 51.738281 20.5 51.507812 C 20.644531 51.265625 20.71875 50.984375 20.714844 50.703125 C 20.722656 50.441406 20.667969 50.179688 20.550781 49.945312 C 20.441406 49.734375 20.289062 49.554688 20.101562 49.414062 C 19.902344 49.261719 19.683594 49.144531 19.449219 49.058594 C 19.183594 48.964844 18.914062 48.882812 18.636719 48.816406 C 18.230469 48.730469 17.828125 48.609375 17.441406 48.457031 C 17.175781 48.382812 16.992188 48.148438 16.984375 47.875 C 16.96875 47.625 17.105469 47.386719 17.332031 47.273438 C 17.613281 47.136719 17.925781 47.074219 18.242188 47.089844 C 18.574219 47.082031 18.902344 47.140625 19.214844 47.257812 C 19.46875 47.363281 19.703125 47.507812 19.90625 47.691406 L 20.558594 46.875 C 20.269531 46.628906 19.933594 46.4375 19.574219 46.308594 C 19.140625 46.164062 18.6875 46.09375 18.230469 46.105469 C 17.929688 46.105469 17.632812 46.144531 17.34375 46.222656 C 17.066406 46.296875 16.804688 46.414062 16.570312 46.570312 C 16.347656 46.714844 16.160156 46.90625 16.019531 47.132812 C 15.878906 47.367188 15.808594 47.636719 15.816406 47.910156 C 15.808594 48.167969 15.867188 48.421875 15.988281 48.652344 C 16.097656 48.855469 16.25 49.03125 16.4375 49.175781 C 16.628906 49.320312 16.839844 49.4375 17.0625 49.523438 C 17.292969 49.609375 17.53125 49.683594 17.769531 49.738281 C 18.105469 49.816406 18.382812 49.886719 18.609375 49.953125 C 18.796875 50.003906 18.980469 50.074219 19.152344 50.167969 C 19.269531 50.230469 19.371094 50.320312 19.441406 50.4375 C 19.503906 50.546875 19.53125 50.667969 19.527344 50.796875 C 19.535156 51.054688 19.375 51.292969 19.132812 51.390625 C 18.820312 51.527344 18.480469 51.589844 18.140625 51.578125 C 17.773438 51.585938 17.410156 51.519531 17.070312 51.382812 C 16.773438 51.261719 16.507812 51.085938 16.277344 50.863281 Z M 22.480469 50.386719 C 22.433594 50.96875 22.59375 51.546875 22.9375 52.023438 C 23.3125 52.402344 23.835938 52.59375 24.371094 52.546875 C 25.023438 52.574219 25.65625 52.320312 26.105469 51.851562 L 25.5625 51.132812 C 25.433594 51.261719 25.28125 51.367188 25.113281 51.449219 C 24.9375 51.523438 24.742188 51.558594 24.546875 51.550781 C 24.300781 51.566406 24.058594 51.464844 23.898438 51.277344 C 23.710938 50.976562 23.632812 50.621094 23.667969 50.269531 L 23.667969 47.273438 L 25.464844 47.273438 L 25.464844 46.292969 L 23.667969 46.292969 L 23.667969 44.300781 L 22.476562 44.300781 L 22.476562 46.292969 L 21.367188 46.292969 L 21.367188 47.273438 L 22.476562 47.273438 Z M 26.925781 52.378906 L 28.117188 52.378906 L 28.117188 49.171875 C 28.113281 48.925781 28.160156 48.679688 28.253906 48.449219 C 28.339844 48.230469 28.46875 48.027344 28.628906 47.855469 C 29.117188 47.363281 29.84375 47.1875 30.507812 47.402344 L 30.789062 46.304688 C 30.6875 46.269531 30.582031 46.242188 30.476562 46.226562 C 30.355469 46.207031 30.234375 46.199219 30.113281 46.199219 C 29.859375 46.195312 29.605469 46.234375 29.367188 46.3125 C 29.167969 46.378906 28.976562 46.46875 28.800781 46.578125 C 28.644531 46.675781 28.503906 46.792969 28.382812 46.925781 C 28.28125 47.035156 28.1875 47.152344 28.105469 47.273438 L 28.066406 46.292969 L 26.929688 46.292969 C 26.9375 46.492188 26.941406 46.6875 26.941406 46.871094 L 26.941406 52.378906 Z M 35.449219 51.644531 C 35.21875 51.953125 34.902344 52.1875 34.542969 52.324219 C 34.175781 52.46875 33.78125 52.542969 33.386719 52.539062 C 33.132812 52.539062 32.875 52.507812 32.628906 52.441406 C 32.378906 52.375 32.144531 52.265625 31.9375 52.113281 C 31.730469 51.957031 31.558594 51.753906 31.4375 51.523438 C 31.300781 51.25 31.234375 50.945312 31.246094 50.640625 C 31.222656 50.039062 31.476562 49.460938 31.9375 49.070312 C 32.515625 48.644531 33.222656 48.433594 33.941406 48.480469 C 34.085938 48.480469 34.234375 48.484375 34.390625 48.492188 L 34.839844 48.519531 L 35.210938 48.546875 C 35.316406 48.546875 35.390625 48.566406 35.429688 48.574219 L 35.429688 48.359375 C 35.464844 47.984375 35.308594 47.617188 35.011719 47.382812 C 34.675781 47.171875 34.28125 47.070312 33.882812 47.089844 C 33.503906 47.074219 33.125 47.136719 32.773438 47.277344 C 32.53125 47.386719 32.300781 47.515625 32.085938 47.664062 L 31.53125 46.867188 C 31.648438 46.769531 31.777344 46.679688 31.914062 46.605469 C 32.082031 46.507812 32.257812 46.429688 32.441406 46.363281 C 32.664062 46.285156 32.894531 46.222656 33.128906 46.179688 C 33.421875 46.128906 33.71875 46.105469 34.015625 46.109375 C 34.6875 46.070312 35.347656 46.273438 35.882812 46.675781 C 36.351562 47.082031 36.601562 47.679688 36.5625 48.292969 L 36.5625 51.832031 C 36.5625 52.046875 36.5625 52.230469 36.578125 52.378906 L 35.46875 52.378906 Z M 35.433594 49.492188 C 35.398438 49.492188 35.332031 49.472656 35.230469 49.460938 C 35.132812 49.449219 35.015625 49.4375 34.878906 49.425781 L 34.457031 49.402344 C 34.3125 49.394531 34.167969 49.386719 34.023438 49.386719 C 33.746094 49.378906 33.472656 49.417969 33.210938 49.507812 C 33.027344 49.570312 32.863281 49.667969 32.722656 49.800781 C 32.609375 49.910156 32.523438 50.042969 32.476562 50.191406 C 32.433594 50.328125 32.414062 50.464844 32.410156 50.605469 C 32.390625 50.898438 32.519531 51.179688 32.753906 51.359375 C 33.035156 51.542969 33.371094 51.632812 33.707031 51.613281 C 33.929688 51.613281 34.148438 51.574219 34.359375 51.496094 C 34.558594 51.421875 34.742188 51.316406 34.90625 51.183594 C 35.0625 51.054688 35.191406 50.898438 35.289062 50.722656 C 35.382812 50.558594 35.433594 50.375 35.433594 50.1875 Z M 38.085938 52.375 L 39.277344 52.375 L 39.277344 43.640625 L 38.085938 43.640625 Z M 40.75 43.878906 L 42.078125 43.878906 L 42.078125 45.203125 L 40.753906 45.203125 Z M 40.828125 46.289062 L 42.015625 46.289062 L 42.015625 52.375 L 40.828125 52.375 Z M 47.386719 51.640625 C 47.15625 51.945312 46.839844 52.183594 46.480469 52.320312 C 46.113281 52.464844 45.71875 52.539062 45.324219 52.535156 C 45.066406 52.535156 44.8125 52.5 44.566406 52.4375 C 44.316406 52.371094 44.082031 52.261719 43.875 52.109375 C 43.667969 51.953125 43.496094 51.75 43.375 51.519531 C 43.238281 51.246094 43.171875 50.941406 43.183594 50.636719 C 43.160156 50.035156 43.414062 49.457031 43.875 49.066406 C 44.453125 48.636719 45.160156 48.429688 45.878906 48.476562 C 46.023438 48.476562 46.171875 48.480469 46.328125 48.488281 L 46.777344 48.515625 L 47.148438 48.542969 C 47.253906 48.542969 47.328125 48.5625 47.363281 48.570312 L 47.363281 48.355469 C 47.398438 47.980469 47.242188 47.613281 46.945312 47.378906 C 46.609375 47.167969 46.214844 47.066406 45.816406 47.085938 C 45.4375 47.070312 45.0625 47.132812 44.707031 47.273438 C 44.46875 47.382812 44.238281 47.511719 44.019531 47.660156 L 43.464844 46.863281 C 43.585938 46.765625 43.714844 46.679688 43.847656 46.601562 C 44.015625 46.503906 44.195312 46.425781 44.375 46.359375 C 44.601562 46.277344 44.832031 46.21875 45.066406 46.175781 C 45.355469 46.125 45.652344 46.101562 45.949219 46.105469 C 46.621094 46.066406 47.285156 46.269531 47.820312 46.671875 C 48.285156 47.078125 48.535156 47.675781 48.5 48.289062 L 48.5 51.832031 C 48.5 52.046875 48.5 52.230469 48.511719 52.378906 L 47.402344 52.378906 Z M 47.371094 49.488281 C 47.335938 49.488281 47.269531 49.46875 47.167969 49.457031 C 47.070312 49.445312 46.953125 49.433594 46.816406 49.421875 L 46.394531 49.398438 C 46.242188 49.386719 46.097656 49.382812 45.960938 49.382812 C 45.683594 49.375 45.410156 49.414062 45.148438 49.503906 C 44.964844 49.566406 44.796875 49.664062 44.660156 49.796875 C 44.546875 49.90625 44.460938 50.039062 44.414062 50.1875 C 44.371094 50.320312 44.347656 50.460938 44.347656 50.601562 C 44.328125 50.894531 44.457031 51.175781 44.691406 51.355469 C 44.972656 51.539062 45.308594 51.628906 45.644531 51.609375 C 45.867188 51.609375 46.085938 51.570312 46.296875 51.492188 C 46.492188 51.417969 46.679688 51.3125 46.84375 51.179688 C 47 51.050781 47.128906 50.894531 47.226562 50.71875 C 47.320312 50.554688 47.371094 50.371094 47.371094 50.183594 Z M 50.011719 52.371094 L 51.203125 52.371094 L 51.203125 49.550781 C 51.203125 49.257812 51.234375 48.964844 51.292969 48.679688 C 51.347656 48.410156 51.449219 48.15625 51.589844 47.917969 C 51.726562 47.699219 51.917969 47.511719 52.140625 47.378906 C 52.402344 47.226562 52.699219 47.152344 53 47.164062 C 53.386719 47.140625 53.769531 47.285156 54.042969 47.5625 C 54.316406 47.917969 54.449219 48.363281 54.410156 48.8125 L 54.410156 52.375 L 55.601562 52.375 L 55.601562 48.71875 C 55.640625 48.039062 55.433594 47.371094 55.019531 46.832031 C 54.566406 46.339844 53.90625 46.082031 53.238281 46.140625 C 52.980469 46.136719 52.722656 46.171875 52.476562 46.242188 C 52.269531 46.304688 52.074219 46.390625 51.890625 46.503906 C 51.730469 46.601562 51.582031 46.714844 51.453125 46.851562 C 51.339844 46.976562 51.238281 47.09375 51.164062 47.199219 L 51.125 46.28125 L 49.988281 46.28125 C 49.988281 46.5 50.003906 46.714844 50.003906 46.90625 L 50.003906 52.371094 Z M 59.75 52.371094 L 60.992188 52.371094 L 60.992188 45.546875 L 65.816406 52.378906 L 67.085938 52.378906 L 67.085938 43.644531 L 65.84375 43.644531 L 65.84375 50.464844 L 61.03125 43.644531 L 59.75 43.644531 Z M 72.695312 51.640625 C 72.460938 51.945312 72.148438 52.183594 71.789062 52.320312 C 71.421875 52.464844 71.027344 52.539062 70.632812 52.535156 C 70.375 52.535156 70.117188 52.5 69.871094 52.4375 C 69.625 52.371094 69.390625 52.261719 69.183594 52.109375 C 68.976562 51.953125 68.804688 51.75 68.683594 51.519531 C 68.546875 51.246094 68.480469 50.941406 68.492188 50.636719 C 68.46875 50.035156 68.722656 49.457031 69.183594 49.066406 C 69.757812 48.636719 70.46875 48.429688 71.1875 48.476562 C 71.332031 48.476562 71.480469 48.480469 71.636719 48.488281 L 72.085938 48.515625 L 72.453125 48.542969 C 72.5625 48.542969 72.636719 48.5625 72.671875 48.570312 L 72.671875 48.355469 C 72.707031 47.980469 72.550781 47.613281 72.253906 47.378906 C 71.917969 47.167969 71.523438 47.066406 71.125 47.085938 C 70.746094 47.070312 70.367188 47.132812 70.015625 47.273438 C 69.773438 47.382812 69.546875 47.511719 69.328125 47.660156 L 68.773438 46.863281 C 68.894531 46.765625 69.019531 46.679688 69.15625 46.601562 C 69.324219 46.503906 69.5 46.425781 69.683594 46.359375 C 69.910156 46.277344 70.136719 46.21875 70.371094 46.175781 C 70.664062 46.125 70.960938 46.101562 71.257812 46.105469 C 71.929688 46.066406 72.59375 46.269531 73.128906 46.671875 C 73.59375 47.078125 73.84375 47.675781 73.808594 48.289062 L 73.808594 51.832031 C 73.808594 52.046875 73.808594 52.230469 73.820312 52.378906 L 72.710938 52.378906 Z M 72.679688 49.488281 C 72.644531 49.488281 72.578125 49.46875 72.472656 49.457031 C 72.371094 49.445312 72.257812 49.433594 72.125 49.421875 L 71.691406 49.398438 C 71.546875 49.386719 71.402344 49.382812 71.257812 49.382812 C 70.980469 49.375 70.707031 49.414062 70.445312 49.503906 C 70.261719 49.566406 70.097656 49.664062 69.957031 49.796875 C 69.84375 49.90625 69.757812 50.039062 69.710938 50.1875 C 69.667969 50.324219 69.648438 50.460938 69.644531 50.601562 C 69.628906 50.894531 69.753906 51.175781 69.988281 51.355469 C 70.269531 51.539062 70.601562 51.628906 70.9375 51.609375 C 71.160156 51.609375 71.382812 51.570312 71.589844 51.492188 C 71.789062 51.417969 71.972656 51.3125 72.136719 51.179688 C 72.292969 51.050781 72.425781 50.894531 72.523438 50.71875 C 72.617188 50.554688 72.664062 50.371094 72.667969 50.183594 Z M 75.738281 50.378906 C 75.691406 50.960938 75.851562 51.539062 76.195312 52.015625 C 76.570312 52.394531 77.097656 52.585938 77.628906 52.539062 C 78.28125 52.566406 78.914062 52.3125 79.367188 51.84375 L 78.824219 51.125 C 78.691406 51.25 78.539062 51.359375 78.375 51.441406 C 78.195312 51.515625 78 51.550781 77.808594 51.542969 C 77.558594 51.558594 77.316406 51.457031 77.15625 51.269531 C 76.96875 50.964844 76.890625 50.613281 76.925781 50.261719 L 76.925781 47.273438 L 78.722656 47.273438 L 78.722656 46.292969 L 76.925781 46.292969 L 76.925781 44.300781 L 75.734375 44.300781 L 75.734375 46.292969 L 74.625 46.292969 L 74.625 47.273438 L 75.734375 47.273438 Z M 80.128906 43.875 L 81.464844 43.875 L 81.464844 45.195312 L 80.121094 45.195312 Z M 80.207031 46.28125 L 81.378906 46.28125 L 81.378906 52.371094 L 80.191406 52.371094 Z M 85.855469 52.550781 C 85.40625 52.554688 84.964844 52.46875 84.550781 52.296875 C 84.164062 52.132812 83.816406 51.894531 83.527344 51.597656 C 83.242188 51.300781 83.011719 50.949219 82.851562 50.570312 C 82.527344 49.765625 82.527344 48.871094 82.851562 48.066406 C 83.011719 47.6875 83.242188 47.339844 83.527344 47.042969 C 83.816406 46.742188 84.164062 46.503906 84.550781 46.339844 C 84.964844 46.167969 85.40625 46.082031 85.855469 46.085938 C 86.300781 46.078125 86.746094 46.167969 87.15625 46.339844 C 87.542969 46.503906 87.894531 46.742188 88.1875 47.042969 C 88.476562 47.339844 88.707031 47.6875 88.867188 48.066406 C 89.195312 48.871094 89.195312 49.765625 88.867188 50.570312 C 88.707031 50.953125 88.476562 51.300781 88.1875 51.597656 C 87.894531 51.894531 87.542969 52.132812 87.15625 52.296875 C 86.746094 52.46875 86.300781 52.558594 85.855469 52.550781 M 85.855469 51.53125 C 86.152344 51.535156 86.445312 51.46875 86.710938 51.339844 C 86.960938 51.21875 87.179688 51.050781 87.363281 50.84375 C 87.539062 50.636719 87.675781 50.394531 87.765625 50.136719 C 87.855469 49.875 87.902344 49.597656 87.902344 49.320312 C 87.902344 49.046875 87.855469 48.773438 87.765625 48.511719 C 87.675781 48.253906 87.539062 48.011719 87.355469 47.800781 C 87.175781 47.589844 86.953125 47.417969 86.703125 47.296875 C 86.441406 47.167969 86.148438 47.101562 85.855469 47.105469 C 85.554688 47.101562 85.257812 47.167969 84.984375 47.296875 C 84.734375 47.417969 84.515625 47.585938 84.332031 47.796875 C 84.15625 48.003906 84.019531 48.242188 83.929688 48.5 C 83.839844 48.765625 83.792969 49.039062 83.792969 49.320312 C 83.792969 49.59375 83.839844 49.871094 83.929688 50.128906 C 84.023438 50.390625 84.160156 50.628906 84.339844 50.839844 C 84.523438 51.046875 84.742188 51.21875 84.992188 51.339844 C 85.257812 51.472656 85.550781 51.535156 85.84375 51.53125 M 90.285156 52.371094 L 91.472656 52.371094 L 91.472656 49.550781 C 91.472656 49.257812 91.503906 48.964844 91.566406 48.679688 C 91.621094 48.410156 91.722656 48.15625 91.863281 47.917969 C 92 47.699219 92.1875 47.511719 92.410156 47.378906 C 92.675781 47.226562 92.976562 47.152344 93.28125 47.164062 C 93.667969 47.140625 94.050781 47.285156 94.324219 47.5625 C 94.597656 47.917969 94.730469 48.363281 94.691406 48.8125 L 94.691406 52.375 L 95.882812 52.375 L 95.882812 48.71875 C 95.921875 48.039062 95.714844 47.371094 95.300781 46.832031 C 94.847656 46.339844 94.1875 46.082031 93.519531 46.140625 C 93.261719 46.136719 93.003906 46.171875 92.757812 46.242188 C 92.550781 46.304688 92.355469 46.390625 92.171875 46.503906 C 92.011719 46.601562 91.863281 46.714844 91.734375 46.851562 C 91.621094 46.976562 91.519531 47.09375 91.445312 47.199219 L 91.40625 46.28125 L 90.269531 46.28125 C 90.269531 46.5 90.28125 46.714844 90.28125 46.90625 L 90.28125 52.371094 Z M 101.183594 51.636719 C 100.953125 51.941406 100.636719 52.179688 100.277344 52.316406 C 99.910156 52.460938 99.519531 52.53125 99.121094 52.53125 C 98.867188 52.53125 98.609375 52.496094 98.363281 52.429688 C 98.113281 52.367188 97.882812 52.257812 97.675781 52.105469 C 97.464844 51.949219 97.292969 51.746094 97.171875 51.515625 C 97.035156 51.242188 96.972656 50.9375 96.980469 50.632812 C 96.957031 50.03125 97.214844 49.453125 97.675781 49.0625 C 98.25 48.632812 98.960938 48.425781 99.679688 48.472656 C 99.816406 48.472656 99.96875 48.472656 100.125 48.484375 L 100.574219 48.511719 L 100.945312 48.539062 C 101.050781 48.539062 101.125 48.554688 101.164062 48.566406 L 101.164062 48.351562 C 101.199219 47.976562 101.042969 47.609375 100.75 47.375 C 100.410156 47.164062 100.015625 47.058594 99.617188 47.082031 C 99.238281 47.066406 98.859375 47.128906 98.507812 47.269531 C 98.269531 47.378906 98.039062 47.507812 97.820312 47.65625 L 97.265625 46.859375 C 97.386719 46.761719 97.511719 46.671875 97.648438 46.597656 C 97.816406 46.5 97.996094 46.417969 98.179688 46.355469 C 98.402344 46.273438 98.628906 46.214844 98.863281 46.171875 C 99.15625 46.121094 99.453125 46.097656 99.75 46.101562 C 100.421875 46.0625 101.085938 46.265625 101.621094 46.667969 C 102.085938 47.074219 102.335938 47.671875 102.300781 48.285156 L 102.300781 51.832031 C 102.300781 52.046875 102.300781 52.230469 102.3125 52.378906 L 101.203125 52.378906 Z M 101.167969 49.484375 C 101.136719 49.484375 101.066406 49.464844 100.964844 49.453125 C 100.867188 49.441406 100.75 49.429688 100.617188 49.417969 L 100.183594 49.394531 C 100.039062 49.382812 99.890625 49.378906 99.746094 49.378906 C 99.472656 49.371094 99.195312 49.410156 98.9375 49.5 C 98.753906 49.558594 98.585938 49.660156 98.445312 49.792969 C 98.332031 49.902344 98.25 50.035156 98.203125 50.183594 C 98.160156 50.316406 98.136719 50.457031 98.132812 50.597656 C 98.117188 50.890625 98.246094 51.171875 98.480469 51.351562 C 98.761719 51.535156 99.09375 51.625 99.429688 51.605469 C 99.652344 51.605469 99.875 51.566406 100.082031 51.488281 C 100.28125 51.414062 100.46875 51.308594 100.632812 51.171875 C 100.785156 51.046875 100.917969 50.890625 101.011719 50.714844 C 101.109375 50.550781 101.160156 50.367188 101.160156 50.179688 Z M 103.820312 52.363281 L 105.011719 52.363281 L 105.011719 43.632812 L 103.820312 43.632812 Z M 7.515625 55.804688 L 10.492188 55.804688 C 10.894531 55.796875 11.296875 55.859375 11.679688 55.980469 C 11.988281 56.085938 12.273438 56.246094 12.511719 56.460938 C 12.730469 56.65625 12.898438 56.898438 13.011719 57.167969 C 13.121094 57.441406 13.175781 57.734375 13.175781 58.027344 C 13.179688 58.289062 13.125 58.546875 13.023438 58.785156 C 12.929688 58.996094 12.804688 59.191406 12.652344 59.363281 C 12.515625 59.511719 12.355469 59.640625 12.175781 59.742188 C 12.03125 59.828125 11.875 59.886719 11.707031 59.910156 C 11.917969 59.945312 12.125 60 12.320312 60.074219 C 12.816406 60.257812 13.214844 60.625 13.441406 61.097656 C 13.582031 61.40625 13.648438 61.742188 13.636719 62.082031 C 13.652344 62.488281 13.5625 62.890625 13.378906 63.253906 C 13.210938 63.558594 12.972656 63.816406 12.679688 64.007812 C 12.359375 64.210938 12.003906 64.347656 11.628906 64.414062 C 11.199219 64.496094 10.761719 64.535156 10.328125 64.53125 L 7.503906 64.53125 Z M 10.316406 59.445312 C 10.511719 59.445312 10.707031 59.421875 10.898438 59.375 C 11.085938 59.328125 11.265625 59.25 11.425781 59.144531 C 11.582031 59.039062 11.714844 58.902344 11.808594 58.738281 C 11.910156 58.554688 11.960938 58.347656 11.953125 58.136719 C 11.964844 57.914062 11.914062 57.691406 11.808594 57.492188 C 11.714844 57.335938 11.582031 57.207031 11.425781 57.113281 C 11.261719 57.019531 11.082031 56.957031 10.898438 56.929688 C 10.707031 56.898438 10.511719 56.882812 10.316406 56.882812 L 8.734375 56.882812 L 8.734375 59.4375 Z M 10.269531 63.46875 C 10.503906 63.46875 10.742188 63.453125 10.980469 63.429688 C 11.214844 63.40625 11.445312 63.34375 11.660156 63.246094 C 11.867188 63.152344 12.042969 63.003906 12.167969 62.816406 C 12.316406 62.582031 12.382812 62.3125 12.367188 62.039062 C 12.378906 61.773438 12.3125 61.507812 12.175781 61.277344 C 12.050781 61.089844 11.882812 60.933594 11.6875 60.820312 C 11.484375 60.707031 11.265625 60.628906 11.035156 60.589844 C 10.808594 60.554688 10.578125 60.535156 10.347656 60.53125 L 8.734375 60.53125 L 8.734375 63.46875 Z M 17.917969 64.738281 C 17.46875 64.742188 17.027344 64.65625 16.613281 64.484375 C 16.230469 64.320312 15.878906 64.078125 15.589844 63.777344 C 15.300781 63.480469 15.074219 63.132812 14.917969 62.75 C 14.589844 61.949219 14.589844 61.050781 14.917969 60.25 C 15.074219 59.867188 15.300781 59.519531 15.589844 59.222656 C 15.878906 58.921875 16.226562 58.683594 16.613281 58.523438 C 17.023438 58.347656 17.46875 58.261719 17.914062 58.265625 C 18.363281 58.261719 18.804688 58.347656 19.21875 58.523438 C 19.605469 58.6875 19.957031 58.925781 20.25 59.222656 C 20.539062 59.519531 20.769531 59.867188 20.929688 60.25 C 21.253906 61.050781 21.253906 61.949219 20.929688 62.75 C 20.769531 63.132812 20.539062 63.480469 20.25 63.777344 C 19.636719 64.398438 18.796875 64.742188 17.921875 64.734375 M 17.921875 63.710938 C 18.222656 63.71875 18.523438 63.652344 18.792969 63.523438 C 19.039062 63.402344 19.261719 63.234375 19.445312 63.023438 C 19.621094 62.816406 19.757812 62.578125 19.847656 62.316406 C 19.9375 62.054688 19.984375 61.777344 19.984375 61.5 C 19.984375 61.226562 19.9375 60.953125 19.847656 60.695312 C 19.757812 60.433594 19.617188 60.191406 19.4375 59.980469 C 19.257812 59.773438 19.035156 59.601562 18.785156 59.476562 C 18.519531 59.347656 18.230469 59.285156 17.933594 59.289062 C 17.632812 59.28125 17.335938 59.347656 17.066406 59.476562 C 16.816406 59.597656 16.59375 59.765625 16.414062 59.976562 C 16.238281 60.183594 16.101562 60.421875 16.011719 60.679688 C 15.921875 60.945312 15.875 61.222656 15.875 61.5 C 15.875 61.777344 15.921875 62.050781 16.011719 62.3125 C 16.101562 62.570312 16.242188 62.808594 16.421875 63.019531 C 16.601562 63.226562 16.824219 63.398438 17.074219 63.523438 C 17.335938 63.652344 17.628906 63.714844 17.925781 63.710938 M 22.746094 62.558594 C 22.695312 63.140625 22.859375 63.71875 23.199219 64.195312 C 23.574219 64.574219 24.101562 64.765625 24.636719 64.71875 C 24.960938 64.726562 25.285156 64.671875 25.59375 64.554688 C 25.886719 64.429688 26.152344 64.25 26.378906 64.023438 L 25.839844 63.304688 C 25.707031 63.433594 25.554688 63.539062 25.386719 63.617188 C 25.210938 63.695312 25.015625 63.730469 24.820312 63.722656 C 24.570312 63.738281 24.332031 63.636719 24.167969 63.449219 C 23.980469 63.148438 23.902344 62.792969 23.9375 62.441406 L 23.9375 59.445312 L 25.734375 59.445312 L 25.734375 58.464844 L 23.9375 58.464844 L 23.9375 56.476562 L 22.75 56.476562 L 22.75 58.464844 L 21.625 58.464844 L 21.625 59.445312 L 22.738281 59.445312 Z M 31.109375 63.816406 C 30.878906 64.125 30.566406 64.359375 30.203125 64.496094 C 29.835938 64.640625 29.445312 64.714844 29.050781 64.710938 C 28.792969 64.710938 28.539062 64.679688 28.289062 64.613281 C 28.042969 64.550781 27.808594 64.4375 27.601562 64.285156 C 27.390625 64.128906 27.21875 63.929688 27.097656 63.695312 C 26.964844 63.421875 26.898438 63.117188 26.910156 62.8125 C 26.882812 62.210938 27.140625 61.632812 27.601562 61.242188 C 28.175781 60.8125 28.886719 60.605469 29.605469 60.652344 C 29.746094 60.652344 29.894531 60.652344 30.050781 60.667969 L 30.5 60.691406 L 30.875 60.71875 C 30.980469 60.71875 31.054688 60.738281 31.089844 60.746094 L 31.089844 60.53125 C 31.125 60.15625 30.96875 59.792969 30.675781 59.554688 C 30.339844 59.34375 29.941406 59.242188 29.542969 59.261719 C 29.164062 59.246094 28.785156 59.308594 28.433594 59.449219 C 28.195312 59.558594 27.964844 59.6875 27.75 59.839844 L 27.191406 59.039062 C 27.3125 58.941406 27.441406 58.855469 27.574219 58.777344 C 27.742188 58.679688 27.921875 58.601562 28.105469 58.535156 C 28.328125 58.457031 28.558594 58.394531 28.789062 58.351562 C 29.082031 58.300781 29.378906 58.277344 29.675781 58.277344 C 30.347656 58.242188 31.011719 58.445312 31.546875 58.847656 C 32.011719 59.253906 32.265625 59.851562 32.226562 60.464844 L 32.226562 64.007812 C 32.226562 64.222656 32.226562 64.402344 32.242188 64.550781 L 31.132812 64.550781 Z M 31.097656 61.667969 C 31.0625 61.667969 30.992188 61.648438 30.894531 61.632812 C 30.792969 61.621094 30.675781 61.609375 30.542969 61.597656 L 30.121094 61.574219 C 29.976562 61.566406 29.832031 61.5625 29.683594 61.5625 C 29.410156 61.550781 29.132812 61.589844 28.875 61.679688 C 28.691406 61.742188 28.523438 61.84375 28.386719 61.972656 C 28.269531 62.082031 28.1875 62.214844 28.140625 62.363281 C 28.097656 62.5 28.074219 62.636719 28.074219 62.777344 C 28.054688 63.070312 28.183594 63.351562 28.417969 63.53125 C 28.699219 63.714844 29.03125 63.804688 29.367188 63.785156 C 29.589844 63.785156 29.8125 63.746094 30.019531 63.667969 C 30.21875 63.59375 30.40625 63.488281 30.570312 63.355469 C 30.726562 63.226562 30.855469 63.070312 30.953125 62.894531 C 31.046875 62.734375 31.097656 62.546875 31.097656 62.359375 Z M 33.726562 64.542969 L 34.914062 64.542969 L 34.914062 61.722656 C 34.914062 61.429688 34.945312 61.136719 35.003906 60.851562 C 35.0625 60.582031 35.160156 60.328125 35.300781 60.09375 C 35.4375 59.871094 35.628906 59.683594 35.851562 59.550781 C 36.113281 59.398438 36.417969 59.324219 36.71875 59.335938 C 37.109375 59.3125 37.492188 59.457031 37.761719 59.734375 C 38.039062 60.089844 38.171875 60.535156 38.132812 60.984375 L 38.132812 64.542969 L 39.320312 64.542969 L 39.320312 60.886719 C 39.359375 60.210938 39.152344 59.542969 38.742188 59 C 38.285156 58.511719 37.628906 58.257812 36.957031 58.308594 C 36.699219 58.304688 36.445312 58.339844 36.195312 58.414062 C 35.992188 58.476562 35.792969 58.5625 35.609375 58.675781 C 35.453125 58.769531 35.3125 58.886719 35.1875 59.019531 C 35.074219 59.148438 34.96875 59.265625 34.898438 59.371094 L 34.855469 58.453125 L 33.71875 58.453125 C 33.71875 58.667969 33.734375 58.882812 33.734375 59.074219 L 33.734375 64.542969 Z M 40.816406 64.542969 L 42.003906 64.542969 L 42.003906 58.457031 L 40.816406 58.457031 Z M 40.738281 57.371094 L 42.078125 57.371094 L 42.078125 56.050781 L 40.742188 56.050781 Z M 48.132812 62.945312 C 47.941406 63.179688 47.699219 63.363281 47.425781 63.488281 C 47.121094 63.628906 46.789062 63.699219 46.453125 63.691406 C 45.878906 63.703125 45.332031 63.457031 44.96875 63.019531 C 44.792969 62.808594 44.65625 62.570312 44.570312 62.3125 C 44.480469 62.046875 44.433594 61.769531 44.433594 61.492188 C 44.433594 61.210938 44.476562 60.929688 44.570312 60.660156 C 44.65625 60.40625 44.792969 60.164062 44.96875 59.953125 C 45.140625 59.75 45.355469 59.585938 45.601562 59.46875 C 45.867188 59.347656 46.160156 59.289062 46.453125 59.292969 C 46.777344 59.285156 47.097656 59.355469 47.390625 59.488281 C 47.652344 59.617188 47.882812 59.800781 48.066406 60.027344 L 48.84375 59.28125 C 48.5625 58.964844 48.214844 58.710938 47.828125 58.535156 C 46.972656 58.175781 46.011719 58.167969 45.152344 58.515625 C 44.382812 58.84375 43.773438 59.464844 43.464844 60.234375 C 43.308594 60.636719 43.226562 61.0625 43.230469 61.492188 C 43.222656 61.9375 43.296875 62.378906 43.445312 62.796875 C 43.589844 63.175781 43.8125 63.523438 44.097656 63.816406 C 44.386719 64.105469 44.734375 64.335938 45.117188 64.484375 C 45.542969 64.648438 46 64.734375 46.457031 64.726562 C 46.9375 64.734375 47.414062 64.640625 47.851562 64.445312 C 48.238281 64.269531 48.582031 64.015625 48.863281 63.703125 Z M 57.089844 61.191406 L 58.96875 61.191406 L 58.96875 62.972656 C 58.691406 63.183594 58.382812 63.34375 58.046875 63.441406 C 57.625 63.566406 57.1875 63.621094 56.746094 63.613281 C 55.878906 63.628906 55.046875 63.277344 54.453125 62.652344 C 54.160156 62.339844 53.933594 61.976562 53.785156 61.574219 C 53.621094 61.132812 53.542969 60.660156 53.546875 60.1875 C 53.542969 59.734375 53.617188 59.277344 53.765625 58.847656 C 53.898438 58.441406 54.109375 58.066406 54.386719 57.742188 C 54.65625 57.425781 54.992188 57.171875 55.371094 56.996094 C 55.78125 56.808594 56.226562 56.714844 56.675781 56.71875 C 56.976562 56.714844 57.277344 56.757812 57.566406 56.851562 C 57.8125 56.929688 58.042969 57.039062 58.261719 57.179688 C 58.453125 57.300781 58.632812 57.445312 58.789062 57.609375 C 58.925781 57.753906 59.054688 57.910156 59.171875 58.074219 L 60.070312 57.3125 C 59.921875 57.109375 59.757812 56.917969 59.582031 56.738281 C 59.371094 56.523438 59.132812 56.335938 58.875 56.183594 C 58.570312 55.996094 58.246094 55.851562 57.902344 55.753906 C 56.890625 55.480469 55.8125 55.550781 54.84375 55.949219 C 54.316406 56.179688 53.84375 56.511719 53.449219 56.929688 C 53.058594 57.355469 52.75 57.851562 52.542969 58.390625 C 52.328125 58.960938 52.21875 59.570312 52.222656 60.183594 C 52.214844 60.800781 52.320312 61.414062 52.53125 61.996094 C 52.726562 62.53125 53.035156 63.023438 53.429688 63.4375 C 53.832031 63.847656 54.3125 64.171875 54.84375 64.390625 C 55.433594 64.628906 56.0625 64.746094 56.699219 64.738281 C 57.097656 64.742188 57.496094 64.707031 57.890625 64.636719 C 58.214844 64.582031 58.535156 64.492188 58.847656 64.378906 C 59.113281 64.28125 59.363281 64.15625 59.601562 64.003906 C 59.804688 63.875 59.996094 63.730469 60.175781 63.574219 L 60.175781 60.109375 L 57.089844 60.109375 Z M 65.628906 63.808594 C 65.398438 64.117188 65.085938 64.351562 64.726562 64.488281 C 64.359375 64.632812 63.964844 64.707031 63.570312 64.703125 C 63.3125 64.707031 63.058594 64.671875 62.808594 64.605469 C 62.5625 64.542969 62.328125 64.429688 62.121094 64.277344 C 61.910156 64.121094 61.742188 63.921875 61.621094 63.691406 C 61.484375 63.414062 61.417969 63.113281 61.429688 62.804688 C 61.40625 62.207031 61.660156 61.625 62.121094 61.234375 C 62.695312 60.808594 63.40625 60.597656 64.125 60.648438 C 64.269531 60.648438 64.417969 60.652344 64.574219 60.660156 L 65.023438 60.683594 L 65.394531 60.710938 C 65.5 60.710938 65.574219 60.730469 65.609375 60.738281 L 65.609375 60.523438 C 65.648438 60.152344 65.492188 59.785156 65.195312 59.550781 C 64.859375 59.335938 64.464844 59.234375 64.066406 59.253906 C 63.6875 59.238281 63.308594 59.304688 62.957031 59.445312 C 62.714844 59.554688 62.484375 59.683594 62.265625 59.832031 L 61.714844 59.03125 C 61.832031 58.933594 61.960938 58.847656 62.097656 58.773438 C 62.265625 58.675781 62.441406 58.59375 62.625 58.527344 C 62.847656 58.449219 63.078125 58.386719 63.3125 58.34375 C 63.605469 58.292969 63.902344 58.269531 64.199219 58.273438 C 64.871094 58.234375 65.53125 58.4375 66.066406 58.84375 C 66.53125 59.25 66.785156 59.847656 66.746094 60.460938 L 66.746094 64.007812 C 66.746094 64.222656 66.746094 64.402344 66.761719 64.550781 L 65.648438 64.550781 Z M 65.617188 61.660156 C 65.582031 61.660156 65.511719 61.640625 65.414062 61.628906 C 65.3125 61.613281 65.195312 61.601562 65.0625 61.59375 L 64.640625 61.566406 C 64.496094 61.558594 64.351562 61.554688 64.207031 61.554688 C 63.929688 61.542969 63.65625 61.585938 63.394531 61.671875 C 63.210938 61.734375 63.042969 61.835938 62.902344 61.96875 C 62.789062 62.074219 62.707031 62.210938 62.660156 62.359375 C 62.617188 62.492188 62.59375 62.632812 62.59375 62.773438 C 62.574219 63.0625 62.703125 63.347656 62.9375 63.523438 C 63.21875 63.710938 63.550781 63.800781 63.890625 63.78125 C 64.113281 63.78125 64.332031 63.738281 64.539062 63.660156 C 64.738281 63.585938 64.925781 63.480469 65.089844 63.347656 C 65.246094 63.21875 65.375 63.066406 65.472656 62.890625 C 65.566406 62.726562 65.617188 62.539062 65.617188 62.351562 Z M 68.257812 64.542969 L 69.449219 64.542969 L 69.449219 61.34375 C 69.449219 60.855469 69.632812 60.386719 69.960938 60.027344 C 70.449219 59.53125 71.175781 59.355469 71.839844 59.574219 L 72.101562 58.476562 C 72.003906 58.441406 71.898438 58.414062 71.792969 58.398438 C 71.671875 58.378906 71.550781 58.371094 71.429688 58.371094 C 71.175781 58.367188 70.925781 58.40625 70.683594 58.484375 C 70.484375 58.550781 70.292969 58.640625 70.113281 58.753906 C 69.960938 58.847656 69.820312 58.964844 69.699219 59.097656 C 69.597656 59.207031 69.503906 59.324219 69.421875 59.445312 L 69.378906 58.464844 L 68.246094 58.464844 C 68.253906 58.664062 68.257812 58.855469 68.257812 59.042969 Z M 77.160156 63.769531 C 77.113281 63.824219 77.042969 63.902344 76.941406 64.011719 C 76.824219 64.136719 76.6875 64.246094 76.542969 64.332031 C 76.355469 64.445312 76.160156 64.539062 75.953125 64.609375 C 75.699219 64.691406 75.433594 64.730469 75.167969 64.726562 C 74.421875 64.730469 73.710938 64.417969 73.210938 63.867188 C 72.957031 63.578125 72.761719 63.242188 72.636719 62.878906 C 72.496094 62.457031 72.429688 62.019531 72.433594 61.574219 C 72.421875 61.0625 72.523438 60.554688 72.738281 60.089844 C 72.921875 59.699219 73.183594 59.351562 73.511719 59.070312 C 73.808594 58.8125 74.152344 58.613281 74.527344 58.488281 C 74.859375 58.371094 75.210938 58.308594 75.5625 58.304688 C 75.914062 58.289062 76.265625 58.34375 76.59375 58.460938 C 76.84375 58.566406 77.03125 58.644531 77.164062 58.695312 L 77.164062 55.820312 L 78.339844 55.820312 L 78.339844 63.925781 C 78.339844 64.125 78.339844 64.332031 78.351562 64.550781 L 77.1875 64.550781 Z M 77.160156 59.804688 C 77.007812 59.695312 76.84375 59.601562 76.671875 59.523438 C 76.351562 59.390625 76 59.328125 75.652344 59.347656 C 75.378906 59.34375 75.105469 59.398438 74.855469 59.503906 C 74.613281 59.605469 74.398438 59.757812 74.21875 59.949219 C 74.027344 60.152344 73.878906 60.390625 73.785156 60.65625 C 73.679688 60.957031 73.628906 61.277344 73.632812 61.597656 C 73.632812 61.875 73.667969 62.148438 73.742188 62.417969 C 73.804688 62.660156 73.914062 62.886719 74.0625 63.089844 C 74.210938 63.28125 74.398438 63.4375 74.617188 63.542969 C 74.867188 63.65625 75.140625 63.710938 75.417969 63.703125 C 75.691406 63.710938 75.964844 63.65625 76.210938 63.535156 C 76.417969 63.429688 76.601562 63.285156 76.746094 63.105469 C 76.882812 62.9375 76.984375 62.746094 77.050781 62.542969 C 77.113281 62.359375 77.144531 62.167969 77.148438 61.972656 Z M 85.472656 63.652344 C 85.375 63.757812 85.269531 63.859375 85.15625 63.953125 C 84.988281 64.09375 84.804688 64.210938 84.609375 64.308594 C 84.355469 64.429688 84.089844 64.53125 83.816406 64.601562 C 83.476562 64.6875 83.128906 64.730469 82.78125 64.726562 C 82.332031 64.730469 81.890625 64.648438 81.476562 64.488281 C 81.09375 64.34375 80.746094 64.113281 80.457031 63.824219 C 80.171875 63.527344 79.949219 63.175781 79.808594 62.789062 C 79.648438 62.359375 79.570312 61.910156 79.578125 61.453125 C 79.570312 61.027344 79.644531 60.605469 79.792969 60.203125 C 79.933594 59.828125 80.148438 59.488281 80.429688 59.199219 C 80.703125 58.910156 81.035156 58.679688 81.402344 58.523438 C 81.789062 58.351562 82.210938 58.269531 82.632812 58.273438 C 83.105469 58.261719 83.574219 58.363281 83.996094 58.574219 C 84.363281 58.765625 84.683594 59.039062 84.929688 59.375 C 85.175781 59.71875 85.355469 60.101562 85.464844 60.511719 C 85.578125 60.945312 85.636719 61.394531 85.632812 61.847656 L 80.78125 61.847656 C 80.785156 62.105469 80.847656 62.359375 80.960938 62.59375 C 81.0625 62.816406 81.210938 63.015625 81.394531 63.183594 C 81.578125 63.347656 81.792969 63.480469 82.027344 63.574219 C 82.265625 63.671875 82.523438 63.71875 82.78125 63.71875 C 83.222656 63.734375 83.664062 63.644531 84.0625 63.457031 C 84.332031 63.328125 84.578125 63.15625 84.789062 62.945312 Z M 84.402344 60.96875 C 84.378906 60.523438 84.203125 60.097656 83.902344 59.765625 C 83.574219 59.421875 83.109375 59.238281 82.632812 59.269531 C 82.371094 59.265625 82.113281 59.3125 81.875 59.414062 C 81.660156 59.5 81.464844 59.628906 81.296875 59.789062 C 81.140625 59.945312 81.015625 60.132812 80.925781 60.335938 C 80.839844 60.535156 80.792969 60.75 80.785156 60.96875 Z M 86.808594 64.542969 L 87.996094 64.542969 L 87.996094 61.722656 C 87.996094 61.429688 88.027344 61.136719 88.089844 60.851562 C 88.144531 60.582031 88.246094 60.328125 88.386719 60.09375 C 88.679688 59.601562 89.222656 59.3125 89.792969 59.339844 C 90.183594 59.316406 90.566406 59.460938 90.839844 59.738281 C 91.113281 60.097656 91.246094 60.542969 91.207031 60.988281 L 91.207031 64.542969 L 92.398438 64.542969 L 92.398438 60.886719 C 92.433594 60.210938 92.230469 59.542969 91.816406 59 C 91.359375 58.511719 90.703125 58.257812 90.03125 58.308594 C 89.773438 58.304688 89.519531 58.339844 89.269531 58.414062 C 89.066406 58.476562 88.867188 58.5625 88.683594 58.675781 C 88.523438 58.769531 88.378906 58.886719 88.25 59.019531 C 88.136719 59.148438 88.035156 59.265625 87.960938 59.371094 L 87.921875 58.453125 L 86.808594 58.453125 C 86.808594 58.667969 86.820312 58.882812 86.820312 59.074219 L 86.820312 64.542969 Z M 93.433594 63.800781 C 94.132812 64.464844 95.085938 64.800781 96.050781 64.730469 C 96.375 64.730469 96.699219 64.6875 97.015625 64.609375 C 97.304688 64.539062 97.582031 64.421875 97.832031 64.257812 C 98.0625 64.109375 98.257812 63.910156 98.402344 63.675781 C 98.546875 63.429688 98.625 63.152344 98.617188 62.867188 C 98.625 62.605469 98.570312 62.34375 98.453125 62.109375 C 98.347656 61.902344 98.191406 61.722656 98.003906 61.582031 C 97.804688 61.429688 97.585938 61.3125 97.351562 61.226562 C 97.085938 61.132812 96.816406 61.050781 96.539062 60.984375 C 96.132812 60.898438 95.734375 60.777344 95.34375 60.625 C 95.078125 60.550781 94.894531 60.316406 94.886719 60.042969 C 94.871094 59.792969 95.007812 59.554688 95.230469 59.441406 C 95.515625 59.304688 95.828125 59.242188 96.144531 59.257812 C 96.476562 59.25 96.804688 59.308594 97.117188 59.425781 C 97.371094 59.53125 97.605469 59.675781 97.808594 59.859375 L 98.460938 59.042969 C 98.171875 58.796875 97.835938 58.605469 97.476562 58.476562 C 97.042969 58.332031 96.589844 58.261719 96.132812 58.273438 C 95.832031 58.273438 95.53125 58.3125 95.242188 58.390625 C 94.96875 58.464844 94.707031 58.582031 94.46875 58.738281 C 94.25 58.882812 94.0625 59.074219 93.921875 59.300781 C 93.78125 59.535156 93.710938 59.804688 93.71875 60.078125 C 93.710938 60.335938 93.769531 60.589844 93.890625 60.820312 C 94 61.023438 94.152344 61.199219 94.339844 61.339844 C 94.527344 61.488281 94.742188 61.605469 94.964844 61.691406 C 95.195312 61.777344 95.433594 61.851562 95.671875 61.90625 C 96.007812 61.984375 96.285156 62.054688 96.511719 62.121094 C 96.699219 62.167969 96.882812 62.242188 97.054688 62.335938 C 97.171875 62.398438 97.273438 62.488281 97.34375 62.605469 C 97.402344 62.714844 97.433594 62.835938 97.429688 62.964844 C 97.4375 63.222656 97.277344 63.460938 97.035156 63.558594 C 96.722656 63.695312 96.382812 63.757812 96.042969 63.746094 C 95.675781 63.753906 95.3125 63.6875 94.972656 63.550781 C 94.675781 63.429688 94.40625 63.25 94.179688 63.027344 Z M 93.433594 63.800781 "/>
    </g>
</svg>
