<svg width="77" height="78" viewBox="0 0 77 78" xmlns="http://www.w3.org/2000/svg" xmlns:xlink="http://www.w3.org/1999/xlink"><title>logo-norfolk</title><defs><path id="a" d="M79.237 79.842V.15H0v79.693h79.237H0V.15h79.237v79.692z"/><path id="c" d="M0 79.843h79.237V.15H0z"/></defs><g fill="none" fill-rule="evenodd"><g transform="translate(-1.37 -.993)"><mask id="b" fill="#fff"><use xlink:href="#a"/></mask><path d="M64.92 11.199c-6.122-5.265-14.24-9.676-25.234-9.676-11.124 0-19.36 4.462-25.366 9.676a4.488 4.488 0 0 0-.72.719h-.065c-.528.474-1.03.975-1.503 1.503v.066c-.289.234-.55.495-.785.784-5.287 6.222-9.806 14.34-9.806 25.758 0 11.456 4.497 19.588 9.806 25.823.235.29.496.55.785.785v.065c.474.529.975 1.03 1.503 1.504h.066c.212.267.452.506.719.719 6.112 5.207 14.072 9.675 25.3 9.675 11.228 0 19.188-4.468 25.3-9.675.267-.213.507-.452.72-.72h.065c.528-.473 1.03-.974 1.503-1.503v-.065a5.34 5.34 0 0 0 .785-.785c5.287-6.221 9.806-14.34 9.806-25.758 0-11.456-4.497-19.588-9.806-25.823a5.331 5.331 0 0 0-.785-.784v-.066a19.574 19.574 0 0 0-1.503-1.503h-.066a4.468 4.468 0 0 0-.719-.72M.068.15h79.17v79.692H.002V.346C-.003.254-.007.161.068.15" fill="#FFF" mask="url(#b)"/><mask id="d" fill="#fff"><use xlink:href="#c"/></mask><path fill="#2A5F1F" mask="url(#d)" d="M39.032 12.583h1.177v-.208h-1.177z"/><path d="M44.458 18.978c.421.386 1.467.544 1.242-.523-.4-.432-1.393-.318-1.242.523m1.307.458c-.505.078-1.296.287-1.569-.13-.01-.469-.01-.926.131-1.243-.562-.092-.64.608-1.177.327.101-1.04 2.186-.7 2.68-.261.161.344.216 1.054-.065 1.307" fill="#0D4404" mask="url(#d)"/><path d="M45.112 18.455c-.135-.294-.554.026-.327.262v.327c.24.045.497.113.719 0-.008-.189.036-.428-.066-.523-.151.02-.25-.01-.326-.066m.588 0c.225 1.067-.821.909-1.242.523-.15-.841.843-.955 1.242-.523M26.349 27.02c-.082-.224-.022-.589-.13-.785-.763-.109-.48.829-.785 1.177-.9.162-.963-1.134-.262-1.504-.042-.568-.286-.934-.392-1.438-.346-.177-.905-.142-.785-.785.481-.546 1.093.225 1.766.523.3.134.602.084.85.197.419.19.57.6.915.85.355.256.859.316.98.784 1.145.12 1.472 1.056 2.223 1.569-.45.944-.713 2.076-1.111 3.072-.482-.215-.619-.775-1.242-.85-.276-.925.133-2.876-.916-2.81-.135.474-.06 1.16-.196 1.634a1.245 1.245 0 0 1-.85-.85c-.041-.242.085-.651-.065-.785" fill="#F08D2D" mask="url(#d)"/><path d="M42.431 31.661c-.026-.396.279-.462.458-.654.252-.335.19-.987.85-.915-.094.825-.562 1.612-1.308 1.57" fill="#0D4404" mask="url(#d)"/><path d="M41.712 32.25c1.078-.383 1.893-1.027 2.223-2.158.374.495-.258 1.167-.458 1.634-.075.177.004.381-.065.523-.544 1.122-1.818 1.902-2.354 2.877-.707.423-1.745 1.21-2.615 1.765-.717.458-2.508 1.652-3.4.72-.156-1.254 1.268-1.334 2.158-1.7 1.64-.676 2.986-1.829 3.923-2.942 0-.174-.025-.374.065-.458.168-.094.414-.109.523-.262" fill="#61B0E2" mask="url(#d)"/><path d="M38.77 38.656c-.173 0-.373.025-.457-.065.025-1.456 1.51-1.453 2.288-2.157.273.407-.23 1.303.196 1.7.417.067.555-.143.915-.132.113.109.672.109.785 0 .545.022.967.166 1.438.262-.363.509-1.063.68-1.635.98-.308.237-.495.595-.784.85.076.376-.278.638-.392.981-.11.331.027.902-.393 1.046-.644-1.165-.082-2.518.458-3.465-.46-.287-1.215-.037-1.7-.065-.22.041-.607-.084-.719.065" fill="#CAD6C8" mask="url(#d)"/><path d="M37.136 38.33c.208-.056.248.056.327.13-.307.523-.513 1.052-1.112 1.961-.274.118-.35.435-.588.589-.19.046-.532.155-.392.327h-.066a3.67 3.67 0 0 0-.653.653c-.014.074-.073.102-.131.131-.297.205-.578.424-.785.72-.176-.13-.493.039-.588.195-.318.162-.62.338-.85.589-.053.056-.179.039-.196.13-.478.154-.875.39-1.177.72h-.065c-.159-.005-.667.203-.915.327h-.131c-.017-.092-.144-.075-.196-.131.12-.6.615-.824.85-1.308v-.065c.255-.268.571-.475.719-.85 1.978-.854 3.845-1.82 4.707-3.792.223-.103.646-.007.719-.261.207.086.46.097.523-.066" fill="#61B0E2" mask="url(#d)"/><path d="M42.758 39.44c1.613-1.008 2.178.683 3.073 1.504.124.114.32.082.457.197.086.07.215.394.393.588.295.322.483.651.784.98.171.188.462.256.588.393.258.277.39.728.654 1.046.25.3.643.51.85.784.284.375.487.797.785 1.177.285.364.67.7.915 1.046.334.472.401 1.128.98 1.373.556 1.183 1.447 2.031 2.093 3.269.25.481.452.965.719 1.438.444.788 1.063 1.469 1.373 2.484.965 1.148 1.539 2.688 2.288 4.053-.253.25-.577.426-.785.72-1.288.978-2.338 2.194-3.988 2.81-.122-1.144-1.2-2.072-1.111-3.137.085-1.024 1.245-1.377 1.7-2.223-1.133-.534-1.666.637-2.027 1.307-1.012-1.224.849-2.866.654-4.314-.25-.298-.733-.053-1.046-.197-.115-.543.785-1.686-.066-1.96-1.228-.398-1.312 1.212-1.765 1.83-.63-.757-1.057-1.817-1.569-2.811-.448-.872-.921-1.585-.915-2.68.006-1.085.594-2.04.392-3.27-1.293.124-.786 2.048-1.569 2.68-1.928-.415.233-3.952-1.242-4.968-.444.08-.396.65-.915.654-.088-.808.335-2.25-.327-2.484-.975-.343-1.254 1.242-1.634 1.896-.51-.145-.602-.706-1.112-.85-.058-1.148.451-1.728.654-2.615.267-.212.507-.452.72-.72" fill="#F08D2D" mask="url(#d)"/><path d="M72.635 39.245a2.784 2.784 0 0 1 1.569 0c.415.216.76.503 1.045.85.725 1.552-.327 2.973-1.765 3.007-1.496.035-2.645-1.394-1.896-3.008a3.355 3.355 0 0 1 1.047-.85m-67.468.393c.645-.311 1.579-.311 2.223 0 .316.25.6.534.85.85.228.54.228 1.225 0 1.765a6.38 6.38 0 0 1-.85.85c-.644.311-1.578.311-2.223 0a5.21 5.21 0 0 1-.85-.85 2.364 2.364 0 0 1 0-1.765 6.42 6.42 0 0 1 .85-.85" fill="#E13333" mask="url(#d)"/><path fill="#8EBABB" mask="url(#d)" d="M66.881 41.01h.208v-1.635h-.208z"/><path fill="#4EAB26" mask="url(#d)" d="M29.552 52.254h.208v-.719h-.208z"/><path d="M23.08 53.627c-.134-.171-.228-.382-.196-.719.335-.275.898-.322 1.308-.523.734.567-.17 1.377-1.112 1.242m-1.569 1.046c-.446-.011-.64-.275-.98-.392-.537-1.363 1.645-.427.98.392" fill="#FFF" mask="url(#d)"/><path fill="#2A5F1F" mask="url(#d)" d="M38.966 68.152h.981v-.208h-.98zM13.6 11.918a4.54 4.54 0 0 1 .72-.72 4.475 4.475 0 0 1-.72.72m-1.568 1.503c.474-.528.975-1.03 1.503-1.503-.473.528-.975 1.03-1.503 1.503m-.785.85c.235-.288.496-.55.785-.784a5.29 5.29 0 0 1-.785.784m0 51.581c.29.234.55.496.785.785a5.322 5.322 0 0 1-.785-.785m.785.85c.528.474 1.03.975 1.503 1.504a19.574 19.574 0 0 1-1.503-1.504m1.568 1.504c.268.212.508.452.72.719a4.481 4.481 0 0 1-.72-.72m51.32.72c.213-.267.452-.507.72-.72a4.468 4.468 0 0 1-.72.72m.785-.719c.474-.529.975-1.03 1.503-1.504-.474.529-.975 1.03-1.503 1.504m1.503-1.569a5.3 5.3 0 0 1 .785-.785c-.234.29-.496.55-.785.785m0-53.15c.29.234.55.495.785.784a5.307 5.307 0 0 1-.785-.784m-1.503-1.569c.528.474 1.03.975 1.503 1.503a19.49 19.49 0 0 1-1.503-1.503m-.785-.719c.267.212.507.452.72.719a4.475 4.475 0 0 1-.72-.72"/><path d="M35.828 4.4c-.13-.073-.075-.506 0-.589h.589c-.049.148-.367.026-.523.066-.148.048-.026.366-.066.523" fill="#8EBABB" mask="url(#d)"/><path d="M32.037 8.845c.91-.091 1.656-.348 2.55-.457-.006.354.153.543.13.915-1.263.154-2.333.5-3.596.654-.234-1.749-.716-3.25-.915-5.034.358-.01.776-.246 1.046-.131.209 1.404.521 2.704.785 4.053m-6.211-1.438c-2.031-.07-1.652 3.118-.196 3.465 1.36.324 2-.747 1.7-1.961-.209-.846-.692-1.476-1.504-1.504zm2.615 2.419c-.172 1.3-1.668 2.458-3.334 1.961-1.565-.466-2.427-2.922-1.373-4.315 1.368-1.808 4.523-1.063 4.707 1.57v.784zm-8.107-.85c.29.125.316.513.589.654-.617.56-1.334 1.019-2.027 1.503.212.333.498.592.654.981.651-.351 1.188-.817 1.765-1.242.195.24.453.418.523.784-.328.106-.518.349-.85.589-.177.128-.817.385-.85.588-.03.188.498.7.654.915.243.336.48.58.588.916-.32.138-.495.419-.85.523a385.616 385.616 0 0 0-2.941-4.054c.768-.866 1.912-1.356 2.745-2.157" fill="#FFF" mask="url(#d)"/><path d="M17.72 20.155a23.123 23.123 0 0 1 1.634-1.634 23.123 23.123 0 0 1-1.635 1.634" fill="#8EBABB" mask="url(#d)"/><path d="M18.177 60.884c.267.212.507.452.72.719a4.462 4.462 0 0 1-.72-.72m41.971.72c.212-.267.452-.507.719-.72a4.456 4.456 0 0 1-.72.72" fill="#2A5F1F" mask="url(#d)"/><path d="M38.247 12.44c-.263.043-.695-.084-.85.066h-.065c-.199.041-.563-.084-.654.066-3.534.322-6.432 1.281-9.021 2.55-.299.094-.56.224-.785.391-2.085 1.031-3.913 2.32-5.557 3.792h-.065c-.155.26-.44.388-.654.589-.441.386-.855.8-1.242 1.242-.185.25-.395.477-.588.719a24.767 24.767 0 0 0-3.727 5.426c-.21.312-.385.66-.523 1.046-1.303 2.707-2.281 5.738-2.55 9.48-.15.133-.023.542-.065.784v.13a13.279 13.279 0 0 0 0 2.943v.13c.042.242-.085.651.065.785.27 3.74 1.242 6.777 2.55 9.48.138.384.312.733.523 1.045 1.018 2.033 2.284 3.818 3.727 5.426.17.222.37.415.523.654.408.463.844.899 1.307 1.308.242.193.469.402.72.588 1.612 1.438 3.383 2.717 5.425 3.726.269.19.574.342.916.458 2.59 1.267 5.485 2.229 9.021 2.55.09.149.455.024.654.065h.065c.155.15.587.023.85.065h.066c.09.15.455.025.653.066h.98c.307-.043.784.085.982-.066h.065c.263-.042.695.085.85-.065h.065c.199-.041.563.084.654-.066 3.534-.322 6.433-1.281 9.022-2.55.341-.115.647-.268.915-.457 2.035-1.016 3.816-2.285 5.426-3.726.206-.143.353-.344.588-.458.529-.474 1.03-.975 1.504-1.503.126-.267.363-.422.523-.654a25.276 25.276 0 0 0 3.661-5.361 4.65 4.65 0 0 0 .523-1.046c1.3-2.71 2.28-5.74 2.55-9.48.15-.133.023-.542.065-.784v-.196c.109-.785.109-2.026 0-2.811v-.196c-.042-.242.085-.651-.065-.785-.27-3.739-1.25-6.77-2.55-9.48a3.57 3.57 0 0 0-.458-.914c-1.017-2.056-2.291-3.854-3.726-5.492-.142-.25-.427-.357-.523-.654a17.883 17.883 0 0 0-1.438-1.438c-.24-.153-.433-.352-.654-.523-1.647-1.469-3.471-2.76-5.557-3.792a2.626 2.626 0 0 0-.784-.392c-2.592-1.265-5.486-2.228-9.022-2.55-.09-.149-.455-.024-.654-.065h-.065c-.155-.15-.587-.023-.85-.065h-.065c-.112-.15-.5-.024-.72-.066h-1.176c-.22.042-.608-.084-.72.066h-.065zm23.078 7.715c4.37 4.734 7.893 11.667 7.845 20.659-.048 8.816-3.945 15.256-8.303 20.07a4.476 4.476 0 0 0-.72.719c-4.905 4.463-11.375 8.302-20.658 8.302-9.242 0-15.7-3.862-20.593-8.302a4.481 4.481 0 0 0-.719-.72c-4.256-4.809-8.302-11.059-8.302-20.135 0-9.167 3.384-15.715 7.844-20.593a23.059 23.059 0 0 0 1.635-1.634c4.8-4.244 10.583-7.505 19.286-7.845h1.765c8.702.34 14.486 3.6 19.285 7.845a23.056 23.056 0 0 0 1.635 1.634z" fill="#FFF" mask="url(#d)"/><path d="M59.69 18.52a23.09 23.09 0 0 1 1.635 1.635 23.056 23.056 0 0 1-1.635-1.634m-40.336 2.615c.387-.442.8-.856 1.242-1.242-.387.44-.8.855-1.242 1.242m-.066 38.048c.463.409.9.844 1.308 1.308a15.09 15.09 0 0 1-1.308-1.308m39.225 1.438c.474-.528.976-1.03 1.504-1.503a19.39 19.39 0 0 1-1.504 1.503m1.504-39.356a17.911 17.911 0 0 1-1.438-1.438 17.9 17.9 0 0 1 1.438 1.438" fill="#8EBABB" mask="url(#d)"/><path d="M58.579 19.828c.452.507.931.986 1.438 1.438.096.297.381.404.523.654a94.12 94.12 0 0 0-2.615-2.615c.221.171.415.37.654.523m6.145 32.23a4.67 4.67 0 0 1-.523 1.046 4.67 4.67 0 0 1 .523-1.046m-6.799 9.022a93.904 93.904 0 0 0 2.615-2.615c-.16.232-.397.387-.523.654-.528.474-1.03.975-1.504 1.503-.235.113-.382.315-.588.458m-37.329-.588c-.409-.464-.844-.9-1.308-1.308-.153-.24-.352-.432-.523-.654.84.861 1.678 1.722 2.55 2.55-.25-.185-.477-.395-.719-.588m-5.556-7.388a4.67 4.67 0 0 1-.524-1.046c.211.312.385.661.523 1.046m-.523-24.777a4.67 4.67 0 0 1 .523-1.046 4.67 4.67 0 0 1-.523 1.046m4.838-7.191a13.48 13.48 0 0 0 1.242-1.242c.214-.2.499-.33.654-.589h.065a99.541 99.541 0 0 0-2.55 2.55c.194-.242.404-.469.589-.72m.066.655a11.238 11.238 0 0 1 1.96-1.962.59.59 0 0 1-.261.262c-.529.474-1.03.975-1.504 1.503-.023.086-.115.103-.13.196h-.066zm-1.7 28.7c.245.19.463.408.653.653a3.696 3.696 0 0 1-.654-.654m1.961-6.929c.246.19.464.408.654.653a3.696 3.696 0 0 1-.653-.654m27.065 9.611c.267.212.507.452.719.719a4.475 4.475 0 0 1-.719-.72m-4.184-16.343c.271.186.45.464.719.653-.33-.127-.497-.417-.719-.653" fill="#2A5F1F" mask="url(#d)"/><path d="M53.61 31.073c-.11.15-.021.501-.196.588-.626.096-1.275-.232-1.7.065.188.401.143.627.327.916.34.533 1.08.539 1.177 1.046.112.589-.539 1.064-.13 1.83-.373.28-.795-.058-1.177 0-.41.063-.733.543-1.177.392-.136 1.406 1.963 1.128 2.353 2.223-.596.776-1.812.934-3.007 1.112-.04.519.498.46.72.719-.036 1.92-2.172-.498-2.485.915.923.225 1.254 1.113 1.373 1.961-1.62.551-1.886-.866-2.746-1.634-.686-.613-1.426-1.527-2.092-2.092-.013-1.055-.758-1.378-1.569-1.635-.268-.189-.448-.467-.719-.653-.318-.488-.795-.818-1.111-1.308 1.523-1.554 2.708-3.129 3.334-5.687.19-.774.125-1.673.261-2.485.076-.448.236-.965.392-1.438.17-.509.223-1.095.393-1.438.085-.172.335-.284.457-.458.175-.25.127-.63.458-.653.371.088.338.432.785.392.277-.025.88-.717 1.046-.981.374-.597.62-1.9.457-2.68-.115-.552-.566-1.088-.784-1.635-.245-.613-.228-1.145-.589-1.569-.76-.346-1.313-1.002-2.288-1.111-1.62-.182-3.3.475-4.51 1.046-1.127 1.03-1.958 2.357-2.943 3.53-2.012 1.083-3.406 2.782-5.164 4.119-.45.988-1.185 1.691-1.7 2.615-1.363-.75-2.553-1.675-3.726-2.615-1.077-.029-2.255-1.934-3.4-1.373-.243.12-.47.566-.392.915.12.542 1.333.832 1.177 1.765-.059.348-.213.239-.458.589-.2.75.252 1.05.588 1.438 1.542.31 1.992 1.713 3.465 2.092.286.651.95.925 1.242 1.569-.022 1.835-.897 3.411-.719 5.165.052.509.42.815.327 1.569-.103.84-.295 1.79-.196 2.81.085.88.416 1.631.588 2.55-.043.284-.236.417-.327.654-.554.655.028 1.197.458 1.569v.72c-.235.313-.053.73-.065 1.176-.153 1.155-.022 2.593-.066 3.857v4.184c.044.567-.086 1.307.066 1.765v.327c-.109.156-.109.76 0 .915.075.775.17 1.53.261 2.288.042.22-.084.608.066.72-.065 1.573.059 3.943 1.895 3.399.899-1.377.587-3.399.981-5.165.16-.719.657-1.848.785-2.81.092-.696.054-1.117.719-1.308 1.254-1.95 1.682-5.627 2.157-8.63.056-.354.223-.72.262-1.046.124-1.05.059-2.157.327-3.007.268-.851 1.301-1.795.915-3.334.668.085.883 1.155 1.634 1.373.271.579.73.97.98 1.569.142.055.224.17.458.13 2.09 2.639 4.48 4.98 6.342 7.846-.491-.05-1.1-.842-2.027-.458.13 1.286.567 2.266 1.373 2.876.212.268.452.507.72.72.027.124.186.118.13.327-.73-.016-1.647-.177-2.288-.066.145.835.73 1.231 1.177 1.765.59.063 1.138.169 1.569.392a2.114 2.114 0 0 1-.131.654c-1.117.05-1.878-.258-2.942-.261-.022 1.242 1.308 1.132 2.092 1.569-.205.732-.756 1.118-1.242 1.569-.136.912 1.173.682 1.046 1.373.618-.03 1.127.05 1.634.13.006.103.167.052.13.196h-1.045c-.716-.047-1.502-.023-1.896-.392-.736.324-1.82.499-2.354-.13.3-.423 1.068-.448 1.047-1.047-.039-1.054-2.815-.196-2.812-1.569.281-.648 1.133-.334 1.765-.588.056-.685.805-.677.72-1.504-.857-.005-2.294.411-3.008-.196.29-.733 1.434-.615 1.896-1.176-.131-.96-1.987.004-2.223-.785-.205-.687.626-.658 1.046-.915.16-.668.576-1.08.916-1.57-.591-.843-1.345.313-2.158.262-.183-.121-.124-.486-.13-.784-.042-.263.085-.695-.066-.85-.164-.677.226-1.563-.457-1.765-.32.618-.353 1.522-.523 2.288-.156.215-.636.105-.981.13a5.367 5.367 0 0 0-1.177-.457c-.791 1.322 1.167 1.514 1.765 2.092.131.364.185.953.066 1.373-.569.261-1.356-.082-2.223-.065-.16 1.192 1.308 1.301 1.896 1.96.02.508.23 1.086.065 1.57-1.217.305-1.605-.618-2.484-.85-.96 1.088.812 1.931 1.373 2.419-.16.56-1.177.261-1.373.784.571.345 1.604.227 1.765.981-.55.727-1.588-.137-2.353-.196-.23.076-.2.41-.196.719.323.436 1.161.375 1.307.85.405 1.32-1.86 1.073-2.746 1.242.254.684.614 1.26 1.112 1.7.333.102.866.005.85.457-1.416.231-2.158-.636-3.661-.392-.346.833.573.946.653 1.57-2.322-.621-4.77-1.389-6.276-2.616.565-.242 1.403-.21 1.57-.85-.111-.369-.678-.281-.916-.523-.164-.953 1.182-.95 1.57-1.569-.453-.608-3.36-.233-3.204-1.242.113-.733 1.987-.379 2.353-1.046-.03-.318.068-.766-.065-.98-.418.316-.799.099-1.242 0-.763-.171-1.754.26-2.42-.131-.073-1.23.826-1.485 1.635-1.83.432-.343.752-1.15 1.242-1.635.379-.375 1.153-.494.785-1.438-.84.025-2.086.378-2.55-.262.081-.536.645-.914.392-1.569-1.026-.172-2.084-.312-2.615-.98 1.05-.237 1.608-.964 2.42-1.439.067-.307-.306-.174-.262-.457.01-.52 1.586-1.372 1.569-1.896-.04-1.174-1.05.198-1.504.327-.84.238-1.627-.1-2.55-.066-.026-.672.726-.717.393-1.503.977-.32 2.788-.465 2.223-1.896-.88.242-1.628.73-2.68.457-.263-.849.674-.833 1.11-1.176.143-.415.193-1.034 0-1.439-.523.065-.939.238-1.503.262-.365-.525.092-1.66-.785-1.765-.38.317-.257 1.137-.523 1.569-.328.01-.72-.19-.915.065.036.901.94.933 1.046 1.765-.756.126-2.337-.83-1.634.72.19.245.408.462.653.653.293.165.765.15.916.458-1.132.342-1.578-.555-2.55-.589.244 1.153 1.004 2.351 2.354 2.615-.447 1.159-1.432.029-2.289-.13-.347-.065-.861.049-1.242-.066 0 1.112.811 1.412 1.439 1.896.736-.018 1.384.054 1.83.327v1.438c-1.465.422-2.083-.85-3.203-1.177-.414.287-.18 1.32.13 1.504.191.245.409.463.654.654.093.632 1.211.568 1.112 1.177-.91.267-1.448-.883-2.42-.981-.248-.383-.758-.506-1.176-.72-1.312 1.051.42 2.19.654 3.27.668.878 1.92 1.174 2.419 2.222-2.248.752-2.579-2.241-3.53-3.268-.14-.232-.217-.525-.393-.72-1.261-2.813-2.266-5.884-2.615-9.61-.041-.22.084-.607-.065-.719v-3.203c.15-.133.023-.543.065-.785.717-6.953 3.403-11.938 6.995-16.016h.066c.015-.094.107-.11.13-.197.529-.474 1.03-.975 1.504-1.503a.588.588 0 0 0 .261-.262c3.943-3.445 8.736-6.039 15.298-6.864.22-.042.607.084.72-.065h.849c.263-.043.695.084.85-.066h1.046c.155.15.587.023.85.066h.915c.09.148.455.024.654.065 3.374.396 6.21 1.33 8.826 2.484.282.219.661.34.98.523a29.947 29.947 0 0 1 5.296 3.661c.245.212.463.452.719.654.256.31.539.594.85.85.291.34.611.652.915.98 3.501 4.126 6.127 9.128 6.733 16.148v3.987c-.149.091-.024.456-.065.655-.718 6.146-3.038 11.039-6.145 14.578-.811-.263-.26-1.637.523-1.503.257-.447.597-1.139.392-1.83-.516-.108-2.25 1.267-2.419.13-.036-.242.463-1.177.915-1.57.867-.75 3.073-1.822 1.962-3.53-.434-.246-.854.297-1.373.327-.561.033-1.253-.39-1.177-.85.055-.329.954-.708 1.242-1.045.37-.433.433-.794.72-1.177.108-.113.108-.672 0-.785-.616-.395-1.328.594-2.223.589-.776-.005-2.122-1.391-.785-1.635.57-.453 1.032-1.016 1.438-1.634.643 0 1.152-.647.785-1.242-.717.19-1.432.635-1.961 0-.299-.037-.277.246-.589.196-1.554-.559-.136-1.88.327-2.484-.304-.59-1.4.34-1.503-.393.626-.552 1.753-.945 1.765-1.895-.802.124-2.21.9-2.812-.131.457-.441 1.662-.818 1.308-1.635-.134-.108-.716-.108-.85 0-.627-.026-1.428.121-1.7-.261v-.981c.28-1.092 1.802-.943 1.962-2.157-.616-.08-1.002-.424-1.896-.327-.265-.25-.245-.527-.262-.915-.04-.199.084-.563-.065-.654-.024-.215-.153-.327-.262-.458-.315.1-.544.284-.457.785-.15.09-.025.455-.066.654" fill="#FFF" mask="url(#d)"/><path d="M60.148 22.116c-.304-.328-.624-.64-.915-.98.33.302.691.572.915.98" fill="#2A5F1F" mask="url(#d)"/><path d="M58.383 20.286c.345.22.629.504.85.85a6.245 6.245 0 0 1-.85-.85" fill="#4EAB26" mask="url(#d)"/><path d="M57.664 19.632c.312.145.51.405.719.654-.256-.202-.474-.442-.72-.654m-5.295-3.661c-.319-.182-.698-.304-.98-.523.358.143.731.271.98.523" fill="#2A5F1F" mask="url(#d)"/><path d="M19.615 21.593a19.39 19.39 0 0 1 1.504-1.503 19.39 19.39 0 0 1-1.504 1.503m-6.08-6.929a3.68 3.68 0 0 1 .654-.654 3.68 3.68 0 0 1-.654.654" fill="#8EBABB" mask="url(#d)"/><path d="M12.359 15.84c.234-.289.495-.55.784-.784-.234.289-.495.55-.784.784" fill="#2A5F1F" mask="url(#d)"/><path d="M14.516 16.625c.218.02 1.23-.972 1.242-1.373.012-.376-.196-.717-.654-.72-.668-.003-.856.82-1.372 1.243.04.245.527.605.784.85m-2.027-.523c-.113-.06-.251-.146-.13-.262.289-.234.55-.495.784-.784.159-.103.29-.234.392-.392.246-.19.464-.409.654-.654 1.082-1.406 3.406.388 2.223 1.83h.915c.711.008 1.208.23 1.83.327-.2.3-.518.484-.718.785-.732.286-1.977-.497-2.812-.131a1.81 1.81 0 0 0-.457.458c.147.201.321.376.523.523.193.09.265.301.457.392.142.229.36.38.589.523-.201.3-.518.484-.72.784-.256-.157-.396-.431-.653-.588a1.324 1.324 0 0 0-.392-.392 5.325 5.325 0 0 0-.785-.785c-.193-.09-.264-.302-.457-.392a1.328 1.328 0 0 0-.393-.392 6.237 6.237 0 0 0-.85-.85" fill="#FFF" mask="url(#d)"/><path d="M13.34 16.952a6.237 6.237 0 0 1-.85-.85c.31.256.593.539.85.85" fill="#8EBABB" mask="url(#d)"/><path d="M13.732 17.344c.193.09.264.302.457.392.068.172.26.22.327.392a5.315 5.315 0 0 1-.784-.784" fill="#2A5F1F" mask="url(#d)"/><path d="M14.516 18.128c-.068-.172-.26-.22-.327-.392.289.234.55.496.785.785-.193-.09-.265-.302-.458-.393" fill="#8EBABB" mask="url(#d)"/><path d="M15.366 18.913c.257.157.397.431.654.588-.18.025-.475-.395-.654-.588m0-1.503c.289.234.55.495.785.784-.194-.09-.265-.302-.458-.392-.068-.173-.26-.22-.327-.393" fill="#2A5F1F" mask="url(#d)"/><path d="M15.627 16.82c-.052.206-.603.4-.261.59.068.171.26.22.327.392a2.367 2.367 0 0 1-.523-.523 1.81 1.81 0 0 1 .457-.458m2.812.131c.2-.3.518-.485.719-.785-.019.223-.484.562-.72.785" fill="#8EBABB" mask="url(#d)"/><path d="M14.516 16.625c-.257-.245-.745-.605-.784-.85.222.322.561.528.784.85" fill="#2A5F1F" mask="url(#d)"/><path d="M64.528 18.063c.276-.596.61-1.133.85-1.765-.606.223-1.155.5-1.765.72.226.427.623.683.915 1.045m-.458.915c-.345-.635-.913-1.047-1.373-1.569-.336.165-.709.293-1.046.458a1.618 1.618 0 0 1-.784-.85 87.363 87.363 0 0 0 4.969-1.961c.374.17.584.505.85.784-.726 1.694-1.575 3.264-2.289 4.969-.846-.296-.868-1.175-.327-1.83" fill="#FFF" mask="url(#d)"/><path d="M41.647 19.174c.155 1.182 2.62.08 1.307-.784-.745-.084-1.382.213-1.307.784m4.184-1.046c-.495-.437-2.58-.779-2.68.262.537.281.614-.42 1.176-.327-.141.316-.14.774-.13 1.242.272.418 1.063.21 1.568.131.281-.254.226-.963.066-1.308m-2.092 11.964c-.66-.072-.598.58-.85.915-.18.192-.484.258-.458.654.746.043 1.214-.744 1.308-1.569m-2.55 2.419c-.09.084-.065.284-.065.458-.937 1.113-2.284 2.266-3.923 2.941-.89.367-2.314.447-2.157 1.7.891.933 2.682-.26 3.4-.719.869-.555 1.907-1.342 2.614-1.765.536-.975 1.81-1.755 2.354-2.877.069-.142-.01-.346.065-.523.2-.467.832-1.139.458-1.634-.33 1.13-1.145 1.775-2.223 2.157.095-.275.501-.24.588-.523-.781-.176-1.065.786-1.7.327.05-.495.767-.323.72-.915-.447.011-.498.417-.785.588-.593.154-1.08.77-1.765.85-.43.05-.784-.246-1.242-.13.056.417.663.492.98.523.868.084 1.965-.253 2.681-.458m6.407-14.056c-.154-1.96-2.17-2.376-4.25-2.026.426.511 1.654.22 1.57 1.242.588.13 1.16.278 1.11 1.046.564.305.797-.396 1.57-.262M30.729 28.654c.26-.699.875-1.043.98-1.896.723-.66 1.022-1.612 1.7-2.288.487-.486 1.145-.874 1.7-1.373.99-.887 2.046-1.654 3.008-2.615.154.001.192-.113.392-.065.09-.442.594-.651.85-1.046.128-.2.106-.464.261-.654.099-.121.305-.119.458-.262.372-.347.677-.997 1.046-1.307 1.236-1.04 5.017-1.38 6.21 0 .104.485.37.808.392 1.373-.8-.06-1.132.35-1.634.588-.041.446-.21.686-.196 1.046.03.82.852 1.525.72 2.157-.163.773-1.377.565-1.7 1.308.384.252.564-.262.98-.196.158.619-.52.886-.719 1.438-.057.158.031.362 0 .523-.044.226-.259.42-.327.654-.312 1.074-.314 2.43-.523 3.595-.086.48-.158 1.11-.327 1.57-.085.23-.367.42-.457.653-.53 1.362-1.532 2.225-2.354 3.334-2.187 1.303-3.952 3.366-7.518 3.073-1.181-1.032-.002-3.463-.196-4.642-.482.115-.573.85-.654 1.242-.063.302-.169.773-.196 1.112-.053.656.26 1.381.196 2.026-.062.619-.511 1.303-.784 1.831-.312.603-.596 1.209-1.046 1.569-1.117-.277-.505-1.91-.327-2.68.373-1.614.436-3.753.915-4.904.174-.418.854-1.02.196-1.373-1.19 1.403-.947 4.24-1.7 6.08-.516.016-.364-.543-.457-.915-.085-.338-.357-.69-.392-.98-.129-1.052.471-2.588.719-4.054.21-1.25.216-2.233.588-3.268.242-.042.2-.368.196-.654" fill="#4EAB26" mask="url(#d)"/><path d="M63.613 17.017c.61-.218 1.16-.496 1.765-.719-.24.632-.574 1.17-.85 1.765-.292-.362-.689-.618-.915-1.046" fill="#0D4404" mask="url(#d)"/><path d="M70.15 30.484c.77.595 2.699-.293 2.877-.98.16-.62-.23-1.1-.392-1.7-1.13.309-2.068.809-3.138 1.177.31.592.176 1.135.653 1.503m-1.896-2.157c1.556-.645 3.199-1.203 4.707-1.896.31 1.04 1.322 1.9 1.046 3.334-.274 1.432-2.712 2.478-4.118 1.635-1.125-.675-1.032-1.913-1.635-3.073" fill="#FFF" mask="url(#d)"/><path d="M41.712 32.25c-.109.152-.355.167-.523.261-.716.205-1.813.542-2.68.458-.318-.031-.925-.106-.98-.523.457-.116.81.18 1.241.13.685-.08 1.172-.696 1.765-.85.287-.17.338-.577.785-.588.047.592-.67.42-.72.915.635.459.919-.503 1.7-.327-.087.284-.493.248-.588.523" fill="#0D4404" mask="url(#d)"/><path d="M29.814 44.801c-.209.056-.202-.102-.327-.13a3.82 3.82 0 0 1 .98-1.308c-.234.484-.73.708-.85 1.308.053.056.18.038.197.13m1.111-.326c.302-.33.698-.566 1.177-.72-.396.237-.79.474-1.177.72m2.811-1.635c.207-.295.488-.514.785-.719v.065c-.264.216-.506.454-.785.654" fill="#4EAB26" mask="url(#d)"/><path d="M34.52 42.121c.06-.029.118-.057.132-.13.245-.191.463-.41.653-.654h.066c-.256.31-.54.594-.85.85v-.066z" fill="#2A5F1F" mask="url(#d)"/><path d="M35.763 41.01c.239-.154.314-.47.588-.589-.168.224-.277.508-.588.589" fill="#4EAB26" mask="url(#d)"/><path d="M39.293 64.218c-.126-.222-.135-.563-.261-.785h-.393c-.248.266-.097.753.131.916.064.263.286.368.458.523.128-.072.217-.52.065-.654zm2.746-.72c.026.408-.13.64 0 .981.57.13.9-.476.98-1.046-.257-.14-.783-.064-.98.066zm-21.508-9.217c.34.117.534.38.98.392.665-.819-1.518-1.755-.98-.392zm3.66-1.896c-.409.2-.972.248-1.307.523-.032.337.062.548.196.72.942.134 1.846-.676 1.112-1.243zm6.996-1.438c.095 1.536-.104 3.808.065 5.164.287-.74.42-1.724.523-2.55.384-3.098.612-6.38 1.046-9.479-.427-.067-.888.367-1.307.523-.048 1.598-.308 3.143-.262 4.904-.152.349-.022.98-.065 1.438zm4.445-7.584c-.614 2.176-.619 4.752-1.111 7.126a66.647 66.647 0 0 0-.85 5.1c.89-.475 1.06-1.621 1.242-2.746.49-3.021 1.497-6.245 1.569-9.48-.188-.124-.652-.072-.85 0zm-5.36 17.063c.283 1.635-.295 4.13 1.176 4.576.682-1.22.602-3.345.85-5.164.413-.709.483-1.75.654-2.746.36-2.104.468-4.26.915-6.341.05-.237.213-.474.262-.72.496-2.5.559-5.056 1.046-7.518-.57.198-1.519.571-1.896 1.177-.185 2.705-.717 5.707-.98 8.433-.26 2.67-.73 5.251-1.047 7.91-.026.224.072.802-.327.85-.54-.433.18-1.38-.13-2.026-.042-.199.083-.563-.066-.654.044-3.719-.033-6.888.13-10.525.15-.09.025-.455.066-.654a9.427 9.427 0 0 0 .066-1.83c.19-.091-.019-.323-.066-.393-.231-.035-.337.056-.392.197-.203.08-.423.143-.458.392.118.895-.216 1.845-.065 3.072-.109.59-.109 1.634 0 2.223.095 3.048-.23 6.31.196 9.087.041.2-.084.563.065.654zm22.16-17.586c.358.046.874.213 1.112 0-.032-1-1.012-1.812-1.896-1.177-.047.2.067.239.065.393.15.352.462.54.72.784zm-15.101-3.269c-.403.36-.425 1.1-.85 1.439-.422.035-.522.392-.784.588.03.443-.049.983 0 1.242 1.635.236 1.923-1.775 1.83-3.269h-.196zM58.71 59.772c-.75-1.365-1.323-2.905-2.288-4.053-.31-1.015-.929-1.696-1.373-2.484-.267-.473-.468-.957-.72-1.438-.645-1.238-1.536-2.086-2.092-3.27-.579-.244-.646-.9-.98-1.372-.244-.345-.63-.682-.915-1.046-.298-.38-.501-.802-.785-1.177-.207-.274-.6-.483-.85-.784-.264-.318-.396-.77-.654-1.046-.126-.137-.417-.205-.588-.393-.301-.329-.49-.658-.784-.98-.178-.194-.307-.517-.393-.588-.137-.115-.333-.083-.457-.197-.895-.821-1.46-2.512-3.073-1.503a4.481 4.481 0 0 0-.719.719c-.203.887-.712 1.467-.654 2.615.51.144.603.705 1.112.85.38-.654.66-2.24 1.634-1.896.662.233.239 1.676.327 2.484.519-.004.471-.575.915-.654 1.475 1.016-.686 4.553 1.242 4.969.783-.633.276-2.557 1.57-2.68.201 1.23-.387 2.184-.393 3.268-.006 1.096.467 1.809.915 2.68.512.995.94 2.055 1.57 2.812.452-.618.535-2.228 1.764-1.83.851.274-.05 1.417.066 1.96.313.144.795-.101 1.046.197.195 1.448-1.666 3.09-.654 4.314.36-.67.894-1.84 2.027-1.307-.455.846-1.615 1.2-1.7 2.223-.089 1.065.99 1.993 1.111 3.138 1.65-.617 2.7-1.833 3.988-2.811.337-.164.551-.451.785-.72zM40.143 39.18c-.368-.05-1.184-.017-1.634.066.303.677.771 1.19 1.373 1.569.036-.56.403-1.112.261-1.635zm-10.787 1.242c.161.951-.006 2.229.72 2.615.416-.171.523-.653.718-1.046-.872-.36-1.016-1.8-.719-2.941a1.37 1.37 0 0 0-.588-.393c-.071.256-.174.48-.13.85v.915zm12.356-2.419c-.36-.01-.498.2-.915.131-.427-.396.077-1.292-.196-1.7-.777.705-2.263.702-2.288 2.158.084.09.284.065.457.065.22-.041.607.085.72-.065.484.028 1.238-.222 1.7.065-.541.947-1.103 2.3-.459 3.465.42-.144.283-.715.393-1.046.114-.343.468-.605.392-.98.29-.256.476-.614.785-.85.572-.3 1.27-.472 1.634-.981-.47-.096-.893-.24-1.438-.262h-.785zm.589-.653c-.275-.445-.577-.862-1.047-1.112-.117.275-.043.742-.13 1.046.246.288.874.32 1.177.066zm4.706-15.952c.257-.44.766-.471 1.177-.654.782-.346.066-.807 0-1.503-1.569-1.02-2.268 1.312-1.177 2.157zm-16.474 7.91c-.372 1.036-.377 2.02-.588 3.27-.248 1.465-.848 3.001-.72 4.052.036.292.308.643.393.981.093.372-.06.931.457.916.753-1.84.51-4.678 1.7-6.08.658.353-.022.954-.196 1.372-.48 1.151-.542 3.29-.915 4.904-.178.77-.79 2.403.327 2.68.45-.36.734-.966 1.046-1.57.273-.527.722-1.211.784-1.83.065-.644-.25-1.37-.196-2.026.027-.34.133-.81.196-1.112.081-.391.172-1.127.654-1.242.194 1.18-.985 3.61.196 4.642 3.566.293 5.33-1.77 7.518-3.073.823-1.109 1.823-1.972 2.353-3.334.091-.233.373-.422.458-.654.17-.46.241-1.088.327-1.568.209-1.166.21-2.522.523-3.596.068-.235.283-.429.327-.654.031-.16-.057-.365 0-.523.199-.552.877-.82.72-1.438-.418-.066-.597.448-.982.196.324-.742 1.538-.535 1.7-1.308.133-.632-.689-1.337-.719-2.157-.013-.36.155-.6.196-1.046.502-.239.834-.648 1.635-.588-.024-.565-.289-.888-.393-1.373-1.193-1.38-4.973-1.04-6.21 0-.37.31-.674.96-1.046 1.307-.153.143-.36.14-.458.262-.155.19-.133.455-.261.654-.256.395-.76.604-.85 1.046-.2-.048-.238.066-.393.065-.96.96-2.018 1.728-3.007 2.615-.556.499-1.213.887-1.7 1.373-.678.676-.976 1.629-1.7 2.288-.105.854-.72 1.197-.98 1.896-.148.135.015.582-.196.654zm7.78-16.474h-.066c-.241.042-.651-.085-.784.065h-.066c-.22.042-.607-.084-.719.066-6.562.825-11.355 3.419-15.298 6.864a11.244 11.244 0 0 0-1.96 1.961c-3.593 4.08-6.279 9.064-6.996 16.017-.15.134-.024.543-.065.785v.13c-.11.807-.11 2.07 0 2.877v.196c.041.22-.085.607.065.72.35 3.725 1.354 6.796 2.615 9.61.098.272.186.555.392.719.952 1.027 1.283 4.02 3.53 3.268-.498-1.048-1.75-1.344-2.418-2.222-.233-1.08-1.966-2.219-.654-3.27.418.215.928.337 1.177.72.971.098 1.51 1.248 2.419.98.1-.608-1.019-.544-1.112-1.176a3.696 3.696 0 0 0-.654-.654c-.31-.184-.544-1.217-.13-1.504 1.12.327 1.738 1.6 3.203 1.177v-1.438c-.446-.273-1.094-.344-1.83-.327-.628-.484-1.439-.784-1.439-1.896.38.115.895.001 1.242.066.857.159 1.842 1.289 2.289.13-1.35-.264-2.11-1.462-2.354-2.615.972.034 1.418.931 2.55.589-.15-.307-.623-.293-.916-.458a3.691 3.691 0 0 0-.653-.654c-.703-1.55.878-.593 1.634-.719-.105-.831-1.01-.864-1.046-1.765.195-.255.587-.055.915-.065.266-.432.143-1.252.523-1.57.877.107.42 1.241.785 1.766.564-.024.98-.197 1.503-.262.193.405.143 1.024 0 1.439-.436.343-1.373.327-1.111 1.176 1.053.272 1.802-.215 2.68-.457.566 1.43-1.245 1.576-2.222 1.896.333.786-.419.83-.393 1.503.923-.034 1.71.304 2.55.066.454-.129 1.464-1.501 1.504-.327.017.524-1.56 1.376-1.57 1.896-.043.283.33.15.262.457-.81.475-1.37 1.202-2.419 1.439.53.668 1.589.808 2.615.98.253.655-.31 1.033-.392 1.569.464.64 1.71.287 2.55.262.368.944-.406 1.063-.785 1.438-.49.486-.81 1.292-1.242 1.634-.81.346-1.708.602-1.634 1.83.665.392 1.656-.04 2.419.131.443.1.824.317 1.242 0 .133.215.035.663.065.981-.366.667-2.24.313-2.353 1.046-.156 1.01 2.751.634 3.203 1.242-.387.62-1.733.616-1.57 1.57.239.24.806.153.916.522-.166.64-1.004.608-1.569.85 1.506 1.227 3.954 1.995 6.276 2.615-.08-.623-1-.736-.653-1.569 1.503-.244 2.245.624 3.66.392.017-.452-.516-.355-.85-.457-.497-.44-.858-1.016-1.11-1.7.885-.17 3.15.078 2.745-1.242-.146-.475-.984-.414-1.307-.85-.005-.31-.034-.644.196-.72.765.06 1.804.924 2.353.197-.16-.755-1.194-.636-1.765-.98.196-.524 1.213-.226 1.373-.785-.561-.488-2.332-1.331-1.373-2.419.88.232 1.267 1.156 2.484.85.164-.484-.044-1.062-.065-1.57-.589-.659-2.057-.768-1.896-1.96.867-.017 1.654.326 2.223.065.119-.42.065-1.01-.066-1.373-.598-.578-2.556-.77-1.765-2.092a5.4 5.4 0 0 1 1.177.458c.217.105.94.158.98-.131.171-.766.205-1.67.524-2.288.683.202.294 1.088.457 1.765.042.263-.085.695.066.85.006.298-.053.663.13.784.813.05 1.567-1.105 2.158-.261-.34.488-.755.901-.916 1.569-.42.257-1.25.228-1.046.915.236.79 2.092-.176 2.223.785-.462.561-1.605.443-1.896 1.176.714.607 2.15.19 3.008.197.085.826-.664.818-.72 1.503-.632.254-1.484-.06-1.765.589-.003 1.372 2.773.514 2.812 1.569.021.598-.748.623-1.047 1.045.534.63 1.618.455 2.354.131.394.369 1.18.346 1.896.392.212.165 1.557.086.915-.196-.507-.08-1.016-.16-1.634-.13.127-.691-1.182-.461-1.046-1.373.486-.451 1.037-.837 1.242-1.57-.784-.436-2.114-.326-2.092-1.568 1.064.003 1.825.31 2.942.261.073-.188.117-.405.13-.653-.43-.224-.978-.33-1.568-.393-.447-.534-1.032-.93-1.177-1.765.641-.11 1.557.05 2.288.065.056-.208-.103-.202-.13-.326a4.476 4.476 0 0 0-.72-.72c-.806-.61-1.242-1.59-1.373-2.876.928-.384 1.536.408 2.027.458-1.863-2.867-4.251-5.207-6.342-7.845-.234.038-.316-.076-.457-.131-.251-.6-.71-.99-.98-1.57-.752-.217-.967-1.287-1.635-1.372.386 1.54-.647 2.483-.915 3.334-.268.85-.203 1.957-.327 3.007-.039.326-.206.692-.262 1.046-.475 3.003-.903 6.68-2.157 8.63-.665.191-.627.612-.72 1.307-.127.963-.623 2.092-.784 2.812-.394 1.765-.082 3.787-.98 5.164-1.837.544-1.961-1.826-1.896-3.4-.042-.22.084-.607-.066-.719-.091-.758-.186-1.513-.261-2.288V47.678c.012-.446-.17-.863.065-1.177.108-.091.108-.627 0-.719-.43-.373-1.012-.914-.458-1.569.119-.209.397-.258.327-.654-.172-.919-.503-1.67-.588-2.55-.099-1.02.093-1.97.196-2.81.093-.754-.275-1.06-.327-1.57-.178-1.753.697-3.328.72-5.164-.294-.644-.957-.918-1.243-1.57-1.474-.378-1.923-1.78-3.465-2.091-.336-.389-.787-.688-.588-1.438.245-.35.4-.241.458-.589.156-.933-1.057-1.223-1.177-1.765-.078-.35.149-.796.392-.915 1.145-.561 2.323 1.344 3.4 1.373 1.173.94 2.363 1.864 3.726 2.615.515-.923 1.25-1.627 1.7-2.615 1.757-1.337 3.152-3.036 5.164-4.119.985-1.173 1.816-2.5 2.942-3.53 1.21-.57 2.89-1.228 4.511-1.046.975.11 1.528.765 2.288 1.111.36.424.344.956.589 1.57.218.546.67 1.082.784 1.634.163.78-.083 2.083-.458 2.68-.165.264-.768.956-1.045.98-.447.04-.414-.303-.785-.392-.331.023-.283.405-.458.654-.122.174-.372.286-.457.458-.17.343-.224.93-.393 1.438-.156.473-.316.99-.392 1.438-.136.812-.072 1.71-.261 2.485-.626 2.558-1.81 4.132-3.334 5.687.316.49.793.82 1.111 1.308.222.236.389.526.72.653.81.257 1.555.58 1.568 1.635.666.565 1.406 1.48 2.092 2.092.86.768 1.125 2.185 2.746 1.634-.12-.848-.45-1.736-1.373-1.961.313-1.413 2.449 1.005 2.484-.915-.22-.259-.759-.2-.719-.72 1.195-.177 2.41-.335 3.007-1.11-.39-1.096-2.489-.818-2.353-2.224.444.151.768-.33 1.177-.392.382-.058.804.28 1.176 0-.408-.766.243-1.241.131-1.83-.096-.507-.837-.513-1.177-1.046-.184-.29-.139-.514-.327-.916.425-.297 1.074.03 1.7-.065.175-.087.086-.437.196-.588.15-.09.025-.455.066-.654-.087-.501.142-.686.457-.784.11.13.238.242.262.457.04.199-.084.563.065.654.017.388-.003.665.262.915.894-.097 1.28.248 1.896.327-.16 1.214-1.681 1.065-1.962 2.157-.108.092-.108.628 0 .72v.261c.272.382 1.073.235 1.7.261h.85c.354.817-.851 1.194-1.308 1.635.603 1.03 2.01.256 2.812.13-.012.95-1.14 1.344-1.765 1.897.102.732 1.2-.198 1.503.392-.463.605-1.881 1.925-.327 2.484.312.05.29-.233.589-.196.53.635 1.244.19 1.96 0 .368.595-.14 1.243-.784 1.242-.406.618-.867 1.18-1.438 1.634-1.337.244.009 1.63.785 1.635.895.005 1.607-.984 2.222-.589v.785c-.286.383-.35.744-.719 1.177-.288.337-1.187.716-1.242 1.046-.076.46.616.882 1.177.85.519-.03.939-.574 1.373-.327 1.11 1.707-1.095 2.78-1.962 3.53-.452.392-.95 1.326-.915 1.569.168 1.137 1.903-.238 2.42-.13.204.691-.136 1.383-.393 1.83-.783-.134-1.334 1.24-.523 1.503 3.107-3.54 5.427-8.432 6.145-14.578.15-.091.025-.456.066-.654v-.13c.15-.242.022-.763.065-1.112v-1.635c-.043-.35.086-.87-.065-1.111-.607-7.02-3.233-12.022-6.734-16.148-.224-.408-.586-.678-.915-.98a2.758 2.758 0 0 0-.85-.85c-.21-.248-.407-.509-.72-.654a29.947 29.947 0 0 0-5.295-3.66c-.249-.253-.623-.38-.98-.524-2.616-1.154-5.452-2.088-8.826-2.484-.09-.15-.455-.025-.654-.066h-.065c-.155-.15-.587-.023-.85-.065h-.065c-.72-.109-1.896-.109-2.615 0zm-11.899 14.97c.139.428.42.713.85.85.137-.474.061-1.16.196-1.634 1.05-.066.64 1.885.916 2.81.623.075.76.635 1.242.85.398-.996.66-2.128 1.111-3.072-.751-.513-1.078-1.45-2.223-1.57-.121-.467-.625-.527-.98-.784-.344-.248-.496-.659-.915-.85-.248-.112-.55-.062-.85-.196-.673-.298-1.285-1.07-1.766-.523-.12.643.439.608.785.785.106.504.35.87.392 1.438-.701.37-.639 1.666.262 1.504.306-.348.022-1.286.784-1.177.109.196.05.56.13.785.043.241-.084.65.066.784zm9.937 12.617c.6-.91.805-1.438 1.112-1.961h.065c.135-.272-.356-.245-.392-.13-.063.162-.316.151-.523.065-1.005.226-2.483.78-3.4.13-.927 1.58-1.682 3.33-2.745 4.773v.065c-.405.359-.746.78-.981 1.308.125.028.118.187.327.13h.13c.43.016.687-.142.916-.326h.065c.387-.246.781-.483 1.177-.72.017-.092.143-.074.196-.13.314-.166.643-.316.85-.589.095-.156.412-.325.588-.196.28-.2.521-.438.785-.654.31-.255.594-.539.85-.85-.14-.172.203-.28.392-.326.311-.081.42-.365.588-.589zm1.896-27.98h2.746c.155.15.587.023.85.065h.065c.09.15.455.025.654.066 3.536.32 6.43 1.284 9.022 2.55.224.167.486.297.784.391 2.086 1.031 3.91 2.323 5.557 3.792a94.12 94.12 0 0 1 2.615 2.615c1.435 1.638 2.71 3.436 3.726 5.492.116.341.269.647.458.915 1.3 2.71 2.28 5.74 2.55 9.48.041.24-.085.65.065.784v3.203c-.15.133-.024.543-.065.785-.27 3.739-1.25 6.77-2.55 9.48-.21.311-.385.66-.523 1.045a25.284 25.284 0 0 1-3.66 5.36 94.12 94.12 0 0 1-2.616 2.616c-1.61 1.44-3.391 2.71-5.426 3.726a3.571 3.571 0 0 0-.915.458c-2.59 1.268-5.488 2.227-9.022 2.55-.199.04-.563-.084-.654.065h-.065c-.263.042-.695-.085-.85.065h-2.746c-.154-.15-.587-.023-.85-.065h-.065c-.09-.15-.455-.024-.654-.066-3.536-.32-6.432-1.282-9.022-2.549a3.572 3.572 0 0 0-.915-.458c-2.042-1.009-3.813-2.288-5.426-3.726-.872-.828-1.71-1.689-2.55-2.55-1.442-1.608-2.708-3.393-3.726-5.426a4.666 4.666 0 0 0-.523-1.046c-1.308-2.702-2.28-5.74-2.55-9.48-.041-.24.085-.65-.065-.784v-3.203c.15-.133.024-.543.066-.785.268-3.74 1.246-6.772 2.55-9.479.21-.312.384-.661.522-1.046a24.77 24.77 0 0 1 3.726-5.426 99.541 99.541 0 0 1 2.55-2.55c1.644-1.472 3.472-2.76 5.557-3.792.298-.094.56-.224.784-.392 2.59-1.268 5.488-2.227 9.022-2.55.199-.04.563.084.654-.065h.065c.263-.042.696.085.85-.065z" fill="#0D4404" mask="url(#d)"/><path d="M34.652 41.99a3.67 3.67 0 0 1 .653-.653 3.67 3.67 0 0 1-.653.653m-2.354 1.635c.23-.25.532-.427.85-.589-.207.273-.536.423-.85.589m4.315-5.23c-.073.254-.496.158-.72.261-.86 1.972-2.728 2.937-4.706 3.792-.148.375-.464.582-.72.85 1.064-1.443 1.82-3.194 2.746-4.773.917.65 2.395.096 3.4-.13" fill="#4EAB26" mask="url(#d)"/><path d="M42.039 40.16c.212-.267.452-.507.719-.72a4.462 4.462 0 0 1-.72.72M58.71 59.772c-.233.269-.448.556-.785.72.208-.294.532-.47.785-.72m12.878-19.678c.236-.396.555-.709 1.047-.85a3.375 3.375 0 0 0-1.047.85m2.616-.849c.491.14.81.453 1.046.85a3.354 3.354 0 0 0-1.046-.85M4.318 40.487c.186-.38.47-.663.85-.85a6.42 6.42 0 0 0-.85.85m0 1.765c.25.316.533.6.85.85a1.816 1.816 0 0 1-.85-.85m3.072.85a6.43 6.43 0 0 0 .85-.85c-.187.38-.47.663-.85.85m0-3.465c.38.187.663.47.85.85-.25-.316-.534-.6-.85-.85m44.324 2.419c.21.291.512.49.72.784-.258-.244-.57-.432-.72-.784" fill="#2A5F1F" mask="url(#d)"/><path d="M30.794 58.857c.311.646-.408 1.593.131 2.027.4-.049.3-.627.327-.85.316-2.66.788-5.242 1.046-7.91.264-2.727.796-5.729.98-8.434.379-.606 1.327-.98 1.897-1.177-.487 2.462-.55 5.018-1.046 7.519-.05.245-.211.482-.262.719-.447 2.081-.554 4.237-.915 6.341-.17.995-.241 2.037-.654 2.746-.248 1.819-.168 3.943-.85 5.164-1.471-.446-.893-2.941-1.177-4.576-.04-.199.084-.563-.065-.654-.427-2.776-.1-6.04-.196-9.087v-2.223c-.15-1.227.183-2.177.065-3.072.035-.249.255-.312.458-.392.116-.058.166-.183.392-.131.055.076.086.175.066.327a9.427 9.427 0 0 1-.066 1.83c-.149.09-.024.455-.065.654-.163 3.637-.087 6.806-.13 10.525.04.2-.085.563.064.654" fill="#4EAB26" mask="url(#d)"/><path d="M31.252 49.508c-.046-1.76.214-3.305.262-4.903.419-.156.88-.59 1.307-.523-.434 3.1-.662 6.381-1.046 9.48-.102.825-.236 1.809-.523 2.55-.169-1.357.03-3.629-.065-5.165.151-.35.022-.98.065-1.439" fill="#4EAB26" mask="url(#d)"/><path d="M60.932 62.714c.019-.223.484-.561.72-.784-.201.3-.519.484-.72.784" fill="#8EBABB" mask="url(#d)"/><path d="M63.155 67.748c.2-.3.518-.484.72-.784v-.066c.04.304-.49.6-.72.85" fill="#2A5F1F" mask="url(#d)"/><path d="M63.417 65.918c.182-.495 1.039-1.227 1.438-1.504-.496.484-1.051.91-1.438 1.504" fill="#8EBABB" mask="url(#d)"/><path d="M65.966 64.872c.29-.235.55-.496.785-.785-.058.184-.577.817-.85.785h.065z" fill="#2A5F1F" mask="url(#d)"/><path d="M66.62 64.022c.053.012.065.065.13.065a5.29 5.29 0 0 1-.784.785c.201-.3.519-.485.72-.785-.056.012-.062-.025-.066-.065m-3.53 3.661c.3-.201.484-.519.784-.72-.2.301-.518.485-.719.785-.055.012-.062-.025-.065-.065" fill="#8EBABB" mask="url(#d)"/><path d="M63.024 64.937c.235-.376.67-.55.85-.98 0 .348-.578.684-.85.98" fill="#2A5F1F" mask="url(#d)"/><path d="M38.77 64.349c.22.31.629.722.523-.131.152.135.063.582-.065.654-.172-.155-.394-.26-.458-.523" fill="#4EAB26" mask="url(#d)"/><path d="M38.77 64.349c-.228-.163-.379-.65-.13-.916h.392c.126.222.135.563.261.785.106.853-.302.44-.523.13" fill="#FFF" mask="url(#d)"/><path d="M7.39 39.637c-.644-.311-1.578-.311-2.222 0-.38.187-.664.47-.85.85a2.364 2.364 0 0 0 0 1.765c.186.38.47.663.85.85.644.311 1.578.311 2.222 0 .38-.187.663-.47.85-.85a2.363 2.363 0 0 0 0-1.765 1.815 1.815 0 0 0-.85-.85m66.814-.392a2.784 2.784 0 0 0-1.57 0c-.491.14-.81.453-1.046.85-.75 1.613.4 3.042 1.896 3.007 1.438-.034 2.49-1.455 1.765-3.008-.235-.396-.554-.71-1.045-.85M38.639 10.677c-8.702.34-14.486 3.6-19.285 7.845a23.092 23.092 0 0 0-1.635 1.634c-4.46 4.878-7.845 11.426-7.845 20.593 0 9.076 4.047 15.326 8.303 20.136.212.267.452.507.72.719 4.892 4.44 11.35 8.303 20.592 8.302 9.283 0 15.753-3.84 20.659-8.302.267-.212.507-.452.719-.72 4.358-4.813 8.255-11.253 8.303-20.07.048-8.99-3.475-15.924-7.845-20.658a23.059 23.059 0 0 0-1.635-1.634c-4.8-4.244-10.583-7.505-19.285-7.845-.437-.11-1.329-.11-1.766 0M14.32 11.2c6.006-5.214 14.242-9.676 25.365-9.676 10.996 0 19.113 4.411 25.235 9.676.213.267.452.506.72.719h.065c.474.528.975 1.03 1.503 1.503v.066c.234.289.496.55.785.784 5.309 6.235 9.806 14.367 9.806 25.823 0 11.418-4.519 19.536-9.806 25.758a5.3 5.3 0 0 0-.785.785v.065a19.39 19.39 0 0 0-1.503 1.504h-.066a4.477 4.477 0 0 0-.719.719c-6.112 5.207-14.072 9.675-25.3 9.675-11.228 0-19.188-4.468-25.3-9.675a4.47 4.47 0 0 0-.72-.72h-.065a19.6 19.6 0 0 0-1.503-1.503v-.065a5.316 5.316 0 0 0-.785-.785C5.938 59.617 1.441 51.485 1.441 40.03c0-11.417 4.52-19.536 9.806-25.758.29-.234.55-.495.785-.784v-.066c.528-.474 1.03-.975 1.503-1.503h.066c.267-.213.507-.452.719-.72" fill="#0D4404" mask="url(#d)"/><path d="M27.33 8.91c.3 1.215-.34 2.286-1.7 1.962-1.456-.347-1.835-3.535.196-3.465.812.028 1.295.658 1.504 1.504m-13.598 6.864c.516-.423.704-1.246 1.373-1.242.457.002.665.343.653.719-.013.4-1.024 1.393-1.242 1.373-.223-.322-.562-.528-.784-.85m31.053 2.942c.223.027.372-.02.327-.262.076.055.175.087.326.066.101.095.058.334.066.523-.222.113-.48.045-.72 0v-.327z" fill="#0D4404" mask="url(#d)"/><path d="M46.027 18.717c.049-.768-.523-.916-1.112-1.046.085-1.022-1.143-.73-1.569-1.242 2.08-.35 4.096.067 4.25 2.026-.773-.134-1.006.567-1.57.262m-3.072-.327c1.314.864-1.152 1.965-1.307.784-.075-.571.562-.868 1.307-.784" fill="#E13333" mask="url(#d)"/><path d="M11.443 20.286c.76.407 1.661.785 1.7 1.765.035.88-.6 1.388-1.242 1.438-1.98.156-3.414-3.154-.458-3.203m58.053 8.694c1.07-.367 2.01-.867 3.139-1.176.163.6.553 1.08.392 1.7-.179.687-2.106 1.575-2.877.98-.477-.368-.343-.911-.654-1.503" fill="#0D4404" mask="url(#d)"/><path d="M41.124 37.283c.087-.304.013-.77.13-1.046.47.25.772.667 1.047 1.112-.303.254-.931.222-1.177-.066m-1.242 3.531a3.525 3.525 0 0 1-1.373-1.57c.45-.081 1.266-.115 1.634-.065.142.523-.225 1.075-.261 1.635" fill="#F08D2D" mask="url(#d)"/><path fill="#2A5F1F" mask="url(#d)" d="M29.552 53.823h.208v-1.569h-.208z"/><path fill="#4EAB26" mask="url(#d)" d="M29.552 55.72h.208v-1.897h-.208z"/><path d="M66.358 59.642c-.401-.23-.828-.436-1.046-.85.236-.632 1.646-2.051 1.962-.916.228.819-.763 1.1-.916 1.766m-9.152 7.518c.37-.658 1.885-1.317 2.027-.262.008.065-.022.368-.066.458-.124.258-.947.92-1.046.915-.406-.023-.512-.908-.915-1.111M25.63 72.455c-2.292.41-1.764-3.067-.327-3.4 2.409-.557 2.04 3.095.327 3.4m13.925 1.831c.156-.607.384-1.142.523-1.766.366.484.571 1.129.784 1.766h-1.307z" fill="#0D4404" mask="url(#d)"/><path d="M48.184 19.24c.066.697.782 1.157 0 1.503-.41.183-.92.213-1.177.654-1.091-.845-.392-3.177 1.177-2.157m3.53 22.816c.002-.154-.112-.193-.065-.392.884-.636 1.864.177 1.896 1.176-.238.213-.754.046-1.112 0-.207-.294-.509-.493-.719-.784M43.02 63.433c-.082.57-.411 1.177-.981 1.046-.13-.342.026-.572 0-.98.197-.13.723-.206.98-.066" fill="#FFF" mask="url(#d)"/><path d="M29.356 39.506c-.043-.37.06-.594.13-.85.242.086.437.217.59.393-.298 1.14-.154 2.58.719 2.941-.196.393-.303.875-.72 1.046-.725-.386-.558-1.664-.719-2.615.109-.155.109-.76 0-.915m8.172.065c.093 1.494-.195 3.505-1.83 3.27-.049-.26.03-.8 0-1.243.262-.196.362-.553.784-.588.425-.339.447-1.079.85-1.439h.196zm-1.046 3.792c-.072 3.235-1.08 6.459-1.569 9.48-.182 1.125-.352 2.271-1.242 2.745.219-1.715.501-3.418.85-5.099.492-2.374.497-4.95 1.111-7.126.198-.072.662-.124.85 0" fill="#4EAB26" mask="url(#d)"/></g><path fill="#FFF" d="M9.549 51.038l.649 1.25-2.791 3.903.007.015 3.795-1.97.505.975-5.074 2.633-.645-1.243 2.788-3.91-.008-.015-3.794 1.97-.506-.975zm3.648 8.082l-.01-.012-2.352.845 1.053 1.297 1.31-2.13zm.493-1.211l.815 1.004-3.023 5.345-.8-.986.708-1.207-1.461-1.799-1.332.438-.749-.922 5.842-1.873zm2.996 4.561l-1.229-1.082.596-.676 3.317 2.924-.596.676-1.228-1.083-3.184 3.612-.86-.758zm3.9 1.96l.954.636-3.166 4.758-.955-.635zm2.807 7.214c1.066.484 1.891-.283 2.318-1.223.417-.917.418-2.049-.618-2.52-1.036-.47-1.888.276-2.305 1.193-.426.94-.461 2.066.605 2.55m2.073-4.563c1.632.742 2.048 2.262 1.333 3.835-.714 1.573-2.131 2.297-3.779 1.548-1.67-.759-2.045-2.27-1.32-3.865.725-1.595 2.11-2.27 3.766-1.518m3.841 1.64l1.376.301 1.216 4.641.016.004.912-4.176 1.072.234-1.22 5.584-1.368-.299-1.224-4.643-.016-.003-.912 4.176-1.072-.234zm8.567 2.364h-.017l-.865 2.344 1.67.027-.788-2.371zm-.612-1.157l1.293.021 2.151 5.752-1.269-.02-.47-1.319-2.317-.037-.52 1.302-1.188-.02 2.32-5.679zm4.823-.185l1.13-.188.792 4.75 2.19-.366.147.889-3.32.553zM55.9 67.641l.338-.215c.484-.307.819-.743.463-1.303-.356-.56-.9-.485-1.398-.169l-.339.215.936 1.472zm-2.386-1.617l1.223-.778c1.05-.667 2.204-.974 2.938.18.716 1.127.152 2.058-.884 2.717l-.408.259 1.164 1.831-.968.615-3.065-4.824zm6.371-3.228l-.012.011.966 2.305 1.24-1.119-2.194-1.197zm-1.236-.428l.96-.867 5.496 2.74-.943.85-1.242-.643-1.72 1.553.506 1.307-.881.796-2.176-5.736zm5.977-2.725l.227-.3c.34-.452.664-1.017.096-1.447-.55-.414-.98.061-1.325.519l-.227.3 1.229.928zm-2.639-.555l.745-.987c.74-.98 1.59-2.175 2.859-1.218.535.405.709 1.1.348 1.74l.013.01c.207-.233.564-.19.836-.128l2.337.615-.77 1.02-1.84-.527c-.438-.126-.657-.107-.948.279l-.222.294 1.895 1.43-.69.915-4.563-3.443zm3.275-4.59l.51-1.026 2.2 1.093-1.28-2.941.627-1.261 1.366 3.303 3.796-.847-.668 1.342-3.29.66-.008.014 2.376 1.181-.51 1.027zM2.988 28.612l.498-1.318 4.769-.526.006-.016-4-1.51.389-1.027 5.347 2.02-.495 1.31-4.772.535-.005.015 3.998 1.511-.388 1.026zm8.625-6.717c.645-.978.016-1.913-.845-2.48-.841-.556-1.96-.734-2.586.216-.627.95-.023 1.908.818 2.462.86.569 1.968.78 2.613-.198m-4.183-2.76c.987-1.497 2.554-1.67 3.996-.719 1.442.952 1.935 2.464.939 3.975-1.01 1.531-2.561 1.666-4.024.7-1.463-.965-1.912-2.439-.911-3.956m6.03-3.515l.266-.265c.4-.4.802-.914.299-1.418-.486-.488-.979-.078-1.385.326l-.267.266 1.086 1.091zm-2.535-.92l.876-.873c.871-.866 1.88-1.93 3.002-.804.473.476.547 1.189.1 1.772l.012.012c.238-.202.585-.109.845-.01l2.227.938-.905.9-1.747-.779c-.416-.186-.636-.198-.979.143l-.261.26 1.675 1.683-.812.808-4.033-4.05zm5.02-4.58l2.6-1.826.518.737-1.662 1.167.81 1.153 1.581-1.11.518.736-1.582 1.111 1.44 2.05-.938.66zm9.263.218c1.07-.477 1.043-1.603.623-2.546-.41-.92-1.257-1.672-2.297-1.209-1.04.463-1.045 1.596-.636 2.516.42.942 1.24 1.716 2.31 1.24m-2.04-4.579c1.638-.73 3.051-.033 3.755 1.546.703 1.578.304 3.118-1.349 3.855-1.675.746-3.054.025-3.768-1.576-.713-1.6-.299-3.085 1.362-3.825m5.362-1.833l1.118-.259 1.086 4.691 2.162-.5.203.877-3.279.76zm5.72-1.109l1.145-.059.126 2.454 1.935-2.56 1.407-.072-2.21 2.811 2.6 2.893-1.496.076-2.189-2.544-.016.001.136 2.65-1.145.058zm15.215 1.61l1.086.37-1.841 5.41-1.086-.368zm5.901 3.659c-.253-.3-.572-.56-.931-.739-.352-.175-.883-.248-1.16.31-.442.886 1.987 1.63 1.132 3.345-.559 1.121-1.657 1.105-2.69.59-.558-.278-.77-.475-1.214-.852l.555-.876c.257.366.598.691 1.001.892.389.194 1.008.255 1.238-.207.485-.974-1.958-1.689-1.115-3.382.57-1.143 1.665-1.12 2.567-.67.44.22.82.482 1.132.793l-.515.796zm3.147.688l.93.67-2.815 3.907 1.8 1.297-.526.731-2.73-1.968zm5.38 6.02l-.011-.012-2.276 1.033 1.155 1.207 1.132-2.228zm.392-1.249l.895.935-2.578 5.573-.878-.917.607-1.26-1.602-1.675-1.292.545-.821-.857 5.669-2.344zm4.015 4.688l.735 1.203-2.514 4.086.01.014 3.647-2.227.572.936-4.878 2.979-.73-1.195 2.51-4.094-.01-.014-3.648 2.228-.572-.937zm-.354 9.592l.209.604c.314.905 1.29 1.546 2.466 1.138 1.176-.407 1.546-1.515 1.232-2.42l-.209-.604-3.698 1.282zm4.174-2.66l.512 1.478c.574 1.656.524 3.311-1.62 4.054-2.143.743-3.207-.526-3.78-2.182l-.513-1.478 5.401-1.872z"/></g></svg>