<svg width="107" height="80" viewBox="0 0 107 80" xmlns="http://www.w3.org/2000/svg" xmlns:xlink="http://www.w3.org/1999/xlink"><title>Page 1</title><defs><path id="a" d="M0 19.248V.099h38.122v38.297H0z"/><path id="c" d="M2.505.059v3.084H.07V.059h2.435z"/></defs><g fill="none" fill-rule="evenodd"><path d="M37.19 19.261c0 10.042-8.103 18.182-18.1 18.182-9.995 0-18.098-8.14-18.098-18.182 0-10.042 8.103-18.182 18.099-18.182S37.19 9.22 37.19 19.261" fill="#1D1C1B"/><path d="M19.11 6.597s-2.747.06-3.958-.089c0 0-7.975 1.603-9.6 9.318 0 0-2.038 6.795 3.456 12.849 0 0 4.194 4.51 10.87 4.45 0 0 9.039-.207 12.347-10.207 0 0 2.688-7.537-4.283-14.57 0 0-2.777-2.166-5.435-2.997 0 0-.455.185.176.519l2.82 1.55s.232.283-3.334-1.167c0 0-.3.05.05.317 0 0 2.903 2 3.135 2.416 0 0 .73.967 1.41 1.034 0 0 1.26.283 1.576.866 0 0 .896 1.484 1.012 2.684 0 0-.796 1.616-.597 2.566 0 0 .199 1 1.128 2.033 0 0-.033 4.417-1.792 6.684 0 0-2.057 3.083-5.242 4.183 0 0-1.316.057-2.555-.784 0 0-.887-.76-1.874-.303 0 0-1.521.692-1.952.959 0 0-.835.436-1.699.094 0 0-3.898-1.033-6.188-6.166 0 0-.614-1.317-.813-2.583 0 0-.016-.45.166-.617 0 0 .863-1.333.481-2.867 0 0-.249-.966-.514-1.533 0 0-.15-.1.033-.65 0 0 1.012-3.666 4.778-5.966 0 0 2.261-1.278 6.398-2.023" fill="#E89600"/><path d="M11.228 17.234c-1.441 0-2.694.53-2.696.532l-.039-.092c.004-.001 1.27-.54 2.735-.54 1.266-.001 2.69.408 3.549 1.926l-.087.049c-.837-1.48-2.214-1.874-3.462-1.875" fill="#E89600"/><path d="M12.936 18.172s.09 1.113.889 1.645c0 0 1.358.953 2.736 1.284 0 0 .01-1.625-1.099-3.04 0 0-.04-.23-1.797-1.043l1.029 1.986s-1.199-.541-1.758-.832m-.729 2.598s-.05 3.15 2.397 4.534l-.172-1.995-.008-.092 1.308 1.023s.14-1.785-1.338-2.778c0 0-.47-.321-.789-.391l-1.398-.301z" fill="#E89600"/><path d="M18.294 26.946c-.452-.485-1.047-1.041-1.608-1.328-.003-.003-1.69-.97-2.3-2.288l.09-.042c.294.636.859 1.2 1.35 1.601.493.402.908.642.907.641 1.156.593 2.4 2.25 2.404 2.252l-.08.06c0-.001-.31-.412-.763-.896m1.189.859a7.303 7.303 0 0 1 2.715-1.486s.392-.122.818-.296c.425-.17.887-.403 1.01-.595-.001 0 .164-.16.363-.471a4.09 4.09 0 0 0 .551-1.359l.097.02c-.253 1.21-.939 1.878-.936 1.874-.302.443-1.868.917-1.875.923a7.066 7.066 0 0 0-1.933.9c-.472.31-.742.563-.743.563l-.067-.073z" fill="#E89600"/><path d="M26.007 21.201s-2.396.973-2.467 2.91c0 0-.02 1.032.1 1.243l1.448-1.906s0 1.735-.07 2.207c0 0 1.069-.512 1.279-1.786 0 0 .04-1.615-.29-2.668m-5.981-4.093s-1.578 1.615-1.578 2.9c0 0-.11.49.42 1.464l.798-1.866s.44 1.776.42 1.946c0 0 .749-.662.649-2.076 0 0-.35-1.896-.71-2.368m3.835 2.407c2.207-2.84 4.833-3.646 4.838-3.648l.03.096c-.001.001-.648.198-1.572.75a11.654 11.654 0 0 0-3.217 2.864l-.078-.062z" fill="#E89600"/><path d="M24.54 17.78s-1.828.432-2.248 2.027c0 0-.499 1.444-.499 1.735 0 0 2.307-.12 2.816-.923 0 0 .769-.883.849-1.775l-1.638.772.72-1.835z" fill="#E89600"/><path d="M5.286 21.093zm0 0l.113-.098c.001.001.522.609 1.29 1.334.767.725 1.78 1.564 2.75 2.02l-.064.136c-1.981-.935-4.068-3.37-4.09-3.392z" fill="#FEFEFE"/><path d="M5.421 21.831l.104-.108c.002.001.63.613 1.476 1.311.844.7 1.905 1.483 2.748 1.82l-.055.139c-1.743-.7-4.268-3.16-4.273-3.162" fill="#FEFEFE"/><path d="M5.575 22.536zm0 0l.1-.112c.001.001.5.453 1.305 1.043.804.59 1.91 1.318 3.117 1.865l-.062.137c-2.43-1.102-4.44-2.915-4.46-2.933zm.215.699l.09-.12c.001.001.643.48 1.494 1.048.85.57 1.907 1.227 2.726 1.579l-.06.138c-1.67-.72-4.247-2.643-4.25-2.645m.215.67l.085-.124c.001.001.628.435 1.402.93.774.493 1.696 1.047 2.27 1.28l-.056.14c-1.187-.484-3.698-2.225-3.7-2.226m.301.753l.085-.123c.003 0 1.514 1.048 3.036 1.72l-.06.137c-1.54-.68-3.059-1.733-3.06-1.734m.446.872l.062-.137c.001 0 1.333.612 2.234 1.14l-.075.13c-.89-.522-2.219-1.133-2.221-1.134m.256.524l.073-.132s.338.187.716.381c.375.194.804.398.942.423l-.029.147c-.357-.073-1.695-.818-1.701-.82m.409.649l.073-.13c.001-.001.676.373.971.416l-.023.148c-.352-.057-1.015-.432-1.02-.434m7.642 2.469zm0 0l.118-.093c.001 0 .428.548 1.229 1.323a19.688 19.688 0 0 0 3.454 2.671l-.077.129c-2.974-1.8-4.706-4.007-4.724-4.03z" fill="#FEFEFE"/><path d="M15.595 29.305zm0 0l.106-.106c.001.001.631.631 1.544 1.424.913.793 2.108 1.746 3.227 2.385l-.074.13c-2.253-1.288-4.772-3.803-4.802-3.833z" fill="#FEFEFE"/><path d="M16.241 29.454l.1-.11c.003 0 .74.679 1.698 1.47.957.79 2.135 1.692 3.002 2.13l-.067.133c-1.774-.898-4.73-3.621-4.733-3.623m.685.15l.1-.111c.001 0 .549.498 1.315 1.12.767.622 1.751 1.367 2.616 1.857l-.074.13c-1.754-.994-3.955-2.995-3.957-2.996m.54.067zm0 0l.095-.116c0 .001.533.44 1.213.966.679.527 1.506 1.141 2.085 1.488l-.077.129c-1.174-.704-3.296-2.45-3.316-2.467zm.642.079l.092-.118c.002.002 1.972 1.546 2.633 1.926l-.075.13c-.683-.395-2.648-1.937-2.65-1.938m.732.077l.104-.107c.001 0 .192.19.52.444.329.253.79.57 1.325.816l-.062.136a7.382 7.382 0 0 1-1.887-1.29m.485-.008l.1-.111c.001 0 .8.722 1.264.922l-.06.138c-.508-.224-1.3-.947-1.304-.949m7.82.444c0-.003.395-1.186.817-2.675.423-1.488.873-3.281.984-4.483l.148.014c-.226 2.438-1.8 7.168-1.807 7.191l-.142-.047zm.142.047z" fill="#FEFEFE"/><path d="M27.754 29.738c0-.002.335-1.065.696-2.572.361-1.507.749-3.455.854-5.216l.149.009c-.213 3.55-1.556 7.821-1.556 7.824l-.143-.045zm.634-.558c0-.004.332-1.26.665-2.767.333-1.506.665-3.262.664-4.236v-.053l.149-.001v.054c-.001 2-1.334 7.036-1.334 7.04l-.144-.038z" fill="#FEFEFE"/><path d="M28.923 28.53c0-.002.245-.995.506-2.283.261-1.287.537-2.866.6-4.028l.148.008c-.125 2.346-1.105 6.32-1.11 6.34l-.144-.037zm.144.036zm.465-.681c.203-.76.412-2.162.57-3.37.156-1.208.262-2.222.262-2.225l.149.016c0 .003-.423 4.067-.837 5.619l-.144-.04zm.577-.78c.173-1.121.578-4.71.579-4.715l.148.017s-.405 3.592-.58 4.72l-.147-.022zm.481-.772c.083-.256.198-1.218.287-2.101.09-.886.159-1.7.16-1.703l.148.013c-.001.005-.272 3.26-.452 3.836l-.142-.045zm-10.805 3.516l.08-.127.809.513-.08.127zm.525.087l.126-.253.375.247-.126.253zM7.589 18.665v-.018.035z" fill="#FEFEFE"/><path fill="#1D1C1B" d="M5.598 15.385l.127-.08 1.863 2.946-.126.08zm-.108.408l.127-.08c0 .001.412.66.872 1.384.46.722.97 1.51 1.156 1.753l-.119.092c-.388-.51-2.035-3.148-2.036-3.15m-.083.443l.126-.08c.001 0 .444.701.938 1.47.495.767 1.042 1.604 1.24 1.866l-.118.09c-.412-.541-2.184-3.345-2.186-3.346m-.1.407l.127-.078c.002.001.444.726.959 1.53.513.802 1.103 1.685 1.38 1.982l-.11.103c-.585-.634-2.353-3.534-2.356-3.537m-.065.551l.125-.081c.001.002.433.676.964 1.45.53.773 1.163 1.647 1.548 2.029l-.105.106c-.802-.798-2.53-3.501-2.532-3.504m5.438 9.003zm0 0l.149-.004c.001 0 .003.127.067.388.065.261.19.651.437 1.16.492 1.016 1.465 2.51 3.389 4.4l-.105.108c-3.854-3.788-3.937-6.015-3.937-6.052z"/><path d="M10.252 25.824c0-.068.005-.104.005-.107l.149.021s-.005.025-.005.086c0 .425.204 2.422 3.618 6.085l-.11.103c-3.43-3.68-3.657-5.713-3.657-6.188" fill="#1D1C1B"/><path d="M9.876 25.889l.148-.023s.026.17.11.475a9.6 9.6 0 0 0 .457 1.276c.463 1.063 1.281 2.494 2.706 3.966l-.108.105c-2.875-2.973-3.311-5.789-3.313-5.799" fill="#1D1C1B"/><path d="M9.546 26.206l.144-.04s.232.82.716 1.868 1.219 2.32 2.215 3.212l-.1.112c-2.038-1.831-2.972-5.146-2.975-5.152" fill="#1D1C1B"/><path d="M9.221 26.383zm0 0l.147-.028c.001 0 .097.517.456 1.334.36.816.98 1.928 2.023 3.105l-.112.1c-2.1-2.369-2.508-4.482-2.514-4.51z" fill="#1D1C1B"/><path d="M8.916 26.667l.142-.046c.001.001.174.535.482 1.24.308.706.749 1.58 1.277 2.25l-.117.094c-1.082-1.375-1.782-3.534-1.784-3.538m-.393.286l.133-.068 1.283 2.544-.133.067zm-.258.232l.135-.065.763 1.608-.135.065zm12.338 2.841l.362-.382.138.118-.362.382zm-.014.43l.725-.893.116.095-.725.893zm.075.529l1.061-1.542.123.085-1.062 1.542zm.081.485l1.353-2.1.125.082-1.352 2.1zm.019.405c.002-.003 1.278-1.585 1.868-2.765l.134.068c-.604 1.204-1.884 2.789-1.886 2.79v.001l-.116-.094zm.053.425s.44-.55.966-1.26c.526-.711 1.136-1.584 1.473-2.223l.131.07c-.687 1.305-2.453 3.505-2.454 3.507l-.116-.093zm.093.41c.592-.635 1.296-1.655 1.85-2.513.556-.859.96-1.556.961-1.558l.13.076c-.003.003-1.626 2.8-2.83 4.097l-.11-.103z" fill="#1D1C1B"/><path d="M21.133 32.895c.001-.002.598-.69 1.28-1.6.681-.908 1.446-2.038 1.776-2.903l.14.054c-.684 1.782-3.081 4.543-3.083 4.547l-.113-.098z" fill="#1D1C1B"/><path d="M21.828 32.756c0-.002.538-.682 1.17-1.613.631-.93 1.357-2.112 1.73-3.1l.14.052c-.763 2.02-2.921 4.75-2.923 4.754l-.117-.093z" fill="#1D1C1B"/><path d="M22.458 32.59c0-.002.512-.666 1.114-1.612.601-.944 1.291-2.168 1.644-3.274l.142.046c-.72 2.254-2.78 4.928-2.782 4.931l-.118-.091z" fill="#1D1C1B"/><path d="M23.049 32.427c.001-.002.576-.903 1.202-2.003.625-1.098 1.301-2.399 1.495-3.173l.145.036c-.408 1.611-2.715 5.216-2.716 5.22l-.126-.08zm8.819-9.675c0-.001.197-.214.519-.629l.118.092c-.325.419-.526.637-.527.639l-.11-.102zm-.319-.103c0-.002.822-1.094 1.008-1.394l.126.079c-.196.316-1.014 1.404-1.015 1.405l-.12-.09zm-.317-.107c.001-.001.315-.435.648-.923.333-.486.687-1.038.753-1.232l.14.048c-.163.464-1.417 2.189-1.42 2.195l-.12-.088zm-.285-.109c.001-.002.372-.528.773-1.148.4-.617.832-1.333.945-1.681l.142.047c-.252.76-1.735 2.863-1.738 2.868l-.122-.086zm-.434-.111s.43-.541.914-1.24c.486-.697 1.027-1.555 1.245-2.17l.14.05c-.456 1.278-2.167 3.433-2.183 3.454l-.116-.094zm.116.094zm-.464-.262c.001-.001.496-.593 1.054-1.401s1.177-1.833 1.42-2.68l.144.042c-.508 1.753-2.501 4.131-2.503 4.136l-.115-.097z" fill="#1D1C1B"/><path d="M29.842 22.072c0-.002.539-.658 1.148-1.553.608-.895 1.285-2.028 1.558-2.963l.143.043c-.565 1.926-2.732 4.563-2.734 4.568l-.115-.095z" fill="#1D1C1B"/><path d="M29.476 21.964c.001-.002.678-.853 1.392-1.928.715-1.073 1.464-2.374 1.604-3.237l.147.024c-.304 1.82-3.024 5.228-3.026 5.235l-.117-.094z" fill="#1D1C1B"/><path d="M29.45 21.5c0-.003.637-.855 1.317-1.952.68-1.095 1.403-2.439 1.572-3.392l.147.027c-.358 1.98-2.9 5.38-2.917 5.406l-.12-.09zm.12.09z" fill="#1D1C1B"/><path d="M11.15 26.758zm0 0l.14-.05s.07.197.229.539c.16.341.409.824.768 1.39a14.82 14.82 0 0 0 3.629 3.9l-.09.12c-3.527-2.639-4.664-5.865-4.676-5.9z" fill="#B01F09"/><path d="M12.495 27.909l.135-.063s.08.17.26.468c.181.297.461.718.859 1.21.796.982 2.062 2.248 3.943 3.379l-.077.129c-3.795-2.282-5.116-5.114-5.12-5.123" fill="#B01F09"/><path d="M13.065 28.278l.13-.073s.093.167.29.454c.198.287.5.692.912 1.162a15.417 15.417 0 0 0 3.887 3.163l-.075.13c-3.609-2.075-5.14-4.83-5.144-4.836" fill="#B01F09"/><path d="M13.819 28.69l.124-.083c.002 0 .4.61 1.22 1.47.818.86 2.055 1.968 3.722 2.957l-.077.13c-3.362-1.996-4.985-4.469-4.99-4.475" fill="#B01F09"/><path d="M14.454 28.957l.13-.074s.065.114.224.327c.159.213.41.522.777.902.734.76 1.93 1.805 3.78 2.942l-.078.128c-3.72-2.287-4.827-4.214-4.833-4.225m-6.508-1.631l2.32-1.78.09.12-2.32 1.78zm12.53 2.399l.147-.018.402 3.244-.148.019zm8.86-7.705l.045-.144 2.859.915-.046.143zm-.069-8.669zm.556 5.153c.004-.14.006-.28.006-.421 0-1.147-.14-2.33-.281-3.227-.14-.887-.278-1.49-.281-1.505l.145-.034c0 .003.566 2.449.567 4.766 0 .142-.003.285-.007.426l-.15-.005z" fill="#B01F09"/><path d="M14.869 29.117l.045-.143c.001 0 .562.178 1.421.357.86.18 2.013.358 3.187.358 1.195 0 2.41-.186 3.359-.736l.075.13c-.985.57-2.224.755-3.434.755-2.378 0-4.65-.72-4.653-.72M9.81 26.384l.002-.47.732.032-.002.468zm2.03 1.053l-3.78.004v-.15l3.878-.004.02.047s.07.171.235.475c.166.303.426.736.8 1.251.751 1.03 1.964 2.389 3.812 3.702l-.086.122c-3.453-2.453-4.711-5.07-4.88-5.447" fill="#B01F09"/><path fill="#B01F09" d="M8.186 27.757l4.14-.142.003.36-4.141.14zm.643.739l4.376-.271.006.23-4.376.27zm.394.309c.004 0 2.47-.062 4.361-.375l.024.147c-1.895.315-4.35.377-4.381.378l-.004-.15zm.003.15zm.446.245c.001 0 .633-.01 1.505-.08.872-.07 1.982-.198 2.93-.432l.035.145c-1.921.475-4.465.516-4.468.517l-.002-.15zm.418.402c.002 0 .876-.073 1.897-.193 1.02-.12 2.19-.29 2.759-.478l.046.142c-1.18.388-4.655.675-4.69.678l-.012-.15zm.012.15zm.458.168c.001 0 .77-.053 1.772-.176 1.003-.124 2.24-.318 3.166-.596l.043.144c-1.884.564-4.968.778-4.97.778l-.011-.15zm.47.352c.002 0 .778-.091 1.807-.259 1.028-.167 2.307-.41 3.304-.714l.044.144c-2.009.61-5.106.974-5.137.978l-.017-.149zm.018.149zm.426.125c.003 0 1.162-.181 2.437-.407 1.274-.226 2.669-.499 3.108-.67l.053.14c-.933.36-5.57 1.084-5.575 1.086l-.023-.149zm.43.286c.003 0 1.323-.229 2.72-.498 1.393-.266 2.881-.584 3.15-.733l.07.132c-.329.175-1.787.477-3.191.748-1.4.27-2.724.499-2.724.499l-.025-.148zm.526.305c.002 0 1.144-.239 2.453-.526 1.308-.287 2.783-.622 3.435-.812.183-.051.313-.105.314-.11l.096.114c-.063.048-.175.081-.368.14-.19.055-.445.122-.744.196-.597.147-1.37.324-2.133.493-1.517.338-3.002.648-3.023.652l-.03-.147zm.03.147zm.498.119c.003 0 1.535-.342 3.182-.729 1.645-.385 3.41-.818 3.84-.99l.056.139c-.91.36-7.042 1.725-7.046 1.726l-.032-.146zm.489.255c.003 0 1.314-.28 2.813-.613 1.499-.334 3.185-.721 3.926-.932.208-.058.355-.114.356-.12l.094.115c-.065.048-.19.084-.409.149a24.59 24.59 0 0 1-.845.22c-.682.168-1.564.372-2.439.568a364.01 364.01 0 0 1-3.464.76l-.032-.147zm.031.147zm.567.089c.003 0 1.552-.326 3.153-.673 1.595-.346 3.26-.722 3.425-.799h.001l.086.123c-.057.035-.164.06-.364.114-.195.05-.462.114-.777.187-.63.146-1.45.327-2.263.504-1.628.354-3.23.691-3.23.691l-.031-.147zm.62.246c.005 0 3.22-.67 4.94-1.064.558-.126.975-.233 1.026-.259h.002v-.001l.023.043.078.065c-.028.029-.036.026-.055.035a4.888 4.888 0 0 1-.267.078c-.17.044-.41.102-.693.167-.567.13-1.314.294-2.058.455-1.488.32-2.965.628-2.965.628l-.03-.147zm.667.236c.002 0 .994-.175 2.17-.42 1.174-.246 2.532-.563 3.246-.845l.054.14c-1.466.576-5.441 1.271-5.444 1.272l-.026-.147zm.878.247c.002 0 .975-.214 2.036-.461 1.06-.247 2.211-.53 2.541-.658l.054.14c-.703.271-4.596 1.124-4.599 1.125l-.032-.146zm.866.187c.002-.001.766-.16 1.62-.363.854-.202 1.803-.45 2.144-.616l.065.135c-.739.354-3.794.988-3.799.99l-.03-.147zm.762.12c.003-.002 2.318-.487 3.027-.766l.054.14c-.74.29-3.048.771-3.05.772l-.031-.147zm1.168.106s.4-.094.843-.205c.44-.111.929-.244 1.082-.312l.06.137c-.353.155-1.948.524-1.952.525l-.033-.145zm4.305-.713c0-.001.078-.06.227-.223a6.7 6.7 0 0 0 .628-.831c.53-.807 1.253-2.168 2.024-4.377l.141.05c-1.549 4.436-2.914 5.488-2.93 5.5l-.09-.12z"/><path d="M24.117 31.999c0-.003.525-.899 1.111-2.046.586-1.146 1.233-2.544 1.475-3.53l.144.036c-.496 2.018-2.6 5.612-2.602 5.615L24.117 32z" fill="#B01F09"/><path d="M24.632 31.786c.584-.851 1.236-2.344 1.74-3.62.503-1.277.859-2.336.86-2.338l.141.048c-.002.003-1.425 4.252-2.618 5.995l-.123-.085z" fill="#B01F09"/><path d="M25.28 31.461c0-.002.475-.93 1.004-2.154.528-1.224 1.109-2.744 1.317-3.912l.147.026c-.426 2.38-2.335 6.105-2.336 6.109l-.133-.069z" fill="#B01F09"/><path d="M25.922 31.106c0-.003.492-1.116 1-2.456.509-1.338 1.034-2.907 1.1-3.788l.148.012c-.141 1.825-2.102 6.267-2.111 6.292l-.137-.06zm.137.06z" fill="#B01F09"/><path d="M26.557 30.69c.52-.854.993-2.48 1.33-3.887a46.17 46.17 0 0 0 .547-2.597l.147.026c-.003.005-.826 4.766-1.897 6.536l-.127-.078zm-5.633 2.293l.014-.313.92.186-.014.314z" fill="#B01F09"/><path fill="#B01F09" d="M20.902 32.874v-.47l2.124.03v.47zm-.132-1.324l.01-.149c.001 0 .408.029 1.053.029 1.06 0 2.754-.079 4.3-.492l.039.145c-1.568.418-3.272.496-4.339.497-.65 0-1.062-.03-1.063-.03"/><path d="M20.712 31.187zm0 0l.009-.15s.278.017.752.017c1.149 0 3.44-.1 5.633-.771l.043.143c-2.216.68-4.518.777-5.676.778-.47 0-.75-.016-.761-.017z" fill="#B01F09"/><path d="M20.683 30.853l.007-.15s.28.014.753.014c1.276 0 3.945-.103 6.174-.852l.047.142c-2.258.758-4.936.86-6.22.86-.476 0-.76-.014-.761-.014" fill="#B01F09"/><path d="M20.62 30.469l.016-.15s.411.042 1.13.042c1.325 0 3.684-.143 6.376-.96l.043.144c-2.71.822-5.083.966-6.419.966-.725 0-1.143-.042-1.146-.042" fill="#B01F09"/><path d="M20.62 30.105l.015-.15c.001 0 .41.041 1.128.041 1.402 0 3.965-.156 6.87-1.076l.044.143a23.36 23.36 0 0 1-6.914 1.083c-.723 0-1.14-.041-1.142-.041" fill="#B01F09"/><path d="M20.761 29.773l.02-.15s.404.053 1.144.053c1.385 0 3.936-.185 7.146-1.25l.047.143c-3.228 1.07-5.795 1.257-7.193 1.257-.747 0-1.161-.053-1.164-.053" fill="#B01F09"/><path d="M21.85 29.54l.019-.15s.143.019.452.019c.897 0 3.159-.158 7.11-1.39l.045.142c-3.964 1.237-6.241 1.398-7.155 1.398-.315 0-.468-.02-.471-.02" fill="#B01F09"/><path d="M22.682 29.069c.002 0 .842-.02 2.158-.226a23.876 23.876 0 0 0 4.988-1.338l.055.14c-3.796 1.492-7.192 1.574-7.197 1.574l-.004-.15z" fill="#B01F09"/><path d="M23.424 28.736c.001-.001.692-.01 1.895-.244 1.203-.233 2.912-.69 4.935-1.58l.06.137c-4.068 1.792-6.88 1.837-6.888 1.837l-.002-.15z" fill="#B01F09"/><path d="M24.159 28.369c.002 0 .895-.105 2.143-.401 1.248-.297 2.849-.785 4.252-1.55l.07.133c-2.828 1.539-6.41 1.962-6.448 1.967l-.017-.149zm.017.149z" fill="#B01F09"/><path d="M24.753 28.012c.002-.001.883-.138 2.088-.467 1.206-.33 2.732-.85 4.01-1.613l.076.129c-2.594 1.547-6.147 2.098-6.15 2.099l-.024-.148z" fill="#B01F09"/><path d="M25.379 27.573c.001 0 .647-.068 1.693-.378a17.3 17.3 0 0 0 4.069-1.826l.077.129c-3.186 1.945-5.816 2.224-5.823 2.225l-.016-.15z" fill="#B01F09"/><path d="M25.875 27.161c.001-.001.535-.067 1.494-.386.958-.32 2.337-.893 4.012-1.903l.077.129c-3.37 2.03-5.555 2.308-5.564 2.31l-.019-.15z" fill="#B01F09"/><path d="M26.353 26.738c.001-.001.611-.14 1.58-.518.97-.377 2.294-.992 3.714-1.938l.082.125c-2.86 1.907-5.337 2.475-5.343 2.477l-.033-.146z" fill="#B01F09"/><path d="M26.865 26.235c.001 0 .55-.147 1.45-.524.9-.378 2.15-.985 3.538-1.9l.082.125c-2.796 1.844-5.026 2.443-5.032 2.444l-.038-.145z" fill="#B01F09"/><path d="M27.37 25.701c.002-.001.488-.132 1.32-.5a20.69 20.69 0 0 0 3.361-1.914l.085.123c-2.72 1.884-4.7 2.428-4.726 2.436l-.04-.145zm.04.145z" fill="#B01F09"/><path d="M27.687 25.278c.002-.001.7-.261 1.599-.705.899-.443 1.995-1.07 2.782-1.792l.1.11c-1.61 1.477-4.425 2.525-4.428 2.528l-.053-.14z" fill="#B01F09"/><path d="M28.007 24.892c.002-.001.689-.3 1.5-.729.813-.429 1.75-.992 2.234-1.504l.108.104c-1.02 1.07-3.778 2.263-3.782 2.267l-.06-.138z" fill="#B01F09"/><path d="M28.301 24.494c.002 0 .656-.337 1.373-.742.715-.403 1.5-.885 1.73-1.141l.11.1c-.526.576-3.139 1.912-3.144 1.917l-.069-.134zm.194-.376c.001 0 .588-.305 1.203-.666.612-.355 1.265-.793 1.346-.975l.133.067c-.143.269-.781.667-1.404 1.037a28.72 28.72 0 0 1-1.209.67l-.069-.133z" fill="#B01F09"/><path d="M28.738 23.668c.001 0 .462-.227.95-.505.485-.273 1.005-.62 1.083-.787l.132.07c-.135.246-.647.56-1.142.847-.492.281-.956.51-.957.51l-.066-.135z" fill="#B01F09"/><path d="M28.904 23.267s.317-.137.668-.328c.35-.19.736-.445.853-.642l.127.078c-.31.492-1.584 1.023-1.59 1.03l-.058-.138zm.172-.399s.228-.106.481-.242c.252-.134.532-.308.612-.412l.116.094c-.231.281-1.141.69-1.147.696l-.062-.136zm.096-.347s.161-.06.333-.146c.172-.083.354-.21.38-.282l.137.061c-.074.152-.27.26-.45.355-.18.09-.346.152-.348.152l-.052-.14z" fill="#B01F09"/><path fill="#B01F09" d="M29.533 20.928l.142-.046.4 1.243-.143.046zm.1-.518l.142-.048.622 1.875-.141.048zm.064-.59l.14-.049.896 2.578-.141.049zm.058-.575l.14-.05 1.124 3.229-.14.049zm.078-.585l.14-.049 1.363 3.922-.142.05zm0-.836l.14-.05 1.767 4.911-.14.051zm.013-.699l.14-.053 2.115 5.7-.14.052zm-.121-.943l.139-.055 2.523 6.406-.139.056zm-.127-.98l.138-.056 2.775 6.862-.138.056zm-.21-1.274l.137-.059 3.124 7.381-.137.059zm-.268-1.118l.135-.063 3.496 7.638-.136.063z"/><path d="M28.356 11.064zm2.071 3.819c-1.043-1.989-2.058-3.796-2.07-3.818l.13-.074s1.022 1.82 2.072 3.822c1.05 2.005 2.125 4.172 2.238 4.922l-.148.022c-.097-.687-1.174-2.88-2.222-4.874z" fill="#B01F09"/><path d="M28.474 10.88zm1.846 2.902c-.958-1.622-1.834-2.885-1.846-2.903l.122-.085c.002.004 3.537 5.089 4.206 8.007l-.145.034c-.326-1.428-1.372-3.422-2.337-5.053zM9.771 25.944l.126-.786.374.01-.125.785z" fill="#B01F09"/><path d="M8.818 26.694a13.163 13.163 0 0 1-.048-1.155c0-1.06.106-1.91.106-1.912l.148.018c0 .002-.104.844-.104 1.894 0 .343.01.709.04 1.073l2.203-.01v.15l-2.34.01-.005-.068z" fill="#B01F09"/><path d="M8.28 27.106c-.129-1.693-.166-2.87-.166-3.663 0-1.052.065-1.427.066-1.432l.147.025c0 .002-.063.362-.063 1.407 0 .777.035 1.93.159 3.582l3.163-.02.001.15-3.303.02-.005-.069zm-1.26-4.113c0-1.653.09-3.504.455-4.47l.14.052c-.352.921-.447 2.773-.446 4.418 0 1.73.101 3.234.101 3.238l-.149.01c0-.001-.1-1.512-.1-3.248" fill="#B01F09"/><path d="M6.6 24.357c0-.948.022-2.45.134-3.851.114-1.404.308-2.696.686-3.262l.124.084c-.343.501-.552 1.797-.661 3.19a51.055 51.055 0 0 0-.133 3.84c0 .589.008.961.008.963l-.149.003s-.008-.376-.008-.967" fill="#B01F09"/><path d="M6.157 23.832c0-1.503.121-5.834 1.495-8.504l.132.068c-1.35 2.618-1.48 6.944-1.478 8.436 0 .334.006.526.006.526l-.149.005s-.006-.195-.006-.531" fill="#B01F09"/><path d="M5.726 22.347c0-1.337.238-4.052 1.775-7.615l.137.059c-1.528 3.544-1.763 6.236-1.763 7.556 0 .588.047.9.047.9l-.148.023c0-.003-.048-.327-.048-.923" fill="#B01F09"/><path d="M5.417 21.923c0-.006.01-3.725 1.699-7.293l.134.064c-.835 1.766-1.257 3.575-1.469 4.942-.212 1.366-.215 2.285-.215 2.288h-.15z" fill="#B01F09"/><path d="M5.169 20.06c.001-.003.68-3.751 1.545-5.56.036-.178.522-2.681.772-3.178l.132.069c-.114.22-.31 1.02-.47 1.747-.16.73-.29 1.399-.29 1.4l-.002.01-.004.008c-.424.883-.81 2.269-1.087 3.43a43.094 43.094 0 0 0-.45 2.101l-.146-.027zm-.049-1.655c0-.003.77-3.034 1.212-4l.135.063c-.213.464-.516 1.462-.763 2.339s-.44 1.633-.44 1.635l-.145-.037z" fill="#B01F09"/><path d="M5.198 17.453l.133-.07c0 .002.346.672.855 1.469.508.797 1.181 1.72 1.82 2.215l-.09.119c-1.33-1.035-2.714-3.73-2.718-3.733" fill="#B01F09"/><path d="M5.153 18.06l.13-.074c0 .001.352.616.891 1.375.539.76 1.265 1.662 2 2.228l-.09.119c-1.512-1.167-2.928-3.644-2.931-3.647" fill="#B01F09"/><path d="M5.124 18.623l.126-.08c.001.002.435.699 1.046 1.505.61.808 1.398 1.723 2.084 2.15l-.079.127c-1.434-.897-3.173-3.698-3.177-3.702" fill="#B01F09"/><path d="M5.146 19.407zm0 0l.118-.092c.001.001.416.542 1.045 1.246.63.704 1.471 1.57 2.317 2.215l-.09.12c-1.709-1.304-3.373-3.467-3.39-3.49z" fill="#B01F09"/><path d="M5.168 19.914zm0 0l.123-.085c.002.001.34.5.957 1.182.617.683 1.512 1.548 2.619 2.275l-.082.125c-2.231-1.466-3.601-3.474-3.617-3.497z" fill="#B01F09"/><path d="M5.224 20.585l.112-.098c.001 0 .508.582 1.241 1.297.734.715 1.692 1.562 2.585 2.087l-.075.13c-1.822-1.074-3.86-3.413-3.863-3.416" fill="#B01F09"/><path d="M13.905 6.95A14.93 14.93 0 0 0 11 8.338c-2.185 1.359-4.568 3.67-5.376 7.51 0 .003-.367 1.22-.367 3.094 0 2.525.667 6.223 3.806 9.681 0 0 .255.275.743.69.488.415 1.21.969 2.135 1.523 1.852 1.108 4.523 2.215 7.807 2.215h.128c.002-.001.558-.013 1.452-.188a14.143 14.143 0 0 0 3.45-1.159c2.66-1.296 5.728-3.83 7.377-8.811 0-.001.125-.351.251-.979.127-.627.254-1.528.254-2.62 0-2.83-.85-6.937-4.764-10.887-.002 0-.69-.539-1.714-1.182-1.016-.64-2.359-1.38-3.669-1.793a.288.288 0 0 0-.04.025c-.031.026-.051.055-.05.08-.004.033.042.134.295.267l2.834 1.557.009.012c.003.006.017.017.02.055.002.03-.026.068-.05.077a.14.14 0 0 1-.063.012c-.17-.004-.753-.15-3.305-1.185a.11.11 0 0 0-.02.008c-.02.011-.02.014-.02.015-.001.003.017.062.137.153 0 0 .727.5 1.483 1.053.76.56 1.532 1.144 1.67 1.38 0 0 .179.237.442.482.261.246.608.494.916.522h.005l.004.001c.006.008 1.27.27 1.624.901.001.005.902 1.488 1.022 2.715l.002.021-.01.02c.002.002-.623 1.273-.62 2.195 0 .114.009.223.03.323 0 0 .047.24.21.614.164.373.442.874.9 1.384l.02.022v.029c-.003.006-.027 4.426-1.805 6.724-.005.005-2.065 3.1-5.28 4.213l-.01.003h-.012l-.057.001a4.764 4.764 0 0 1-2.549-.802c0 .001-.124-.106-.334-.215a1.842 1.842 0 0 0-.832-.217c-.198 0-.41.039-.628.14-.002.001-1.524.694-1.949.957-.006.003-.446.233-1.029.234-.228 0-.478-.036-.723-.133-.012-.003-3.935-1.048-6.237-6.207 0-.004-.617-1.322-.82-2.612v-.032c.004-.107 0-.448.181-.634.022-.035.15-.243.28-.574.142-.363.284-.87.284-1.44 0-.253-.028-.517-.095-.788 0-.001-.245-.95-.504-1.507-.029-.032-.072-.106-.07-.244 0-.11.023-.26.093-.47.003-.01 1.02-3.695 4.813-6.013.006-.003 1.977-1.116 5.601-1.871l-.419.001c-.882 0-2.02-.018-2.702-.1-.08.017-.55.12-1.25.366M8.953 28.725c-3.17-3.492-3.846-7.233-3.845-9.783 0-1.893.37-3.133.37-3.132 1.642-7.768 9.653-9.373 9.66-9.375l.011-.003.012.002c.665.081 1.811.1 2.696.1.71 0 1.25-.011 1.252-.011l.014.148c-2.063.372-3.658.876-4.737 1.287-1.078.41-1.636.726-1.635.726-2.806 1.712-4.074 4.191-4.531 5.322-.152.376-.214.6-.215.604a1.4 1.4 0 0 0-.087.427c0 .097.022.131.028.14l.013.008.01.02c.27.577.518 1.543.519 1.546.07.284.1.561.1.825-.002 1.19-.588 2.094-.591 2.1l-.006.009-.007.006c-.12.098-.146.438-.142.533v.02c.197 1.25.805 2.558.807 2.561 1.709 3.83 4.313 5.36 5.505 5.887.397.175.634.238.643.24.232.092.463.126.676.126.272 0 .513-.055.686-.11.173-.054.274-.107.27-.104.442-.273 1.958-.962 1.96-.963.238-.111.472-.154.69-.154.723.002 1.256.464 1.256.463a4.61 4.61 0 0 0 2.46.771h.04c1.572-.546 2.871-1.581 3.777-2.483.907-.903 1.416-1.665 1.42-1.672.866-1.114 1.314-2.776 1.54-4.157a18.13 18.13 0 0 0 .236-2.451c-.925-1.04-1.125-2.039-1.126-2.047a1.73 1.73 0 0 1-.034-.353c.002-.911.549-2.077.628-2.242-.06-.58-.307-1.236-.542-1.747-.236-.517-.458-.883-.46-.887-.138-.26-.52-.479-.868-.618a4.721 4.721 0 0 0-.655-.21c-.735-.086-1.449-1.06-1.463-1.071-.088-.172-.883-.796-1.633-1.34-.754-.552-1.478-1.05-1.482-1.054-.133-.104-.195-.181-.198-.274.02-.17.182-.17.181-.176l.02-.004.02.008c1.624.662 2.465.962 2.888 1.092l-2.436-1.339c-.264-.14-.37-.264-.374-.399.012-.193.203-.249.205-.256l.025-.01.025.008c2.678.838 5.455 3.008 5.466 3.016 3.95 3.985 4.815 8.14 4.814 11 0 2.205-.512 3.642-.513 3.647C28.97 32.987 19.888 33.202 19.878 33.2h-.13c-6.636-.002-10.788-4.47-10.795-4.476" fill="#B01F09"/><path d="M29.605 20.743c0-.002.433-.567.976-1.495.544-.929 1.197-2.219 1.637-3.662l.095.029c-.886 2.908-2.627 5.186-2.629 5.189l-.079-.061z" fill="#B01F09"/><path d="M29.662 20.36c.001-.003.518-.825 1.074-1.91.557-1.085 1.153-2.432 1.31-3.466l.097.015c-.32 2.11-2.396 5.41-2.396 5.414l-.085-.054z" fill="#B01F09"/><path d="M29.692 19.771c.001-.002.494-.961 1.012-2.098.518-1.135 1.06-2.45 1.156-3.138l.099.014c-.203 1.423-2.177 5.264-2.178 5.268l-.089-.046z" fill="#B01F09"/><path d="M29.798 18.778c.001-.002.424-.773.878-1.739.454-.965.937-2.126 1.053-2.888l.098.015c-.241 1.566-1.94 4.657-1.941 4.66l-.088-.048z" fill="#B01F09"/><path d="M29.85 18.077c.001-.001.361-.687.746-1.596.385-.908.793-2.038.888-2.913l.099.01c-.195 1.784-1.635 4.526-1.644 4.546l-.088-.047zm.089.047zm-17.026.092l.023-.045-.023.045zm.215.562c.12.339.338.74.725.998.003 0 1.313.92 2.657 1.26-.012-.311-.12-1.712-1.087-2.944l-.008-.01v-.007l-.001-.001a.223.223 0 0 0-.022-.028 1.196 1.196 0 0 0-.197-.16c-.214-.149-.628-.39-1.418-.76l1.027 1.983-.13-.06c-.001 0-1.088-.49-1.676-.79.016.108.052.3.13.519zm3.421 2.371c-1.39-.334-2.75-1.29-2.752-1.29-.823-.552-.908-1.679-.91-1.683l-.008-.09.08.041c.445.232 1.298.624 1.624.772l-1.029-1.987.132.06c1.574.734 1.777.982 1.816 1.06 1.088 1.389 1.108 2.972 1.108 3.065l.01.07-.07-.018zm-4.352-.33l.01-.05-.01.05zm2.349 4.393l-.164-1.898-.017-.206 1.32 1.033v-.026c0-.417-.098-1.793-1.32-2.612 0 0-.468-.319-.77-.384l-1.338-.287c.008.438.152 3.11 2.289 4.38zm.033.135c-2.379-1.35-2.42-4.329-2.422-4.563v-.016l.002-.06 1.457.314c.337.075.803.397.806.398 1.264.85 1.363 2.266 1.363 2.695a1.6 1.6 0 0 1-.003.13l-.007.092-1.292-1.01.178 2.067-.082-.047zm11.381-4.131l.047-.015-.048.015zm-.822 2.232c0 .002 0 1.533-.058 2.116.099-.059.275-.175.464-.36.288-.282.6-.719.703-1.336l.001-.167c0-.428-.025-1.598-.272-2.432a5.57 5.57 0 0 0-1.145.7c-.603.48-1.207 1.197-1.24 2.142 0 0-.002.063-.002.163-.002.254.012.763.066.978l1.483-1.952v.148zm-.169 2.2c.057-.38.067-1.622.07-2.052l-1.405 1.848-.037-.065c-.102-.19-.105-.8-.108-1.105 0-.1.002-.165.002-.166.078-1.98 2.495-2.95 2.497-2.953l.05-.02.016.05c.269.86.293 2.074.294 2.516 0 .107-.002.169-.002.176-.216 1.301-1.301 1.82-1.306 1.823l-.085.04.014-.093zm-4.983-8.509l.04-.03-.04.03zm-.271 2.455c0 .004.347 1.4.411 1.844.061-.07.153-.187.245-.356.16-.294.323-.74.323-1.35a3.94 3.94 0 0 0-.008-.247c0-.001-.088-.473-.22-1.004-.121-.495-.287-1.045-.446-1.294a8.69 8.69 0 0 0-.742.918c-.393.56-.781 1.28-.78 1.902v.006l-.001.005s-.009.035-.009.116c0 .185.047.593.375 1.222l.816-1.906.036.144zm.321 1.955v-.01c.002-.102-.103-.593-.208-1.044a64.32 64.32 0 0 0-.175-.732l-.78 1.823-.05-.09c-.377-.694-.434-1.15-.434-1.362 0-.073.006-.117.01-.132.009-1.32 1.59-2.923 1.591-2.929l.04-.04.035.045c.375.498.715 2.384.72 2.394.005.09.008.176.008.26 0 1.257-.668 1.852-.674 1.858l-.09.079.007-.12zm3.563-3.311c-.503.304-1.054.801-1.26 1.585 0 .002-.446 1.3-.492 1.665A9.2 9.2 0 0 0 23 21.333c.636-.128 1.333-.365 1.572-.747-.002-.002.71-.82.826-1.66l-1.67.788.728-1.858a3.852 3.852 0 0 0-.857.382zm-1.856 3.304c.003-.317.502-1.747.501-1.748.433-1.63 2.28-2.06 2.284-2.062l.092-.022-.708 1.807 1.603-.756-.008.087c-.084.917-.859 1.8-.856 1.798-.549.84-2.85.94-2.855.946l-.053.003v-.053z" fill="#B01F09"/><path d="M14.657 19.038l.074-.067 1.693 1.9c-.317-.778-.949-1.674-1.525-2.397-.638-.8-1.205-1.39-1.206-1.39l.07-.07c.002.003 2.285 2.366 2.845 4.071l-.084.05-1.867-2.097z" fill="#B01F09"/><path d="M12.9 18.205zm0 0l.073-.067c.002.001.45.5 1.126 1.115.677.615 1.58 1.345 2.485 1.803l-.046.09c-1.825-.926-3.62-2.921-3.639-2.94zm-.741 2.577l.086-.045 2.224 2.54-.074.066-2.073-2.367c.065.198.185.528.389.978.35.777.948 1.908 1.933 3.32l-.081.058c-1.977-2.837-2.403-4.544-2.404-4.55" fill="#B01F09"/><path d="M13.798 21.997a18.738 18.738 0 0 0-1.618-1.185l.054-.084c.002.006 3.155 2.003 3.546 3.5l-.096.025c-.178-.704-1.053-1.574-1.886-2.256m5.032-.577c.004-.005.192-3.225 1.133-4.219l.107-.11-.355 2.522-.098-.014.309-2.2c-.383.508-.633 1.454-.782 2.3a16.843 16.843 0 0 0-.215 1.728l-.1-.007zm.099.007zm2.821.09c.964-1.675 2.75-3.768 2.751-3.769l.076.065c-.002.004-1.784 2.092-2.74 3.754l-.087-.05z" fill="#B01F09"/><path d="M21.77 21.462l1.978-1.862.068.072-1.757 1.655c.187-.092.464-.238.806-.448a14.102 14.102 0 0 0 2.524-2.004l.07.071c-1.935 1.92-3.633 2.597-3.637 2.599l-.053-.083zm1.828 3.819c.002-.002.99-2.798 2.375-4.117l.08.055-.869 2.21-.092-.036.78-1.986c-.606.644-1.133 1.566-1.515 2.353a16.594 16.594 0 0 0-.665 1.555l-.094-.034z" fill="#B01F09"/><path d="M25.017 25.567c.78-1.914.942-4.318.942-4.322l.1.007c0 .002-.162 2.417-.95 4.353l-.092-.038z" fill="#B01F09"/><g transform="translate(0 .046)"><mask id="b" fill="#fff"><use xlink:href="#a"/></mask><path d="M0 19.248c0 10.558 8.55 19.148 19.061 19.148 10.51 0 19.061-8.59 19.061-19.148S29.572.099 19.062.099C8.55.1 0 8.69 0 19.248m2.193 0c0-9.343 7.567-16.945 16.868-16.945 9.301 0 16.869 7.602 16.869 16.945 0 9.345-7.568 16.945-16.869 16.945-9.3 0-16.868-7.6-16.868-16.945" fill="#FEFEFE" mask="url(#b)"/></g><path d="M16.895 65.653l-4.529-7.292s-.6-.97-1.465-1.74c.798-.702 1.398-1.605 1.465-1.706l2.898-5.052s1.132-1.94-.834-1.94h-1.399c-.232 0-1.231-.033-1.864 1.07l-2.032 3.68c-.033.067-1.299 2.042-2.997 2.075h-.865V43.139s0-1.506-1.466-1.506H2.708c-.2 0-1.498 0-1.498 1.472v23.017s-.034 1.506 1.432 1.506h1.132c.266 0 1.465-.067 1.465-1.472v-7.361h.966c1.533.034 2.831 1.64 2.964 1.84.766 1.239 3.33 6.993 5.495 6.993h1.398c1.964 0 .833-1.975.833-1.975m34.096 0l-4.528-7.292s-.6-.97-1.466-1.74c.8-.702 1.399-1.605 1.466-1.706l2.896-5.052s1.133-1.94-.832-1.94H47.13c-.233 0-1.232-.033-1.865 1.07l-2.032 3.68c-.033.067-1.299 2.042-2.997 2.075h-.866V43.139s0-1.506-1.465-1.506h-1.099c-.2 0-1.498 0-1.498 1.472v23.017s-.034 1.506 1.431 1.506h1.133c.266 0 1.465-.067 1.465-1.472v-7.361h.966c1.532.034 2.83 1.64 2.963 1.84.766 1.239 3.33 6.993 5.496 6.993h1.398c1.965 0 .832-1.975.832-1.975" fill="#FEFEFE"/><path d="M62.777 62.24c-1.2 1.24-2.531 1.941-3.564 1.941-2.198 0-4.13-1.305-4.13-6.323 0-4.248 1.765-6.055 4.13-6.055 1.132 0 2.03.469 3.564 1.908v8.53zm3.963 4.083l-.033-12.68c0-1.572-2.165-3.278-2.165-3.278-1.167-1.004-3.197-2.275-5.528-2.275-3.531 0-7.96 2.442-7.96 9.903 0 7.226 4.397 9.902 7.827 9.902 1.365 0 2.73-.535 3.896-1.27.166 1.17 1.232.97 1.465.97h1.065c1.465 0 1.433-1.272 1.433-1.272zm13.72-3.983c-1.533 1.441-2.431 1.875-3.564 1.875-2.364 0-4.13-1.874-4.13-6.089 0-5.018 1.932-6.323 4.13-6.323 1.032 0 2.364.703 3.563 1.94v8.598zm2.497-20.406h-1.033c-.2 0-1.465 0-1.465 1.473v5.921c-1.165-.702-2.53-1.238-3.896-1.238-3.43 0-7.826 2.677-7.826 9.903 0 7.46 4.43 9.935 7.96 9.935 2.33 0 4.362-1.237 5.527-2.24 0 0 2.165-1.74 2.165-3.312l.033-18.936s0-1.506-1.465-1.506zm19.813 7.929s0-1.505-1.464-1.505h-1.032c-.2 0-1.466.034-1.5 1.472v8.364c0 4.248-1.731 6.056-4.095 6.056-1.166 0-2.066-.436-3.564-1.91v-3.878l.033-8.6s0-1.504-1.464-1.504h-1.1c-.2 0-1.498 0-1.498 1.472v12.344c0 1.473 2.065 3.38 2.23 3.514 1.166 1.003 3.198 2.273 5.562 2.273 3.43 0 7.86-2.342 7.86-9.5l.032-8.598zM10.402 76.582l1.881-5.364 1.858 5.375-3.74-.01zm2.245-5.765c-.023-.07-.07-.118-.14-.118h-.46s-.093.011-.128.118l-3.164 9.036h.4s.094 0 .141-.117l.964-2.752 4.01-.012.941 2.764c.035.106.14.117.14.117h.401l-3.105-9.036zm15.82 8.635c-1.329 0-2.81-1.7-2.81-4.394 0-2.658 1.505-3.993 2.81-3.993 1.306 0 2.811 1.335 2.811 3.993 0 2.693-1.482 4.394-2.81 4.394m0-8.835c-1.73 0-3.34 1.441-3.34 4.441 0 3.071 1.634 4.843 3.34 4.843 1.704 0 3.339-1.772 3.339-4.843 0-3-1.611-4.441-3.34-4.441m11.531.117c0-.047-.024-.047-.036-.047h-.447c-.024 0-.047 0-.047.047v8.138l-5.42-8.09c-.012-.013-.071-.083-.118-.083h-.424c-.012 0-.034 0-.034.047v9.049c0 .047.011.058.034.058h.447c.024 0 .036-.01.036-.047L34 71.643l5.35 8.01c.13.177.295.2.295.2h.317s.024-.01.024-.058l.012-9.06zm2.758 5.848l1.882-5.364 1.858 5.375-3.74-.01zm2.247-5.765c-.024-.07-.071-.118-.142-.118h-.459s-.094.011-.128.118l-3.164 9.036h.4s.094 0 .141-.117l.964-2.752 4.01-.012.941 2.764c.035.106.14.117.14.117h.4l-3.103-9.036zm15.547 5.729h-1.388c-.506 0-.682-.65-.682-.65V71.3c0-.177.211-.236.282-.224l1.658-.012c1.33 0 2.175.957 2.175 2.622 0 1.88-.905 2.859-2.046 2.859m-.058-5.87h-1.752c-.036 0-.765-.024-.765.637v8.506s-.012.035.036.035h.435c.012 0 .035 0 .035-.047l-.012-3.261s.223.425.706.425h1.375c1.047 0 2.552-.732 2.552-3.284 0-2.456-1.493-3.011-2.61-3.011m4.337 5.907l1.882-5.363 1.856 5.375-3.738-.012zm2.246-5.765c-.024-.071-.07-.118-.14-.118h-.46s-.094.012-.13.118l-3.162 9.037h.4s.094 0 .14-.119l.965-2.752 4.009-.012.942 2.764c.035.107.14.119.14.119h.4l-3.104-9.037zm7.168 5.763H71.76v-5.222c0-.224.14-.26.235-.26h2.246c1.34-.011 2.153.945 2.153 2.848 0 2.09-.918 2.634-2.153 2.634m3.046 3.237l-1.882-3.013c1.059-.567 1.482-1.382 1.482-2.883 0-2.433-1.482-3.213-2.587-3.213l-2.269-.012c-.036 0-.742-.059-.742.698l.013 8.423s-.024.035.034.035h.4c.013 0 .036 0 .036-.048l-.012-2.835h2.61c.153 0 .306-.011.588-.047l1.717 2.705c.095.141.212.225.318.225h.306c0-.012 0-.024-.012-.035m7.122.037l-2.47-3.85c-.035-.049-.67-.935-1.128-.935v-.035c.458 0 1.093-.885 1.117-.933L83.82 70.7h-.388s-.187 0-.27.154l-1.576 2.918s-.634 1.074-1.647 1.063h-.881v-4.1c0-.046-.012-.046-.035-.046h-.46c-.022 0-.035 0-.035.046l.013 9.073c0 .047.012.047.023.047h.459c.023 0 .035 0 .035-.047v-4.442h.905c1.058 0 1.612.957 1.612.957l2.151 3.366c.094.166.235.166.235.166h.447zm-61.87-.061c0 .047.012.06.035.06h.447c.023 0 .035-.013.035-.048V70.76c0-.047-.012-.06-.036-.06h-.446c-.023 0-.035.013-.035.048v9.045zM21.414 70.7h-6.797c-.048 0-.048.01-.048.033v.45c0 .023 0 .034.048.034h3.126v8.576c0 .047.012.06.036.06h.446c.023 0 .035-.013.035-.048l.002-8.588h3.152c.045 0 .045-.011.045-.022v-.462c0-.022 0-.034-.045-.034m32.95 9.132v-.41c0-.019 0-.029-.045-.029l-4.291-.003c-.094 0-.248-.046-.248-.305l-.043-8.337c0-.048-.012-.048-.025-.048h-.457c-.024 0-.035 0-.035.048l.043 8.372c0 .507.294.733.717.733h4.34c.044 0 .044-.01.044-.02M7.787 70.734c0-.047-.023-.047-.035-.047h-.447c-.023 0-.047 0-.047.047v8.138l-5.42-8.09c-.013-.013-.07-.083-.119-.083h-.422c-.012 0-.036 0-.036.047v9.049c0 .047.012.058.036.058h.447c.023 0 .035-.01.035-.047l.011-8.163 5.351 8.01c.13.177.294.2.294.2h.317s.023-.01.023-.058l.012-9.06zM28.68 62.24c-1.199 1.24-2.53 1.941-3.563 1.941-2.199 0-4.13-1.305-4.13-6.323 0-4.248 1.765-6.055 4.13-6.055 1.131 0 2.03.469 3.562 1.908v8.53zm3.963 4.083l-.034-12.68c0-1.572-2.164-3.278-2.164-3.278-1.165-1.004-3.197-2.275-5.528-2.275-3.53 0-7.959 2.442-7.959 9.903 0 7.226 4.396 9.902 7.826 9.902 1.365 0 2.731-.535 3.895-1.27.167 1.17 1.233.97 1.466.97h1.066c1.466 0 1.432-1.272 1.432-1.272z" fill="#FEFEFE"/><g transform="translate(104.394 48.337)"><mask id="d" fill="#fff"><use xlink:href="#c"/></mask><path d="M1.707 1.268a.453.453 0 0 0-.08-.282C1.571.916 1.508.88 1.436.88h-.46C.967.88.962.886.962.897v.727h.474c.18 0 .271-.118.271-.356m.25.006c0 .275-.076.462-.229.56l.188.576c.01.042.001.073-.026.094h-.178c-.035 0-.065-.022-.09-.068l-.17-.54h-.49v.524c0 .039-.025.067-.073.084H.774c-.038 0-.062-.026-.073-.078V.79c0-.108.06-.163.177-.167h.584a.43.43 0 0 1 .329.157c.11.123.166.287.166.493m.235.324c0-.813-.283-1.22-.85-1.22a.826.826 0 0 0-.636.288C.498.89.394 1.2.394 1.598s.102.707.307.927c.17.185.38.278.63.278a.746.746 0 0 0 .605-.278c.17-.21.256-.518.256-.927m.313 0c0 .447-.1.812-.297 1.095-.216.3-.513.45-.892.45-.358 0-.655-.15-.891-.448C.189 2.397.07 2.031.07 1.598c0-.43.118-.793.352-1.092C.657.208.955.06 1.316.06c.39 0 .69.15.902.45.191.276.287.639.287 1.09" fill="#FEFEFE" mask="url(#d)"/></g></g></svg>