<svg xmlns="http://www.w3.org/2000/svg" viewBox="0 0 178.00195 42.980998" height="42.981" width="178.002"><path d="M69.468 17.464l-1.184-2.738-1.219 2.738h2.403zm.2.434h-2.809l-.334.773c-.109.258-.164.472-.164.64 0 .222.09.386.27.492.106.063.365.11.78.14v.217h-2.644v-.217c.285-.042.52-.16.703-.352.184-.194.41-.595.68-1.201l2.844-6.343h.11l2.868 6.519c.273.617.498 1.006.674 1.166.132.122.32.192.563.211v.217h-3.846v-.217h.158c.309 0 .526-.042.65-.128a.314.314 0 0 0 .13-.27.721.721 0 0 0-.036-.217 5.306 5.306 0 0 0-.175-.44l-.422-.99M78.081 14.68v4.29c0 .419.04.68.118.786.078.102.236.166.474.194v.21H76.44v-.732c-.262.313-.524.541-.786.686-.262.14-.555.21-.879.21-.309 0-.585-.093-.827-.281a1.407 1.407 0 0 1-.48-.668c-.083-.254-.123-.697-.123-1.33v-2.176c0-.414-.04-.672-.118-.774-.074-.1-.232-.168-.474-.2v-.216h2.233v3.746c0 .391.017.643.053.756a.52.52 0 0 0 .176.258.471.471 0 0 0 .28.088c.142 0 .269-.037.382-.111.157-.102.344-.307.563-.616v-2.931c0-.414-.04-.672-.117-.774-.075-.1-.233-.168-.475-.2v-.216h2.233M82.51 14.527l.087 1.87h-.199c-.238-.555-.487-.934-.744-1.137-.255-.204-.509-.305-.763-.305a.568.568 0 0 0-.41.164.49.49 0 0 0-.17.369c0 .106.04.207.118.305.124.16.474.435 1.049.827.574.387.951.717 1.131.99.184.27.276.573.276.909 0 .305-.077.604-.229.897a1.602 1.602 0 0 1-.645.674 1.844 1.844 0 0 1-.92.234c-.263 0-.612-.082-1.05-.245a.886.886 0 0 0-.24-.065c-.129 0-.236.098-.322.293h-.194l-.094-1.97h.2c.176.516.416.903.72 1.161.31.258.6.387.874.387.188 0 .34-.057.458-.17a.57.57 0 0 0 .181-.422.723.723 0 0 0-.176-.487c-.117-.136-.379-.344-.785-.621-.598-.414-.985-.73-1.161-.95a1.653 1.653 0 0 1-.387-1.06c0-.423.145-.804.434-1.144.293-.344.715-.516 1.266-.516.297 0 .584.073.862.217a.578.578 0 0 0 .258.088.31.31 0 0 0 .17-.042c.043-.03.111-.114.205-.251h.2M85.412 12.674v2.005h1.302v.58h-1.302v3.383c0 .317.013.522.04.616.032.09.085.164.16.223a.355.355 0 0 0 .204.081c.254 0 .495-.193.722-.58l.176.13c-.317.75-.831 1.124-1.542 1.124-.349 0-.644-.095-.886-.286-.238-.196-.39-.413-.457-.651-.04-.133-.058-.493-.058-1.079v-2.96h-.716v-.206c.493-.347.91-.713 1.255-1.096.347-.383.65-.81.908-1.284h.194M89.39 14.68v1.242c.363-.567.682-.941.955-1.125.274-.188.538-.282.792-.282.218 0 .393.069.521.205.133.133.2.322.2.569 0 .262-.065.465-.193.61a.585.585 0 0 1-.458.216.793.793 0 0 1-.54-.2 3.275 3.275 0 0 0-.27-.222.26.26 0 0 0-.134-.035.491.491 0 0 0-.322.13c-.16.132-.282.322-.364.568-.125.38-.187.797-.187 1.254v1.26l.006.329c0 .223.013.366.041.428a.488.488 0 0 0 .205.235c.094.046.25.076.469.088v.21h-2.96v-.21c.238-.02.398-.084.48-.194.086-.113.129-.408.129-.885V15.84c0-.312-.016-.512-.047-.598a.473.473 0 0 0-.17-.24c-.074-.051-.205-.087-.393-.106v-.217h2.24M94.87 18.924v-1.835c-.474.277-.826.574-1.057.89a1.085 1.085 0 0 0-.228.64c0 .18.065.338.193.474a.532.532 0 0 0 .411.159c.195 0 .422-.11.68-.328zm0 .427c-.67.59-1.269.885-1.801.885-.313 0-.573-.1-.78-.304a1.047 1.047 0 0 1-.31-.774c0-.418.179-.793.539-1.126.36-.335 1.143-.781 2.352-1.336v-.551c0-.415-.024-.674-.072-.78a.592.592 0 0 0-.251-.28.754.754 0 0 0-.423-.125c-.254 0-.463.057-.627.17-.102.071-.152.153-.152.247 0 .082.054.183.164.305.148.168.222.33.222.487a.651.651 0 0 1-.216.491c-.141.134-.327.2-.557.2a.909.909 0 0 1-.622-.223.686.686 0 0 1-.246-.522c0-.281.111-.549.334-.803.223-.258.534-.455.933-.592a3.817 3.817 0 0 1 1.242-.205c.52 0 .93.111 1.231.334.305.22.502.457.593.716.054.163.082.54.082 1.13v2.129c0 .25.01.408.028.475.02.063.05.11.089.14.039.032.084.047.135.047.101 0 .205-.072.31-.217l.176.14c-.195.29-.398.502-.61.634a1.313 1.313 0 0 1-.708.193c-.314 0-.557-.071-.734-.216-.176-.149-.283-.371-.321-.669M99.632 12.211v6.812c0 .387.045.635.135.744.09.106.266.167.528.183v.21h-2.96v-.21c.242-.008.42-.079.539-.212.078-.09.116-.328.117-.715v-5.675c0-.383-.045-.627-.134-.733-.091-.109-.265-.17-.523-.187v-.217h2.298M102.962 14.68v4.343c0 .387.045.635.135.744.09.106.265.167.528.183v.21h-2.961v-.21c.243-.008.422-.079.54-.212.078-.09.117-.328.117-.715v-3.2c0-.387-.045-.634-.135-.739-.09-.11-.264-.172-.522-.188v-.217h2.298zm-.82-2.657c.254 0 .468.09.644.27a.87.87 0 0 1 .264.639.86.86 0 0 1-.27.64.87.87 0 0 1-.639.263.87.87 0 0 1-.639-.264.87.87 0 0 1-.263-.64.87.87 0 0 1 .263-.638.864.864 0 0 1 .64-.27M106.823 18.924v-1.835c-.473.277-.825.574-1.055.89-.152.212-.23.425-.23.64 0 .18.066.338.195.474a.532.532 0 0 0 .41.159c.195 0 .422-.11.68-.328zm0 .427c-.669.59-1.268.885-1.8.885-.312 0-.572-.1-.78-.304a1.05 1.05 0 0 1-.31-.774c0-.418.18-.793.54-1.126.359-.335 1.143-.781 2.35-1.336v-.551c0-.415-.024-.674-.07-.78a.592.592 0 0 0-.252-.28.75.75 0 0 0-.423-.125c-.254 0-.462.057-.627.17-.101.071-.152.153-.152.247 0 .082.054.183.164.305.148.168.222.33.222.487a.65.65 0 0 1-.216.491c-.14.134-.327.2-.557.2a.905.905 0 0 1-.621-.223.685.685 0 0 1-.247-.522c0-.281.112-.549.334-.803.223-.258.534-.455.933-.592a3.819 3.819 0 0 1 1.242-.205c.52 0 .93.111 1.231.334.305.22.503.457.592.716.055.163.082.54.082 1.13v2.129c0 .25.01.408.03.475a.28.28 0 0 0 .087.14c.04.032.085.047.136.047.101 0 .205-.072.31-.217l.176.14c-.195.29-.398.502-.61.634a1.313 1.313 0 0 1-.709.193c-.312 0-.557-.071-.732-.216-.176-.149-.284-.371-.323-.669M111.56 14.68v.709c.282-.305.551-.526.81-.663.257-.14.535-.211.832-.211.355 0 .65.1.885.299.235.195.391.44.47.733.062.223.092.65.092 1.284v2.133c0 .423.038.686.113.792.077.102.238.166.48.194v.21h-2.773v-.21c.207-.028.356-.114.446-.258.062-.098.093-.34.093-.728v-2.438c0-.45-.017-.733-.052-.85a.5.5 0 0 0-.183-.27.428.428 0 0 0-.275-.1c-.335 0-.649.24-.938.722v2.936c0 .41.038.67.111.78.079.11.221.178.428.206v.21h-2.772v-.21c.23-.024.395-.098.492-.223.067-.086.1-.34.1-.763V15.87c0-.414-.04-.672-.117-.774-.075-.1-.233-.168-.475-.2v-.216h2.233M126.038 12.029v2.803h-.217c-.262-.767-.655-1.349-1.178-1.748-.524-.398-1.096-.597-1.718-.597-.594 0-1.088.168-1.483.504-.395.332-.674.797-.838 1.395a6.929 6.929 0 0 0-.246 1.841c0 .762.09 1.43.27 2.005.179.574.468.996.868 1.266.401.27.879.405 1.43.405.19 0 .387-.02.586-.06.203-.042.41-.102.622-.18v-1.655c0-.311-.023-.513-.065-.603-.043-.094-.134-.177-.27-.252a.982.982 0 0 0-.486-.111h-.206v-.217h3.863v.217c-.293.02-.498.06-.615.123a.583.583 0 0 0-.264.299c-.035.074-.053.256-.053.544v1.654a7.668 7.668 0 0 1-1.588.51 8.11 8.11 0 0 1-1.707.176c-.754 0-1.381-.102-1.881-.305a4.825 4.825 0 0 1-1.32-.809 3.868 3.868 0 0 1-.89-1.131 3.947 3.947 0 0 1-.41-1.812c0-1.196.419-2.205 1.26-3.03.84-.825 1.897-1.237 3.171-1.238.396 0 .75.032 1.067.094.172.031.45.121.833.27.386.145.616.217.686.217.11 0 .21-.04.304-.117.095-.083.18-.235.258-.458h.217M129.867 14.93a.688.688 0 0 0-.516.23c-.14.149-.234.445-.282.891a20.603 20.603 0 0 0-.064 1.847c0 .418.027.808.082 1.172.043.278.135.489.275.633a.656.656 0 0 0 .482.217.665.665 0 0 0 .44-.146.995.995 0 0 0 .304-.557c.078-.371.117-1.122.117-2.251 0-.665-.037-1.12-.111-1.366-.074-.25-.185-.432-.328-.546a.613.613 0 0 0-.4-.123zm-.023-.415c.476 0 .92.123 1.33.37.41.245.722.596.932 1.049.215.453.323.95.323 1.489 0 .778-.197 1.428-.592 1.952-.477.633-1.136.95-1.976.95-.824 0-1.46-.29-1.906-.868-.445-.578-.667-1.248-.667-2.01 0-.787.226-1.47.68-2.053.457-.586 1.081-.88 1.876-.88M135.015 20.324l-1.848-4.25c-.222-.511-.396-.836-.52-.973a.704.704 0 0 0-.4-.205v-.217h2.914v.217c-.183 0-.308.033-.375.1a.4.4 0 0 0-.14.305c0 .144.085.416.257.814l.903 2.058.721-1.777c.207-.507.31-.867.31-1.078a.362.362 0 0 0-.134-.293c-.086-.078-.24-.121-.463-.13v-.216h1.795v.217a.734.734 0 0 0-.423.193c-.11.106-.274.417-.493.933l-1.828 4.302h-.276M140.904 16.83c0-.628-.034-1.06-.106-1.295-.065-.234-.17-.412-.315-.533a.485.485 0 0 0-.33-.106c-.202 0-.368.1-.498.299-.23.348-.345.825-.345 1.43v.206h1.594zm1.443.394h-3.008c.036.726.228 1.3.58 1.723.27.324.594.487.973.487.235 0 .448-.065.64-.194.191-.133.396-.37.615-.71l.2.13c-.297.606-.626 1.035-.985 1.29a2.13 2.13 0 0 1-1.25.374c-.812 0-1.427-.312-1.846-.937-.335-.505-.504-1.13-.504-1.877 0-.914.247-1.641.739-2.18.496-.544 1.076-.815 1.74-.815.556 0 1.036.228 1.443.686.41.454.632 1.128.663 2.023M144.947 14.68v1.242c.364-.567.682-.941.956-1.125.273-.188.537-.282.791-.282.218 0 .392.069.522.205.132.133.2.322.2.569 0 .262-.066.465-.194.61a.583.583 0 0 1-.458.216.791.791 0 0 1-.539-.2 3.509 3.509 0 0 0-.27-.222.264.264 0 0 0-.134-.035.49.49 0 0 0-.323.13 1.201 1.201 0 0 0-.363.568c-.126.38-.188.797-.188 1.254v1.26l.006.329c0 .223.013.366.04.428a.494.494 0 0 0 .206.235c.094.046.25.076.469.088v.21h-2.96v-.21c.239-.02.398-.084.48-.194.086-.113.129-.408.13-.885V15.84c0-.312-.016-.512-.048-.598a.47.47 0 0 0-.17-.24c-.073-.051-.205-.087-.393-.106v-.217h2.24M150 14.68v.709c.282-.305.552-.526.81-.663.258-.14.536-.211.832-.211.356 0 .65.1.886.299.234.195.39.44.47.733.061.223.092.65.092 1.284v2.133c0 .423.038.686.112.792.078.102.238.166.48.194v.21h-2.773v-.21c.208-.028.356-.114.447-.258.062-.098.093-.34.093-.728v-2.438c0-.45-.018-.733-.053-.85a.505.505 0 0 0-.182-.27.43.43 0 0 0-.275-.1c-.337 0-.648.24-.938.722v2.936c0 .41.037.67.11.78.079.11.222.178.43.206v.21h-2.774v-.21c.231-.024.395-.098.493-.223.065-.086.1-.34.1-.763V15.87c0-.414-.04-.672-.117-.774-.076-.1-.234-.168-.476-.2v-.216h2.234M156.353 14.68v.72c.3-.328.579-.557.833-.686.258-.132.539-.199.844-.2.351 0 .646.083.885.248.238.163.422.414.551.75.313-.352.612-.606.897-.762.289-.157.59-.235.903-.235.379 0 .68.088.903.263.226.173.383.393.469.663.09.266.134.692.134 1.278v2.245c0 .423.037.685.112.786.078.102.238.168.48.2v.21h-2.831v-.21c.223-.02.387-.106.493-.258.07-.106.105-.348.105-.728v-2.356c0-.489-.02-.8-.06-.932a.531.531 0 0 0-.186-.293.458.458 0 0 0-.294-.1.87.87 0 0 0-.51.188 2.294 2.294 0 0 0-.52.55v2.943c0 .395.032.644.099.745.089.145.262.225.516.24v.211h-2.838v-.21a.624.624 0 0 0 .358-.112.48.48 0 0 0 .175-.247c.032-.096.047-.306.048-.627v-2.356c0-.496-.02-.807-.059-.932a.568.568 0 0 0-.2-.293.463.463 0 0 0-.293-.106.786.786 0 0 0-.428.123c-.183.121-.378.328-.586.622v2.942c0 .387.037.644.112.768.078.122.237.194.48.218v.21h-2.826v-.21c.23-.024.395-.098.493-.223.066-.086.1-.34.1-.763V15.87c0-.414-.04-.672-.118-.774-.074-.1-.232-.168-.475-.2v-.216h2.234M166.8 16.83c0-.628-.035-1.06-.106-1.295-.065-.234-.171-.412-.315-.533a.486.486 0 0 0-.33-.106c-.202 0-.368.1-.497.299-.23.348-.347.825-.347 1.43v.206h1.595zm1.442.394h-3.007c.036.726.228 1.3.58 1.723.27.324.594.487.973.487.235 0 .449-.065.64-.194.19-.133.396-.37.615-.71l.2.13c-.298.606-.625 1.035-.985 1.29-.36.25-.776.374-1.25.374-.812 0-1.427-.312-1.846-.937-.336-.505-.504-1.13-.504-1.877 0-.914.246-1.641.739-2.18.496-.544 1.077-.815 1.74-.815.556 0 1.036.228 1.443.686.41.454.632 1.128.662 2.023M170.688 14.68v.709c.28-.305.55-.526.808-.663.258-.14.536-.211.834-.211.355 0 .65.1.884.299.235.195.39.44.47.733.062.223.093.65.093 1.284v2.133c0 .423.037.686.112.792.078.102.238.166.48.194v.21h-2.772v-.21c.207-.028.355-.114.445-.258.063-.098.094-.34.094-.728v-2.438c0-.45-.018-.733-.054-.85a.493.493 0 0 0-.18-.27.429.429 0 0 0-.276-.1c-.337 0-.65.24-.938.722v2.936c0 .41.036.67.111.78.078.11.221.178.428.206v.21h-2.773v-.21c.23-.024.394-.098.492-.223.067-.086.1-.34.1-.763V15.87c0-.414-.038-.672-.117-.774-.074-.1-.232-.168-.475-.2v-.216h2.234M176.7 12.674v2.005h1.302v.58h-1.301v3.383c0 .317.013.522.04.616.031.09.085.164.159.223a.359.359 0 0 0 .205.081c.254 0 .495-.193.721-.58l.176.13c-.316.75-.83 1.124-1.542 1.124a1.38 1.38 0 0 1-.885-.286c-.239-.196-.39-.413-.457-.651-.04-.133-.06-.493-.06-1.079v-2.96h-.714v-.206c.492-.347.91-.713 1.254-1.096.349-.383.65-.81.91-1.284h.193M64.26 25.45h113.742" fill="#231f20"/><path d="M64.26 25.45h113.742" fill="none" stroke="#231f20" stroke-width=".47940000000000005"/><path d="M68.905 32.116c0-1.036-.455-1.554-1.368-1.554h-.213v3.129c.114.007.2.01.26.01.88 0 1.321-.528 1.321-1.585zm1.712-.027c0 .49-.152.903-.456 1.24-.28.313-.659.527-1.14.644-.344.086-.91.128-1.697.128v2.004c0 .299.006.485.02.56a.557.557 0 0 0 .3.42c.117.061.335.091.652.091v.203h-3.557v-.203c.496 0 .798-.112.905-.335.044-.099.067-.344.067-.734v-4.683c0-.298-.007-.482-.02-.553-.039-.202-.137-.345-.295-.426-.118-.06-.337-.09-.657-.09v-.203h3.055c.772 0 1.398.124 1.877.373.63.326.946.848.946 1.564M73.962 36.259v-1.673c-.755.46-1.132.925-1.132 1.395 0 .164.056.308.17.433a.461.461 0 0 0 .361.144c.173 0 .373-.1.6-.299zm2.098.438c-.327.5-.715.751-1.163.751-.551 0-.861-.266-.93-.8-.59.534-1.119.8-1.587.8a.928.928 0 0 1-.688-.277.957.957 0 0 1-.274-.702c0-.5.322-.97.965-1.41.24-.167.767-.441 1.579-.824v-.505c0-.297-.005-.478-.016-.542a.63.63 0 0 0-.269-.434.672.672 0 0 0-.373-.108.924.924 0 0 0-.552.155c-.09.065-.135.14-.135.225 0 .075.049.167.148.277.132.154.199.302.199.445 0 .188-.067.34-.2.457a.707.707 0 0 1-.483.173c-.2 0-.374-.06-.522-.18a.614.614 0 0 1-.243-.497c0-.295.12-.563.362-.804.2-.203.451-.357.755-.464.351-.124.717-.186 1.096-.186.354 0 .674.074.956.223.328.17.545.413.652.73.048.145.072.487.072 1.027v1.932c0 .316.034.502.103.559a.181.181 0 0 0 .12.043c.089 0 .18-.064.274-.192l.154.128M80.775 32.95a.923.923 0 0 1-.134.512.5.5 0 0 1-.44.24.619.619 0 0 1-.398-.128c-.106-.086-.212-.171-.315-.256a.226.226 0 0 0-.12-.032c-.098 0-.194.039-.284.117-.14.124-.247.296-.32.516-.11.344-.166.724-.166 1.14l.006 1.442c.003.212.015.342.036.388.076.177.274.275.595.293v.197h-2.617v-.197c.263-.022.426-.126.492-.314.031-.092.046-.314.046-.665v-2.748c0-.284-.013-.465-.04-.543-.063-.18-.228-.285-.498-.314v-.202h1.98v1.13c.532-.853 1.045-1.28 1.541-1.28.424 0 .636.235.636.704M86.916 37.379h-2.492v-.197c.211 0 .316-.068.316-.203 0-.081-.073-.232-.217-.452l-.96-1.442-.312.311v.896c0 .32.019.524.057.613.062.156.219.248.47.277v.197h-2.496v-.197c.203-.022.347-.09.434-.203.058-.078.088-.306.088-.686v-5.055c0-.32-.017-.522-.052-.607-.065-.152-.222-.245-.47-.277v-.202h1.97v4.754l1.125-1.133c.346-.347.519-.613.519-.797 0-.202-.187-.328-.56-.378v-.202h2.162v.202c-.27.014-.536.128-.801.34-.083.064-.3.273-.652.627l-.527.53 1.137 1.714c.466.7.737 1.089.817 1.17.12.12.269.188.444.203v.197M90.561 35.887c0 .287-.068.562-.206.826a1.472 1.472 0 0 1-.567.604c-.24.14-.508.211-.804.211-.226 0-.534-.075-.922-.224a.691.691 0 0 0-.21-.059c-.114 0-.208.09-.284.267h-.176l-.083-1.79h.176c.117.358.29.667.517.927.276.32.572.48.89.48.154 0 .287-.05.398-.15a.5.5 0 0 0 .165-.39c0-.205-.1-.404-.3-.596a8.615 8.615 0 0 0-.548-.41c-.524-.373-.866-.661-1.024-.864a1.532 1.532 0 0 1-.341-.964c0-.444.141-.807.423-1.088.283-.28.64-.42 1.074-.42.265 0 .517.065.758.197.096.053.172.08.227.08.103 0 .213-.09.33-.267h.182l.077 1.7h-.181c-.366-.874-.808-1.31-1.328-1.31a.514.514 0 0 0-.357.14.443.443 0 0 0-.051.62c.14.186.462.45.965.79.476.323.795.61.957.858.162.249.243.526.243.832M97.509 34.927l-1.044-2.489-1.076 2.489h2.12zm3.298 2.452h-3.39v-.203h.139c.458 0 .687-.12.687-.361a.747.747 0 0 0-.031-.196 5.323 5.323 0 0 0-.155-.4l-.372-.897h-2.477l-.294.701c-.097.23-.145.424-.145.58 0 .201.08.35.239.446.092.056.321.099.687.127v.203h-2.332v-.203c.307-.046.565-.22.774-.521.104-.146.252-.442.445-.89l2.506-5.762h.098l2.53 5.922c.238.557.436.91.594 1.06.118.11.283.174.497.191v.203M106.473 37.379h-1.97v-.685c-.441.556-.93.834-1.468.834-.255 0-.491-.08-.708-.242a1.212 1.212 0 0 1-.445-.62c-.072-.23-.108-.634-.108-1.209v-1.975c0-.32-.017-.522-.052-.607-.065-.152-.222-.245-.47-.277v-.202h1.97v3.41c0 .512.068.82.206.923.07.053.15.08.243.08.251 0 .529-.221.832-.661v-2.665c0-.32-.017-.522-.05-.608-.067-.152-.224-.245-.472-.277v-.202h1.97v3.897c0 .32.017.521.052.606.065.16.222.254.47.283v.197M110.557 35.887c0 .287-.068.562-.206.826a1.47 1.47 0 0 1-.567.604c-.24.14-.508.211-.804.211-.227 0-.534-.075-.922-.224a.69.69 0 0 0-.21-.059c-.114 0-.209.09-.284.267h-.176l-.082-1.79h.175c.117.358.29.667.517.927.276.32.572.48.889.48.155 0 .288-.05.398-.15a.5.5 0 0 0 .166-.39c0-.205-.1-.404-.3-.596a8.392 8.392 0 0 0-.548-.41c-.524-.373-.866-.661-1.024-.864a1.532 1.532 0 0 1-.34-.964c0-.444.14-.807.422-1.088.282-.28.64-.42 1.074-.42.265 0 .517.065.758.197.097.053.172.08.227.08.103 0 .213-.09.33-.267h.181l.078 1.7h-.18c-.366-.874-.81-1.31-1.33-1.31a.514.514 0 0 0-.356.14.447.447 0 0 0-.156.344c0 .096.035.189.104.277.142.185.463.448.966.79.476.322.795.608.957.857.162.249.243.526.243.832M114.357 36.425c-.28.682-.733 1.023-1.36 1.023-.266 0-.508-.076-.729-.23a1.112 1.112 0 0 1-.455-.623c-.034-.125-.052-.452-.052-.983v-2.694h-.63v-.186c.827-.603 1.462-1.322 1.908-2.159h.17v1.823h1.148v.522h-1.148v3.075c0 .416.058.668.176.757.064.053.125.08.18.08.224 0 .437-.174.637-.522l.155.117M119.004 32.95a.923.923 0 0 1-.134.512.503.503 0 0 1-.44.24.617.617 0 0 1-.398-.128 19.96 19.96 0 0 1-.315-.256.226.226 0 0 0-.119-.032c-.1 0-.195.039-.284.117a1.141 1.141 0 0 0-.32.516c-.111.344-.166.724-.166 1.14l.005 1.442c.003.212.015.342.035.388.077.177.275.275.595.293v.197h-2.615v-.197c.262-.022.426-.126.491-.314.03-.092.046-.314.046-.665v-2.748c0-.284-.014-.465-.041-.543-.061-.18-.227-.285-.496-.314v-.202h1.98v1.13c.53-.853 1.044-1.28 1.54-1.28.424 0 .636.235.636.704M122.184 36.259v-1.673c-.756.46-1.132.925-1.132 1.395 0 .164.056.308.17.433a.461.461 0 0 0 .362.144c.172 0 .372-.1.6-.299zm2.098.438c-.328.5-.715.751-1.163.751-.551 0-.862-.266-.93-.8-.59.534-1.12.8-1.587.8a.928.928 0 0 1-.688-.277.957.957 0 0 1-.274-.702c0-.5.322-.97.964-1.41.241-.167.768-.441 1.58-.824v-.505c0-.297-.006-.478-.016-.542a.628.628 0 0 0-.269-.434.672.672 0 0 0-.372-.108.926.926 0 0 0-.553.155c-.09.065-.135.14-.135.225 0 .075.05.167.147.277.133.154.2.302.2.445 0 .188-.067.34-.2.457a.707.707 0 0 1-.483.173c-.2 0-.374-.06-.522-.18a.614.614 0 0 1-.243-.497c0-.295.121-.563.362-.804.2-.203.451-.357.755-.464a3.26 3.26 0 0 1 1.096-.186c.355 0 .674.074.956.223.328.17.545.413.651.73.049.145.073.487.073 1.027v1.932c0 .316.034.502.103.559a.184.184 0 0 0 .12.043c.088 0 .18-.064.273-.192l.155.128M127.286 37.379h-2.61v-.197c.213-.007.372-.072.475-.192.069-.082.103-.298.103-.65v-5.15c0-.302-.025-.502-.077-.601-.076-.139-.243-.216-.502-.235v-.202h2.026v6.188c0 .306.027.507.078.607.076.139.245.217.507.235v.197M129.715 30.81c0 .227-.078.42-.234.58a.762.762 0 0 1-.564.238.755.755 0 0 1-.562-.239.802.802 0 0 1-.232-.579c0-.226.077-.42.232-.582a.752.752 0 0 1 .562-.241.76.76 0 0 1 .567.239c.154.159.231.354.231.584zm.512 6.569h-2.61v-.197c.213-.007.372-.072.475-.192.07-.081.104-.297.104-.649V33.44c0-.305-.026-.506-.078-.601-.076-.142-.243-.222-.501-.24v-.202h2.026v3.944c0 .306.026.508.078.608.076.138.245.216.506.234v.197M133.36 36.259v-1.673c-.755.46-1.132.925-1.132 1.395 0 .164.056.308.17.433a.46.46 0 0 0 .362.144c.173 0 .372-.1.6-.299zm2.099.438c-.327.5-.715.751-1.164.751-.55 0-.861-.266-.93-.8-.59.534-1.118.8-1.586.8a.93.93 0 0 1-.689-.277.956.956 0 0 1-.273-.702c0-.5.321-.97.965-1.41.24-.167.766-.441 1.578-.824v-.505c0-.297-.005-.478-.016-.542a.625.625 0 0 0-.268-.434.672.672 0 0 0-.373-.108.93.93 0 0 0-.553.155c-.089.065-.134.14-.134.225 0 .075.048.167.147.277.133.154.2.302.2.445 0 .188-.067.34-.2.457a.71.71 0 0 1-.483.173.8.8 0 0 1-.522-.18.613.613 0 0 1-.243-.497c0-.295.12-.563.362-.804.2-.203.45-.357.754-.464a3.259 3.259 0 0 1 1.097-.186c.354 0 .673.074.956.223.327.17.544.413.652.73.047.145.071.487.071 1.027v1.932c0 .316.035.502.104.559a.182.182 0 0 0 .119.043c.09 0 .181-.064.274-.192l.155.128M19.764 34.446a.37.37 0 0 1-.151.15M21.137 23.712c.158 0 .287-.13.287-.29a.288.288 0 0 0-.287-.288.288.288 0 0 0-.287.288c0 .16.128.29.287.29M34.146 17.41H31v-5.545h3.146v5.545zm0 2.634c-.054.6-.258 1.097-.672 1.379L31 22.9v-5.207h3.146v2.35zm-3.428-2.634h-2.905v-5.545h2.905v5.545zm0 5.66l-1.143.683h-.02a.483.483 0 0 1-.606-.004l-1.136-.68v-5.375h2.905v5.375zm-4.081-5.66v-2.03h.894v2.03h-.894zm.894 5.491l-2.475-1.478c-.413-.282-.617-.78-.67-1.379v-2.35h3.145V22.9zm-2.06-11.036v2.14h-1.086v-2.14h1.087zm.272.803l.127-.133-.08-.146.168.017.1-.176.099.174.17-.015-.08.146.128.133-.163.03v.181l-.153-.114-.154.114v-.18l-.162-.031zm.769 2.235c-.008-.054-.079-.069-.11-.069-.096 0-.135.16-.216.165-.06.003-.102.009-.102-.064 0-.055.123-.097.17-.144-.67 0-.683.308-.788.308-.176 0 .147-.324.24-.418-.135-.022-.214-.19-.363-.273.07-.1.11-.058.197.013 0-.07.053-.153.209-.153.3 0 .216.29.264.29.048 0-.003-.29.198-.29.297 0 .669.765.332.765-.145 0-.028-.109-.031-.13zm-.721 1.633l.167.018.1-.177.099.174.17-.015-.08.146.128.132-.163.031v.181l-.153-.115-.154.115v-.181l-.162-.031.127-.132-.08-.146zm-1.226-2.065l.167.018.1-.177.1.174.168-.015-.079.146.127.133-.162.03v.181l-.154-.114-.153.114v-.18l-.162-.031.127-.133-.08-.146zm-.18 2.94v-2.03h1.087v2.03h-1.087zm2.497-2.661l.127-.133-.08-.146.168.018.1-.177.1.174.168-.015-.079.146.128.133-.162.03v.181l-.155-.114-.153.114v-.18l-.162-.031zm.65-.746h-.895v-2.14h.894v2.14zm6.904-2.417v-.006H24.095v.006h-.002l.008 8.352c0 .806.342 1.51.813 1.728l3.978 2.376a.482.482 0 0 0 .686.038l4.04-2.414c.471-.217.812-.922.812-1.728l.008-8.352h-.002" fill="#231f20"/><path d="M27.364 19.607c-.015-.033-.394.126-.286.116.01-.112.22-.34.315-.424-.017-.132-.187-.013-.364.08.59-.844.212-.498-.117-.438.525-.566.387-.557 0-.38.304-.242.369-.53.322-.613-.286.38-.549.32-.549.674 0 .233-.084.614-.203.743-.153.167-.036-.623-.44-.623-.128 0-.433-.01-.525.147.082 0 .205.21.205.294 0 .083.077.313-.061.313s-.298-.29-.298-.43c0-.139-.01-.106-.01-.306 0-.334-.544-.804-.765-.804 0 .233.304.289.304.586-.13 0-.313-.242-.313-.093s.193.176.193.307c0 .13-.22-.047-.22.092 0 .123.12.102.15.222-.09-.025-.17-.014-.187.032-.015.04.027.093.094.13-.03.029-.058.098-.058.294 0 .66.414.966.717.966.217 0 .183-.15.21-.223.009.112.115-.056.115.14 0 .204-.21.114-.21.29 0 .236.331-.008.331.253 0 .316-.039.31-.039.43 0 .083.347-.115.325-.151.084.03.08.276.234.27.1-.005.122-.252.2-.273-.046.012.315.235.315.122 0-.307-.127-.177-.127-.388 0-.195.426-.157.359-.256-.056-.083-.095-.033-.14-.178.008.027-.335-.49.07-.223.428.28.476-.649.453-.698M38.398 21.792c.188 0 .34-.134.34-.3 0-.165-.152-.3-.34-.3-.188 0-.34.135-.34.3 0 .166.152.3.34.3M37.023 22.61c.187 0 .34-.135.34-.3 0-.166-.153-.3-.34-.3-.188 0-.341.134-.341.3 0 .165.153.3.341.3M20.675 24.495c.187 0 .34-.135.34-.3 0-.166-.153-.3-.34-.3-.188 0-.341.134-.341.3 0 .165.153.3.34.3M21.734 24.586c.188 0 .34-.134.34-.3 0-.166-.152-.3-.34-.3-.188 0-.34.134-.34.3 0 .166.152.3.34.3M51.165 10.32c.505.6.614 1.563.253 2.254-.198-.018-.162-.272-.198-.418-.362-.672-.65-1.526-.325-2.289.234.036.143.327.27.454M7.98 11.139c-.109.435-.109 1.035 0 1.435-.09.091-.073-.091-.163-.073-.704-.508-.379-1.508-.558-2.217.035-.054.125-.072.18-.036.324.219.468.527.54.89M52.716 11.193c.109.2-.09.4-.234.49-.163.037-.343-.054-.451-.2-.054-.199.054-.38.216-.472.18-.018.36.018.47.182M6.879 11.993c-.036.163-.09.327-.234.399-.108 0-.271 0-.343-.09-.108-.092-.127-.255-.073-.382.073-.127.217-.146.344-.163.126.053.252.09.306.236M53.42 12.302a.41.41 0 0 1 0 .29c-.126.164-.307.236-.487.164-.126-.073-.162-.2-.199-.31.037-.144.181-.272.308-.326.161 0 .27.09.378.182M52.391 12.32c.145.072.037.254.019.363-.09.09-.217.236-.38.181-.09-.09-.197-.09-.234-.218 0-.181.073-.363.253-.418.144-.036.235.037.342.092M51.075 12.592c0 .2.018.455-.217.49-.217.074-.36-.11-.415-.254a.43.43 0 0 1 .271-.436c.144 0 .271.091.361.2M8.845 12.683c.055.181-.126.29-.234.381-.126.036-.289-.072-.361-.2-.126-.126.036-.236.072-.345.18-.164.451-.036.523.164M7.763 12.738c0 .144-.072.29-.198.345-.145.054-.289-.055-.362-.164-.09-.181.02-.345.163-.418.2-.073.325.109.397.237M46.71 12.81c.18.382.323.836.36 1.308-.072.345.055.8-.198 1.036-.253-.091-.27-.4-.434-.563-.324-.636-.035-1.381.073-1.999.145-.054.145.128.2.218M6.915 13.028c.054.218-.108.327-.234.455-.217.054-.36-.11-.452-.255a.456.456 0 0 1 .235-.436c.181-.019.36.072.451.236M49.56 13.554c.234.528.252 1.164.09 1.745l-.11.09c-.251-.49-.612-.944-.739-1.47 0-.382.073-.727.218-1.037.126-.09.198.019.252.128.018.2.108.436.288.544M51.833 13.228c-.018.182-.09.382-.271.436-.18.037-.36-.018-.415-.218-.054-.182.054-.346.198-.436.2-.11.398.073.488.218M7.781 13.791a.389.389 0 0 1-.27.345c-.145.11-.252-.072-.38-.127-.054-.145-.09-.272 0-.418.055-.108.181-.108.29-.145.162.09.324.164.36.345M8.575 13.7c.072.182-.126.273-.199.364-.216.072-.325-.091-.414-.218-.037-.182.072-.292.198-.4.216-.055.325.09.415.255M52.338 13.646c-.019.236-.38.472-.416.709-.198.49-.63.854-1.117 1.017-.11.09-.253.218-.416.236-.035-.363.289-.69.488-1.017.379-.491.902-.8 1.461-.945M7.42 14.41c.271.308.415.58.74.853.018.072-.036.181-.126.181-.884-.054-1.48-.962-1.913-1.598.054-.2.29-.037.416-.055.306.236.649.309.883.618M52.59 14.663c-.036.781-.414 1.58-1.118 1.962-.199.073-.416.273-.614.146.38-.782.957-1.417 1.588-2.108h.144M49.127 15.19c.053.272-.09.436-.306.527-.2.018-.325-.146-.416-.291a.38.38 0 0 1 .253-.4c.053-.054.143-.054.216-.054.108.037.162.128.253.218M6.428 15.354c.343.236.65.563.974.853-.234.164-.523.019-.794.019-.613-.218-1.028-.745-1.66-.927.019-.2.253-.127.38-.181.397-.037.721.145 1.1.236" fill="#231f20"/><path d="M25.748 9.976c-1.01-.4-1.678.654-2.706.527-.126.072-.09.2-.162.29-.054.055-.145.019-.199-.018-.054-.436-.198-.836-.252-1.254-.108-.18-.054-.435-.145-.617-.577-1.58 1.408-.382 1.804-1.308.344-.8-.667-.89-.974-1.454v-.236c-.288-.29-.595-.381-.776-.764.127-.454.18-.944.055-1.398-.018-.11-.09-.254-.253-.2-.343.472-.595.854-.92 1.308-.343-.254-.668-.581-1.064-.8-.27-.036-.523-.308-.83-.2-.054.11 0 .2.054.273.018.709.379 1.273.884 1.78l.054.273c-.324.745-.234 1.6-.324 2.399-.812 2.07-2.129 4.07-3.915 5.505-1.028 1.163-2.255 2.29-2.418 3.888-.053.255.037.563-.161.745-.596-.218-1.19-.509-1.678-.89-.83-.582-2.02-.51-2.562-1.563-.216-.418.055-.836.253-1.144.613-.582.523-1.618.199-2.326-.073-.019-.091.072-.145.09-.054 1.073-.902 1.817-.578 2.999.073.345.253.563.344.89-.127-.036-.307-.036-.415-.09-.397-.056-.794-.219-1.21-.165-.829.382-1.965-.09-2.633.673-.108.018-.252.036-.216.2.397 0 .775.108 1.172.09.632.11 1.046-.417 1.48-.654h.107c.181-.181.488-.073.723-.108 1.136.127 2.02.672 2.958 1.235v.072c-.361.164-.776.273-1.137.473-.415.31-.884.708-1.01 1.218-.289.454.09.853.27 1.235.018.181.037.4.199.472.577-.618.036-1.38.126-2.09.145-.544.65-.799 1.173-.944 1.028-.436 1.768.4 2.597.872-.017.836.09 1.635-.09 2.453-.252.09-.577.145-.848.127-1.425.11-2.543.89-3.824 1.326-.577.2-1.262.182-1.84.4.451.127.92-.036 1.39-.055 1.767-.254 3.12-1.617 5.032-1.38l.036.054a4.267 4.267 0 0 1-.848 1.181c-.054-.2-.072-.363-.253-.472-.144-.073-.306 0-.414.145-.054.09-.054.2 0 .273.09.163.235.2.397.254-.036.164-.235.236-.343.382-.505.854-1.534.508-2.129 1.108-.09.127-.414.2-.27.4a2.708 2.708 0 0 0 1.858-.473c.667-.745 1.37-1.453 2.038-2.162.108.582-.054 1.18-.396 1.653-.163-.09-.29-.218-.488-.273-.18.037-.306.22-.324.364.071.127.144.273.27.364-.613.436-1.389.472-2.093.672a35.465 35.465 0 0 1-3.932.29c-.631-.036-1.353.182-1.948 0-.686.128-1.425-.09-1.985.291-.072.09.018.182.018.272.83.546 1.967.11 2.905.274h7.107c.524-.018 1.047-.037 1.461-.274.92-.526 1.426-1.471 1.895-2.397.18-.327.307-.709.379-1.09.18-.618.739-1.055 1.352-1.109.09.945-.09 1.89-.306 2.762-.109.581-.487 1.145-.253 1.762.054.291.361.291.595.328 2.183-.037 4.366-.128 6.675.035.415.073.776.2 1.226.182.037-.055.163-.073.109-.182-.054-.2-.199-.454-.433-.508-.036-.109-.198-.073-.253-.146-1.154-.654-2.543-.308-3.896-.29-.704.072-1.407.199-2.003-.2-.27-.327-.072-1.363-.072-1.363 0-.41.993-3.27 1.119-3.507.036-.272.144-.526.108-.835.144-.364.108-.836.108-1.236.073-.582.361-1.126.56-1.69.108-.272.198-.563.306-.835.108-.345.145-.673.361-.945.588.374 1.164.363 1.447 1.03l.249 1.514c0 .09.072.272.198.164.47-.31.325-1 .325-1.472.108-.564-.288-.836-.451-1.326-.126-.091-.334-.525-.334-.525-.073-.4-.947-.675-.748-1.165.108-.418.216-.8.613-1.036.058.04.083.084.09.13l.216-.152.023-1.52c.584-.002 1.456.073 2.052.073.162.054.289.181.47.2l.143-.2 1.462-.285c-.62.07-.998-.644-1.588-.644M27.336 10.62a.78.78 0 0 0 .135-.026l-.135.026" fill="#231f20"/><path d="M11.623 15.681c.018.218-.108.345-.27.418-.145-.055-.253-.073-.343-.218-.072-.2.108-.346.252-.419.145.037.326.055.361.219M10.451 15.681c.108.109.126.29.072.418-.126.108-.325.2-.433.054-.108-.109-.216-.236-.126-.382.126-.127.342-.236.487-.09M35.562 15.88c.004.01.01.018.015.027M49.307 16.19c.072.2-.09.345-.234.418-.181-.055-.415-.092-.415-.328.018-.145.143-.236.27-.272.163-.055.306.073.379.181M50.263 16.153c.054.09.18.237.037.327-.073.055-.127.073-.182.145-.198.037-.378-.036-.432-.218-.037-.2.126-.29.27-.381.126-.037.217.055.307.127M5.923 16.371c-.072.218-.253.31-.487.237a.75.75 0 0 1-.144-.237c.018-.127.054-.254.199-.309.216.019.378.109.432.31M12.003 16.68c-.02.145-.181.272-.307.345-.181.018-.307-.127-.397-.254 0-.146.072-.327.216-.364.199-.072.415.073.488.273M10.938 16.553c.054.055.108.2.054.29-.108.091-.27.255-.45.146-.11-.09-.236-.164-.2-.345.073-.073.163-.182.271-.218.144-.036.217.054.325.127M53.023 16.77c0 .146-.144.292-.235.346a.354.354 0 0 1-.397-.09c-.107-.037-.072-.182-.072-.274.09-.127.217-.199.344-.236.162.037.27.146.36.255M54.177 16.934c-.054.164-.18.309-.342.328-.109-.02-.307-.055-.27-.219 0-.127.072-.254.161-.29.18-.091.397 0 .451.181M7.98 17.19c.036.217-.036.362-.217.434-.126.073-.253-.017-.343-.09-.09-.091-.161-.236-.09-.363.036-.163.198-.128.307-.2.162.018.252.09.343.218M8.863 17.352c.055.145-.108.2-.144.309-.09.055-.216.109-.325.036-.126-.109-.27-.272-.144-.435.144-.273.523-.128.613.09M51.958 17.262c.019.18-.143.308-.251.418a.31.31 0 0 1-.362-.218c-.018-.147.073-.255.2-.346.162-.018.324 0 .413.146M53.438 17.552c-.037.164-.018.346-.198.454-.145.037-.325.018-.433-.072-.108-.091-.127-.254-.073-.382.09-.145.253-.254.434-.218.126.073.162.163.27.218M7.294 17.934c.072.144-.09.181-.144.254-.126.073-.253.018-.36-.036-.127-.074-.073-.254-.055-.345.162-.31.487-.091.56.127M52.302 18.279c.071.018.036.127.017.163-.432.218-1.082.273-1.46-.072-.218-.182-.487-.255-.722-.4.09-.236.415-.218.65-.273.522.073.937.564 1.515.582M8.16 18.115c.036.146-.072.2-.109.31-.071.108-.216.072-.306.036-.162-.11-.235-.31-.127-.455.2-.2.433-.09.542.11M9.747 18.225c.072.163-.035.308-.18.399-.127.072-.234-.036-.343-.055-.09-.127-.252-.272-.09-.417.163-.272.487-.128.613.073M30.604 18.993c-.035.362-.634-.052-.55.432.086.345.155.759.36 1.017.172.242.086.623.07.916-.155.258-.411.448-.686.586-.514-.051-1.268.26-1.509-.38-.102-.275-.291-.552-.291-.862.052-.035.12-.035.172-.087 0-.12-.137-.19-.12-.31.582-.104-.24-.622.257-.656.41.431 1.08.293 1.44.759.085.07.154.173.256.225-.068-.432-.274-.863-.343-1.33a.602.602 0 0 1 .206-.604c.31-.24.566.104.738.294M11.335 18.88c.054.18-.09.29-.199.38-.162.073-.252-.11-.325-.2-.054-.18.073-.272.18-.364a.39.39 0 0 1 .344.183M22.465 19.06c.216.71.144 1.435-.217 2.035-.018.145.036.381-.162.363-.487-.672-.126-1.617.073-2.325.035-.182.252-.254.306-.073M37.907 19.405c.252.51.27 1.181.035 1.69l-.144.145c-.199-.418-.36-.835-.414-1.29.09-.327.198-.617.215-.962.254-.055.235.272.308.417M12.742 19.605c-.108.218-.415.273-.614.418-.432.327-1.064.4-1.605.309.469-.654 1.19-1.036 2.056-.854.037.072.127.036.163.127M5.328 20.26c.667.471.847 1.125 1.245 1.78.053.072.234.09.162.236-.145.109-.289-.109-.487-.073-.686-.309-1.119-1.072-1.1-1.871 0-.072.108-.072.18-.072M37.203 20.822c.018.182-.019.363-.162.418a.33.33 0 0 1-.415-.218c-.054-.127.053-.2.09-.29.144-.146.397-.073.487.09" fill="#231f20"/><path d="M44.816 21.785c0-.345.09-.672.126-.999a.663.663 0 0 0 .072-.381c.433-.582 1.317-.4 2.002-.346.27.146.613.127.902.2.126-.09.307-.109.451-.09.577-.31.199-.982.235-1.509l-.217-.545a2.119 2.119 0 0 1-.144-.363c-.108-.128-.18-.363-.289-.49-.306-.8-.902-1.254-1.407-1.89-.92-1.2-2.363-1.872-3.806-2.344-1.425-.49-2.869.145-4.15.6-.396-.11-.594-.418-.703-.764a3.618 3.618 0 0 1 .343-1.925c.054-.455.36-.8.487-1.218.325-1.017.668-2.016.74-3.125.036-.672-.47-1.144-.975-1.435-.342-.09-.739-.073-.991.2-.235.49-.74.817-1.173 1.054-.036.309.342.109.468.217.397.073.849-.054 1.174.2.036.727-.38 1.327-.758 1.872-.614.908-1.263 1.835-1.641 2.834l-.073-.072.088 4.44c.574.958 1.293 2.049 2.365 2.41.578.472 1.299 1.035 2.075.617.415-.127.45.454.65.69.215.672-.271 1.145-.308 1.762l-.469 1c-.54 1.054-1.028 2.18-1.857 3.07-.271 0-.434.29-.704.31-.145.2-.433.053-.613.127-.56.236-1.353.09-1.732.617.036.054.09.073.144.091 1.1.018 2.328.09 3.5.037.144-.055.271-.183.289-.346-.163-.309.054-.581.198-.817.09-.437.379-.709.505-1.127.379-.744.812-1.471 1.227-2.216l.558-.909c.128-.309.343-.69.56-1.017.144-.146.217-.31.324-.49.019-.183-.071-.255-.18-.382.126-.128.325-.092.488-.128.451.273.92.71 1.01 1.2l.162.472.073.218-.037.6.073.563c.09.872-.073 1.762-.163 2.635-.307 1.053-1.515.944-2.381 1.18-.217.145-.631.073-.631.436 1.045.219 2.272.091 3.39.073.18-.073.217-.236.307-.4.036-.236.27-.436.199-.69-.2-.254-.018-.654-.072-1a.557.557 0 0 0 0-.345c.144-.526.108-1.162.216-1.672l.073-.69M53.69 21.077c-.577.817-1.19 1.744-2.2 2.035-.072 0-.145.036-.181-.055.613-.654.938-1.672 1.894-1.908.145-.072.343-.145.488-.072M4.444 21.967c-.09.073-.018.236-.18.255-.145.072-.307-.019-.379-.164-.073-.182.09-.363.234-.4.144.073.289.127.325.31M9.64 22.222c.053.163-.127.163-.217.2-.758.272-1.534.018-2.075-.528 0-.073 0-.145.072-.163.74.181 1.606.036 2.22.49M5.436 21.985c.036.073.055.2.036.273-.108.163-.27.2-.45.163-.11-.054-.163-.127-.236-.236.019-.181.163-.29.307-.345.145.018.253.054.343.145M22.338 22.077c.037.163-.108.272-.216.344a.357.357 0 0 1-.378-.145c-.054-.127 0-.309.126-.346.162-.036.414-.018.468.147M54.375 22.149c.055.182-.107.272-.233.382-.108.053-.235 0-.344-.056-.017-.09-.126-.162-.09-.29.073-.163.235-.236.415-.218.09.073.163.09.252.182M55.567 22.077c.108.163.017.29-.072.417a.248.248 0 0 1-.325.109c-.109-.109-.253-.163-.271-.327 0-.145.162-.254.27-.309.181-.073.253.11.398.11M3.686 22.603c.018.127-.09.2-.126.309-.09.036-.18.109-.289.073a.531.531 0 0 1-.27-.291.472.472 0 0 1 .324-.363c.145.036.307.109.361.272" fill="#231f20"/><path d="M41.677 22.603c.036.073.017.163.017.236-.107.146-.252.273-.432.182-.109-.11-.235-.218-.18-.382.144-.2.45-.272.595-.036M6.59 22.876c-.036.127-.09.254-.252.272-.163.018-.217-.127-.307-.2 0-.164-.018-.327.144-.417.217-.074.415.108.415.345M4.859 22.912c.054.181-.073.308-.18.4-.217.072-.398-.092-.487-.255.017-.163.144-.363.324-.418.162 0 .253.182.343.273M42.867 22.876c.036.181-.018.363-.198.436-.217.072-.397-.11-.487-.255.09-.145.107-.345.324-.381.163 0 .27.072.36.2M5.707 22.948c.054.127-.054.182-.091.272-.09 0-.144.11-.252.073-.072-.09-.217-.127-.235-.254-.018-.182.109-.273.235-.345.18-.018.289.11.343.254M53.384 23.093c-.054.146-.162.219-.307.291-.144.036-.234-.09-.343-.145-.09-.073-.054-.236-.018-.327.18-.309.668-.164.668.181M54.755 23.166c-.054.2-.253.29-.433.309-.162-.072-.343-.2-.216-.418.071-.072.108-.145.216-.163.216-.073.379.09.433.272M46.186 23.293c.09.237-.125.31-.27.418a.832.832 0 0 1-.344-.145.419.419 0 0 1 .254-.473c.162 0 .252.073.36.2M41.226 23.511c.09.037.054.164.036.219-.109.072-.253.254-.415.145-.126-.073-.217-.182-.18-.345.09-.2.469-.218.56-.019M42.235 23.639c.019.145-.017.218-.144.29-.126.128-.27-.018-.397-.054-.035-.073-.072-.182-.017-.272a.399.399 0 0 1 .234-.146c.126.036.27.036.324.182M11.623 23.657c.108.109-.018.236-.035.345-.091.109-.29.2-.452.09-.18-.072-.162-.308-.126-.453.108-.036.108-.164.252-.164.163.018.253.091.361.182M48.116 23.73c.036.18-.145.254-.27.29-.217.072-.325-.091-.415-.236 0-.11.108-.181.144-.273.253-.108.415.073.541.219M47.143 23.73c.07.18-.127.272-.2.362a.36.36 0 0 1-.396-.072c-.09-.054-.09-.163-.09-.273.107-.09.162-.2.289-.236a.47.47 0 0 1 .397.219M55.278 23.948c.036.253-.288.127-.415.2-.757.453-1.732.108-2.453-.164.054-.237.324-.146.47-.237.774-.49 1.569.11 2.343.146l.055.055M5.905 23.73l-.072.127c-.667.4-1.534.672-2.327.418l-.072-.11c.667-.49 1.55-.617 2.417-.49l.054.055M49.957 23.857a.41.41 0 0 1-.181.344c-.18.055-.416 0-.47-.2-.053-.144.091-.29.235-.344.127 0 .344.018.416.2M9.134 23.929c-.072.146-.036.291-.216.363-.181.073-.397-.09-.451-.235-.054-.2.09-.255.18-.346.216-.108.38.055.487.218M7.854 24.02c.053.127-.055.2-.091.29-.09.11-.253.092-.361.055-.126-.109-.252-.236-.199-.436.11-.091.163-.145.29-.2.162.037.324.109.36.29M51.22 24.438a.389.389 0 0 1-.289.327c-.145.018-.27-.091-.343-.182a.284.284 0 0 1 .072-.345c.036-.054.163-.054.235-.09.161.017.289.144.325.29M6.519 24.238c.054.145-.073.2-.091.309-.054.31-.253.509-.397.781-.343.418-.83.418-1.317.545l-.072-.145c.524-.672 1.083-1.2 1.822-1.527l.055.037M50.317 24.638c.037.218-.144.255-.27.345a.41.41 0 0 1-.361-.218c-.055-.2.126-.273.234-.363.18-.037.343.09.397.236M8.593 24.638c-.018.036.018.072.054.09-.018.201-.162.255-.27.346a.488.488 0 0 1-.397-.181c-.073-.164 0-.364.18-.419.162-.018.38 0 .433.164M53.637 25.183c.18-.018.215-.236.414-.273.18-.036.342.073.433.2.073.218-.09.327-.234.418-.127.09-.398-.109-.38.127.127.09.236.218.253.364-.035.072-.162.054-.216.017-.523-.218-1.082-.58-1.3-1.126-.071-.163-.414-.29-.216-.436.524-.036.957.382 1.246.71M55.368 24.62c.09.09.054.254-.018.345-.09.182-.36.109-.523.09-.09-.09-.18-.18-.144-.326a.579.579 0 0 1 .27-.237c.163-.036.289.037.415.128M48.82 25.601c.162.2.325.508.397.726-.037.055-.126.037-.162.037-.614-.345-1.407-.727-1.642-1.454-.054-.072-.2-.163-.18-.29.469-.091.92.254 1.245.508.126.182.27.273.343.473M7.583 24.91c.072.164-.073.291-.163.364-.198.036-.307-.036-.415-.146-.126-.199.108-.363.254-.436.143-.018.234.127.324.218M51.075 25.328c.018.11-.126.182-.18.255-.144.018-.289.072-.415-.055-.037-.09-.126-.236-.018-.327.198-.254.487-.054.613.127M55.567 25.583c.054.218-.109.363-.253.453-.18.055-.324-.071-.433-.163-.09-.108-.018-.218 0-.345.126-.109.289-.2.47-.127.071.055.144.09.216.182M43.083 28.09c0 .217-.397.164-.56.327-.558.29-1.226.29-1.893.272v-.108c.65-.545 1.588-.746 2.453-.491M16.765 28.871c-.019.164-.11.255-.271.31a.35.35 0 0 1-.307-.182c-.072-.218.109-.31.235-.4a.421.421 0 0 1 .343.272M42.777 29.071c-.036.163-.09.345-.27.418-.163.036-.272-.055-.398-.127-.09-.073-.035-.2-.053-.291a.388.388 0 0 1 .72 0M46.367 29.144c-.451.29-.956.636-1.551.636l-.974-.019-.092-.072c.596-.727 1.678-.727 2.617-.654v.109M11.822 29.58c0 .163-.072.29-.234.345-.181.036-.308-.037-.38-.164-.072-.163 0-.327.145-.418.198-.127.397.091.469.237M12.723 29.761c.055.091-.035.146-.071.237-.109.054-.253.09-.343 0-.127-.073-.163-.2-.108-.309.054-.11.162-.091.216-.164.126.055.253.109.306.236M5.815 31.596c-.181.219-.469-.054-.668-.163-.631-.364-.613-1.072-1.244-1.49.072-.218.234.018.36-.018.108.073.253.146.38.2.613.345.757.926 1.172 1.471" fill="#231f20"/><path d="M29.716 31.25c-.072.219-.216.4-.198.638l-.072.035c.054-.272-.216-.435-.144-.726-.145-.218-.145-.49-.27-.727-.163-.291.143-.418.27-.618.252.11.342.345.523.564.108.308-.127.545-.109.835zM58.4 24.548c-.29-.527-.776-.745-1.353-.745-.47.036-.812.345-1.01.745-.108.4.035.763.343 1 .126.054.288.036.36-.091.09-.237-.162-.237-.199-.419-.072-.254.02-.472.2-.635.18-.182.486-.091.703-.091.215.145.433.272.54.527.11.309.11.654 0 .963-.197.454-.649.817-1.118.909-1.497.217-17.93.144-17.93.144-1.93.182-4.13-.363-5.791.655-.758.363-1.136 1.199-1.334 1.943-.488.436-1.01.946-1.408 1.436l-.054-.054c.09-.436.288-.818.379-1.254.27-.364.27-.854.47-1.254.685-1.108 1.333-2.235 2.398-3.016.451-.6 1.245-.49 1.93-.49.74.345 1.605.454 2.508.363a.168.168 0 0 0 .054-.127c-.253-.237-.668-.327-.957-.564-.72-.345-1.407.11-2.164.055-.036-.036-.072-.055-.054-.109.685-.509 1.46-.872 2.237-1.2.63-.344 1.299-.526 1.966-.78.27 0 .523-.236.775-.073l.957-.254c.035.018.072.072.144.054.812-.273 1.84-.018 2.76-.036l.127.109.865.217c.325.037.47.419.812.437.18-.255-.199-.364-.289-.527.398-.091.848.018 1.209.182l-.18.2c-.109.2.054.345.216.417.126.036.217-.054.307-.09.234-.164-.02-.328.054-.473 1.335.236 2.616.563 3.842 1.09.342.11.668.364 1.047.346-.38-.346-.903-.527-1.372-.727-.307-.182-.74-.2-.973-.454.053-.092.18-.055.233-.128.614-.072 1.137-.526 1.57-1.017.037-.109.235-.073.216-.218-.162-.182-.433.055-.649.036-.757.146-1.082 1.035-1.84 1.2-.92-.218-1.858-.436-2.778-.672-.451-.073-.938-.11-1.352-.292l-1.011-.09h-1.84c-.018-.037-.072-.055-.054-.11.65-.163 1.209-.545 1.858-.708l4.835-2.217c.505-.454.955-.963 1.37-1.49a.342.342 0 0 0-.198-.345c-.127-.054-.27-.036-.36.073-.217.164 0 .364 0 .564-.217.29-.56.544-.83.708-.073-.018-4.98 2.235-4.98 2.235-.72.309-1.443.654-2.2.817l-1.047.163c-.072.219-.252.346-.451.418-.288.055-.522.237-.829.237-2.345.908-4.78 1.87-6.639 3.725.109-.218.163-.491.181-.764-.037-.272-.018-.58-.198-.8-.043-.1-.175-.392-.133-.497l-.264.17c-.163.4-.307 1.127-.144 1.545.054.327.324.709.072 1-.866 1.053-1.354 2.325-1.93 3.524-.217-.036-.326-.236-.416-.436.614-.781 1.101-1.653 1.282-2.653.126-.09.035-.327.161-.435-.035-.291.163-.582.019-.818.115-.397-.528-.763-.117-1.017l-.34.163c-.776 1.018.403 2.544-.482 3.524v.073c-.252.328-.378.655-.721.872-.433-.181-.595-.672-.848-1.035-.397-.382-.397-1.163-.162-1.69.162-.526-.108-.981-.163-1.454l-.18-.108c-.433.563-.595 1.453-.253 2.125.18.328.199.781.47 1.054.161.527.486.872.775 1.344.073.182-.108.219-.198.31-.198-.128-.163-.419-.343-.546-.596-1.271-1.371-2.289-2.309-3.324-.036-.164-.199-.31-.109-.49.343-.328.415-.964.235-1.382-.036-.091-.144-.2-.126-.29l-.27-.219c.036.636-.38 1.199-.199 1.872v.036a34.32 34.32 0 0 0-6.005-3.629l-.166.461c.528.133 1.932.988 1.932.988.631.236 1.208.618 1.804.962 2.453 1.364 4.076 3.616 5.177 6.124.018.2.199.418.072.618-.379-.582-.92-.909-1.37-1.381-.127-.854-.632-1.672-1.372-2.017-.27-.4-.848-.436-1.299-.563l-6.566-.037c-5.34-.073-10.21.164-15.513.073-.74-.073-1.642-.327-1.858-1.108-.144-.273-.144-.745 0-1 .197-.345.559-.454.92-.49.288.036.487.309.613.509 0 .236-.199.454-.29.654.019.072.091.218.218.163.234-.09.414-.345.47-.581.016-.128.07-.309-.056-.4-.108-.382-.505-.654-.847-.745-.452-.036-.92.09-1.227.418-.433.364-.415 1.018-.289 1.527.289.799 1.137 1.344 1.949 1.453l17.552.073c1.713.09 3.644-.2 5.375.145.632.2 1.3.671 1.461 1.38-.018.037-.072.019-.126.019-1.425-.927-3.301-1.272-5.123-1.054-.721-.036-1.37.236-2.02.417-.343.074-.668-.09-.884-.29-.65-.582-1.786-.545-2.616-.327 0 .054-.018.109.018.127.884-.073 1.407.69 2.201.781.18.037.325-.163.487-.017-.83.399-1.624.872-2.508 1.125-.27-.054-.414-.308-.631-.454-.343-.38-.974-.217-1.443-.254-.162.037-.306-.072-.415 0 .145.291.469.455.776.6.45.2.974-.018 1.389.254-.109.128-.253.164-.379.254-.848.328-1.551 1.091-2.49 1.036-.991.108-2.001-.182-2.67-.872-.288-.708-1.027-1.09-1.821-1.054-.054.036-.126.036-.109.127.398.237.704.709 1.101.982.253.308.74 0 .974.345.343.236.776.436 1.173.509.289.127.613.181.938.254l-.127.072c-1.64.545-3.535.6-5.375.527-.541-.018-1.065-.181-1.606-.163.09.109.271.2.433.255-.144.09-.306.126-.487.145-.216.054-.469.072-.686.181-.288-.018-.54.09-.775.182-.307.327-.668.672-1.028.836 0 .072-.018.182.072.182.343-.146.776-.037 1.118-.182.595-.055.938-.709 1.408-.982.504-.399 1.226-.308 1.84-.217.36.09-.037.236.071.472.145.127.271.273.47.218.036-.037.072-.073.126-.09.108-.146.09-.31.018-.455.253-.164.595.018.866-.09.685-.019 1.37-.165 2.038-.183.108-.017.235-.127.343-.017-.054.145-.235.163-.162.362.036.164.216.237.36.273.18-.072.343-.2.27-.436-.035-.127-.179-.145-.27-.2.379-.182.812-.236 1.191-.417.27-.055.523-.146.758-.255.234-.018.433-.236.649-.145-.09.308-.216.599-.38.872-.287.963-.504 2.234 0 3.16.055.02.073-.017.11-.035-.38-.963-.163-2.071.162-2.98.252-1.544 1.84-1.998 2.976-2.58l.054.073c-.306.8-.757 1.562-.685 2.525.036.164-.072.327 0 .436.307-.163.505-.527.667-.836.127-.817-.342-1.835.487-2.434 1.48-.581 2.869-1.344 4.582-1.362.054.054.181-.037.198.071-.36.4-.883.782-1.046 1.273-.577.799-.559 2.162-.306 3.143.162.563-.325.872-.56 1.308-.111.154-.143.42-.247.597l.356.039c.307-.327.595-.727.613-1.2a.498.498 0 0 0 .343.365c.126-.2-.108-.346-.127-.546.29-.163.416.2.65.273.38.09.703.254 1.1.254l.127-.127c-.397-.618-1.19-.727-1.877-.763-.36-.6-.36-1.344-.324-2.071.072-.382.144-.781.36-1.127.09-.254.343-.49.506-.69.325-.31.74-.527 1.136-.618h.054c0 .036.018.055.018.055-.487.38-.54.908-.83 1.38-.306.454-.45 1.072-.162 1.58.109.237.054.6.307.764.234-.327.253-.745.379-1.108-.055-.6-.415-1.163-.072-1.745.18-.454.559-.635.974-.799.992-.09 1.858.418 2.723.8.181.127.487.236.524.49-.019.491-.288.982-.668 1.217-.487.29-1.19.327-1.642-.018-.27-.272-.378-.745-.288-1.108.199-.218.47-.4.794-.291.18.091.342.273.577.163.09-.054.126-.2.072-.29-.198-.109-.27-.381-.541-.418-.343-.054-.758-.036-.992.2a1.28 1.28 0 0 0-.415 1.272c.126.581.56 1 1.118 1.163.83.2 1.697-.055 2.22-.763.215-.237.27-.49.396-.782.866.527 1.515 1.453 1.858 2.398 0 .31.091.636.018.909l.63.054c-.053-.145 0-.308.056-.435.235-1.2.974-2.199 1.857-2.98.307-.182.235.236.307.363.27.69.903 1.181 1.57 1.381.757.127 1.479-.054 1.948-.636.235-.436.523-1.072.126-1.526a1.246 1.246 0 0 0-.992-.473c-.469 0-.758.328-.992.673 0 .145-.018.308.108.381.072 0 .217.018.271-.09.037-.273.27-.4.487-.545.199-.11.415 0 .577.108.198.164.235.436.253.71-.036.345-.27.708-.596.853-.523.272-1.28.145-1.732-.164-.216-.236-.343-.508-.504-.799-.037-.29-.145-.545 0-.836.793-.472 1.623-.817 2.58-.908.378.072.703.327.955.6.83.854-.18 2.071.397 3.015.217-.036.217-.326.306-.508.271-.655-.072-1.363-.234-1.999-.217-.4-.342-.745-.686-1.072.09-.036.127-.036.217-.036.38.254.794.545 1.1.945.524.854.795 1.87.704 2.98-.144.544-.721.799-1.173.998-.18.146-.396.364-.486.582.216.127.523 0 .739-.091.342-.127.542-.564.776-.763.036.018.018.073.036.11.018.199-.09.471.09.526.09-.254.109-.618.163-.927.234.255.27.582.342.909.162.327.433.763.866.817.108-.163-.018-.327-.054-.472-.055-.455-.433-.69-.685-1.018-.632-.872-.343-2.234-.83-3.215-.181-.527-.56-.909-.974-1.345l.072-.072c.884-.019 1.623.272 2.435.436.992.49 2.435.381 2.904 1.672.199.725.523 1.398 1.029 1.961l.054-.036a.742.742 0 0 0 0-.672c-.109-.909-.903-1.126-1.318-1.89l.055-.073c.432.128.883.236 1.317.419 1.443.399 2.452 1.817 2.633 3.288 0 1.162-.216 2.125-.667 3.107-.055.145-.307.309-.144.435.198-.145.234-.381.343-.544.595-1 .901-2.38.595-3.652-.019-.236-.289-.418-.163-.654.09.109.199.127.307.163.109-.073.271-.073.343-.2.018-.109.09-.236 0-.327-.11-.163-.343-.163-.523-.126-.09.108-.199.253-.218.399-.179-.31-.36-.708-.649-.963l.037-.054c.812.272 1.55.672 2.381.89.18.109.378.2.632.2.703.272 1.479.38 2.218.563.541-.055.992.2 1.534.073v-.037l-.018.018c-.2-.254-.632-.018-.866-.2-1.246-.127-2.436-.454-3.554-.89.018-.054.09-.036.145-.036.18-.091.306-.255.287-.454a.487.487 0 0 0-.414-.2c-.109.054-.253.181-.271.308.018.146.144.31.27.346-.035.037-.108.018-.161.018-.56-.255-1.102-.49-1.642-.745-.199-.036-.361-.2-.56-.236-.414-.2-.83-.4-1.245-.563-1.153-.6-2.434-.927-3.66-1.363-.272-.073-.524-.146-.776-.218-.452-.127-.903-.236-1.353-.364-1.534-.38-3.59-.417-4.925.419-.216-.073-.343.272-.452.054.38-1 1.48-1.327 2.472-1.362 7.233-.073 14.017-.128 21.143-.237.829 0 1.64-.29 2.073-1.036.307-.435.361-1.18.127-1.671" fill="#231f20"/><path d="M49.289 30.107c0 .054.108.072.071.163-.63.564-1.514.727-2.416.763-.072.018-.145.073-.234.055-.054-.037-.073-.09-.036-.127.65-.71 1.64-1.073 2.615-.854M46.385 30.398c.071.254-.09.399-.29.49-.198-.018-.305-.145-.396-.291-.054-.145.072-.218.127-.309.143-.145.486-.145.56.11M12.093 30.433c.035.128.017.291-.09.383-.073.09-.235.108-.326.09-.126-.018-.198-.163-.234-.273 0-.163.09-.254.234-.345.145 0 .307-.018.416.145M8.863 31.614v.128a1.404 1.404 0 0 1-1.172-.273c-.253-.363-.541-.726-.956-.908 0-.055-.109-.128 0-.163.902 0 1.443.726 2.128 1.216M52.03 30.416c-.415.617-.774 1.38-1.514 1.653-.127 0-.234.181-.343.054.29-.69.902-1.434 1.606-1.725.071 0 .179-.02.252.018M13.139 30.633c.018.2-.126.237-.253.346-.144.018-.216-.091-.307-.2-.072-.182.09-.254.181-.346.144-.035.307.073.379.2M54.304 30.743c-.162.236-.09.581-.253.836-.36.417-.667.89-1.244.98-.09-.181.126-.363.216-.527.253-.544.614-1.162 1.19-1.399l.09.11M3.271 30.906c.054.127.109.254 0 .4a.425.425 0 0 1-.414.072.338.338 0 0 1-.145-.435c.109-.164.433-.254.56-.037M2.243 31.124c.018.091.072.164.054.254-.054.091-.144.2-.252.218-.199.036-.324-.072-.415-.235-.018-.164.036-.31.18-.382.163-.073.343.018.433.145M4.371 31.233c.037.145.073.4-.143.436-.253.11-.398-.073-.542-.218 0-.163.09-.29.217-.363.18-.019.342 0 .468.145M7.33 31.469c-.018.127.018.31-.127.346-.09.09-.252.054-.342.036-.036-.11-.235-.2-.126-.327a.68.68 0 0 1 .252-.2c.108.054.272 0 .343.145M56.036 31.596c-.055.128-.126.292-.271.292-.163-.019-.324-.037-.415-.2-.072-.2.09-.31.234-.364.18 0 .416.073.452.272M52.734 31.687c.02.146-.144.255-.216.309-.253.11-.469-.073-.56-.272a.469.469 0 0 1 .307-.327c.235-.019.362.108.469.29M54.972 31.65a.379.379 0 0 1-.163.31c-.144.054-.325.036-.434-.072-.161-.146-.035-.274.074-.383.161-.09.468-.072.523.146M2.802 31.96c.037.2-.036.38-.216.454-.162 0-.343-.09-.397-.254-.018-.164.036-.327.18-.382.18-.054.325.055.433.182M51.833 32.16c.054.2-.054.381-.252.472-.146.036-.236-.036-.344-.127-.072-.09-.162-.29-.017-.382.144-.272.504-.163.613.037M12.507 32.36c.072.2-.144.236-.198.345-.072.036-.216.054-.27-.019-.091-.109-.199-.218-.145-.38.09-.074.126-.146.234-.183.2-.054.271.127.379.237M55.71 32.487c.037.127-.071.181-.09.272a.486.486 0 0 1-.414.073c-.162-.091-.162-.236-.162-.4.108-.072.126-.163.252-.2.162 0 .36.073.415.255M54.592 32.541c.073.218-.125.327-.27.382-.072.018-.18-.037-.199.073.47.236.758.617 1.119.962v.146c-.65-.018-1.318-.182-1.787-.69-.125-.091-.342-.091-.486-.219.234-.236.668-.145.992-.163.234-.254-.27-.436.036-.654.109-.018.18-.128.325-.091.127.054.199.145.27.254M47.214 32.56c.036.09-.071.2-.089.29a.363.363 0 0 1-.397.073c-.09-.127-.236-.237-.181-.418.144-.273.613-.218.667.055M6.879 33.195c-.054.164-.126.272-.306.291-.145-.019-.27-.072-.325-.218-.019-.127.072-.2.09-.291.199-.163.559-.054.541.218M8.34 32.96c0 .253-.27.399-.36.653-.271.6-.758 1.145-1.443 1.2-.073-.164.234-.364.306-.527.289-.618.866-.945 1.39-1.327h.108M46.781 33.213c.018.2-.162.346-.306.418-.163.055-.289-.072-.38-.145-.143-.145-.053-.29.02-.436.216-.218.522-.037.666.163M47.9 33.34a.449.449 0 0 1-.325.4c-.036-.054-.126-.018-.18-.036-.126-.073-.235-.182-.235-.327.09-.09.127-.236.253-.254.162-.018.433 0 .487.218M11.136 33.323c.018.2-.126.308-.27.381-.163.018-.27-.09-.343-.218-.036-.163.127-.273.216-.363.217-.073.271.09.397.2M12.381 33.395a.43.43 0 0 1-.343.309c-.126-.036-.27-.073-.324-.218-.018-.182.126-.273.252-.363.18 0 .379.072.415.272M51.779 34.667c.09.072.252.163.215.291-.287.127-.522-.2-.793-.255-.433-.436-.758-.908-.938-1.453.163-.164.343.036.488.09.414.346.81.8 1.028 1.327M52.446 33.395a.455.455 0 0 1-.036.4c-.108.181-.343.145-.505.109-.09-.109-.253-.254-.144-.418.054-.145.216-.182.343-.236.125-.018.215.09.342.145M14.04 33.867c.019.146.055.364-.126.455-.162.036-.378-.019-.432-.218-.09-.218.108-.255.216-.363.144-.037.234.035.342.126M47.846 35.048c.253.364.433.818.468 1.29-.054.127.091.255-.017.346h-.072c-.812-.582-.993-1.4-1.3-2.217-.072-.036-.09-.109-.072-.181.18-.164.307.163.488.217l.505.545M16.385 34.431c-.017.018 0 .036.018.036-.72.51-1.73.818-2.561.327-.018-.055.019-.145.09-.163.524-.164 1.029-.418 1.588-.345l.865.145M12.272 34.522c-.612.381-1.172 1.126-1.93 1.308-.144.054-.234.254-.414.145.325-.981 1.389-1.508 2.344-1.599v.146M46.781 35.339c.054.146 0 .346-.144.382-.09.09-.27.09-.342 0-.162-.073-.162-.236-.162-.363.053-.128.18-.146.27-.2.161.036.288.036.378.18M45.285 35.43c-.109.255-.415.4-.65.472-.614.218-1.172-.072-1.714-.217.018-.146.199-.092.288-.182.596-.127 1.21-.255 1.84-.091.054-.036.181-.054.236.018M12.272 35.957c-.053.073-.071.236-.216.29-.126.055-.252 0-.36-.072-.036-.109-.163-.2-.073-.327.037-.127.181-.163.29-.2.18.018.324.127.36.309M13.337 36.12c-.054.11-.108.273-.252.345-.145.037-.253-.036-.362-.126-.053-.11-.107-.237-.053-.364.036-.09.162-.109.252-.164.18-.017.343.164.415.31M46.438 36.302c.018.145-.053.236-.126.346-.09.127-.27.145-.396.073-.126-.02-.163-.164-.217-.256-.108-.145.072-.236.127-.363.198-.164.523-.072.612.2M47.232 36.266c.018.09.073.181.037.254-.11.091-.181.327-.397.237-.108.036-.162-.11-.216-.146-.073-.182-.019-.454.216-.49.161-.055.27.09.36.145M12.688 36.793a.493.493 0 0 1-.181.49c-.198.037-.451.037-.523-.2-.018-.181 0-.418.217-.526.18-.019.396.018.487.236M13.716 36.72c-.036.508-.144 1.127-.65 1.417-.288.055-.577.327-.865.145v-.09c.378-.545 1.064-.964 1.515-1.471M43.606 37.138c.073.109-.054.2-.108.29-.107.128-.306.074-.432.02-.127-.056-.145-.238-.091-.365.037-.109.145-.163.234-.2.164-.018.308.128.397.255M15.52 37.974c.252.418.108.981.252 1.435-.306.037-.433-.309-.63-.49-.398-.545-.344-1.272-.524-1.908a.096.096 0 0 1 .126-.037c.27.182.469.528.686.763-.036.128.108.128.09.237M44.508 37.283c0 .146-.162.182-.252.273a.66.66 0 0 1-.342-.164c-.055-.182.09-.236.18-.326.18-.073.36.017.414.217M46.656 38.9c0 .055-.019.164-.11.127h-.071c-.523-.472-1.047-.999-.975-1.725l.109-.019c.486.418 1.028.872 1.047 1.618M45.302 38.319c.018.145-.072.255-.162.345-.198.055-.505.036-.541-.236-.018-.182.18-.273.27-.363.217-.055.361.09.433.254M44.111 38.7c-.252.673-.938 1.018-1.407 1.527-.09-.055-.053-.2-.035-.273.18-.69.722-1.363 1.389-1.635.288.036 0 .236.053.381M45.465 39.246c0 .163-.163.236-.253.327-.144-.018-.288-.055-.396-.2-.02-.182.126-.237.233-.327a.376.376 0 0 1 .416.2M32.067 6.403h-.2c-.523 0-.078.635.202.635.35 0 .371-.635-.002-.635zm-1.616.635c.523 0 .028-.635-.252-.635h-.523c-.523 0-.03.635.253.635h.522zm-2.192 0c.523 0 .029-.635-.252-.635h-.522c-.523 0-.029.635.251.635h.523zm3.783-.778c.246 0 .446.202.446.45s-.2.45-.446.45h-5.35a.448.448 0 0 1-.446-.45c0-.248.2-.45.446-.45h5.35M32.08 14.553c0 .237.317.08.552.08.235 0 .552.157.552-.08 0-.335-.317-.219-.552-.219-.235 0-.552-.116-.552.22zm1 .559c.231 0 .251-.317.251-.59 0-.62-.49 0-.742-.584-.183.493-.688.037-.688.566 0 .364-.002.608.36.608h.82zm-1.507-2.714l1.023.392 1.005-.392-.398 1.504.796-.164-.272.911.272.875-.707-.191.309 1.622-1.005-.39-1.023.39.416-1.622-.815.228.219-.912-.22-.875.78.128-.38-1.504M29.18 14.611v-.19l-.17-.034.134-.139-.084-.153.175.018.107-.186.104.184.178-.016-.084.153.135.14-.171.032v.191l-.162-.121-.162.121M28.387 15.632v-.19l-.171-.033.134-.14-.083-.153.176.019.106-.186.104.183.177-.016-.083.154.135.14-.171.032v.19l-.162-.12-.162.12M29.733 15.503v-.191l-.171-.033.135-.14-.084-.154.176.02.106-.186.104.183.178-.017-.082.154.133.14-.17.033v.19l-.163-.12-.162.12M29.892 16.265v-.107l-.097-.02.076-.077-.047-.088.1.011.06-.105.057.104.102-.01-.048.088.076.078-.097.019v.107l-.09-.068-.092.068M28.642 17.138v-.327l-.293-.056.23-.239-.143-.263.3.032.183-.32.178.316.305-.028-.142.263.229.24-.293.055v.327l-.277-.207-.277.207M29.279 0l.635 1.562 1.609-.474-.816 1.475 1.37.972-1.654.276.1 1.685-1.244-1.13-1.246 1.13.1-1.685-1.653-.276 1.37-.972-.816-1.475 1.609.474L29.279 0M23.458 35.038c-.19.072-.265.125-.218.323l.227.956c.041.178.054.458-.064.629-.14.205-.439.336-.654.388-.157.038-.497.101-.77-.014-.181-.078-.299-.16-.376-.484l-.237-1.004c-.06-.252-.154-.236-.358-.205l-.018-.075 1.209-.29.018.074c-.234.066-.344.096-.282.36l.237 1.003c.04.17.139.585.654.461.63-.151.528-.612.483-.804l-.217-.915c-.043-.184-.11-.276-.421-.214l-.018-.075.788-.189.017.075M25.25 35.238c-.11-.196-.402-.494-.825-.4-.188.042-.365.176-.322.373.036.162.119.213.449.272l.576.103c.133.023.445.137.517.466.058.265-.092.68-.753.828-.34.077-.525.01-.636.034-.076.017-.081.076-.085.128l-.104.023-.164-.745.104-.023c.139.288.423.582.878.48.432-.096.383-.398.375-.437-.044-.202-.23-.236-.483-.278l-.262-.043c-.669-.11-.726-.369-.756-.508-.041-.183-.02-.618.662-.77.288-.064.48-.003.583-.025.083-.019.09-.068.096-.13l.108-.023.144.653-.101.022M27.631 36.429l-1.307.125-.008-.076c.266-.045.353-.06.329-.317l-.154-1.621c-.255.037-.63.089-.658.588l-.106.01-.048-.619 2.199-.211.065.617-.105.01c-.12-.485-.5-.464-.753-.451l.153 1.619c.026.261.114.26.386.249l.007.077M29.097 35.332c.482.005.674-.059.682-.46.006-.312-.142-.448-.436-.453-.202-.004-.21.03-.23.125l-.016.788zm1.594 1.096l-.754-.015-.742-.98-.1-.003-.012.606c-.005.246.076.257.319.29l-.002.077-1.243-.024v-.077c.252-.02.325-.029.33-.279l.027-1.364c.005-.266-.109-.274-.317-.291v-.077l1.185.023c.258.005 1.036.045 1.026.564-.007.38-.388.468-.588.517l.722.895c.05.056.106.06.15.062l-.001.076" fill="#231f20"/><path d="M32.082 35.876l-.277-.79-.436.701.713.089zm1.023.863l-1.183-.15.01-.075c.228.012.294.018.306-.083.01-.083-.078-.324-.117-.429L31.3 35.9c-.129.208-.204.326-.21.375-.015.117.16.147.284.17l-.01.076-.74-.092.009-.077c.199 0 .264-.098.401-.314l1.02-1.577.101.013.614 1.713c.124.349.17.46.346.476l-.01.077M35.246 37.175l-2.092-.384.014-.076c.207.015.317.026.35-.16l.267-1.47c.036-.2-.11-.233-.271-.272l.013-.076 1.263.232-.014.075c-.255-.037-.368-.054-.416.213l-.26 1.434c-.026.146.049.185.291.23.547.1.796-.115 1.024-.428l.105.02-.274.662M36.635 37.486l-1.26-.265.016-.076c.197.026.34.043.379-.144l.302-1.463c.042-.2-.126-.24-.29-.285l.015-.075 1.26.264-.015.076c-.17-.03-.344-.062-.387.143l-.303 1.462c-.04.194.103.233.298.287l-.015.076M38.151 36.973l-.294-.786-.42.711.714.075zm1.043.84l-1.187-.122.007-.077c.23.008.296.011.306-.09.008-.082-.085-.322-.126-.426l-.825-.085c-.125.21-.197.33-.201.379-.012.117.163.144.287.163l-.007.077-.745-.077.01-.077c.199-.004.261-.103.394-.322l.985-1.598.103.01.65 1.7c.131.346.18.457.356.469l-.007.076M29.144 13.04c-.217 0-.509.148-.509-.108 0-.364.247-.283.463-.283.216 0 .552-.081.552.283 0 .256-.29.107-.506.107zm.641-.143c0-.742-.415-.047-.645-.677-.168.533-.669.084-.669.658 0 .219.057.345.163.415v.22c0 .056.046.102.102.102h.788a.102.102 0 0 0 .102-.103v-.237a.484.484 0 0 0 .16-.378M36.24 22c.189 0 .34-.134.34-.3 0-.165-.151-.3-.34-.3-.187 0-.339.135-.339.3 0 .166.152.3.34.3M34.641 11.013s-.16.269-.16.319c0 .098.074.177.163.177.089 0 .162-.08.162-.177 0-.006-.165-.319-.165-.319M23.746 11.013s-.16.269-.16.319c0 .098.073.177.163.177.09 0 .161-.08.161-.177 0-.006-.164-.319-.164-.319M26.47 11.013s-.16.269-.16.319c0 .098.073.177.162.177.09 0 .162-.08.162-.177 0-.006-.164-.319-.164-.319M29.194 11.013s-.16.269-.16.319c0 .098.073.177.162.177.09 0 .162-.08.162-.177 0-.006-.164-.319-.164-.319M31.917 11.013s-.159.269-.159.319c0 .098.073.177.162.177.09 0 .162-.08.162-.177 0-.006-.165-.319-.165-.319M23.751 14.752s.16.269.16.32c0 .098-.073.177-.162.177-.09 0-.162-.08-.162-.178 0-.005.164-.319.164-.319M23.751 18.386s.16.27.16.32c0 .097-.073.177-.162.177-.09 0-.162-.08-.162-.178 0-.005.164-.319.164-.319M24.187 21.263s.16.269.16.32c0 .097-.073.177-.163.177-.089 0-.161-.08-.161-.178 0-.006.164-.319.164-.319M26.472 22.792s.16.269.16.32c0 .097-.073.177-.162.177-.09 0-.162-.08-.162-.178 0-.005.164-.32.164-.32M34.78 14.752s-.159.269-.159.32c0 .098.073.177.162.177.089 0 .161-.08.161-.178 0-.005-.164-.319-.164-.319M34.78 18.386s-.159.27-.159.32c0 .097.073.177.162.177.089 0 .161-.08.161-.178 0-.005-.164-.319-.164-.319M34.344 21.263s-.159.269-.159.32c0 .097.072.177.161.177.09 0 .162-.08.162-.178 0-.006-.164-.319-.164-.319M32.059 22.792s-.16.269-.16.32c0 .097.073.177.162.177.09 0 .163-.08.163-.178 0-.005-.165-.32-.165-.32M29.278 24.412s-.159.269-.159.32c0 .097.072.177.162.177.089 0 .161-.08.161-.177 0-.006-.164-.32-.164-.32M33.71 18.992c.034.052.12.069.229.031l.103-.293c.008-.02-.12-.137-.194-.118-.292.07-.6.104-.772.38 0 .19.137.363.275.448.102-.034.12.07.188.121.017.087-.034.156-.12.156-.206-.207-.564.07-.72-.19.07-.259.207-.553-.017-.794.018-.052.103-.104.052-.155-.086-.242-.343-.052-.497-.052-.256-.035-.463.103-.617.31a.478.478 0 0 0 .136.259c.07-.016.104 0 .12.07l-.171.103c.051.052.051.12.07.19-.122.052-.241-.121-.293-.207 0-.138.018-.38-.171-.415-.034 0-.149.05-.149.05a.496.496 0 0 0-.07.286c0 .123.068.31.068.31s.528.39.648.632c-.155.31-.155.742-.514.914-.102.07-.102.173-.102.277l.085.069c.223-.121.651-.155.617-.535.087-.155.172-.329.325-.449a.356.356 0 0 1 .395.19.676.676 0 0 1-.463.517c-.034.035-.017.087-.017.139.068.12.257.07.36.052.291-.19.412-.536.669-.64.033.174-.343.225-.103.397.153-.034.36.018.462-.19-.12-.292.41-.43.086-.69 0-.258.273-.362.256-.638-.103-.276-.428-.276-.513-.535.102-.07.257-.052.36 0M21.193 22.133c.188 0 .34-.134.34-.3 0-.165-.152-.3-.34-.3-.188 0-.34.135-.34.3 0 .166.152.3.34.3M3.526 32.454a.328.328 0 0 0 .335-.322.328.328 0 0 0-.335-.32.328.328 0 0 0-.334.32c0 .178.149.322.334.322M14.723 34.929c.014 0 .02-.002.02-.014 0-.009-.005-.013-.013-.013-.006 0-.006.001-.007.004v.023zm.047.031h-.022l-.022-.028h-.003v.017c0 .008.003.008.01.01v.001h-.037v-.002c.008-.001.01-.001.01-.009v-.04c0-.007-.004-.007-.01-.008V34.9h.034c.008 0 .031 0 .031.016 0 .01-.01.014-.017.015l.022.026.004.002v.002M14.817 34.917c-.002-.006-.008-.017-.02-.017-.007 0-.012.003-.012.009 0 .005.002.007.01.01l.016.007c.004.002.012.007.012.017 0 .008-.006.019-.027.019-.01 0-.014-.003-.017-.003-.003 0-.003.002-.004.003h-.003v-.023h.003c.003.01.008.02.022.02.013 0 .014-.01.014-.01 0-.007-.005-.009-.012-.011l-.008-.003c-.018-.008-.018-.015-.018-.02 0-.005.003-.018.023-.018.01 0 .015.003.018.003.002 0 .003 0 .003-.003h.003v.02h-.003M14.93 34.901c-.003 0-.006.003-.007.006l-.021.054h-.003l-.018-.042-.02.042h-.003l-.023-.054c-.002-.004-.003-.005-.008-.006V34.9h.032v.002c-.004 0-.007 0-.007.004v.003l.014.033.012-.027-.003-.01c-.002-.001-.003-.003-.009-.003V34.9h.035v.002c-.005 0-.009 0-.009.004l.002.005.011.03.013-.031v-.004c0-.004-.004-.004-.007-.004V34.9h.02v.002M14.958 34.933l.005-.001.001-.009c0-.017-.002-.023-.008-.023-.007 0-.007.006-.007.014 0 .012.002.02.01.02zm-.025.026c.012-.002.024-.007.03-.024a.015.015 0 0 1-.005.002h-.006c-.007 0-.02-.003-.02-.019 0-.004.005-.02.024-.02.01 0 .025.005.025.027 0 .016-.015.034-.048.036v-.002M14.995 34.918c.01 0 .016 0 .023.004.005.003.012.008.012.017 0 .012-.012.022-.031.022-.009 0-.015-.003-.015-.008 0-.003.002-.006.006-.006.007 0 .014.008.02.008.004 0 .011-.002.011-.01 0-.005-.006-.009-.011-.011-.008-.003-.016-.003-.023-.004l.01-.03h.034l-.004.01h-.03l-.002.008" fill="#231f20"/><path d="M35.192 20.317c-.065.727-.312 1.332-.815 1.675l-4.74 3.013h-.026a.583.583 0 0 1-.735-.005l-4.732-3.008c-.502-.343-.75-.948-.816-1.675v-9.398h11.864v9.398zm.355-9.736v-.007H22.975v.007h-.002l.01 9.607c0 .98.415 1.837.988 2.1l4.835 3.07a.586.586 0 0 0 .834.046l4.91-3.115c.574-.264.989-1.12.989-2.101l.01-9.607h-.002" fill="#231f20"/><path d="M30.953 24.584l.153-.073a.8.8 0 0 0-.153.073M20.272 37.121l-.455-.702-.258.785.713-.083zm1.198.595l-1.185.138-.008-.078c.225-.041.29-.052.278-.153-.01-.083-.152-.296-.215-.388l-.822.095c-.077.233-.122.365-.116.414.014.117.19.105.316.097l.008.077-.742.086-.009-.076c.195-.047.234-.158.318-.4l.618-1.775.102-.012 1 1.518c.203.31.273.407.448.38l.009.077" fill="#231f20"/><path d="M41.82 33.904c-.161.327-.415.563-.775.618.018-.436.415-.746.27-1.236-.234-.345-.703-.454-1.136-.363-.162.109-.09.29-.144.454l-.072.6c-.361 0-.38-.327-.488-.582.019-.382.18-.763.56-.945.289-.145.758-.127 1.046.037.235.054.506.163.596.381.27.255.197.709.143 1.036zm-1.46.182c.198-.2-.054-1.345.505-.6 0 .145.017.363-.126.472-.091.073-.235.219-.38.128zm.198.454c.018.29-.252.218-.397.327h-.432c-.091-.145-.054-.364-.054-.509.288.054.612.054.883.182zm.505 2.217c-.144.181-.018.471-.198.635 0 .327-.271.49-.506.618-2.146.472-4.256-.254-6.331-.618-2.905-.635-6.295-.817-9.254-.145-1.39.255-2.742.581-4.077.963-.83.109-1.732.236-2.526-.018-.648-.31-.378-1.145-.577-1.727.036-.453-.126-.817-.144-1.253a1.073 1.073 0 0 1-.072-.473c.27.037.541.237.83.31 1.515.29 2.868-.2 4.275-.455 1.353-.29 2.742-.527 4.167-.636 1.624-.018 3.283-.109 4.835.164.504.018.938.145 1.424.181 1.011.128 1.95.4 2.977.473.163.054.36.054.541.091 1.624.254 3.445.709 4.997 0 0 .654-.27 1.253-.361 1.89zm-9.164 1.325c.09.255.253.492.162.8-.18.345-.54.345-.865.418a.565.565 0 0 1-.415-.127c.018-.073-.018-.127-.072-.182.054-.236-.415-.472-.09-.672.287-.273.973-.89 1.28-.237zm.397.073c.217.055.234.291.253.472-.019.4-.235.746-.613.891-.199.11-.505.146-.704.073.433-.018.902-.182 1.082-.618l-.018-.818zm.47 2.417c-.037.018-.037.054-.037.073-.523.018-.866-.29-1.262-.564l-.019-.09c.488.036.884.345 1.318.581zm-.667 1.671c-.019.055-.11.055-.145.018-.541-.69-.794-1.416-1.137-2.18l.073-.018c.432.709.775 1.49 1.209 2.18zm-.903-.435l-.09.036c-.09-.073-.055-.273-.036-.382.107.09.198.218.126.346zm-.505-1.09c.018.18.199.254.09.417-.036-.072-.145-.236-.09-.418zm-.108-1.145v-.055h.036v.055h-.036zm-1.046 2.616c-.343.018-.866.218-1.191-.073.018-.145-.145-.218-.126-.363.288-.109.54.236.811-.018.415.018.848-.055 1.263.036.199.055.505-.327.54.055-.143.6-.864.181-1.297.363zm-.794-2.162l.09-.146a7.71 7.71 0 0 1-.596 1.309c-.108-.436.343-.782.506-1.163zm.504-.346c.235-.254.451.146.542.346.271.399.974.763.704 1.308-.344.31-.885.018-1.263.254-.199-.018-.542.037-.65-.163.199-.581.38-1.235.667-1.745zm-.053-.69h-.072l.108-.108c.054.036-.019.072-.036.108zm.414.036c.072-.108.162-.272.289-.272 0 .018.017.036.036.055-.108.09-.198.181-.325.217zm.253.273c.036-.036.126-.036.162 0h-.162zm.487.563c-.018.036.018.091-.037.128l-.414-.327c.198-.037.343.054.45.2zm-.037-1.108v.055h-.017v-.055h.017zm.759-1.127c-.217.073-.38.328-.595.382.108-.2.378-.4.595-.382zm-.903-.236c-.036-.164.163-.036.235-.109l.56.037c-.29-.037-.65.636-.795.072zm-1.316.509c.09-.254.108-.472.271-.673.18 0 .342 0 .486.074.036.363.487.853 0 1.162-.162.073-.397.236-.577.073-.234-.2-.271-.382-.18-.636zm-.27 1.126c-.019-.072.035-.163.053-.254.09-.09.18.073.217.128a.268.268 0 0 1-.27.126zm-.019-.835h-.018v-.2h.018v.2zm-.216-.545c-.235-.055-.361-.327-.613-.327.216-.073.432-.055.685-.018.09.127-.054.235-.072.345zm-.2 1.471a3.05 3.05 0 0 1 .29-.763c-.018.236-.127.564-.29.763zm-.395 0a4.308 4.308 0 0 1-.866-.217c-.181-.182 0-.382 0-.582.252-.4.974-.6 1.316-.237-.054.4-.198.746-.45 1.036zm.161.491v.072h-.036v-.09h.073c-.018 0-.054 0-.073.018h.036zm-.45 1.054a13.93 13.93 0 0 1-.884 1.708c-.036.09-.181.108-.289.127 0-.255.253-.454.36-.672.38-.491.488-1.018.92-1.49.109.108-.107.181-.107.327zm-1.714-.182c.433-.182.884-.563 1.371-.4-.342.273-.902.382-1.371.4zm.649-1.254c-.09-.636.163-1.18.578-1.635.252-.055.541-.108.776.036-.47.128-1.065.237-1.173.836.018.236-.055.364.054.563.198.346.65.2.902.473 0 .09-.072.2-.163.218-.306-.182-.685-.254-.974-.49zm-8.46-5.832c.054-.145 0-.363.198-.4.127-.036.325-.036.343.11a3.62 3.62 0 0 1-.09.636c-.253.018-.379-.128-.45-.346zm.054.61c.27.2.65.109.974.164.054.2.054.454-.09.618-.306-.073-.704-.037-.866-.327.037-.128-.054-.31-.018-.455zm-.848-.519c.054-.327.126-.672.433-.909.433-.236 1.029-.18 1.426.055a.701.701 0 0 1 .289.345c.09.31-.055.636-.272.818h-.18c0-.29 0-.582.108-.818-.018-.218-.198-.236-.342-.327-.307-.09-.578.055-.812.182-.18.218-.343.49-.235.8.127.2.018.472.09.69l-.054.072c-.216-.235-.505-.49-.45-.908zm16.927 7.723c.43.195 1.298.384 1.924.455-.056.247-.497.015-.446.362-.56-.217-1.208-.327-1.623-.762.036-.019.073-.073.145-.055zm-11.263.29l-.252-.236c.126-.164.397-.073.595-.182.47-.146 1.01-.327 1.534-.218-.541.436-1.245.49-1.877.636zm19.482-8.286c-.215-.563-.667-.944-1.226-1.126-.577-.127-1.19-.037-1.569.4-.65.526-.199 1.399-.18 2.107 0 .145.017.254-.127.327-2.615-.236-5.05-.89-7.649-1.162-.597-.104-1.196-.076-1.763-.197l-.726-.076c-2.255.073-4.51.2-6.62.745-.45.145-.957.181-1.407.345-.325-.054-.595.182-.902.09l-.594.14a.494.494 0 0 1-.2-.012c-.289-.745.577-1.199.307-1.926-.235-.418-.704-.818-1.245-.745-.613-.073-1.154.273-1.444.745-.414.908.11 1.854.271 2.744-.036.29.29.617 0 .853-.577-.399-1.335-.617-2.038-.417-.216.109-.613-.036-.721.218.775.418 1.768.363 2.633.327.108-.036.18-.055.27.018.073.472-.09 1.108.2 1.526.324.437.865.545 1.388.6 1.66-.055 3.139-.545 4.654-.927.235-.018.415-.145.668-.145.811-.181 1.696-.327 2.561-.345-.379.49-.595 1.035-.757 1.635-.217.49.378.563.559.836-.56.163-.956.545-1.48.763-1.154-.037-2.128.4-3.21.527-.019.236.379.163.415.4-.055.163-.217.181-.343.272-.018.108 0 .127.108.145.108-.127.343-.037.451-.163.36 0 .667-.109 1.01-.127.307-.127.65-.146.92-.364.379-.11.614-.363.992-.472.541 0 1.028-.182 1.534-.218v.109a53.726 53.726 0 0 1-1.281 1.998c-.072.127.018.255.126.29.253.073.505 0 .704-.108a22.34 22.34 0 0 0 1.028-1.944c.127-.618.577-.945 1.028-1.363.072-.036.18-.145.253-.036-.362.418-.595.818-.866 1.272-.145.509-.181 1.162.27 1.58.217.182.542.127.831.146.703-.363 1.605.218 2.146-.472.324-.055.378.327.559.508.307.091.631.4.939.182-.02-.2-.236-.382-.343-.563-.217-.382-.487-.69-.686-1.036-.09-.254-.252-.418-.289-.673.325.11.613.328.975.382.306.127.685.11.974.291.235.309.594.49.902.69.45.219.956.255 1.424.436.18.018.452.164.578 0a.767.767 0 0 0-.27-.2c-.055-.235.324-.109.45-.29-.044-.09-.123-.125-.209-.138-.26-.138-.901-.186-1.072-.28-.216-.036-.415-.128-.63-.2-1.083 0-1.678-.98-2.544-1.344.198-.182.504-.327.631-.6.163-.254.217-.672.054-.963-.162-.563-.884-.491-1.298-.8l.054-.054c.703-.036 1.316.128 1.948.254 1.731.237 3.337.89 5.141.927.992 0 2.237.054 2.724-.908.09-.564.199-1.127.288-1.69.217-.909.812-1.744.721-2.744" fill="#231f20"/></svg>