<svg width="107" height="40" viewBox="0 0 107 40" xmlns="http://www.w3.org/2000/svg"><title>logo kakadu</title><g fill="#B1200A"><path d="M15.79 24.343l-4.559-7.346s-.603-.977-1.475-1.752c.804-.708 1.407-1.617 1.475-1.719l2.917-5.089s1.14-1.954-.839-1.954H11.9c-.234 0-1.24-.033-1.877 1.078l-2.046 3.707c-.033.068-1.307 2.057-3.017 2.09h-.871V1.665s0-1.517-1.475-1.517H1.508c-.201 0-1.509 0-1.509 1.483v23.185s-.034 1.517 1.442 1.517h1.14c.268 0 1.475-.067 1.475-1.483v-7.415h.972c1.543.034 2.85 1.651 2.984 1.854.771 1.247 3.352 7.044 5.531 7.044h1.408c1.977 0 .838-1.989.838-1.989m34.323-.001l-4.558-7.346s-.604-.977-1.476-1.752c.804-.708 1.408-1.617 1.476-1.719l2.916-5.089s1.14-1.954-.838-1.954h-1.408c-.235 0-1.241-.033-1.877 1.078l-2.046 3.707c-.033.068-1.308 2.057-3.017 2.09h-.871V1.665s0-1.517-1.476-1.517h-1.106c-.201 0-1.508 0-1.508 1.483v23.185s-.034 1.517 1.441 1.517h1.14c.268 0 1.475-.067 1.475-1.483v-7.415h.973c1.541.034 2.848 1.651 2.982 1.854.771 1.247 3.353 7.044 5.532 7.044h1.407c1.978 0 .838-1.989.838-1.989"/><path d="M61.977 20.905c-1.207 1.248-2.548 1.955-3.588 1.955-2.212 0-4.157-1.315-4.157-6.37 0-4.279 1.777-6.099 4.157-6.099 1.14 0 2.045.472 3.588 1.922v8.592zm3.989 4.112l-.034-12.773c0-1.584-2.179-3.302-2.179-3.302-1.174-1.011-3.218-2.291-5.565-2.291-3.554 0-8.013 2.46-8.013 9.976 0 7.279 4.426 9.974 7.879 9.974 1.374 0 2.749-.539 3.922-1.28.167 1.179 1.24.977 1.475.977h1.071c1.475 0 1.443-1.28 1.443-1.28zm13.811-4.011c-1.542 1.451-2.447 1.888-3.587 1.888-2.38 0-4.157-1.888-4.157-6.133 0-5.055 1.944-6.37 4.157-6.37 1.038 0 2.379.708 3.587 1.955v8.66zM82.291.45h-1.04c-.201 0-1.475 0-1.475 1.483v5.965c-1.173-.708-2.548-1.247-3.922-1.247-3.454 0-7.879 2.696-7.879 9.976 0 7.515 4.459 10.008 8.012 10.008 2.346 0 4.392-1.246 5.565-2.257 0 0 2.179-1.752 2.179-3.336l.034-19.075s0-1.516-1.475-1.516zm19.945 7.986s0-1.516-1.474-1.516h-1.039c-.202 0-1.475.034-1.509 1.483v8.425c0 4.28-1.744 6.1-4.123 6.1-1.173 0-2.079-.439-3.587-1.923v-3.907l.034-8.662s0-1.516-1.475-1.516h-1.106c-.201 0-1.509 0-1.509 1.483v12.434c0 1.484 2.078 3.405 2.246 3.54 1.173 1.011 3.218 2.29 5.599 2.29 3.453 0 7.911-2.359 7.911-9.569l.033-8.662zm-91.77 27.708l2.144-6.116 2.117 6.129-4.261-.012zm2.559-6.574c-.027-.08-.081-.134-.161-.134h-.522s-.107.013-.148.134L8.59 39.873h.456s.107 0 .161-.134l1.098-3.138 4.569-.014 1.072 3.152c.04.122.16.134.16.134h.456L13.024 29.57zm18.026 9.846c-1.515 0-3.203-1.939-3.203-5.01 0-3.031 1.716-4.553 3.203-4.553 1.487 0 3.203 1.522 3.203 4.553 0 3.07-1.689 5.01-3.203 5.01m0-10.074c-1.97 0-3.805 1.644-3.805 5.064 0 3.501 1.862 5.521 3.805 5.521 1.942 0 3.805-2.02 3.805-5.521 0-3.421-1.835-5.064-3.805-5.064m13.138.134l-.04-.054h-.51l-.053.054v9.279l-6.177-9.225-.134-.094h-.482l-.04.054v10.317l.04.066h.509l.041-.054.013-9.307 6.096 9.133c.147.202.335.228.335.228h.362l.027-.066.013-10.331zm3.143 6.668l2.144-6.116 2.116 6.129-4.26-.012zm2.559-6.574c-.027-.08-.081-.134-.161-.134h-.523s-.107.013-.147.134l-3.605 10.303h.456s.107 0 .161-.134l1.099-3.138 4.568-.014 1.072 3.152c.04.122.16.134.16.134h.455L49.89 29.57zm17.714 6.533h-1.581c-.576 0-.777-.741-.777-.741v-5.239c0-.202.241-.269.322-.256l1.889-.014c1.514 0 2.478 1.092 2.478 2.99 0 2.142-1.031 3.259-2.331 3.259m-.067-6.693h-1.995c-.041 0-.872-.026-.872.727v9.698l.041.04h.496l.04-.054-.013-3.718s.254.485.804.485h1.567c1.193 0 2.907-.835 2.907-3.744 0-2.8-1.702-3.434-2.974-3.434m4.941 6.735l2.144-6.115 2.116 6.129-4.26-.014zm2.56-6.573c-.027-.081-.08-.135-.16-.135h-.523s-.108.014-.148.135l-3.604 10.303h.456s.107 0 .161-.136l1.099-3.138 4.567-.014 1.073 3.152c.04.122.16.136.16.136h.455L75.04 29.571zm8.167 6.57H80.38v-5.953c0-.256.161-.296.269-.296h2.558c1.528-.014 2.453 1.077 2.453 3.246 0 2.384-1.046 3.004-2.453 3.004m3.471 3.69l-2.144-3.435c1.206-.647 1.689-1.576 1.689-3.287 0-2.774-1.689-3.663-2.947-3.663l-2.586-.014c-.041 0-.845-.068-.845.795l.014 9.604.039.04h.456l.04-.054-.014-3.233h2.976c.173 0 .347-.012.669-.054l1.956 3.085c.109.161.242.256.362.256h.348l-.013-.04m8.113.043l-2.813-4.39c-.041-.055-.764-1.065-1.286-1.065v-.04c.522 0 1.245-1.009 1.272-1.063l2.157-3.88h-.443s-.213 0-.308.176l-1.795 3.327s-.723 1.225-1.877 1.212h-1.004v-4.675l-.04-.053h-.523l-.04.053.014 10.345.026.054h.523l.04-.054v-5.065h1.032c1.206 0 1.836 1.091 1.836 1.091l2.451 3.838c.107.189.268.189.268.189h.509zm-70.495-.07l.04.069h.509l.04-.055V29.506l-.04-.069h-.509l-.04.055v10.313zm-1.281-10.368H15.27l-.054.038v.514l.054.039h3.562v9.778l.04.069h.509l.039-.055.003-9.791h3.592l.051-.026v-.526l-.051-.038m37.543 10.41v-.467l-.051-.033-4.89-.003c-.107 0-.282-.053-.282-.348l-.05-9.506-.028-.055h-.521l-.04.055.05 9.545c0 .579.335.836.817.836h4.944l.051-.023M7.487 29.476l-.039-.054h-.509l-.053.054v9.279L.71 29.53l-.135-.094H.094l-.041.054v10.317l.041.066h.509l.039-.054.013-9.307 6.097 9.133c.147.202.334.228.334.228h.361l.027-.066.013-10.331zm20.165-8.571c-1.206 1.248-2.547 1.955-3.586 1.955-2.213 0-4.157-1.315-4.157-6.37 0-4.279 1.777-6.099 4.157-6.099 1.139 0 2.044.472 3.586 1.922v8.592zm3.99 4.112l-.034-12.773c0-1.584-2.179-3.302-2.179-3.302-1.173-1.011-3.218-2.291-5.564-2.291-3.554 0-8.012 2.46-8.012 9.976 0 7.279 4.425 9.974 7.878 9.974 1.375 0 2.749-.539 3.921-1.28.168 1.179 1.241.977 1.476.977H30.2c1.476 0 1.442-1.28 1.442-1.28zm73.947-16.84a.457.457 0 0 0-.081-.285c-.054-.07-.118-.105-.192-.105h-.462l-.016.016v.733h.477c.182 0 .273-.119.273-.359m.252.005c0 .278-.077.466-.231.564l.189.58-.026.095h-.179l-.089-.068-.172-.544h-.493v.528l-.073.084h-.115l-.073-.079V7.696c0-.109.059-.165.178-.168h.588c.126 0 .236.053.331.158.112.123.168.288.168.496m.236.327c0-.819-.285-1.229-.855-1.229a.832.832 0 0 0-.64.29c-.21.225-.315.538-.315.939 0 .401.103.712.31.934.171.186.383.28.635.28s.455-.093.609-.28c.171-.211.257-.522.257-.934m.315 0c0 .45-.1.818-.299 1.102a1.045 1.045 0 0 1-.897.454c-.36 0-.66-.15-.897-.451-.238-.301-.357-.669-.357-1.105 0-.433.118-.799.354-1.1.236-.301.536-.451.9-.451.392 0 .694.151.908.453.192.278.289.644.289 1.097"/></g></svg>