<svg xmlns="http://www.w3.org/2000/svg" viewBox="0 -2 163.61949 49.999998" height="58.333" width="174.527"><defs><clipPath id="a"><path d="M0 0h841.89v595.276H0V0z"/></clipPath><clipPath id="b"><path d="M534.402 98.929h90.425v63.638h-90.425V98.929z"/></clipPath></defs><g clip-path="url(#a)" transform="matrix(1.34072 0 0 -1.34072 -755.236 193.686)"><path d="M621.558 127.975a.847.847 0 0 0-.453-.103c-.09 0-.22 0-.324.026l-.97 2.512h-3.73l-.932-2.499a1.246 1.246 0 0 0-.298-.039.974.974 0 0 0-.453.103l3.16 8.207c.117.04.246.052.376.052.129 0 .246-.013.362-.052l3.262-8.207zm-1.994 3.054l-1.463 3.762-.194.592-.194-.592-1.397-3.762h3.249zM627.967 133.928v-5.63a6.263 6.263 0 0 0-2.654-.554c-1.722 0-2.512.94-2.512 2.37v3.814a1.723 1.723 0 0 0 .725 0v-3.517c0-1.2.376-1.997 1.955-1.997.686 0 1.256.14 1.76.347v5.167a1.714 1.714 0 0 0 .726 0M629.61 128.504a.9.9 0 0 0 .414.528c.324-.27.868-.631 1.84-.631 1.217 0 1.722.502 1.722 1.147 0 .644-.402.966-1.71 1.172-1.216.18-2.11.58-2.11 1.688 0 1.018.907 1.726 2.305 1.726.984 0 1.709-.31 2.046-.554a.968.968 0 0 0-.311-.554c-.453.27-.997.464-1.8.464-.997 0-1.528-.386-1.528-1.005 0-.631.454-.89 1.528-1.07 1.41-.231 2.292-.643 2.292-1.79 0-1.134-.92-1.855-2.434-1.855-1.153 0-1.903.425-2.253.734M639.825 128.323a2.512 2.512 0 0 0-1.592-.554c-1.036 0-1.916.541-1.916 1.945v3.634h-1.062a1.157 1.157 0 0 0-.039.296c0 .103.013.193.04.284h1.061v1.65c.103.024.233.037.35.037.128 0 .245-.013.35-.038v-1.649h2.446a1.147 1.147 0 0 0 0-.58h-2.447v-3.453c0-1.185.608-1.495 1.268-1.495.544 0 .933.245 1.217.438a.79.79 0 0 0 .324-.515M644.434 133.31a4.1 4.1 0 0 1-1.14.141c-.647 0-1.23-.18-1.592-.413v-5.127a1.723 1.723 0 0 0-.725 0v5.45c.492.4 1.36.773 2.383.773.53 0 .906-.065 1.255-.194a.975.975 0 0 0-.181-.63M650.26 131.854v-3.543c-.634-.348-1.657-.554-2.486-.554-1.71 0-2.511.824-2.511 1.945 0 1.237 1.06 1.894 2.447 1.894.776 0 1.398-.18 1.85-.4v.632c0 1.12-.724 1.636-1.825 1.636-.802 0-1.385-.27-1.825-.592a.669.669 0 0 0-.363.477c.298.283 1.088.785 2.214.785 1.386 0 2.499-.644 2.499-2.28m-2.473-3.453c.75 0 1.36.142 1.774.309v1.804a4.079 4.079 0 0 1-1.851.438c-1.075 0-1.71-.438-1.71-1.198 0-.8.596-1.353 1.787-1.353M652.318 127.911v8.478a1.665 1.665 0 0 0 .712 0v-8.478a1.635 1.635 0 0 0-.712 0M655.05 135.77c0 .31.258.567.582.567.31 0 .557-.258.557-.567a.555.555 0 0 0-.557-.567.576.576 0 0 0-.583.567m.22-7.859v6.055c.117.04.246.052.363.052.116 0 .246-.013.35-.052v-6.055a1.511 1.511 0 0 0-.35-.039c-.117 0-.246.013-.363.04M662.675 131.854v-3.543c-.634-.348-1.657-.554-2.486-.554-1.71 0-2.511.824-2.511 1.945 0 1.237 1.06 1.894 2.447 1.894.776 0 1.398-.18 1.85-.4v.632c0 1.12-.724 1.636-1.824 1.636a2.99 2.99 0 0 1-1.826-.592.669.669 0 0 0-.363.477c.298.283 1.088.785 2.214.785 1.386 0 2.499-.644 2.499-2.28m-2.473-3.453c.75 0 1.36.142 1.774.309v1.804a4.079 4.079 0 0 1-1.851.438c-1.075 0-1.71-.438-1.71-1.198 0-.8.596-1.353 1.787-1.353M669.924 131.686v-3.775a1.713 1.713 0 0 0-.725 0v3.569c0 1.25-.57 1.984-1.955 1.984a3.639 3.639 0 0 1-1.864-.528v-5.025a1.722 1.722 0 0 0-.725 0v5.347c.544.425 1.515.876 2.68.876 1.812 0 2.59-1.095 2.59-2.448M622.182 123.778v-8.246c-.117-.025-.233-.051-.35-.051-.129 0-.233.026-.362.051v6.03l.052.876-.143-.373-2.667-5.734a1.66 1.66 0 0 0-.336-.038c-.09 0-.195.012-.324.038l-2.77 5.746-.143.335.04-.85v-6.03a1.571 1.571 0 0 0-.35-.051c-.117 0-.22.026-.35.051v8.233c.116.052.272.09.466.09a.917.917 0 0 0 .246-.038l3.081-6.352.156-.374.142.374 2.926 6.352c.077.012.142.025.26.025.128 0 .271-.025.426-.064M629.03 119.475v-3.543c-.634-.348-1.657-.554-2.486-.554-1.709 0-2.51.824-2.51 1.945 0 1.237 1.06 1.894 2.447 1.894.776 0 1.398-.18 1.85-.4v.632c0 1.12-.725 1.636-1.826 1.636-.802 0-1.385-.27-1.825-.592a.669.669 0 0 0-.363.477c.298.283 1.088.785 2.214.785 1.386 0 2.5-.644 2.5-2.28m-2.473-3.453c.75 0 1.36.142 1.774.309v1.804a4.079 4.079 0 0 1-1.851.438c-1.075 0-1.71-.438-1.71-1.198 0-.8.596-1.353 1.787-1.353M634.467 120.93a4.1 4.1 0 0 1-1.139.143c-.648 0-1.23-.181-1.593-.413v-5.127a1.723 1.723 0 0 0-.725 0v5.45c.492.399 1.36.773 2.383.773.53 0 .906-.065 1.255-.194a.98.98 0 0 0-.18-.631M635.75 123.391c0 .31.258.567.582.567.31 0 .557-.258.557-.567a.555.555 0 0 0-.557-.567.576.576 0 0 0-.583.567m.22-7.859v6.055c.117.04.246.052.363.052.116 0 .246-.013.35-.052v-6.055a1.511 1.511 0 0 0-.35-.039c-.117 0-.246.013-.363.04M644.112 119.307v-3.775a1.713 1.713 0 0 0-.725 0v3.57c0 1.25-.57 1.983-1.955 1.983a3.639 3.639 0 0 1-1.864-.528v-5.025a1.722 1.722 0 0 0-.725 0v5.347c.544.425 1.514.876 2.68.876 1.812 0 2.59-1.095 2.59-2.448M651.31 118.431h-4.764c.039-1.443.894-2.396 2.253-2.396 1.023 0 1.554.386 1.916.67a.82.82 0 0 0 .389-.49 3.452 3.452 0 0 0-2.305-.837c-1.748 0-2.99 1.16-2.99 3.17 0 1.944 1.307 3.207 2.887 3.207 1.488 0 2.64-1.03 2.654-2.82 0-.195-.013-.285-.04-.504m-.724.606c0 1.275-.764 2.074-1.89 2.074-1.204 0-2.007-.902-2.124-2.074h4.014zM662.081 121.382c0-1.623-1.113-2.757-3.224-2.757-.62 0-1.126.026-1.566.09v-3.182a1.115 1.115 0 0 0-.363-.052c-.129 0-.233.013-.349.052v8.129c.608.18 1.36.284 2.265.284 2.162 0 3.224-1.018 3.237-2.564m-.764 0c0 1.134-.803 1.907-2.486 1.907a8.15 8.15 0 0 1-1.54-.142v-3.788c.414-.077.92-.103 1.553-.09 1.748 0 2.473.837 2.473 2.113M668.088 119.475v-3.543c-.634-.348-1.657-.554-2.486-.554-1.709 0-2.51.824-2.51 1.945 0 1.237 1.06 1.894 2.446 1.894.776 0 1.398-.18 1.851-.4v.632c0 1.12-.725 1.636-1.826 1.636-.802 0-1.385-.27-1.825-.592a.669.669 0 0 0-.363.477c.298.283 1.088.785 2.214.785 1.386 0 2.5-.644 2.5-2.28m-2.474-3.453c.751 0 1.36.142 1.774.309v1.804a4.079 4.079 0 0 1-1.85.438c-1.076 0-1.71-.438-1.71-1.198 0-.8.595-1.353 1.786-1.353M673.525 120.93a4.1 4.1 0 0 1-1.139.143c-.648 0-1.23-.181-1.593-.413v-5.127a1.723 1.723 0 0 0-.725 0v5.45c.492.399 1.36.773 2.383.773.53 0 .906-.065 1.255-.194a.975.975 0 0 0-.18-.631M679.96 115.558a2.064 2.064 0 0 0-.505-.064c-.117 0-.22 0-.35.025l-2.602 2.822c-.26-.18-.531-.322-.79-.464v-2.345a1.569 1.569 0 0 0-.35-.038 1.79 1.79 0 0 0-.362.038v8.465c.117.026.246.039.363.039.116 0 .246-.013.349-.039v-5.373c1.205.632 2.434 1.727 3.082 2.938.116.026.246.039.375.039.117 0 .285-.026.389-.065-.596-1.121-1.515-2.074-2.486-2.809l2.887-3.169zM680.658 116.125a.9.9 0 0 0 .414.528c.324-.27.868-.631 1.84-.631 1.216 0 1.721.502 1.721 1.147 0 .644-.402.966-1.709 1.172-1.217.18-2.11.58-2.11 1.688 0 1.018.906 1.726 2.304 1.726.984 0 1.71-.31 2.046-.554a.962.962 0 0 0-.31-.554c-.454.27-.998.464-1.8.464-.998 0-1.529-.386-1.529-1.005 0-.631.454-.89 1.528-1.07 1.411-.231 2.292-.643 2.292-1.79 0-1.134-.92-1.855-2.434-1.855-1.153 0-1.903.425-2.253.734" fill="#181d63"/></g><g clip-path="url(#b)" transform="matrix(.94456 0 0 -.94456 -514.859 143.444)"><path d="M572.062 150.923c.266.824-.251 1.432-1.254.386-3.923-4.087-4.577-11.657-3.421-14.952.045-.128.208-.448.046-.551-.166-.107-.33.14-.543.505-.977 1.673-1.507 5.404-1.015 7.918.02.106.039.22.002.322-.085.23-.387.176-.5.02-3.109-4.341-2.944-12.34 1.75-17.171 2.457-2.531 4.505-4.386 6.572-6.751 1.474-1.686 2.888-3.472 3.929-5.465.797-1.528 1.338-3.19 1.414-4.921.035-.792-.087-1.558-.286-2.325-.04-.154-.047-.385.104-.467.604-.328 2.565 2.483 2.618 7.945.028 2.843-.786 5.654-1.888 8.26a31.591 31.591 0 0 1-3.888 6.714c-5.052 6.689-6.448 11.847-3.64 20.533" fill="#00b098"/><path d="M595.932 135.898c1.358.302 2.7.229 4.01-.208 2.435-.814 5.55-4.403 8.593-4.385 0 0 .781.068.24-.422-.543-.49-3.954-3.547-11.282-2.675-6.212.739-9.438-2.438-9.62-2.531-.222-.113-.49.039-.422.355.171.786 2.015 5.255-.096 11.15-2.863 7.999 3.342 11.283 3.59 11.146.247-.137-1.012-1.777 2.885-6.545 1.43-1.75 2.348-3.75 2.102-5.885" fill="#f04937"/><path d="M599.605 125.055c.046.264.01.51-.101.638-.151.17-1.835.19-2.324.183-.792-.013-1.433-.115-2.222-.196-1.559-.16-3.094-.523-4.513-1.2-2.824-1.35-4.796-3.42-5.792-6.415-.972-2.925-.614-11.067-4.843-12.048-1.131-.262-3.613.654-3.853.358-.239-.297 1.618-2.057 2.095-3.036.478-.978.655-3.213 1.108-3.221.349-.007.585 1.986 2.883 4.507 1.346 1.476 4.088 2.427 5.825 3.33.965.504 1.942.992 2.882 1.542a10.343 10.343 0 0 1 2.988 2.669c-.246-.192-.05-1.273.715-.971.388.153.667.642 1.041 1.357 1.08 2.065 3.436 8.62 4.111 12.503" fill="#9361a9"/><path d="M576.369 112.873c-.616 1.48-1.534 2.823-2.52 4.08-1.306 1.662-2.819 3.15-4.337 4.617-1.596 1.542-3.235 3.042-4.79 4.625-2.242 2.282-3.042 3.817-4.105 6.53-.359.913-.981 1.688-1.758 2.281-.444.34-.894.671-1.339 1.007-.251.19-.518.362-.743.578-.183.175-.421.198-.538-.028-.966-1.873.093-3.43.894-5.08.145-.298.27-.604.379-.917.739-2.12.181-7.056.186-8.198.018-3.747 2.651-6.69 3.297-7.33 1.303-1.29 2.635-2.059 2.974-1.716.168.17.062.58-.246 1.106a20.283 20.283 0 0 1 1.76-.49c1.806-.419 3.608-.913 5.339-1.577 2-.767 3.449-1.946 5.112-3.279.213-.17.706-.68.973-.622.652.143-.039 3.216-.538 4.413" fill="#485daa"/><path d="M581.78 146.78c1.47.684 4.667-5.126 1.976-6.879-2.691-1.753-.386-4.59 1.019-4.63 3.186-.09-1.135-3.232-.163-5.517 2.1-4.944-1.27-9.739-2.165-9.644.706 6.693-5.275 10.888-4.305 12.287.417.601 1.455.34 1.789.236a.14.14 0 0 1 .163.063c1.41 2.527-3.13 4.945-4.62 5.228-1.77.336-2.287 2.218-2.167 3.445.12 1.228 1.532 2.334 2.609.411.613-1.095 2.634-2.54 3.425-3.08a.35.35 0 0 1 .533.201c.552 1.985-4.035 5.58-4.952 6.773-1.243 1.618-.062 4.09 2.853 2.956 2.512-.976 1.9-7.109 3.149-7.014 1.574.12-1.232 4.19.856 5.163" fill="#fec553"/><path d="M566.316 147.2c.458-.22-.282-.473-.445-.541-.224-.093-3.06-1.507-4.321-5.3-.83-2.49-.445-4.427-.803-4.435-.504-.011-1.84 1.384-3.246 1.514-1.971.18-3.937-.745-5.226-2.091-1.676-1.75-.97 5.923 6.043 5.24 1.248 7.103 5.988 6.07 6.507 6.036.436-.028 1.058-.214 1.49-.422" fill="#00aae7"/><path d="M557.002 93.643l-1.435 3.708-.19.584-.19-.584-1.372-3.708h3.187zm1.956-3.01c-.127-.076-.267-.101-.445-.101-.089 0-.216 0-.317.025l-.953 2.476h-3.657l-.914-2.463a1.202 1.202 0 0 0-.292-.038.95.95 0 0 0-.445.1l3.1 8.09c.113.038.24.05.367.05s.241-.012.355-.05l3.201-8.09zM565.244 96.5v-5.55a6.118 6.118 0 0 0-2.604-.546c-1.688 0-2.463.928-2.463 2.337V96.5a1.716 1.716 0 0 0 .71 0v-3.467c0-1.181.369-1.968 1.919-1.968.672 0 1.232.139 1.727.342V96.5a1.714 1.714 0 0 0 .71 0M566.856 91.154a.89.89 0 0 0 .406.52c.318-.266.85-.622 1.804-.622 1.193 0 1.689.496 1.689 1.13 0 .636-.394.953-1.677 1.156-1.193.178-2.07.572-2.07 1.664 0 1.003.889 1.7 2.26 1.7.966 0 1.677-.303 2.007-.545a.945.945 0 0 0-.305-.546c-.444.267-.977.458-1.765.458-.978 0-1.498-.381-1.498-.991 0-.622.444-.876 1.498-1.054 1.385-.23 2.248-.635 2.248-1.765 0-1.118-.902-1.83-2.387-1.83-1.131 0-1.867.42-2.21.725M576.875 90.976a2.458 2.458 0 0 0-1.562-.546c-1.016 0-1.879.533-1.879 1.917v3.582h-1.042c-.025.1-.038.19-.038.292 0 .1.013.19.038.279h1.042v1.625c.101.026.228.038.342.038.127 0 .242-.012.344-.038V96.5h2.4c.025-.102.038-.191.038-.28 0-.101-.013-.19-.038-.291h-2.4v-3.404c0-1.168.596-1.473 1.244-1.473.533 0 .914.24 1.194.432a.785.785 0 0 0 .317-.508M581.395 95.89c-.317.09-.66.14-1.117.14-.635 0-1.207-.178-1.562-.407V90.57a1.73 1.73 0 0 0-.712 0v5.372c.483.394 1.334.762 2.337.762.521 0 .89-.064 1.232-.19a.966.966 0 0 0-.178-.623M584.684 91.052c.737 0 1.333.14 1.74.305v1.778a3.993 3.993 0 0 1-1.816.431c-1.054 0-1.676-.431-1.676-1.181 0-.787.584-1.333 1.752-1.333m2.426 3.403v-3.492c-.623-.343-1.626-.546-2.439-.546-1.676 0-2.463.813-2.463 1.917 0 1.22 1.041 1.867 2.4 1.867.762 0 1.371-.177 1.816-.394v.623c0 1.105-.71 1.613-1.79 1.613a2.924 2.924 0 0 1-1.79-.584.658.658 0 0 0-.357.47c.292.279 1.067.774 2.172.774 1.358 0 2.451-.635 2.451-2.248M589.129 90.57v8.356a1.602 1.602 0 0 0 .698 0v-8.357a1.623 1.623 0 0 0-.698 0M592.024 90.57v5.968c.115.038.24.05.356.05.114 0 .24-.012.343-.05V90.57a1.521 1.521 0 0 0-.343-.038c-.115 0-.241.013-.356.038m-.216 7.746c0 .304.254.558.572.558a.553.553 0 0 0 .546-.558.546.546 0 0 0-.546-.56.567.567 0 0 0-.572.56M596.862 91.052c.737 0 1.333.14 1.74.305v1.778a3.997 3.997 0 0 1-1.816.431c-1.054 0-1.676-.431-1.676-1.181 0-.787.584-1.333 1.752-1.333m2.426 3.403v-3.492c-.623-.343-1.626-.546-2.44-.546-1.675 0-2.462.813-2.462 1.917 0 1.22 1.04 1.867 2.4 1.867.762 0 1.37-.177 1.816-.394v.623c0 1.105-.711 1.613-1.791 1.613a2.924 2.924 0 0 1-1.79-.584.655.655 0 0 0-.356.47c.292.279 1.067.774 2.17.774 1.36 0 2.453-.635 2.453-2.248M606.398 94.29v-3.72a1.714 1.714 0 0 0-.71 0v3.517c0 1.232-.56 1.955-1.919 1.955a3.564 3.564 0 0 1-1.828-.52V90.57a1.73 1.73 0 0 0-.71 0v5.27c.532.42 1.484.864 2.628.864 1.777 0 2.54-1.08 2.54-2.413M552.634 86.22v-8.127c-.114-.025-.229-.051-.343-.051-.127 0-.228.026-.355.05v5.944l.05.863-.139-.368-2.616-5.651a1.68 1.68 0 0 0-.33-.038c-.089 0-.19.013-.318.038l-2.718 5.664-.139.33.038-.838v-5.943a1.517 1.517 0 0 0-.343-.051c-.114 0-.216.026-.343.05v8.116c.114.05.267.089.457.089a.85.85 0 0 0 .242-.04l3.022-6.26.152-.368.14.369 2.87 6.26c.076.013.14.026.254.026.127 0 .266-.026.42-.064M556.926 78.575c.737 0 1.333.14 1.74.305v1.777a3.98 3.98 0 0 1-1.816.432c-1.054 0-1.676-.432-1.676-1.18 0-.788.584-1.334 1.752-1.334m2.426 3.403v-3.492c-.623-.343-1.626-.546-2.44-.546-1.675 0-2.462.813-2.462 1.917 0 1.22 1.04 1.867 2.4 1.867.762 0 1.37-.177 1.816-.394v.623c0 1.105-.711 1.613-1.791 1.613a2.924 2.924 0 0 1-1.79-.584.658.658 0 0 0-.356.47c.292.28 1.067.774 2.17.774 1.36 0 2.453-.635 2.453-2.248M564.684 83.413c-.317.09-.66.14-1.117.14-.635 0-1.207-.177-1.562-.406v-5.055a1.73 1.73 0 0 0-.712 0v5.372c.483.394 1.334.762 2.337.762.521 0 .89-.064 1.232-.19a.966.966 0 0 0-.178-.623M566.157 78.093v5.968c.114.038.241.05.355.05.115 0 .242-.012.343-.05v-5.969a1.508 1.508 0 0 0-.343-.037c-.114 0-.24.012-.355.037m-.216 7.747c0 .304.254.558.571.558a.554.554 0 0 0 .547-.559.545.545 0 0 0-.547-.557.566.566 0 0 0-.57.557M574.145 81.813v-3.72a1.716 1.716 0 0 0-.711 0v3.517c0 1.231-.56 1.955-1.918 1.955a3.564 3.564 0 0 1-1.828-.52v-4.953a1.73 1.73 0 0 0-.712 0v5.27c.534.42 1.486.864 2.629.864 1.778 0 2.54-1.08 2.54-2.413M580.494 81.547c0 1.257-.75 2.045-1.854 2.045-1.181 0-1.968-.89-2.083-2.045h3.937zm.71-.597h-4.672c.038-1.422.876-2.362 2.21-2.362 1.003 0 1.524.38 1.879.66a.808.808 0 0 0 .38-.482 3.373 3.373 0 0 0-2.26-.826c-1.714 0-2.933 1.143-2.933 3.124 0 1.918 1.283 3.162 2.832 3.162 1.46 0 2.59-1.015 2.604-2.781 0-.19-.013-.28-.04-.495M591.02 83.858c0 1.118-.787 1.879-2.438 1.879-.546 0-1.054-.05-1.51-.14v-3.733c.405-.076.9-.101 1.522-.09 1.715 0 2.426.827 2.426 2.084m.75 0c0-1.6-1.093-2.718-3.163-2.718-.609 0-1.105.026-1.536.089v-3.136a1.1 1.1 0 0 0-.356-.051c-.127 0-.228.013-.343.05v8.014c.597.177 1.334.279 2.222.279 2.121 0 3.163-1.003 3.176-2.527M595.236 78.575c.737 0 1.333.14 1.74.305v1.777a3.98 3.98 0 0 1-1.816.432c-1.054 0-1.676-.432-1.676-1.18 0-.788.584-1.334 1.752-1.334m2.426 3.403v-3.492c-.623-.343-1.626-.546-2.439-.546-1.676 0-2.463.813-2.463 1.917 0 1.22 1.041 1.867 2.4 1.867.762 0 1.371-.177 1.816-.394v.623c0 1.105-.71 1.613-1.79 1.613a2.924 2.924 0 0 1-1.79-.584.655.655 0 0 0-.357.47c.292.28 1.067.774 2.171.774 1.36 0 2.452-.635 2.452-2.248M602.995 83.413c-.318.09-.66.14-1.118.14-.634 0-1.206-.177-1.561-.406v-5.055a1.73 1.73 0 0 0-.712 0v5.372c.483.394 1.334.762 2.337.762.52 0 .889-.064 1.232-.19a.966.966 0 0 0-.178-.623M609.306 78.118a2.04 2.04 0 0 0-.496-.063c-.114 0-.215 0-.342.025l-2.553 2.78c-.254-.177-.52-.316-.774-.456v-2.311a1.657 1.657 0 0 0-.699 0v8.343c.115.025.241.038.356.038.114 0 .241-.013.343-.038V81.14c1.181.623 2.387 1.702 3.022 2.896.114.025.241.038.368.038.115 0 .28-.025.381-.063-.584-1.105-1.486-2.045-2.438-2.77l2.832-3.123zM609.991 78.677a.89.89 0 0 0 .406.52c.318-.266.851-.621 1.804-.621 1.193 0 1.69.495 1.69 1.13 0 .635-.395.952-1.678 1.155-1.193.178-2.07.572-2.07 1.664 0 1.003.89 1.7 2.261 1.7.965 0 1.676-.303 2.006-.545a.943.943 0 0 0-.304-.545c-.445.266-.978.457-1.766.457-.977 0-1.498-.381-1.498-.991 0-.622.444-.876 1.498-1.054 1.385-.23 2.248-.635 2.248-1.765 0-1.118-.902-1.83-2.387-1.83-1.13 0-1.867.42-2.21.725" fill="#181d63"/></g></svg>
