<svg xmlns="http://www.w3.org/2000/svg" width="202.867" height="30"><path d="M24.895 25.178c.35-.088.785-.61.829-1.614.13-1.831.261-15.261.087-16.831-.436-3.227-1.57-3.14-2.224-3.227-.654-.087-1.613.829-1.918 2.835-.131 1.002-.262 3.968-.088 7.63.175 3.837.61 7.239.698 7.893.131 1.264.393 2.093.96 2.703.305.349 1.22.741 1.656.61z" fill="#fdb913"/><path d="M32.395 4.03c-.48-1.701-1.7-2.922-2.79-3.358-1.832-.698-5.974-.96-7.85-.262-1.7.654-2.572 2.05-3.051 3.489-.48 1.526-.742 5.93-.61 7.805.086 3.532.74 8.764 2.703 10.378.305.261-.044-.436-.131-1.134a3.816 3.816 0 0 1-.087-.698c-.044-.523-.131-1.046-.131-1.613-.087-1.134-.131-2.355-.087-3.663 0-2.572.174-5.45.61-8.154.087-.654.218-1.264.305-1.744.044-.218.087-.436.131-.61.392-2.05 3.27-1.832 4.186-1.919.872-.087 1.395-.13 1.657-.262.262-.13-.174-.392-1.265-.48-.523-.043-1.22-.13-2.049-.174-.785 0-1.788.044-2.703.61a2.861 2.861 0 0 0-1.09 1.178c-.262.48-.35 1.047-.436 1.57-.175 1.09-.262 2.224-.306 3.401-.087 1.831-.043 3.706.087 5.625.044.48-.043.698-.13.043-.175-1.395-.262-3.531-.131-5.93.218-3.4.13-5.712 2.66-6.627.61-.219 5.407-.742 7.412.959 1.047.915 2.18 1.831 2.05 7.63-.087 3.532-.96 8.416-1.657 8.852-.393.175-.393-.218-.305-.828.523-3.881 1.09-9.2.959-10.16-.349-2.834-1.352-3.052-1.919-3.14-.567-.087-1.526 0-1.744 1.788-.261 1.788.218 13.605.349 14.738.087.916.262 2.311.96 2.573 1.22.436 1.874-.523 2.267-1.134 1.09-1.7 1.831-4.36 2.31-7.456.48-4.23.262-9.593-.174-11.293z" fill="#fdb913"/><path d="M28.776 26.05c9.026-3.358 6.497-11.817 6.105-13.082-.218-.654 1.918-1.22 2.485-.392.96 1.352 1.657 4.535.393 7.98-2.137 5.668-9.68 5.755-8.983 5.494z" fill="#8baea1"/><path d="M28.82 26.922c11.119.392 14.564-7.936 14.956-9.68.218-.96 2.921.174 2.965 1.57.087 2.31-6.105 11.206-17.921 8.11z" fill="#8baea1"/><path d="M28.95 27.75c10.16 1.657 17.137-2.136 20.19-3.183.871-.305 2.485 2.18 1.351 2.834-1.657 1.003-10.945 5.102-21.54.35zM22.148 26.05c-9.026-3.358-6.627-11.817-6.235-13.082.218-.654-1.919-1.22-2.485-.392-.96 1.352-1.527 4.535-.262 7.98 2.093 5.668 9.636 5.755 8.982 5.494z" fill="#8baea1"/><path d="M22.105 26.922c-11.12.392-14.564-7.936-14.956-9.68-.218-.96-2.922.174-2.966 1.57-.13 2.31 6.061 11.206 17.922 8.11z" fill="#8baea1"/><path d="M21.93 27.75c-10.16 1.657-17.136-2.136-20.188-3.183-.872-.305-2.486 2.18-1.352 2.834 1.7 1.003 10.988 5.102 21.54.35z" fill="#8baea1"/><g fill="#7c6a55" stroke="#7c6a55" stroke-width="1.106"><path d="M59.56 16.806c.306-.044.742-.088 1.309-.131.567-.044 1.133-.044 1.7-.044.698 0 1.352.044 1.919.175.567.087 1.09.261 1.482.523.393.261.742.567.96.915.218.393.349.829.349 1.396 0 .349-.044.654-.175.915-.13.306-.262.524-.48.742a4.403 4.403 0 0 1-.697.567c-.262.13-.523.261-.785.305a4.6 4.6 0 0 1 1.046.261c.35.131.654.306.96.567.305.218.523.524.697.916.175.349.262.785.262 1.308 0 .61-.13 1.134-.436 1.57-.305.436-.654.785-1.177 1.046-.48.262-1.047.48-1.744.567-.655.131-1.352.175-2.137.175-.48 0-1.003 0-1.526-.044-.567-.044-1.09-.087-1.57-.13v-11.6zm3.227 4.84c.829 0 1.483-.175 1.919-.48.436-.305.654-.785.654-1.439 0-.61-.218-1.09-.698-1.352-.48-.305-1.133-.436-1.918-.436h-.698c-.218 0-.436.044-.567.044v3.663h1.308zm-1.351 5.494c.174 0 .392.043.654.043h.785c.436 0 .872-.043 1.264-.087a2.7 2.7 0 0 0 1.047-.349c.305-.174.523-.349.697-.61.175-.262.262-.61.262-1.003 0-.393-.087-.741-.262-1.003a2.336 2.336 0 0 0-.654-.654 2.281 2.281 0 0 0-1.003-.349c-.392-.087-.785-.087-1.22-.087h-1.57v4.099zM74.778 28.579c-.959 0-1.787-.131-2.485-.436-.698-.306-1.308-.698-1.744-1.221-.48-.524-.829-1.178-1.047-1.875a8.382 8.382 0 0 1-.348-2.399c0-.872.13-1.656.348-2.398a4.652 4.652 0 0 1 1.047-1.875 5.137 5.137 0 0 1 1.744-1.264c.698-.305 1.526-.436 2.485-.436.96 0 1.788.13 2.486.436.698.305 1.308.697 1.744 1.264.48.524.785 1.178 1.047 1.875.218.742.348 1.526.348 2.398 0 .873-.13 1.657-.348 2.399a4.652 4.652 0 0 1-1.047 1.875c-.48.523-1.046.959-1.744 1.22-.698.306-1.526.437-2.486.437zm0-1.396c.61 0 1.134-.087 1.614-.305a3.29 3.29 0 0 0 1.133-.916c.306-.392.524-.872.655-1.439a8.3 8.3 0 0 0 .218-1.918c0-.698-.088-1.308-.218-1.875-.131-.567-.35-1.047-.655-1.439a2.932 2.932 0 0 0-1.133-.916c-.436-.218-1.003-.305-1.614-.305-.61 0-1.133.087-1.613.305a3.29 3.29 0 0 0-1.134.916c-.305.392-.523.872-.654 1.439a8.199 8.199 0 0 0-.218 1.875c0 .698.088 1.352.218 1.918.131.567.35 1.047.654 1.44.306.392.654.697 1.134.915a4.43 4.43 0 0 0 1.613.305zM83.804 18.244H80.36c-.044-.087-.044-.218-.044-.348v-.393-.349c0-.13.044-.218.044-.348h8.808c.043.087.043.218.043.348v.742c0 .13-.043.261-.043.348h-3.445v10.16c-.305.044-.61.044-.916.044-.348 0-.654 0-.959-.044v-10.16zM95.708 25.7H90.65l-.915 2.66c-.175 0-.306.044-.48.044H88.252c-.174 0-.305-.043-.436-.043l4.317-11.6c.174 0 .349-.043.523-.043H93.746c.175 0 .349.044.523.044l4.317 11.599c-.13 0-.305.043-.48.043H97.104c-.174 0-.305-.043-.479-.043l-.916-2.66zm-4.578-1.395h4.055l-2.05-5.93-2.005 5.93zM99.633 16.806c.13 0 .261-.044.436-.044h.872c.174 0 .305.044.436.044l5.8 8.72v-8.72c.13 0 .304-.044.479-.044H108.572c.13 0 .305.044.436.044v11.598c-.131 0-.262.044-.436.044h-.872c-.175 0-.306-.044-.437-.044l-5.799-8.633v8.633c-.13 0-.261.044-.436.044H100.112c-.174 0-.305-.044-.436-.044V16.806zM111.319 16.806c.13 0 .305-.044.48-.044h.959c.174 0 .305.044.48.044v11.598c-.132 0-.306.044-.437.044h-.96c-.174 0-.304-.044-.435-.044V16.806zM124.051 26.704c.262.48.436.915.523 1.351-.523.175-1.046.35-1.613.436-.523.088-1.134.131-1.744.131-.96 0-1.832-.13-2.616-.392-.785-.262-1.44-.654-1.963-1.177-.523-.524-.959-1.134-1.22-1.875-.306-.742-.437-1.57-.437-2.486 0-.916.131-1.744.436-2.485.306-.742.698-1.396 1.221-1.919.524-.523 1.178-.916 1.963-1.22.784-.306 1.613-.437 2.572-.437.698 0 1.308.044 1.832.13.523.088.959.175 1.351.306-.043.262-.087.48-.174.698a4.4 4.4 0 0 1-.305.654l-.524-.13c-.174-.045-.348-.088-.566-.132-.219-.043-.437-.043-.655-.087-.261 0-.523-.044-.828-.044-1.352 0-2.398.393-3.14 1.178-.74.785-1.133 1.918-1.133 3.444 0 .785.087 1.44.305 1.963a4.47 4.47 0 0 0 .872 1.395c.393.349.829.654 1.395.828.524.175 1.134.262 1.788.262.523 0 1.003-.043 1.396-.13.523 0 .915-.132 1.264-.262zM137.263 22.387c.13 0 .305-.044.48-.044h.959c.174 0 .305.044.436.044v5.668a10.98 10.98 0 0 1-.872.262c-.305.087-.61.13-.96.174-.348.044-.653.088-1.002.088-.35 0-.654.043-.96.043-1.002 0-1.874-.13-2.66-.392a5.428 5.428 0 0 1-2.005-1.177 5.688 5.688 0 0 1-1.265-1.875c-.305-.742-.436-1.57-.436-2.486 0-.916.131-1.744.436-2.485a5.882 5.882 0 0 1 1.265-1.919c.567-.523 1.22-.916 1.962-1.22.741-.306 1.613-.437 2.53-.437.697 0 1.307.044 1.83.13.524.088 1.003.175 1.396.35-.044.261-.087.48-.175.697a4.4 4.4 0 0 1-.305.655c-.349-.088-.741-.175-1.134-.262-.392-.087-.915-.13-1.526-.13-.654 0-1.264.086-1.787.304-.524.218-1.003.524-1.352.916-.393.392-.654.872-.872 1.439-.218.567-.306 1.22-.306 1.962 0 .785.088 1.439.306 1.962.218.567.523 1.003.915 1.396a4.09 4.09 0 0 0 1.396.828c.523.175 1.133.262 1.787.262.393 0 .742 0 1.047-.044.305-.043.567-.087.741-.13v-4.58zM148.164 25.7h-5.058l-.916 2.66c-.174 0-.305.044-.48.044h-1.002c-.175 0-.305-.043-.436-.043l4.317-11.6c.174 0 .348-.043.523-.043H146.202c.174 0 .349.044.523.044l4.317 11.599c-.13 0-.305.043-.48.043H149.56c-.174 0-.305-.043-.48-.043l-.915-2.66zm-4.535-1.395h4.055l-2.049-5.93-2.006 5.93zM152.132 16.806c.262 0 .523-.044.741-.044.218 0 .436-.044.654-.044.218 0 .436-.043.698-.043h.785c.61 0 1.264.043 1.875.174.61.087 1.177.305 1.657.567.48.262.872.61 1.177 1.09.305.436.436 1.047.436 1.744 0 .436-.087.785-.261 1.134-.175.349-.35.654-.61.916-.263.261-.524.523-.83.697-.305.218-.61.35-.915.48l-.218.087 3.88 4.884c-.348.043-.697.043-1.133.043-.349 0-.654 0-1.003-.043l-4.273-5.363v-.044l.13-.044c.35-.087.698-.174 1.047-.305.393-.13.698-.305 1.047-.523.305-.218.567-.48.785-.741.218-.306.305-.654.305-1.09 0-.785-.262-1.352-.785-1.745-.523-.392-1.221-.567-2.137-.567h-.567c-.174 0-.392.044-.61.044v10.334c-.13 0-.305 0-.436.044h-.96c-.174 0-.348 0-.479-.044V16.806zM162.292 16.806c.436-.044.915-.088 1.526-.131.61-.044 1.177-.044 1.744-.044 2.355 0 4.099.523 5.233 1.526 1.133 1.047 1.744 2.53 1.744 4.448 0 2.006-.61 3.532-1.788 4.491-1.177.96-2.921 1.483-5.276 1.483-.567 0-1.134 0-1.744-.044a63.943 63.943 0 0 1-1.483-.13v-11.6zm1.875 10.247c.174 0 .392.043.654.043.261 0 .523.044.785.044a9.42 9.42 0 0 0 2.005-.218c.61-.131 1.134-.393 1.527-.742a3.29 3.29 0 0 0 1.003-1.395c.218-.567.348-1.308.348-2.18 0-.785-.13-1.483-.348-2.05a3.29 3.29 0 0 0-1.003-1.395 4.22 4.22 0 0 0-1.527-.785 7.114 7.114 0 0 0-1.962-.261h-.785c-.261 0-.523.043-.74.043v8.896zM174.283 16.806h7.325c.044.218.044.436.044.697v.393c0 .13 0 .261-.044.348h-5.45v3.314h4.317c.043.088.043.218.043.35v.74c0 .131-.043.262-.043.35h-4.317v3.967h5.581c.044.218.044.436.044.698v.349c0 .13 0 .261-.044.349h-7.456V16.806zM183.309 16.806c.13 0 .262-.044.436-.044h.872c.174 0 .305.044.436.044l5.8 8.72v-8.72c.13 0 .305-.044.48-.044h.915c.13 0 .305.044.436.044v11.598c-.131 0-.262.044-.436.044h-.872c-.175 0-.306-.044-.436-.044l-5.8-8.633v8.633c-.13 0-.261.044-.436.044H183.788c-.174 0-.305-.044-.435-.044V16.806zM194.646 26.616c.392.131.828.262 1.265.35.436.087 1.002.13 1.613.13 1.003 0 1.788-.174 2.267-.523.48-.349.742-.829.742-1.44 0-.304-.044-.566-.175-.784-.087-.218-.261-.392-.48-.567-.218-.174-.48-.305-.784-.436-.306-.13-.698-.261-1.09-.436l-1.047-.392c-.349-.131-.698-.262-1.003-.436-.305-.175-.567-.35-.785-.567a2.474 2.474 0 0 1-.523-.785c-.13-.305-.174-.654-.174-1.047 0-.959.392-1.744 1.133-2.31.785-.567 1.832-.83 3.227-.83.61 0 1.134.045 1.7.132.524.087 1.003.174 1.396.305-.044.436-.218.916-.393 1.352-.348-.088-.74-.218-1.177-.306a7.496 7.496 0 0 0-1.482-.13c-.785 0-1.396.13-1.788.392-.436.262-.61.698-.61 1.221 0 .218.043.436.174.61.087.175.261.35.436.48.174.13.392.262.61.349.218.087.48.218.742.305l1.046.349c.48.174.916.349 1.308.523.393.175.698.393 1.003.654.262.262.48.567.61.916.131.349.219.741.219 1.22 0 1.091-.436 1.963-1.309 2.617-.872.654-2.093.96-3.706.96-.392 0-.741 0-1.046-.044-.306 0-.61-.044-.872-.087a5.07 5.07 0 0 1-.785-.175c-.262-.043-.48-.13-.742-.218.044-.218.088-.48.175-.741.087-.13.174-.349.305-.61z" stroke-width=".48226024"/></g><g><g fill="#7c6a55"><path d="M65.186 9.262h-3.968l-.698 2.093c-.13 0-.262.044-.393.044h-.784c-.131 0-.262 0-.35-.044l3.402-9.113c.13 0 .262-.044.392-.044h.872c.131 0 .306 0 .436.044l3.402 9.113c-.131 0-.262.044-.393.044H66.276c-.131 0-.262 0-.393-.044l-.697-2.093zM61.61 8.128h3.183L63.18 3.506l-1.57 4.622zM68.456 2.285c.218-.043.48-.043.741-.043.262 0 .523 0 .741.043v5.146c0 .523.044.959.131 1.351.087.393.218.654.393.916.174.218.392.393.697.523.306.131.654.175 1.047.175.436 0 .785-.044 1.046-.175.262-.13.524-.261.698-.523.174-.218.305-.523.392-.916.088-.392.131-.828.131-1.351V2.285c.262-.043.48-.043.741-.043.262 0 .524 0 .742.043v5.407c0 .61-.087 1.134-.218 1.614-.131.48-.35.872-.654 1.22-.306.35-.698.567-1.178.742-.48.174-1.046.261-1.744.261-.697 0-1.264-.087-1.744-.261a3.201 3.201 0 0 1-1.177-.741 3.007 3.007 0 0 1-.654-1.221 6.272 6.272 0 0 1-.218-1.614V2.285zM77.656 10.003c.306.088.654.175 1.003.262.349.087.785.13 1.265.13.785 0 1.395-.13 1.787-.435.393-.262.61-.654.61-1.134 0-.218-.043-.436-.13-.61a1.237 1.237 0 0 0-.392-.436c-.175-.131-.393-.219-.61-.35-.262-.087-.524-.217-.873-.348l-.828-.305c-.262-.088-.524-.218-.785-.35-.218-.13-.436-.26-.61-.435a1.829 1.829 0 0 1-.393-.61c-.087-.219-.13-.524-.13-.83 0-.784.304-1.35.915-1.787.61-.436 1.439-.654 2.529-.654.48 0 .916.044 1.308.087.436.087.785.131 1.09.262-.044.349-.174.697-.305 1.046a4.712 4.712 0 0 0-.916-.218c-.349-.087-.741-.087-1.177-.087-.61 0-1.09.087-1.396.305-.348.218-.48.524-.48.96 0 .174.044.348.132.48.087.13.174.26.348.348.131.087.306.218.48.305.175.088.393.175.567.218l.828.262c.393.13.742.262 1.047.436.305.13.567.305.785.523.218.218.392.436.48.698.13.262.174.567.174.96 0 .871-.349 1.569-1.047 2.049-.697.523-1.657.74-2.877.74-.306 0-.567 0-.829-.043-.262 0-.48-.043-.698-.087-.218-.044-.392-.087-.61-.13-.174-.044-.393-.088-.61-.175 0-.175.043-.393.13-.567.087-.13.175-.305.218-.48zM87.25 3.42h-2.704c0-.088-.044-.175-.044-.263v-.305-.305c0-.087.044-.174.044-.262h6.933c0 .088.043.175.043.262v.567c0 .087-.043.218-.043.305h-2.704v7.98c-.218.043-.48.043-.74.043-.263 0-.524 0-.742-.043v-7.98zM92.656 2.242c.218 0 .393-.044.567-.044.174 0 .349-.043.523-.043.175 0 .349-.044.523-.044h.61c.48 0 1.004.044 1.483.13.48.088.916.219 1.309.437.392.218.697.48.915.872.218.349.35.828.35 1.352 0 .348-.045.61-.175.915a4.32 4.32 0 0 1-.48.742c-.174.218-.436.392-.654.566-.262.175-.48.306-.741.393l-.175.087 3.053 3.837c-.262.044-.567.044-.873.044-.261 0-.523 0-.784-.044l-3.358-4.23V7.17l.13-.044c.263-.043.524-.13.83-.261.305-.087.566-.218.828-.393.261-.174.436-.348.61-.61.175-.218.262-.523.262-.829 0-.61-.218-1.046-.61-1.351-.393-.306-.96-.436-1.657-.436h-.48c-.13 0-.305 0-.48.043v8.11c-.087 0-.218 0-.349.044h-.784c-.131 0-.262 0-.393-.043V2.242zM106.043 9.262h-3.968l-.698 2.093c-.13 0-.262.044-.393.044h-.784c-.131 0-.262 0-.35-.044l3.402-9.113c.13 0 .262-.044.392-.044h.872c.131 0 .306 0 .436.044l3.402 9.113c-.131 0-.262.044-.393.044H107.133c-.131 0-.262 0-.393-.044l-.697-2.093zm-3.576-1.134h3.183l-1.613-4.622-1.57 4.622zM109.444 2.285c.087 0 .218-.043.349-.043h.784c.131 0 .262 0 .35.043v7.936h4.098c0 .088.044.175.044.306v.261c0 .218 0 .393-.044.567h-5.581v-9.07zM116.202 2.285c.131 0 .218-.043.35-.043h.784c.13 0 .262 0 .349.043V11.4c-.131 0-.218.043-.349.043h-.785c-.13 0-.261 0-.349-.043V2.285zM124.967 9.262h-3.968l-.698 2.093c-.13 0-.262.044-.392.044h-.785c-.131 0-.262 0-.35-.044l3.402-9.113c.13 0 .262-.044.392-.044h.873c.13 0 .305 0 .436.044l3.4 9.113c-.13 0-.26.044-.392.044H126.057c-.131 0-.262 0-.393-.044l-.697-2.093zm-3.576-1.134h3.183l-1.613-4.622-1.57 4.622zM128.368 2.285c.087 0 .218-.043.349-.043h.698c.13 0 .217 0 .348.043l4.535 6.846V2.285c.13 0 .218-.043.349-.043h.742c.13 0 .217 0 .348.043V11.4c-.087 0-.218.043-.349.043h-.698c-.13 0-.218 0-.348-.043l-4.579-6.846v6.802c-.087 0-.218.044-.349.044h-.741c-.13 0-.218 0-.349-.044v-9.07zM140.839 2.285c.087 0 .218-.043.348-.043h.698c.13 0 .218 0 .349.043l4.535 6.846V2.285c.13 0 .218-.043.349-.043h.741c.13 0 .218 0 .349.043V11.4c-.088 0-.218.043-.35.043h-.697c-.13 0-.218 0-.349-.043l-4.578-6.846v6.802c-.087 0-.218.044-.349.044h-.741c-.131 0-.218 0-.349-.044v-9.07zM155.446 9.262h-3.968l-.698 2.093c-.13 0-.261.044-.392.044h-.785c-.13 0-.262 0-.349-.044l3.401-9.113c.131 0 .262-.044.393-.044h.872c.13 0 .305 0 .436.044l3.401 9.113c-.13 0-.262.044-.392.044h-.829c-.13 0-.262 0-.392-.044l-.698-2.093zm-3.576-1.134h3.184l-1.614-4.622-1.57 4.622zM159.676 3.42h-2.704c0-.088-.044-.175-.044-.263v-.305-.305c0-.087.044-.174.044-.262h6.933c0 .088.044.175.044.262v.567c0 .087-.044.218-.044.305h-2.703v7.98c-.218.043-.48.043-.742.043-.261 0-.523 0-.74-.043v-7.98zM165.126 2.285c.13 0 .218-.043.349-.043h.785c.13 0 .261 0 .349.043V11.4c-.131 0-.218.043-.35.043h-.784c-.13 0-.262 0-.349-.043V2.285zM172.757 11.53c-.741 0-1.396-.131-1.962-.35-.567-.217-1.003-.566-1.396-.959-.349-.436-.654-.915-.828-1.482a6.496 6.496 0 0 1-.262-1.875c0-.698.087-1.308.262-1.875.174-.567.436-1.09.828-1.483.35-.436.829-.741 1.396-.959a5.432 5.432 0 0 1 1.962-.349c.741 0 1.395.131 1.962.349.567.218 1.003.567 1.395.96.35.435.654.915.829 1.482.174.567.261 1.22.261 1.875 0 .697-.087 1.308-.261 1.875-.175.567-.436 1.09-.829 1.482-.349.436-.828.742-1.395.96a5.432 5.432 0 0 1-1.962.348zm0-1.134c.48 0 .915-.087 1.264-.262.35-.174.654-.392.872-.698.218-.305.393-.697.524-1.133.13-.436.174-.916.174-1.483 0-.567-.044-1.046-.174-1.482-.131-.436-.306-.829-.524-1.134-.218-.305-.523-.523-.872-.698-.349-.174-.785-.261-1.264-.261-.48 0-.916.087-1.265.261-.349.175-.654.393-.872.698-.218.305-.392.698-.523 1.134-.13.436-.174.959-.174 1.482 0 .567.043 1.047.174 1.483.13.436.305.828.523 1.133.218.306.523.567.872.698.35.175.785.262 1.265.262zM178.905 2.285c.087 0 .218-.043.349-.043h.697c.131 0 .218 0 .35.043l4.534 6.846V2.285c.13 0 .218-.043.349-.043h.742c.13 0 .217 0 .348.043V11.4c-.087 0-.218.043-.349.043h-.697c-.131 0-.218 0-.35-.043L180.3 4.553v6.802c-.087 0-.218.044-.349.044h-.741c-.13 0-.218 0-.349-.044v-9.07zM193.512 9.262h-3.968l-.697 2.093c-.131 0-.262.044-.393.044h-.785c-.13 0-.261 0-.348-.044l3.4-9.113c.131 0 .262-.044.393-.044h.872c.131 0 .305 0 .436.044l3.401 9.113c-.13 0-.261.044-.392.044h-.829c-.13 0-.261 0-.392-.044l-.698-2.093zm-3.575-1.134h3.183l-1.613-4.622-1.57 4.622zM196.87 2.285c.087 0 .218-.043.349-.043h.785c.13 0 .261 0 .348.043v7.936h4.1c0 .088.043.175.043.306v.261c0 .218 0 .393-.044.567h-5.581v-9.07z"/></g></g></svg>