<svg width="20" height="16" viewBox="0 0 20 16" xmlns="http://www.w3.org/2000/svg"><title>list</title><path d="M1.667 0c.458 0 .85.163 1.177.49.326.326.49.718.49 1.177 0 .458-.164.85-.49 1.177-.327.326-.719.49-1.177.49-.459 0-.851-.164-1.177-.49A1.605 1.605 0 0 1 0 1.667C0 1.208.163.816.49.49.816.163 1.208 0 1.667 0zm4.979 3.333a.618.618 0 0 1-.448-.198.665.665 0 0 1-.198-.49V.688c0-.194.063-.357.188-.49A.607.607 0 0 1 6.646 0h11.77c.223 0 .417.066.584.198a.667.667 0 0 1 .27.49c.056.652.056 1.305 0 1.958a.667.667 0 0 1-.27.49.912.912 0 0 1-.583.197H6.646zm-4.98 6c-.458 0-.85-.163-1.176-.49A1.605 1.605 0 0 1 0 7.668c0-.459.163-.851.49-1.177.326-.327.718-.49 1.177-.49.458 0 .85.163 1.177.49.326.326.49.718.49 1.177 0 .458-.164.85-.49 1.177-.327.326-.719.49-1.177.49zm16.75 0H6.647a.618.618 0 0 1-.448-.198.665.665 0 0 1-.198-.49V6.689c0-.195.063-.358.188-.49A.607.607 0 0 1 6.646 6h11.77c.223 0 .417.066.584.198a.667.667 0 0 1 .27.49c.056.652.056 1.305 0 1.958a.667.667 0 0 1-.27.49.912.912 0 0 1-.583.197zm-16.75 6c-.458 0-.85-.163-1.176-.49A1.605 1.605 0 0 1 0 13.668c0-.459.163-.851.49-1.177.326-.327.718-.49 1.177-.49.458 0 .85.163 1.177.49.326.326.49.718.49 1.177 0 .458-.164.85-.49 1.177-.327.326-.719.49-1.177.49zm16.75 0H6.647a.618.618 0 0 1-.448-.198.665.665 0 0 1-.198-.49v-1.957c0-.195.063-.358.188-.49A.607.607 0 0 1 6.646 12h11.77c.223 0 .417.066.584.198a.667.667 0 0 1 .27.49c.056.652.056 1.305 0 1.958a.667.667 0 0 1-.27.49.912.912 0 0 1-.583.197z" fill="#333" fill-rule="evenodd"/></svg>