<svg width="16" height="20" viewBox="0 0 16 20" xmlns="http://www.w3.org/2000/svg"><title>location</title><path d="M8 0c2.014 0 3.74.75 5.177 2.25 1.438 1.5 2.156 3.306 2.156 5.417 0 1.07-.215 2.205-.646 3.406-.43 1.201-.95 2.274-1.562 3.219a40.581 40.581 0 0 1-1.833 2.614c-.611.799-1.132 1.413-1.563 1.844l-.646.646c-.458.403-.836.6-1.135.594-.299-.007-.663-.205-1.094-.594a41.427 41.427 0 0 1-.667-.688c-.277-.291-.774-.882-1.49-1.77a25.094 25.094 0 0 1-1.885-2.667c-.541-.89-1.034-1.945-1.479-3.167C.89 9.882.667 8.736.667 7.667c0-2.111.718-3.917 2.156-5.417C4.26.75 5.986 0 8 0zm0 10.792c.958 0 1.778-.337 2.458-1.01a3.317 3.317 0 0 0 1.021-2.449c0-.958-.34-1.777-1.02-2.458-.681-.68-1.5-1.02-2.459-1.02-.958 0-1.774.34-2.448 1.02-.674.68-1.01 1.5-1.01 2.458 0 .959.336 1.775 1.01 2.448A3.334 3.334 0 0 0 8 10.791z" fill="#333" fill-rule="evenodd"/></svg>